<?xml version="1.0" encoding="utf-8"?><svg xmlns="http://www.w3.org/2000/svg" preserveAspectRatio="xMidYMid meet" width="2000" height="2000" viewBox="0 0 2000 2000"><defs><style>.cls-1{isolation:isolate;}.cls-2{fill:#663200;}.cls-3{fill:#cb3169;}.cls-4{fill:#01999b;}.cls-5{fill:#17d197;}.cls-6{fill:#9d620a;}.cls-7{fill:#ad017c;}.cls-8{fill:#2c231c;}.cls-9{fill:#5b3934;}.cls-10{fill:#000a0a;}.cls-11{fill:#da2607;}.cls-12{fill:#009be5;}.cls-13{fill:#0025d2;}.cls-14{fill:#0240ff;}.cls-15{fill:#6322fa;}.cls-16{fill:#006eff;}.cls-17{fill:#686010;}.cls-18{fill:#8c8119;}.cls-19{fill:#b8a973;}.cls-20{fill:#d3c48c;}.cls-21{mix-blend-mode:overlay;}.cls-22{fill:#99cdff;}.cls-23{fill:#34ce96;}.cls-24{fill:#fe6664;}.cls-25{fill:#e82e68;}.cls-26{fill:#629df5;}.cls-27{fill:#52fe83;}.cls-28{fill:#d3dce3;}.cls-29{fill:#a4c6cb;}.cls-30{fill:#fff5f5;}.cls-31{fill:#25d9f8;}.cls-32{fill:#ff641a;}.cls-33{fill:#ffda2d;}.cls-34{fill:#fdbf00;}.cls-35{fill:#9cdd05;}.cls-36{fill:#ff9100;}.cls-37{fill:#979fef;}.cls-38{fill:#737ee6;}.cls-39{fill:#47568c;}.cls-40{fill:#2c3b73;}</style></defs><g class="cls-1"><g id="Layer_14_copy" data-name="Layer 14 copy"><path class="cls-2" d="M422.731,668.62C479.3911,557.9872,594.5964,482.09,727.2,482.09c188.4822,0,341.8248,153.3426,341.8248,341.8248a339.8224,339.8224,0,0,1-55.4688,186.45S723.0086,855.0309,720.9162,855.07Z"/><path class="cls-3" d="M422.731,1352.1106c56.66,110.6311,171.8654,186.5286,304.4686,186.5286,188.4822,0,341.8248-153.3426,341.8248-341.8248a339.8177,339.8177,0,0,0-55.4688-186.45s-290.547,155.3315-292.6394,155.2963Z"/><path class="cls-4" d="M422.731,668.62c-2.09-.0394-4.1806-.0808-6.2813-.0808-188.4822,0-341.8248,153.3426-341.8248,341.8248L267.29,1031.0811l173.5538-20.7167Z"/><path class="cls-5" d="M440.8436,1010.3644H74.6249c0,188.4823,153.3426,341.8249,341.8248,341.8249,2.1007,0,4.191-.0435,6.2813-.0787Z"/><path class="cls-6" d="M720.9162,855.07C665.1552,746.19,552.6825,670.9759,422.731,668.62a341.261,341.261,0,0,0,18.1125,341.744Z"/><path class="cls-7" d="M440.8436,1010.3644a341.2648,341.2648,0,0,0-18.1126,341.7462c129.9515-2.3576,242.4243-77.5694,298.1852-186.45Z"/><path class="cls-8" d="M720.9162,855.07c-117.1444,2.1235-220.073,63.4634-280.0706,155.2941l152.3876,20.7167,165.0413-20.7167c0-30.5612,9.1257-88.4042,9.1257-88.4042S731.7344,876.1951,720.9162,855.07Z"/><path class="cls-9" d="M758.2745,1010.3644H440.8436c59.9975,91.8328,162.9282,153.1707,280.0705,155.2963,11.5661-22.5833,47.7457-71.7418,47.7457-71.7418s-10.3853-54.7418-10.3853-83.5545Z"/><path class="cls-10" d="M727.2,854.99c-2.1007,0-4.191.0415-6.2834.0808a339.7463,339.7463,0,0,1,37.3583,155.2941l95.2967,20.7167,159.9844-20.7167C952.4849,916.893,846.9439,854.99,727.2,854.99Z"/><path class="cls-8" d="M1013.5556,1010.3644H758.2745a339.7668,339.7668,0,0,1-37.3583,155.2963c2.0924.0373,4.1848.0787,6.2834.0787C846.9439,1165.7394,952.4849,1103.8359,1013.5556,1010.3644Z"/></g><g id="Layer_13_copy" data-name="Layer 13 copy"><path class="cls-11" d="M1585.0336,1336.8374l-234.6757-247.6288-353.391-92.5327a338.2449,338.2449,0,0,0-55.4833,185.7216c0,187.746,152.7436,342.5531,340.49,342.5531C1414.0955,1524.9506,1528.6114,1447.09,1585.0336,1336.8374Z"/><path class="cls-12" d="M1350.3559,966.05l234.6757-309.536c-56.42-110.2526-170.9361-188.1132-303.0584-188.1132-187.746,0-340.49,154.8072-340.49,342.5531a338.2449,338.2449,0,0,0,55.4833,185.7216Z"/><path class="cls-13" d="M1591.5091,1337.1655a19.0707,19.0707,0,0,1-6.1886-.6191l-142.3866-339.87,142.3866-339.87a19.0707,19.0707,0,0,1,6.1886-.6191c187.5809,0,340.49,152.9087,340.49,340.49S1779.09,1337.1655,1591.5091,1337.1655Z"/><path class="cls-14" d="M1591.5091,1337.1655a19.0707,19.0707,0,0,1-6.1886-.6191l-142.3866-339.87h489.0648C1931.9987,1184.2568,1779.09,1337.1655,1591.5091,1337.1655Z"/><path class="cls-15" d="M1622.4627,1182.3975A338.2448,338.2448,0,0,0,1566.98,996.6759l-278.5288,154.44c55.4875,108.4284,167.2175,183.27,296.583,185.7216A337.98,337.98,0,0,0,1622.4627,1182.3975Z"/><path class="cls-16" d="M1622.4627,810.9543a337.979,337.979,0,0,0-37.4291-154.44c-129.3654,2.4516-241.0954,77.2932-296.5829,185.7216l278.5288,154.44A338.2446,338.2446,0,0,0,1622.4627,810.9543Z"/><path class="cls-17" d="M1281.9732,1151.4439c-119.4809,0-224.1041-61.9072-284.771-154.768,60.6669-92.8608,165.29-154.768,284.771-154.768a19.0976,19.0976,0,0,1,6.1928.6191v308.2978A19.0976,19.0976,0,0,1,1281.9732,1151.4439Z"/><path class="cls-18" d="M1281.9732,1151.4439c-119.4809,0-224.1041-61.9072-284.771-154.768H1288.166v154.1489A19.0976,19.0976,0,0,1,1281.9732,1151.4439Z"/><path class="cls-19" d="M1288.166,1150.8248a338.4142,338.4142,0,0,1,0-308.2978,337.4017,337.4017,0,0,1,278.5823,154.1489A337.407,337.407,0,0,1,1288.166,1150.8248Z"/><path class="cls-20" d="M1288.166,1150.8248A339.2126,339.2126,0,0,1,1251.02,996.6759h315.7287A337.407,337.407,0,0,1,1288.166,1150.8248Z"/></g><g id="Layer_14" data-name="Layer 14"><g class="cls-21"><path class="cls-22" d="M660.8456,1590.2917c-110.6332-56.66-186.5307-171.8654-186.5307-304.4686,0-188.4822,153.3426-341.8248,341.8248-341.8248a339.8218,339.8218,0,0,1,186.45,55.4688s-155.3335,290.547-155.2941,292.6394Z"/><path class="cls-23" d="M1344.3357,1590.2917c110.6311-56.66,186.5287-171.8654,186.5287-304.4686,0-188.4822-153.3426-341.8248-341.8249-341.8248a339.8166,339.8166,0,0,0-186.45,55.4688s155.3314,290.547,155.2962,292.6394Z"/><path class="cls-24" d="M660.8456,1590.2917c-.0394,2.09-.0808,4.1806-.0808,6.2813,0,188.4822,153.3426,341.8248,341.8248,341.8248l20.7167-192.6649L1002.59,1572.1791Z"/><path class="cls-25" d="M1002.59,1572.1791v366.2187c188.4823,0,341.8249-153.3426,341.8249-341.8248,0-2.1007-.0435-4.191-.0788-6.2813Z"/><path class="cls-26" d="M847.2955,1292.1065c-108.8806,55.761-184.0944,168.2337-186.45,298.1852a341.261,341.261,0,0,0,341.744-18.1125Z"/><path class="cls-27" d="M1002.59,1572.1791a341.2646,341.2646,0,0,0,341.7461,18.1126c-2.3575-129.9515-77.5693-242.4243-186.45-298.1852Z"/><path class="cls-28" d="M847.2955,1292.1065c2.1234,117.1444,63.4634,220.073,155.2941,280.07l20.7167-152.3875L1002.59,1254.7481c-30.5612,0-88.4042-9.1256-88.4042-9.1256S868.42,1281.2883,847.2955,1292.1065Z"/><path class="cls-29" d="M1002.59,1254.7481v317.431c91.8328-59.9975,153.1707-162.9282,155.2962-280.0705-22.5832-11.5661-71.7418-47.7457-71.7418-47.7457s-54.7417,10.3853-83.5544,10.3853Z"/><path class="cls-30" d="M847.2147,1285.8231c0,2.1007.0414,4.191.0808,6.2834a339.746,339.746,0,0,1,155.2941-37.3584l20.7167-95.2966L1002.59,999.4671C909.1181,1060.5378,847.2147,1166.0788,847.2147,1285.8231Z"/><path class="cls-28" d="M1002.59,999.4671v255.281a339.7664,339.7664,0,0,1,155.2962,37.3584c.0373-2.0924.0787-4.1848.0787-6.2834C1157.9645,1166.0788,1096.0611,1060.5378,1002.59,999.4671Z"/></g></g><g id="Layer_13" data-name="Layer 13"><g class="cls-21"><path class="cls-31" d="M1330.4382,401.8505,1082.81,636.5262l-92.5327,353.391a338.2444,338.2444,0,0,0,185.7216,55.4833c187.7459,0,342.5531-152.7436,342.5531-340.49C1518.5515,572.7886,1440.6908,458.2727,1330.4382,401.8505Z"/><path class="cls-32" d="M959.6513,636.5282,650.1153,401.8525c-110.2526,56.42-188.1132,170.9361-188.1132,303.0584,0,187.746,154.8071,340.49,342.5531,340.49a338.2449,338.2449,0,0,0,185.7216-55.4833Z"/><path class="cls-33" d="M1330.7663,395.375a19.0736,19.0736,0,0,1-.619,6.1886L990.2768,543.95l-339.87-142.3865a19.0707,19.0707,0,0,1-.6191-6.1886c0-187.5809,152.9087-340.49,340.49-340.49S1330.7663,207.7941,1330.7663,395.375Z"/><path class="cls-34" d="M1330.7663,395.375a19.0736,19.0736,0,0,1-.619,6.1886L990.2768,543.95V54.8854C1177.8576,54.8854,1330.7663,207.7941,1330.7663,395.375Z"/><path class="cls-35" d="M1175.9984,364.4214a338.2443,338.2443,0,0,0-185.7216,55.4832l154.44,278.5288c108.4284-55.4875,183.27-167.2175,185.7215-296.583A337.98,337.98,0,0,0,1175.9984,364.4214Z"/><path class="cls-36" d="M804.5552,364.4214a337.979,337.979,0,0,0-154.44,37.4291c2.4515,129.3654,77.2932,241.0954,185.7216,296.5829l154.44-278.5288A338.2448,338.2448,0,0,0,804.5552,364.4214Z"/><path class="cls-37" d="M1145.0448,704.9109c0,119.4809-61.9072,224.1041-154.768,284.771-92.8608-60.6669-154.768-165.29-154.768-284.771a19.0976,19.0976,0,0,1,.6191-6.1928h308.2978A19.0976,19.0976,0,0,1,1145.0448,704.9109Z"/><path class="cls-38" d="M1145.0448,704.9109c0,119.4809-61.9072,224.1041-154.768,284.771V698.7181h154.1489A19.0976,19.0976,0,0,1,1145.0448,704.9109Z"/><path class="cls-39" d="M1144.4257,698.7181a338.4142,338.4142,0,0,1-308.2978,0A337.4015,337.4015,0,0,1,990.2768,420.1358,337.4072,337.4072,0,0,1,1144.4257,698.7181Z"/><path class="cls-40" d="M1144.4257,698.7181a339.2126,339.2126,0,0,1-154.1489,37.1464V420.1358A337.4072,337.4072,0,0,1,1144.4257,698.7181Z"/></g></g></g></svg>