<svg xmlns="http://www.w3.org/2000/svg" width="1688" height="2000" viewBox="0 0 1688 2000"><path d="M845.692,743.906l-373.855-4.625L172.814,949.175l672.878,565.369Z" fill="#ffd907"/><path d="M845.692,1510.726l674.455-561.551L1235.026,749.041l-389.334-4.749Z" fill="#ffa200"/><path d="M172.814,949.175V1863.9H846.481l42.293-220.528-42.293-223.549Z" fill="#ffff01"/><path d="M1520.147,949.175,846.481,1419.826V1863.9h673.666Z" fill="#ffd907"/><path d="M293.651,1652.438h90.628v90.627H293.651Z" fill="#60f"/><path d="M474.906,1652.438H698.455v90.627H474.906Z" fill="#60f"/><path d="M1292.668,681.367V807.881l172.619,121.164L837.048,1376.063,208.811,929.045,381.428,807.881V681.367L67.327,901.842V1947H1606.77V901.842ZM1503.22,1843.45H170.877V1029.143L837.048,1503.15l666.172-474.007Z" fill="#333"/><path d="M1230.218,62.434H429.886A110.042,110.042,0,0,0,319.963,172.357V758.632A110.041,110.041,0,0,0,429.886,868.548H683.528l84,168c14.633,29.265,37.414,46.054,62.523,46.054s47.891-16.789,62.523-46.054l84.005-167.994h253.642a110.041,110.041,0,0,0,109.915-109.924V172.357A110.04,110.04,0,0,0,1230.218,62.434Z" fill="#fff"/><path d="M1230.218,62.434H830.048V1082.6c25.109,0,47.891-16.789,62.523-46.054l84.005-167.994h253.642a110.041,110.041,0,0,0,109.915-109.924V172.357A110.04,110.04,0,0,0,1230.218,62.434Z" fill="#efefef"/><path d="M830.048,584.684A93.913,93.913,0,1,0,923.969,678.6,94.022,94.022,0,0,0,830.048,584.684Z" fill="#f06"/><path d="M830.048,190.488A94.02,94.02,0,0,0,736.135,284.4V422.5a93.917,93.917,0,0,0,187.834,0V284.4A94.025,94.025,0,0,0,830.048,190.488Z" fill="#f06"/><path d="M923.969,678.6a94.029,94.029,0,0,0-93.921-93.913V772.51A94.029,94.029,0,0,0,923.969,678.6Z" fill="#bf004d"/><path d="M923.969,422.5V284.4a94.025,94.025,0,0,0-93.921-93.909V516.409A94.029,94.029,0,0,0,923.969,422.5Z" fill="#bf004d"/><path d="M1255.361,43H401.6A117.389,117.389,0,0,0,284.335,160.262V785.679A117.387,117.387,0,0,0,401.6,902.933H672.173l89.605,179.219c15.609,31.219,39.92,49.128,66.7,49.128s51.088-17.909,66.7-49.128l89.614-179.219h270.575a117.386,117.386,0,0,0,117.254-117.254V160.262A117.387,117.387,0,0,0,1255.361,43Zm53.488,742.679a53.55,53.55,0,0,1-53.488,53.488H965.083a31.891,31.891,0,0,0-28.521,17.627L838.14,1053.64c-3.969,7.929-7.7,11.831-9.665,13.326-1.968-1.495-5.7-5.4-9.665-13.326L720.388,856.794a31.878,31.878,0,0,0-28.513-17.627H401.6a53.552,53.552,0,0,1-53.5-53.488V160.262a53.554,53.554,0,0,1,53.5-53.5h853.764a53.552,53.552,0,0,1,53.488,53.5Z" fill="#333"/></svg>