<svg xmlns="http://www.w3.org/2000/svg" width="1695" height="1896" viewBox="0 0 1695 1896"><path d="M667.05,1230.12v114.34a0,0,0,0,1-.06,0l-240.86-51a0,0,0,0,1,0,0l-10.66-118.18c0-8.36,9.25-18,17.62-18H594.23a22.65,22.65,0,0,1,9.42,2c2.45,1.12,3.31,14.78,5.25,16.72l32.3,38c1.95,1.94,22.69,4.18,23.8,6.62A22.65,22.65,0,0,1,667.05,1230.12Z" fill="#efefef"/><path d="M441.76,1157.3h-24a15.19,15.19,0,0,0-15.19,15.19v172a0,0,0,0,0,.05,0h24a0,0,0,0,0,0,0v-172A15.14,15.14,0,0,1,441.76,1157.3Z" fill="#b3b3b3"/><path d="M660.4,1214.06,610.29,1164a22.46,22.46,0,0,0-6.58-4.56s-.07,0-.07,0v46.09a15.18,15.18,0,0,0,15.18,15.18h46.09s.05,0,0-.07A22.62,22.62,0,0,0,660.4,1214.06Z" fill="#787878"/><path d="M695.48,1528.38h-297c-8.31,0-23.11-6.74-23.11-15.05l6.69-221.21c0-8.32,6.48-23.06,14.79-23.06h46.78a30.1,30.1,0,0,1,17.3,5.47L497.22,1300a30.1,30.1,0,0,0,17.3,5.47H695.43a15.09,15.09,0,0,1,15.1,15.09v192.78A15.05,15.05,0,0,1,695.48,1528.38Z" fill="#f60"/><path d="M390.11,1513.33V1284.11a15.05,15.05,0,0,1,15.05-15h-31a15.1,15.1,0,0,0-15.09,15.1v229.12a15.1,15.1,0,0,0,15.09,15.1h31A15.05,15.05,0,0,1,390.11,1513.33Z" fill="#bf4d00"/><path d="M602.7,1449.42H479.56c-5,0-11-4-11-9l-1.24-57.82c0-5,7.08-9,12-9H602.66a9.06,9.06,0,0,1,9.06,9.06v57.78A9,9,0,0,1,602.7,1449.42Z" fill="#dce6eb"/><path d="M476.4,1442.4v-61.8a7,7,0,0,1,7-7H464.93a7.07,7.07,0,0,0-7.07,7.07v61.71a7.07,7.07,0,0,0,7.07,7.07h18.49A7,7,0,0,1,476.4,1442.4Z" fill="#b3b3b3"/><path d="M514.15,1421.15h-6.47a10,10,0,0,1-10.1-9.4,9.66,9.66,0,0,1,9.65-9.91h6.48a10,10,0,0,1,10.1,9.4A9.66,9.66,0,0,1,514.15,1421.15Z" fill="#909ba6"/><path d="M562.34,1421.15h-6.47c-5.31,0-10-4.09-10.1-9.4a9.65,9.65,0,0,1,9.65-9.91h6.47a10,10,0,0,1,10.11,9.4A9.66,9.66,0,0,1,562.34,1421.15Z" fill="#909ba6"/><polygon points="774.09 1051.41 1044.18 781.32 371.91 781.32 101.82 1051.41 774.09 1051.41" fill="#06f"/><polygon points="774.09 1051.41 774.09 1723.68 1044.18 1453.59 1044.18 781.32 774.09 1051.41" fill="#003380"/><polygon points="774.09 1051.41 101.82 1051.41 101.82 1723.68 774.09 1051.41" fill="#99c2ff" opacity="0.5"/><polygon points="774.09 1051.41 101.82 1723.68 774.09 1723.68 774.09 1051.41" fill="#66a3ff" opacity="0.65"/><polygon points="1352.09 470.41 1622.18 200.32 949.91 200.32 679.82 470.41 1352.09 470.41" fill="#f60"/><polygon points="1352.09 470.41 1352.09 1142.68 1622.18 872.59 1622.18 200.32 1352.09 470.41" fill="#bf4d00"/><path d="M876,946.5a15.05,15.05,0,0,1-.94-5.22V712.15a15.1,15.1,0,0,1,15.09-15.09h28.39V600.49a15.19,15.19,0,0,1,15.19-15.19h176.51a22.65,22.65,0,0,1,9.42,2.05,1.06,1.06,0,0,1,.2.12,22.5,22.5,0,0,1,6.44,4.49l50.11,50.1a22.54,22.54,0,0,1,1.87,2.17l173.82-173.82H679.82V1051h91.67Z" fill="#ffa366" opacity="0.5"/><path d="M942.62,600.44v96.62h17a30.1,30.1,0,0,1,17.3,5.47L1013.22,728a30.1,30.1,0,0,0,17.3,5.47H1089l84.75-84.75h-39a15.18,15.18,0,0,1-15.18-15.18V587.44s0-.05.07,0l.14.07a1.06,1.06,0,0,0-.2-.12,22.65,22.65,0,0,0-9.42-2.05H957.76A15.14,15.14,0,0,0,942.62,600.44Z" fill="#efefef"/><path d="M942.62,600.44v96.62h17a30.1,30.1,0,0,1,17.3,5.47L1013.22,728a30.1,30.1,0,0,0,17.3,5.47H1089l84.75-84.75h-39a15.18,15.18,0,0,1-15.18-15.18V587.44s0-.05.07,0l.14.07a1.06,1.06,0,0,0-.2-.12,22.65,22.65,0,0,0-9.42-2.05H957.76A15.14,15.14,0,0,0,942.62,600.44Z" fill="#ff8533" opacity="0.5"/><path d="M942.62,697.06V600.44a15.14,15.14,0,0,1,15.14-15.14h-24a15.19,15.19,0,0,0-15.19,15.19v96.57Z" fill="#b3b3b3"/><path d="M942.62,697.06V600.44a15.14,15.14,0,0,1,15.14-15.14h-24a15.19,15.19,0,0,0-15.19,15.19v96.57Z" fill="#ff8533" opacity="0.5"/><path d="M1126.29,592a22.5,22.5,0,0,0-6.44-4.49l-.14-.07s-.07,0-.07,0v46.09a15.18,15.18,0,0,0,15.18,15.18h39l4.48-4.48a22.54,22.54,0,0,0-1.87-2.17Z" fill="#787878"/><path d="M1126.29,592a22.5,22.5,0,0,0-6.44-4.49l-.14-.07s-.07,0-.07,0v46.09a15.18,15.18,0,0,0,15.18,15.18h39l4.48-4.48a22.54,22.54,0,0,0-1.87-2.17Z" fill="#ff8533" opacity="0.5"/><path d="M921.16,697.06a15.05,15.05,0,0,0-15,15.05V916.39l67.75-67.75v-40a7.07,7.07,0,0,1,7.07-7.07h40L1089,733.46h-58.52a30.1,30.1,0,0,1-17.3-5.47L977,702.53a30.1,30.1,0,0,0-17.3-5.47H921.16Z" fill="#06f"/><path d="M921.16,697.06a15.05,15.05,0,0,0-15,15.05V916.39l67.75-67.75v-40a7.07,7.07,0,0,1,7.07-7.07h40L1089,733.46h-58.52a30.1,30.1,0,0,1-17.3-5.47L977,702.53a30.1,30.1,0,0,0-17.3-5.47H921.16Z" fill="#ff8533" opacity="0.5"/><path d="M906.11,916.39V712.11a15.05,15.05,0,0,1,15-15.05h-31a15.1,15.1,0,0,0-15.09,15.09V941.28a15.05,15.05,0,0,0,.94,5.22Z" fill="#003380"/><path d="M906.11,916.39V712.11a15.05,15.05,0,0,1,15-15.05h-31a15.1,15.1,0,0,0-15.09,15.09V941.28a15.05,15.05,0,0,0,.94,5.22Z" fill="#ff8533" opacity="0.5"/><path d="M992.4,808.6v21.5l28.53-28.53H999.42A7,7,0,0,0,992.4,808.6Z" fill="#dce6eb"/><path d="M992.4,808.6v21.5l28.53-28.53H999.42A7,7,0,0,0,992.4,808.6Z" fill="#ff8533" opacity="0.5"/><path d="M992.4,830.1V808.6a7,7,0,0,1,7-7H980.93a7.07,7.07,0,0,0-7.07,7.07v40Z" fill="#b3b3b3"/><path d="M992.4,830.1V808.6a7,7,0,0,1,7-7H980.93a7.07,7.07,0,0,0-7.07,7.07v40Z" fill="#ff8533" opacity="0.5"/><path d="M1352.09,470.41,1178.27,644.23a23.64,23.64,0,0,1,2.65,4.35.83.83,0,0,1,.08.12,22.65,22.65,0,0,1,2,9.42v75.34h28.38a15.09,15.09,0,0,1,15.1,15.09V941.33a15.05,15.05,0,0,1-15,15H890.14A15.09,15.09,0,0,1,876,946.5L771.49,1051h2v91.67h578.6Z" fill="#ff8533" opacity="0.65"/><path d="M1180.91,648.71h-7.12L1089,733.46h94V658.12a22.65,22.65,0,0,0-2-9.42.83.83,0,0,0-.08-.12l0,.06S1180.94,648.71,1180.91,648.71Z" fill="#efefef"/><path d="M1180.91,648.71h-7.12L1089,733.46h94V658.12a22.65,22.65,0,0,0-2-9.42.83.83,0,0,0-.08-.12l0,.06S1180.94,648.71,1180.91,648.71Z" fill="#f60" opacity="0.65"/><path d="M1173.79,648.71h7.12s0,0,0-.07l0-.06a23.64,23.64,0,0,0-2.65-4.35Z" fill="#787878"/><path d="M1173.79,648.71h7.12s0,0,0-.07l0-.06a23.64,23.64,0,0,0-2.65-4.35Z" fill="#f60" opacity="0.65"/><path d="M1020.93,801.57h97.73a9.06,9.06,0,0,1,9.06,9.06v57.78a9,9,0,0,1-9,9H980.93a7.07,7.07,0,0,1-7.07-7.07V848.64l-67.75,67.75v24.94a15.05,15.05,0,0,0,15,15h290.32a15.05,15.05,0,0,0,15-15V748.55a15.09,15.09,0,0,0-15.1-15.09H1089Z" fill="#06f"/><path d="M1020.93,801.57h97.73a9.06,9.06,0,0,1,9.06,9.06v57.78a9,9,0,0,1-9,9H980.93a7.07,7.07,0,0,1-7.07-7.07V848.64l-67.75,67.75v24.94a15.05,15.05,0,0,0,15,15h290.32a15.05,15.05,0,0,0,15-15V748.55a15.09,15.09,0,0,0-15.1-15.09H1089Z" fill="#f60" opacity="0.65"/><path d="M906.11,941.33V916.39L876,946.5a15.09,15.09,0,0,0,14.15,9.88h31A15.05,15.05,0,0,1,906.11,941.33Z" fill="#003380"/><path d="M906.11,941.33V916.39L876,946.5a15.09,15.09,0,0,0,14.15,9.88h31A15.05,15.05,0,0,1,906.11,941.33Z" fill="#f60" opacity="0.65"/><path d="M992.4,830.1v40.3a7,7,0,0,0,7,7H1118.7a9,9,0,0,0,9-9V810.63a9.06,9.06,0,0,0-9.06-9.06h-97.73Zm79-.26h6.47a10,10,0,0,1,10.11,9.4,9.66,9.66,0,0,1-9.66,9.91h-6.47c-5.31,0-10-4.09-10.1-9.4A9.65,9.65,0,0,1,1071.42,829.84Zm-48.19,0h6.48a10,10,0,0,1,10.1,9.4,9.66,9.66,0,0,1-9.66,9.91h-6.47a10,10,0,0,1-10.1-9.4A9.65,9.65,0,0,1,1023.23,829.84Z" fill="#dce6eb"/><path d="M992.4,830.1v40.3a7,7,0,0,0,7,7H1118.7a9,9,0,0,0,9-9V810.63a9.06,9.06,0,0,0-9.06-9.06h-97.73Zm79-.26h6.47a10,10,0,0,1,10.11,9.4,9.66,9.66,0,0,1-9.66,9.91h-6.47c-5.31,0-10-4.09-10.1-9.4A9.65,9.65,0,0,1,1071.42,829.84Zm-48.19,0h6.48a10,10,0,0,1,10.1,9.4,9.66,9.66,0,0,1-9.66,9.91h-6.47a10,10,0,0,1-10.1-9.4A9.65,9.65,0,0,1,1023.23,829.84Z" fill="#f60" opacity="0.65"/><path d="M992.4,870.4V830.1l-18.54,18.54v21.71a7.07,7.07,0,0,0,7.07,7.07h18.49A7,7,0,0,1,992.4,870.4Z" fill="#b3b3b3"/><path d="M992.4,870.4V830.1l-18.54,18.54v21.71a7.07,7.07,0,0,0,7.07,7.07h18.49A7,7,0,0,1,992.4,870.4Z" fill="#f60" opacity="0.65"/><path d="M1023.68,849.15h6.47a9.66,9.66,0,0,0,9.66-9.91,10,10,0,0,0-10.1-9.4h-6.48a9.65,9.65,0,0,0-9.65,9.91A10,10,0,0,0,1023.68,849.15Z" fill="#909ba6"/><path d="M1023.68,849.15h6.47a9.66,9.66,0,0,0,9.66-9.91,10,10,0,0,0-10.1-9.4h-6.48a9.65,9.65,0,0,0-9.65,9.91A10,10,0,0,0,1023.68,849.15Z" fill="#f60" opacity="0.65"/><path d="M1071.87,849.15h6.47a9.66,9.66,0,0,0,9.66-9.91,10,10,0,0,0-10.11-9.4h-6.47a9.65,9.65,0,0,0-9.65,9.91C1061.9,845.06,1066.56,849.15,1071.87,849.15Z" fill="#909ba6"/><path d="M1071.87,849.15h6.47a9.66,9.66,0,0,0,9.66-9.91,10,10,0,0,0-10.11-9.4h-6.47a9.65,9.65,0,0,0-9.65,9.91C1061.9,845.06,1066.56,849.15,1071.87,849.15Z" fill="#f60" opacity="0.65"/></svg>