<?xml version="1.0" encoding="utf-8"?><svg xmlns="http://www.w3.org/2000/svg" preserveAspectRatio="xMidYMid meet" xmlns:xlink="http://www.w3.org/1999/xlink" width="2000" height="2000" viewBox="0 0 2000 2000"><defs><style>.cls-1{fill:none;}.cls-2{fill:#f60;}.cls-3{fill:#6800b3;}.cls-4{fill:#80ccff;}.cls-5{fill:#2eff19;}.cls-6{fill:#ff270d;}.cls-7{fill:#ffe600;}.cls-8{fill:#06f;}.cls-9{fill:#b54dff;}.cls-10{fill:#ffac0d;}.cls-11{fill:#c0f;}.cls-12{fill:#bd4d15;}.cls-13{fill:#2af1fd;}.cls-14{clip-path:url(#clip-path);}.cls-15{fill:#333;}.cls-16{fill:#f5841e;}.cls-17{fill:#f8931d;}.cls-18{fill:#fba51a;}.cls-19{fill:#fcb712;}.cls-20{fill:#ffc607;}.cls-21{fill:#fed500;}.cls-22{fill:#ccc;}.cls-23{fill:#d6df22;}.cls-24{fill:#b3d236;}.cls-25{fill:#93ae29;}.cls-26{fill:#71a536;}.cls-27{fill:#4f9d3a;}.cls-28{fill:#02935a;}.cls-29{fill:#008582;}.cls-30{fill:#01729c;}.cls-31{fill:#006299;}.cls-32{fill:#004b91;}.cls-33{fill:#233984;}.cls-34{fill:#473a96;}.cls-35{fill:#5b2d90;}.cls-36{fill:#7a298f;}.cls-37{fill:#a5247e;}.cls-38{fill:#d22662;}.cls-39{fill:#ed2937;}.cls-40{fill:#f46f22;}.cls-41{fill:#151e26;}.cls-42{fill:#1c2631;}.cls-43{fill:#15212c;}.cls-44{fill:#fff;}</style><clipPath id="clip-path"><rect class="cls-1" x="85.4802" y="85.4802" width="1829.0397" height="1829.0395"/></clipPath></defs><g id="data"><circle class="cls-2" cx="663" cy="660" r="81"/><circle class="cls-3" cx="1003.4144" cy="519.1033" r="81"/><circle class="cls-4" cx="1336.4144" cy="660.1033" r="81"/><circle class="cls-5" cx="1476.4144" cy="1000.1033" r="81"/><circle class="cls-6" cx="1337.4144" cy="1338.1033" r="81"/><circle class="cls-7" cx="999.4144" cy="1477.1033" r="81"/><circle class="cls-8" cx="664" cy="1335" r="81"/><circle class="cls-9" cx="523" cy="1000" r="81"/></g><g id="cloud"><circle class="cls-10" cx="221.8904" cy="214.8416" r="144.5516"/><circle class="cls-11" cx="221.8677" cy="1780.8643" r="144.5516"/><circle class="cls-12" cx="1774.8677" cy="220.8643" r="144.5516"/><circle class="cls-13" cx="1785.8677" cy="1781.8643" r="144.5516"/></g><g id="aws"><g class="cls-14"><path class="cls-15" d="M1644.8436,354.9617c-172.27-172.27-401.3187-267.1466-644.9409-267.1466-243.6367,0-472.6851,94.8571-644.9554,267.1466C182.6723,527.232,87.8152,756.2658,87.8152,999.9025c0,243.6222,94.8571,472.6706,267.1321,644.9409,356.4537,356.4388,933.4037,356.4777,1289.8963,0,356.4389-356.4536,356.4972-933.3842,0-1289.8817ZM999.9027,1839.0231c-462.6934,0-839.12-376.4417-839.12-839.1206,0-462.6934,376.4271-839.12,839.1205-839.12,462.679,0,839.1205,376.427,839.1205,839.12,0,462.6789-376.4415,839.1206-839.1205,839.1206Zm0,0"/></g><path class="cls-15" d="M999.9027,343.2C637.787,343.2,343.2,637.7868,343.2,999.9025c0,362.1012,294.5873,656.7031,656.703,656.7031,362.1013,0,656.703-294.6019,656.703-656.7031,0-362.1157-294.6017-656.7029-656.703-656.7029Zm0,1240.439c-321.8866,0-583.736-261.8639-583.736-583.7361s261.8494-583.7359,583.736-583.7359c321.8722,0,583.736,261.8638,583.736,583.7359s-261.8638,583.7361-583.736,583.7361Zm0,0"/><path class="cls-15" d="M999.9027,598.5841c-221.2942,0-401.3185,180.0242-401.3185,401.3184,0,221.28,180.0243,401.3186,401.3185,401.3186,221.28,0,401.3185-180.0388,401.3185-401.3186,0-221.2942-180.0388-401.3184-401.3185-401.3184Zm0,729.67c-181.0652,0-328.3514-147.3009-328.3514-328.3516,0-181.0651,147.2862-328.3514,328.3514-328.3514,181.0506,0,328.3515,147.2863,328.3515,328.3514,0,181.0507-147.3009,328.3516-328.3515,328.3516Zm0,0"/><path class="cls-15" d="M999.9027,853.9685c-80.468,0-145.934,65.4661-145.934,145.934,0,80.4584,65.466,145.934,145.934,145.934,80.4583,0,145.934-65.4756,145.934-145.934,0-80.4679-65.4757-145.934-145.934-145.934Zm0,218.901a72.967,72.967,0,1,1,72.967-72.967,73.0467,73.0467,0,0,1-72.967,72.967Zm0,0"/></g><g id="wordpress"><path class="cls-15" d="M1477.2,880.7a119.4988,119.4988,0,0,0-116.9013,95.44h-74.9841a285.08,285.08,0,0,0-66.7856-160.9183l53.1028-53.1a119.3751,119.3751,0,1,0-33.7285-33.7666l-53.1251,53.1155A285.0507,285.0507,0,0,0,1023.86,714.6853V639.7012a119.3,119.3,0,1,0-47.72,0v74.9841A285.0785,285.0785,0,0,0,815.2217,781.471l-53.1123-53.1155a119.2607,119.2607,0,1,0-33.7413,33.7666l53.1125,53.1A285.023,285.023,0,0,0,714.6853,976.14H639.7012a119.3,119.3,0,1,0,0,47.72h74.9841a284.995,284.995,0,0,0,66.7953,160.9182l-53.1125,53.1a119.3659,119.3659,0,1,0,33.7286,33.7666l53.125-53.1251A284.9953,284.9953,0,0,0,976.14,1285.3146v74.9841a119.3,119.3,0,1,0,47.72,0v-74.9841a285.1149,285.1149,0,0,0,160.9182-66.7857l53.1123,53.1155a119.2781,119.2781,0,1,0,33.7413-33.7539l-53.1124-53.1123a284.9963,284.9963,0,0,0,66.7952-160.9182h74.9841A119.3052,119.3052,0,1,0,1477.2,880.7ZM1286.8163,611.9505a71.5827,71.5827,0,1,1,0,101.2332,71.5488,71.5488,0,0,1,0-101.2332ZM928.42,522.8A71.58,71.58,0,1,1,1000,594.38a71.6632,71.6632,0,0,1-71.58-71.58ZM611.9505,713.1837a71.5826,71.5826,0,1,1,101.2331,0,71.6641,71.6641,0,0,1-101.2331,0ZM522.8,1071.58A71.58,71.58,0,1,1,594.38,1000a71.6633,71.6633,0,0,1-71.58,71.58Zm190.3836,316.4694a71.5826,71.5826,0,1,1,0-101.2331,71.5487,71.5487,0,0,1,0,101.2331ZM1071.58,1477.2a71.58,71.58,0,1,1-71.58-71.58,71.6633,71.6633,0,0,1,71.58,71.58Zm316.47-190.3837a71.5853,71.5853,0,1,1-50.6182-20.965,71.6642,71.6642,0,0,1,50.6182,20.965ZM1000,1238.6c-131.5641,0-238.6-107.036-238.6-238.6S868.4359,761.4,1000,761.4s238.6,107.0359,238.6,238.6-107.036,238.6-238.6,238.6Zm477.2-167.02a71.58,71.58,0,1,1,71.58-71.58,71.6632,71.6632,0,0,1-71.58,71.58Zm0,0"/></g><g id="query"><path class="cls-16" d="M841.418,954.2463c10.0042-32.3423,31.1119-66.398,46.46-94.2111,50.3283-89.416,101.864-149.7976,161.2889-195.4437a340.5406,340.5406,0,0,0-88.3763-1.2935C915.6376,722.5524,881.75,793.9363,856.4433,892.7074c-4.6137,18.6463-10.673,40.0541-15.0253,61.5389Z"/><path class="cls-17" d="M858.6579,914.76c18.04-28.6514,47.2448-56.0825,69.2679-78.975,71.7666-73.3624,137.2049-118.3473,206.4341-147.0609a336.7515,336.7515,0,0,0-85.07-24.116C990.3342,710.1553,939.1139,770.3423,889.101,859.2077,879.82,876.03,868.4237,895.1312,858.6579,914.76Z"/><path class="cls-18" d="M885.5408,881.0861c24.8373-23.0088,60.1479-41.9474,87.3381-58.3593,88.2841-52.266,163.1038-78.7851,237.3773-88.6092a339.0888,339.0888,0,0,0-75.7885-45.3447c-68.76,28.7344-133.8217,73.62-205.15,146.5317-13.3183,13.8436-29.2666,29.3482-43.7767,45.7815Z"/><path class="cls-19" d="M920.213,855.5136c29.9509-15.7952,68.9526-24.9495,99.4723-33.7641,98.8111-27.6387,177.9445-33.8919,252.2412-24.1538a341.16,341.16,0,0,0-61.5782-63.4c-73.82,9.9695-148.2626,36.4846-235.993,88.4278-16.448,9.9256-35.8641,20.775-54.1423,32.89Z"/><path class="cls-20" d="M960.33,839.7892c33.0189-7.5058,73.0662-6.2547,104.8242-6.8667,102.6329-1.1258,180.72,13.3307,249.98,41.988a338.3486,338.3486,0,0,0-43.1384-77.214c-73.8892-9.48-152.6612-3.1342-250.8571,24.3351-18.4626,5.329-40.0242,10.7855-60.8091,17.7576Z"/><path class="cls-21" d="M1003.1451,834.981c33.8342,1.2965,72.19,12.8692,103.0327,20.4957,99.38,25.4664,171.0391,59.6219,230.51,105.19a337.07,337.07,0,0,0-21.5077-85.6426c-68.9447-28.306-146.6941-42.5756-248.6963-41.456-19.2162.3721-41.4545.0561-63.339,1.4126Z"/><path class="cls-22" d="M1045.753,841.4186c32.3424,10.0088,66.3995,31.1159,94.2126,46.4658,89.4145,50.3214,149.7932,101.8647,195.4384,161.29a339.8,339.8,0,0,0,1.2918-88.3763c-59.2482-45.1532-130.6381-79.045-229.403-104.3522-18.6472-4.6122-40.055-10.6723-61.54-15.027Z"/><path class="cls-22" d="M1085.239,858.6649c28.6513,18.0359,56.08,47.2447,78.9719,69.2678,73.3664,71.7666,118.35,137.1972,147.0631,206.4265a336.55,336.55,0,0,0,24.1146-85.0621c-45.5453-58.956-105.7316-110.1763-194.6-160.1915-16.817-9.28-35.9181-20.6726-55.55-30.4407Z"/><path class="cls-23" d="M1045.753,841.4186c32.3424,10.0088,66.3995,31.1159,94.2126,46.4658,89.4145,50.3214,149.7932,101.8647,195.4384,161.29a339.8,339.8,0,0,0,1.2918-88.3763c-59.2482-45.1532-130.6381-79.045-229.403-104.3522-18.6472-4.6122-40.055-10.6723-61.54-15.027Z"/><path class="cls-24" d="M1085.239,858.6649c28.6513,18.0382,56.08,47.2447,78.9719,69.2678,73.3664,71.7666,118.35,137.1972,147.0631,206.4265a336.55,336.55,0,0,0,24.1146-85.0621c-45.5453-58.9636-105.7316-110.1763-194.6-160.19-16.817-9.2813-35.9181-20.6735-55.55-30.4422Z"/><path class="cls-25" d="M1118.9117,885.543c23.0148,24.842,41.9466,60.1448,58.3561,87.3505,52.266,88.2764,78.7873,163.0959,88.6146,237.3619a338.8282,338.8282,0,0,0,45.3455-75.7885c-28.7359-68.7526-73.62-133.8141-146.5325-205.1426-13.8412-13.3182-29.3512-29.2665-45.7837-43.7813Z"/><path class="cls-26" d="M1144.4872,920.22c15.7944,29.9509,24.9451,68.9525,33.7572,99.4723,27.644,98.8111,33.8957,177.9446,24.1607,252.2412a341.5325,341.5325,0,0,0,63.4006-61.5782c-9.9734-73.82-36.487-148.2626-88.43-235.993-9.9275-16.448-20.7774-35.8641-32.8885-54.1423Z"/><path class="cls-27" d="M1160.2123,960.3364c7.5051,33.019,6.2516,73.0663,6.8668,104.8243,1.1228,102.6328-13.3336,180.7128-41.9927,249.9727a338.4409,338.4409,0,0,0,77.2189-43.1308c9.4811-73.8891,3.13-152.6612-24.3377-250.857-5.329-18.4627-10.7883-40.0243-17.7553-60.8092Z"/><path class="cls-28" d="M1165.0183,1003.152c-1.2918,33.8341-12.8646,72.19-20.4926,103.0326-25.468,99.38-59.6175,171.0393-105.1935,230.5027a336.8161,336.8161,0,0,0,85.6465-21.5077c28.2976-68.9371,42.57-146.6941,41.4546-248.6963-.3691-19.2086-.0616-41.4468-1.415-63.3313Z"/><path class="cls-29" d="M1158.5821,1045.76c-10.0117,32.3423-31.12,66.3995-46.4681,94.2127-50.32,89.4067-101.8638,149.7929-161.2812,195.4382a340.7088,340.7088,0,0,0,88.3764,1.2919c45.1456-59.2482,79.0411-130.6382,104.3476-229.4031,4.606-18.6472,10.6732-40.055,15.0253-61.54Z"/><path class="cls-22" d="M1141.3344,1085.2459c-18.0395,28.6513-47.2446,56.08-69.2677,78.9719-71.7667,73.3663-137.1974,118.35-206.4265,147.0631a336.8776,336.8776,0,0,0,85.062,24.1146c58.9636-45.5454,110.1762-105.7393,160.1892-194.6,9.2813-16.8171,20.6773-35.9257,30.443-55.55Z"/><path class="cls-30" d="M1141.3344,1085.2459c-18.0395,28.6513-47.2446,56.08-69.2677,78.9719-71.7667,73.3663-137.1974,118.35-206.4265,147.0631a336.8776,336.8776,0,0,0,85.062,24.1146c58.9636-45.5454,110.1762-105.7393,160.1892-194.6,9.2813-16.8171,20.6773-35.9257,30.443-55.55Z"/><path class="cls-31" d="M1114.4517,1118.9186c-24.8374,23.0071-60.14,41.9465-87.3382,58.3639-88.2764,52.2583-163.0958,78.7873-237.37,88.6069a338.8323,338.8323,0,0,0,75.7885,45.3454c68.7526-28.7359,133.8141-73.6276,205.1426-146.5326,13.3183-13.8488,29.2664-29.351,43.7767-45.7836Z"/><path class="cls-32" d="M1079.7794,1144.4941c-29.951,15.7943-68.96,24.9449-99.4723,33.7649-98.8033,27.6364-177.9445,33.888-252.2335,24.1453a340.847,340.847,0,0,0,61.5781,63.4083c73.82-9.9735,148.255-36.4871,235.9854-88.43,16.448-9.9272,35.8642-20.7772,54.1423-32.8883Z"/><path class="cls-33" d="M1039.6628,1160.2192c-33.0113,7.5051-73.0586,6.2517-104.8242,6.8669-102.6328,1.1226-180.7127-13.3338-249.9727-41.9852a338.3936,338.3936,0,0,0,43.1308,77.2111c73.8891,9.4736,152.6611,3.13,250.857-24.3375,18.455-5.3289,40.0243-10.7808,60.8091-17.7553Z"/><path class="cls-34" d="M996.8473,1165.0252c-33.8341-1.3-72.19-12.8723-103.0326-20.5-99.38-25.46-171.0392-59.6172-230.5027-105.1857A336.358,336.358,0,0,0,684.82,1124.978c68.9448,28.3052,146.6941,42.5771,248.6962,41.4621,19.2087-.3691,41.4468-.0615,63.3314-1.4149Z"/><path class="cls-35" d="M954.2394,1158.5891c-32.3423-10.0119-66.4-31.12-94.2127-46.4682-89.4144-50.32-149.793-101.8638-195.4383-161.2889a340.7613,340.7613,0,0,0-1.2918,88.3841c59.2481,45.1455,130.6383,79.0335,229.4031,104.3475,18.6549,4.6137,40.0549,10.6654,61.54,15.0255Z"/><path class="cls-22" d="M914.7534,1141.3413c-28.6513-18.04-56.08-47.2447-78.9719-69.2677-73.3663-71.7667-118.35-137.1974-147.0631-206.43a336.5386,336.5386,0,0,0-24.1146,85.0652c45.553,58.9559,105.7316,110.1763,194.6,160.1892,16.8172,9.2814,35.9257,20.6773,55.55,30.443Z"/><path class="cls-22" d="M881.0807,1114.4663c-23.0072-24.845-41.9466-60.1479-58.3562-87.3536-52.2659-88.2764-78.7873-163.0944-88.6145-237.368a339.27,339.27,0,0,0-45.3456,75.79c28.736,68.7571,73.6277,133.8187,146.5326,205.1472,13.8489,13.3183,29.3511,29.2664,45.7837,43.7844Z"/><path class="cls-36" d="M914.7534,1141.3413c-28.6513-18.04-56.08-47.2447-78.9719-69.2677-73.3663-71.7667-118.35-137.1974-147.0631-206.43a336.5386,336.5386,0,0,0-24.1146,85.0652c45.553,58.9559,105.7316,110.1763,194.6,160.1892,16.8172,9.2814,35.9257,20.6773,55.55,30.443Z"/><path class="cls-37" d="M881.0807,1114.4663c-23.0072-24.845-41.9466-60.1479-58.3562-87.3536-52.2659-88.2764-78.7873-163.0944-88.6145-237.368a339.27,339.27,0,0,0-45.3456,75.79c28.736,68.7571,73.6277,133.8187,146.5326,205.1472,13.8489,13.3183,29.3511,29.2664,45.7837,43.7844Z"/><path class="cls-38" d="M855.5052,1079.7863c-15.7944-29.951-24.9449-68.9525-33.765-99.4723-27.6362-98.8088-33.8878-177.9484-24.1528-252.24a341.1983,341.1983,0,0,0-63.4007,61.5766c9.9734,73.82,36.4871,148.2627,88.43,235.9931,9.9273,16.448,20.7772,35.8642,32.8883,54.1423Z"/><path class="cls-39" d="M839.78,1039.67c-7.505-33.0189-6.2515-73.0586-6.8591-104.8242-1.13-102.632,13.326-180.7143,41.9851-249.9767a338.3614,338.3614,0,0,0-77.2109,43.1339c-9.4814,73.8907-3.1375,152.6627,24.33,250.8579,5.3291,18.455,10.7808,40.0166,17.7553,60.8091Z"/><path class="cls-40" d="M834.9741,996.8465c1.2995-33.8264,12.8723-72.19,20.4926-103.0234,25.468-99.3839,59.625-171.04,105.2012-230.51A336.8642,336.8642,0,0,0,875.0213,684.82c-28.3051,68.9433-42.5771,146.6964-41.4622,248.7033.3692,19.2085.0617,41.4467,1.415,63.3236Z"/><path class="cls-16" d="M837.304,972.2014c6.3439-33.2574,23.5224-69.4523,35.68-98.8041C913.0233,778.9578,957.5,713.22,1011.45,661.2411c-3.8063-.1276-7.62-.2122-11.45-.2122a340.0806,340.0806,0,0,0-76.4267,8.6523c-38.3018,63.93-64.0465,138.67-78.1952,239.6887-2.5068,19.0471-6.1441,40.9931-8.0741,62.8315Z"/><path class="cls-17" d="M850.0457,931.0391c14.7255-30.4814,40.6932-60.9968,60.0324-86.2009,63.1545-80.9043,123.1641-132.9036,188.7637-169.15a338.3552,338.3552,0,0,0-87.269-14.4433c-53.4963,51.8261-97.6806,117.3367-137.4665,211.1941-7.3512,17.7522-16.548,38.0073-24.0606,58.6Z"/><path class="cls-18" d="M872.999,894.5782c22.123-25.6324,55.0958-48.385,80.3024-67.7251,81.9168-61.7842,153.3224-96.4773,226.0425-114.5147a337.36,337.36,0,0,0-80.379-36.614c-65.1306,36.2156-124.794,88.0718-187.5565,168.481-11.6958,15.2407-25.8139,32.4262-38.4094,50.3728Z"/><path class="cls-19" d="M904.6109,865.3033c28.0054-19.0332,65.7459-32.477,95.0969-44.6381,95.0894-38.4663,173.0232-53.4994,247.92-52.1053a340.6128,340.6128,0,0,0-68.1759-56.1539c-72.2589,18.13-143.2876,52.7767-224.6971,114.1788-15.2407,11.6973-33.3267,24.6419-50.1437,38.7185Z"/><path class="cls-20" d="M942.7281,845.2065c31.9732-11.1383,71.9128-14.3572,103.4017-18.5056,101.8485-12.5511,181.0434-6.8885,253.0562,13.8627a339.96,339.96,0,0,0-51.4739-71.9122c-74.4737-1.1795-152.0308,13.902-246.5355,52.133-17.7476,7.3521-38.571,15.1754-58.4485,24.4214v.0007Z"/><path class="cls-21" d="M984.744,835.6576c33.7648-2.4822,73.174,4.7437,104.6706,8.8891,101.6407,14.24,176.6832,40.2127,240.8757,78.9029a336.3618,336.3618,0,0,0-31.05-82.7752c-71.6514-20.4367-150.5-25.9516-251.7183-13.4776-19.047,2.5084-41.1853,4.6753-62.7776,8.4608Z"/><path class="cls-22" d="M1027.7979,837.3086c33.2574,6.3415,69.4523,23.5247,98.8033,35.68,94.4358,40.0343,160.174,84.5184,212.1554,138.4685.1308-3.8064.2153-7.62.2153-11.4575a340.0692,340.0692,0,0,0-8.6585-76.4267c-63.9233-38.2963-138.6662-64.0357-239.6839-78.1875-19.0472-2.5068-40.9934-6.1425-62.8316-8.0764Z"/><path class="cls-22" d="M1068.96,850.0479c30.4815,14.7309,61.0013,40.6994,86.2,60.0372,80.902,63.1468,132.9067,123.1562,169.1478,188.7637a338.4877,338.4877,0,0,0,14.4486-87.2691c-51.8277-53.4963-117.3351-97.6806-211.1942-137.47-17.7553-7.3489-38.01-16.5425-58.6022-24.0622Z"/><path class="cls-23" d="M1027.7979,837.3086c33.2574,6.3415,69.4523,23.5247,98.8033,35.68,94.4358,40.0343,160.174,84.5184,212.1554,138.4685.1308-3.8064.2153-7.62.2153-11.4575a340.0692,340.0692,0,0,0-8.6585-76.4267c-63.9233-38.2963-138.6662-64.0357-239.6839-78.1875-19.0472-2.5068-40.9934-6.1425-62.8316-8.0764Z"/><path class="cls-24" d="M1068.96,850.0479c30.4815,14.7333,60.9938,40.6978,86.2,60.0372,80.902,63.1468,132.9067,123.1639,169.1478,188.7637a338.4877,338.4877,0,0,0,14.4486-87.2691c-51.8277-53.4963-117.3427-97.6806-211.1942-137.4688-17.7553-7.35-38.01-16.5433-58.6022-24.063Z"/><path class="cls-25" d="M1105.4241,873.0066c25.6294,22.123,48.3828,55.0951,67.7222,80.3016,61.7856,81.9169,96.4734,153.3147,114.5133,226.0427a337.7323,337.7323,0,0,0,36.6176-80.3868c-36.2179-65.123-88.0762-124.7864-168.4787-187.5488-15.2484-11.6958-32.4268-25.8139-50.3744-38.4087Z"/><path class="cls-26" d="M1134.6986,904.6178c19.0317,28.0054,32.4729,65.7458,44.63,95.0969,38.471,95.0894,53.504,173.0155,52.1121,247.92a340.5708,340.5708,0,0,0,56.1493-68.1758c-18.1319-72.2589-52.7735-143.2953-114.1748-224.6971-11.6958-15.2485-24.6449-33.3344-38.7167-50.1437Z"/><path class="cls-27" d="M1154.7912,942.735c11.1421,31.9732,14.3565,71.9052,18.5088,103.4017,12.55,101.8484,6.8823,181.0433-13.8643,253.0562a340.3621,340.3621,0,0,0,71.9131-51.4739c1.1764-74.4736-13.903-152.0307-52.1355-246.5355-7.3513-17.7476-15.1716-38.571-24.4221-58.4485Z"/><path class="cls-28" d="M1164.3417,984.7509c2.4838,33.7648-4.7446,73.1739-8.8892,104.67-14.2411,101.6407-40.2165,176.6833-78.9027,240.876a337.05,337.05,0,0,0,82.7783-31.0506c20.4311-71.6515,25.9523-150.5,13.4722-251.7183-2.5068-19.047-4.6753-41.1854-8.4586-62.7776Z"/><path class="cls-29" d="M1162.6884,1027.8048c-6.336,33.2574-23.5225,69.4522-35.68,98.8033-40.032,94.4357-84.5161,160.1739-138.4585,212.1555,3.7987.1229,7.6127.2075,11.45.2075a340.0823,340.0823,0,0,0,76.4269-8.6508c38.3017-63.931,64.0389-138.6661,78.1874-239.684,2.5068-19.0471,6.144-40.9932,8.0741-62.8315Z"/><path class="cls-22" d="M1149.9546,1068.967c-14.7334,30.4815-40.7011,60.9938-60.0327,86.2-63.1544,80.902-123.1715,132.899-188.7713,169.1476a338.4844,338.4844,0,0,0,87.2766,14.4411c53.4964-51.8278,97.673-117.3353,137.459-211.1866,7.3511-17.7553,16.5478-38.01,24.0684-58.6023Z"/><path class="cls-30" d="M1149.9546,1068.967c-14.7334,30.4815-40.7011,60.9938-60.0327,86.2-63.1544,80.902-123.1715,132.899-188.7713,169.1476a338.4844,338.4844,0,0,0,87.2766,14.4411c53.4964-51.8278,97.673-117.3353,137.459-211.1866,7.3511-17.7553,16.5478-38.01,24.0684-58.6023Z"/><path class="cls-31" d="M1126.9936,1105.431c-22.1232,25.6293-55.0959,48.3829-80.3024,67.7222-81.9094,61.7857-153.3147,96.4734-226.0428,114.5131a337.7144,337.7144,0,0,0,80.3867,36.6177c65.1231-36.2255,124.7865-88.0763,187.5488-168.4786,11.696-15.2484,25.8139-32.4269,38.41-50.3744Z"/><path class="cls-32" d="M1095.3815,1134.7053c-28.0053,19.0317-65.7459,32.4731-95.0969,44.6379-95.0817,38.4633-173.0232,53.4965-247.92,52.1046a340.8008,340.8008,0,0,0,68.1759,56.1493c72.2665-18.132,143.2951-52.7736,224.6971-114.1748,15.2485-11.6959,33.3342-24.6451,50.1436-38.717Z"/><path class="cls-33" d="M1057.2643,1154.7981c-31.9655,11.1422-71.9052,14.3564-103.4017,18.5088-101.8485,12.5495-181.0434,6.8822-253.0486-13.8643a340.3252,340.3252,0,0,0,51.4663,71.9129c74.4736,1.1766,152.0306-13.9027,246.5355-52.1276,17.7475-7.3589,38.5711-15.1793,58.4485-24.43Z"/><path class="cls-34" d="M1015.2485,1164.3485c-33.7649,2.4838-73.1741-4.7445-104.6706-8.8891-101.6407-14.2411-176.6834-40.2165-240.8758-78.91a336.6763,336.6763,0,0,0,31.05,82.7859c71.6515,20.4313,150.5,25.9523,251.7182,13.4722,19.0471-2.5068,41.1854-4.6752,62.7778-8.4586Z"/><path class="cls-35" d="M972.1945,1162.6953c-33.2573-6.3362-69.4522-23.5224-98.8033-35.68-94.4358-40.032-160.174-84.5161-212.1554-138.4662-.1231,3.8063-.2077,7.62-.2077,11.45a340.1483,340.1483,0,0,0,8.6508,76.4345c63.9311,38.294,138.6662,64.0388,239.6841,78.1875,19.0471,2.5068,40.9931,6.144,62.8315,8.0741Z"/><path class="cls-22" d="M931.0322,1149.9614c-30.4815-14.741-60.9937-40.701-86.2-60.04-80.902-63.1545-132.9067-123.1638-169.1476-188.7636a338.0469,338.0469,0,0,0-14.4411,87.2689c51.82,53.4964,117.3352,97.673,211.1866,137.4666,17.7552,7.3512,38.01,16.548,58.6022,24.0684Z"/><path class="cls-22" d="M894.576,1127c-25.6371-22.1229-48.3906-55.0958-67.73-80.3023-61.7858-81.917-96.4735-153.32-114.5132-226.0458a337.729,337.729,0,0,0-36.6177,80.3821c36.2178,65.1308,88.0763,124.7942,168.4786,187.5565,15.2484,11.6959,32.4345,25.814,50.3821,38.4095Z"/><path class="cls-36" d="M931.0322,1149.9614c-30.4815-14.741-60.9937-40.701-86.2-60.04-80.902-63.1545-132.9067-123.1638-169.1476-188.7636a338.0469,338.0469,0,0,0-14.4411,87.2689c51.82,53.4964,117.3352,97.673,211.1866,137.4666,17.7552,7.3512,38.01,16.548,58.6022,24.0684Z"/><path class="cls-37" d="M894.576,1127c-25.6371-22.1229-48.3906-55.0958-67.73-80.3023-61.7858-81.917-96.4735-153.32-114.5132-226.0458a337.729,337.729,0,0,0-36.6177,80.3821c36.2178,65.1308,88.0763,124.7942,168.4786,187.5565,15.2484,11.6959,32.4345,25.814,50.3821,38.4095Z"/><path class="cls-38" d="M865.294,1095.3885c-19.0317-28.0055-32.473-65.7459-44.6378-95.097-38.4634-95.0894-53.4966-173.0232-52.1047-247.92a340.672,340.672,0,0,0-56.1493,68.1765c18.1321,72.26,52.7736,143.2875,114.1748,224.6971,11.6959,15.2408,24.6452,33.3343,38.717,50.1438Z"/><path class="cls-39" d="M845.2011,1057.2712C834.059,1025.298,830.8448,985.366,826.7,953.87c-12.5573-101.85-6.89-181.0434,13.8566-253.0547a340.0378,340.0378,0,0,0-71.913,51.4717c-1.1766,74.4728,13.9027,152.0314,52.1352,246.5362,7.3514,17.7476,15.1717,38.571,24.4221,58.4485Z"/><path class="cls-40" d="M835.6508,1015.2553c-2.4839-33.7648,4.7445-73.1739,8.8891-104.6705,14.2411-101.6438,40.2165-176.6856,78.91-240.879a336.3727,336.3727,0,0,0-82.7782,31.049c-20.439,71.6568-25.9524,150.5019-13.48,251.7228,2.5068,19.0471,4.6752,41.1854,8.4586,62.7777Z"/><path class="cls-41" d="M1000,835.1447A164.8557,164.8557,0,1,1,835.1433,999.9992,164.8591,164.8591,0,0,1,1000,835.1447Z"/><path class="cls-42" d="M1000,1164.8561q2.03,0,4.06-.0462l.1923-.0077.0845-.0077h.1076c1.33-.0384,2.6683-.0846,3.9987-.1537h.0384l.1615-.0077q4.1292-.2191,8.197-.63h.0153l.323-.0308c1.13-.1154,2.2531-.2461,3.3759-.3845l.4381-.0538.4076-.0539c1.115-.146,2.23-.3,3.345-.469l.3614-.0538.0923-.0154c2.63-.4076,5.2443-.8689,7.8279-1.4l.1923-.0384.2077-.0461c1.23-.2461,2.46-.5152,3.6909-.8l.1077-.0231.1-.0231c1.2842-.3,2.5684-.6075,3.8372-.9381l.0307-.0077.0385-.0077q1.9261-.496,3.8447-1.038l.0539-.0154.0384-.0154h.0155c1.23-.3537,2.4528-.7152,3.6755-1.1l.1614-.0461.1156-.0385q1.7877-.5535,3.5676-1.1534l.1693-.0538.1923-.0692a165.1036,165.1036,0,0,0,72.4436-49.2517l-53.7963-56.8952H928.2794l-53.6271,57.0874a164.9057,164.9057,0,0,0,78.1029,50.905h.0077l.7075.2153,2.1069.6.7075.2.7152.1923.7075.1845,2.13.5536.7228.1769.7152.1769.715.1692,1.438.3306.7152.1615.7227.1615.7229.1537.7306.1539,1.4533.2922.7229.146.73.1385.73.1384.7306.1307.8228.1461,2.9527.4921.6306.0923.7459.1076,2.8759.4.0845.0154.2.0308.546.0615,2.9836.346.6151.0616.1384.0153h.0078c1.2457.123,2.499.2384,3.7524.3383l.2691.0154.4845.0384c1.23.0924,2.476.1693,3.7141.2308l.0691.0077c1.3688.0691,2.7452.123,4.1217.1537h.0384l.4153.0077c1.2841.0308,2.5606.0462,3.8447.0462Z"/><path class="cls-43" d="M1107.3774,874.9136a164.8508,164.8508,0,0,0-212.6245-1.7977l33.5265,176.8656h143.4337l35.6643-175.0679Z"/><path class="cls-44" d="M1120.4188,806.5026a73.076,73.076,0,1,1-73.0741,73.0771,73.0723,73.0723,0,0,1,73.0741-73.0771Z"/><path class="cls-44" d="M894.5221,1072.658a32.8153,32.8153,0,1,1-32.8191,32.8192,32.8205,32.8205,0,0,1,32.8191-32.8192Z"/></g><g id="vision"><path class="cls-15" d="M1780,1585a193.7566,193.7566,0,0,0-107.453,32.3961L1495.3208,1440.17c223.5583-251.2641,223.6414-628.9556.0208-880.3393L1672.547,382.62A193.8706,193.8706,0,0,0,1780,415c107.515,0,195-87.4848,195-195S1887.515,25,1780,25s-195,87.4848-195,195a193.7552,193.7552,0,0,0,32.3961,107.4528L1440.17,504.6583c-251.2848-223.5584-628.9764-223.6207-880.3392,0L382.6039,327.4527A193.7551,193.7551,0,0,0,415,220c0-107.5152-87.4847-195-195-195S25,112.4847,25,220s87.4847,195,195,195a193.7559,193.7559,0,0,0,107.4527-32.396L504.6583,559.83c-223.5583,251.2848-223.6207,628.9765,0,880.3393L327.4527,1617.396A193.7551,193.7551,0,0,0,220,1585c-107.5153,0-195,87.4848-195,195s87.4847,195,195,195,195-87.485,195-195a193.8687,193.8687,0,0,0-32.38-107.4528L559.83,1495.3415c251.2848,223.5376,628.9765,223.6208,880.3392,0L1617.38,1672.5471A193.87,193.87,0,0,0,1585,1780c0,107.5152,87.4848,195,195,195s195-87.485,195-195-87.485-195-195-195Zm0-1482a117,117,0,1,1-117,117,117.1361,117.1361,0,0,1,117-117ZM103,220A117,117,0,1,1,220,337,117.1361,117.1361,0,0,1,103,220ZM220,1897a117,117,0,1,1,117-117,117.1361,117.1361,0,0,1-117,117Zm195-897c0-322.5613,262.4389-585,585-585s585,262.4388,585,585-262.4388,585-585,585-585-262.4387-585-585Zm1365,897a117,117,0,1,1,117-117,117.1359,117.1359,0,0,1-117,117Zm0,0"/></g></svg>