<svg xmlns="http://www.w3.org/2000/svg" width="1648.8367" height="2000" viewBox="0 0 1648.8367 2000"><defs><style>.cls-1{fill:#f9f9f9;}.cls-2{fill:#efefef;}.cls-3{fill:#cce0ff;}.cls-4{fill:#06f;}.cls-5{fill:#004dbf;}.cls-6{fill:#f06;}.cls-7{fill:#f60;}.cls-8{fill:#38c674;}.cls-9{fill:#e0ccff;}.cls-10{fill:#c299ff;}.cls-11{fill:#ffe0cc;}.cls-12{fill:#ffc299;}.cls-13{fill:#333;}.cls-14{fill:#444;}.cls-15{fill:#5a5a5a;}.cls-16{fill:#e2e2e7;}.cls-17{fill:#bf4d00;}.cls-18{fill:#60f;}.cls-19{fill:#330080;}.cls-20{fill:#8533ff;}.cls-21{fill:#190040;}</style></defs><g id="Layer_1" data-name="Layer 1"><path class="cls-1" d="M1609.366,237.36V1533.37c-175.115,250.6564-1414.4312,250.6562-1589.5462,0V237.36l794.7731-113.539Z"/><path class="cls-2" d="M321.3453,194.2908,19.82,237.36V1991.902c254.4373,0,1210.9323-3.6888,1589.503-3.6888.0543,0,.0121-454.7987.0432-454.8433C898.01,1533.37,321.3453,956.7015,321.3453,245.3493Z"/><path class="cls-3" d="M317.1293,647.9927a28.3854,28.3854,0,0,1-28.3848-28.3847V466.1827H278.2687a28.3848,28.3848,0,1,1,0-56.7695h38.8606a28.3854,28.3854,0,0,1,28.3848,28.3847v181.81A28.3854,28.3854,0,0,1,317.1293,647.9927Z"/><path class="cls-3" d="M483.2406,647.9927A81.0529,81.0529,0,0,1,402.28,567.0318V482.9486a80.9609,80.9609,0,0,1,161.9217,0v84.0832A81.0505,81.0505,0,0,1,483.2406,647.9927Zm0-189.2317a24.2191,24.2191,0,0,0-24.1913,24.1914v84.0832a24.1914,24.1914,0,1,0,48.3827,0V482.9524A24.2167,24.2167,0,0,0,483.2406,458.761Z"/><path class="cls-3" d="M661.724,647.9927a28.3854,28.3854,0,0,1-28.3848-28.3847V466.1827H622.8633a28.3848,28.3848,0,0,1,0-56.7695H661.724a28.3854,28.3854,0,0,1,28.3847,28.3847v181.81A28.3854,28.3854,0,0,1,661.724,647.9927Z"/><path class="cls-3" d="M827.8391,647.9927a81.053,81.053,0,0,1-80.9609-80.9609V482.9486a80.9609,80.9609,0,0,1,161.9218,0v84.0832A81.053,81.053,0,0,1,827.8391,647.9927Zm0-189.2317a24.2192,24.2192,0,0,0-24.1914,24.1914v84.0832a24.1914,24.1914,0,1,0,48.3828,0V482.9524A24.2192,24.2192,0,0,0,827.8391,458.761Z"/><path class="cls-3" d="M1006.3225,647.9927a28.3854,28.3854,0,0,1-28.3848-28.3847V466.1827H967.4618a28.3848,28.3848,0,0,1,0-56.7695h38.8607a28.3854,28.3854,0,0,1,28.3847,28.3847v181.81A28.3854,28.3854,0,0,1,1006.3225,647.9927Z"/><path class="cls-3" d="M1172.4376,647.9927a81.053,81.053,0,0,1-80.9609-80.9609V482.9486a80.9609,80.9609,0,0,1,161.9218,0v84.0832A81.0555,81.0555,0,0,1,1172.4376,647.9927Zm0-189.2317a24.2192,24.2192,0,0,0-24.1914,24.1914v84.0832a24.1914,24.1914,0,0,0,48.3828,0V482.9524A24.2216,24.2216,0,0,0,1172.4376,458.761Z"/><path class="cls-3" d="M1350.9171,647.9927a28.3854,28.3854,0,0,1-28.3847-28.3847V466.1827h-10.4759a28.3848,28.3848,0,1,1,0-56.7695h38.8606a28.3854,28.3854,0,0,1,28.3848,28.3847v181.81A28.383,28.383,0,0,1,1350.9171,647.9927Z"/><path class="cls-3" d="M1165.3755,988.61a28.3854,28.3854,0,0,1-28.3848-28.3847V806.8h-10.4759a28.3848,28.3848,0,0,1,0-56.7695h38.8607A28.3854,28.3854,0,0,1,1193.76,778.415v181.81A28.3854,28.3854,0,0,1,1165.3755,988.61Z"/><path class="cls-3" d="M986.8921,988.61a81.0529,81.0529,0,0,1-80.9608-80.9608V823.5657a80.9609,80.9609,0,1,1,161.9217,0v84.0832A81.0555,81.0555,0,0,1,986.8921,988.61Zm0-189.2316a24.219,24.219,0,0,0-24.1913,24.1913v84.0832a24.1914,24.1914,0,1,0,48.3827,0V823.5694A24.2215,24.2215,0,0,0,986.8921,799.3781Z"/><path class="cls-3" d="M1331.4868,988.61a81.0529,81.0529,0,0,1-80.9609-80.9608V823.5657a80.9609,80.9609,0,0,1,161.9218,0v84.0832A81.0506,81.0506,0,0,1,1331.4868,988.61Zm0-189.2316a24.2191,24.2191,0,0,0-24.1914,24.1913v84.0832a24.1914,24.1914,0,0,0,48.3828,0V823.5694A24.2166,24.2166,0,0,0,1331.4868,799.3781Z"/><path class="cls-3" d="M820.777,988.61a28.3855,28.3855,0,0,1-28.3848-28.3847V806.8H781.9164a28.3848,28.3848,0,1,1,0-56.7695H820.777a28.3855,28.3855,0,0,1,28.3848,28.3848v181.81A28.3855,28.3855,0,0,1,820.777,988.61Z"/><path class="cls-3" d="M642.2937,988.61a81.0529,81.0529,0,0,1-80.9609-80.9608V823.5657a80.9608,80.9608,0,1,1,161.9217,0v84.0832A81.05,81.05,0,0,1,642.2937,988.61Zm0-189.2316a24.219,24.219,0,0,0-24.1914,24.1913v84.0832a24.1914,24.1914,0,1,0,48.3827,0V823.5694A24.2165,24.2165,0,0,0,642.2937,799.3781Z"/><path class="cls-3" d="M476.1823,988.61a28.3854,28.3854,0,0,1-28.3848-28.3847V806.8H437.3216a28.3848,28.3848,0,0,1,0-56.7695h38.8607A28.3854,28.3854,0,0,1,504.567,778.415v181.81A28.3854,28.3854,0,0,1,476.1823,988.61Z"/><path class="cls-3" d="M297.699,988.61a81.0529,81.0529,0,0,1-80.9609-80.9608V823.5657a80.9609,80.9609,0,1,1,161.9218,0v84.0832A81.0555,81.0555,0,0,1,297.699,988.61Zm0-189.2316a24.219,24.219,0,0,0-24.1914,24.1913v84.0832a24.1914,24.1914,0,1,0,48.3827,0V823.5694A24.2214,24.2214,0,0,0,297.699,799.3781Z"/><path class="cls-3" d="M317.1293,1329.2268a28.3854,28.3854,0,0,1-28.3848-28.3848V1147.4167H278.2687a28.3848,28.3848,0,1,1,0-56.7695h38.8606a28.3854,28.3854,0,0,1,28.3848,28.3848v181.81A28.3854,28.3854,0,0,1,317.1293,1329.2268Z"/><path class="cls-3" d="M483.2406,1329.2268a81.053,81.053,0,0,1-80.9608-80.9609v-84.0833a80.9609,80.9609,0,0,1,161.9217,0v84.0833A81.0506,81.0506,0,0,1,483.2406,1329.2268Zm0-189.2317a24.219,24.219,0,0,0-24.1913,24.1914V1248.27a24.1914,24.1914,0,1,0,48.3827,0v-84.0832A24.2166,24.2166,0,0,0,483.2406,1139.9951Z"/><path class="cls-3" d="M661.724,1329.2268a28.3854,28.3854,0,0,1-28.3848-28.3848V1147.4167H622.8633a28.3848,28.3848,0,0,1,0-56.7695H661.724a28.3854,28.3854,0,0,1,28.3847,28.3848v181.81A28.3854,28.3854,0,0,1,661.724,1329.2268Z"/><path class="cls-3" d="M827.8391,1329.2268a81.0531,81.0531,0,0,1-80.9609-80.9609v-84.0833a80.9609,80.9609,0,0,1,161.9218,0v84.0833A81.0531,81.0531,0,0,1,827.8391,1329.2268Zm0-189.2317a24.2191,24.2191,0,0,0-24.1914,24.1914V1248.27a24.1914,24.1914,0,1,0,48.3828,0v-84.0832A24.2191,24.2191,0,0,0,827.8391,1139.9951Z"/><path class="cls-3" d="M1006.3225,1329.2268a28.3854,28.3854,0,0,1-28.3848-28.3848V1147.4167H967.4618a28.3848,28.3848,0,0,1,0-56.7695h38.8607a28.3854,28.3854,0,0,1,28.3847,28.3848v181.81A28.3854,28.3854,0,0,1,1006.3225,1329.2268Z"/><path class="cls-3" d="M1172.4376,1329.2268a81.053,81.053,0,0,1-80.9609-80.9609v-84.0833a80.9609,80.9609,0,0,1,161.9218,0v84.0833A81.0555,81.0555,0,0,1,1172.4376,1329.2268Zm0-189.2317a24.2191,24.2191,0,0,0-24.1914,24.1914V1248.27a24.1914,24.1914,0,0,0,48.3828,0v-84.0832A24.2215,24.2215,0,0,0,1172.4376,1139.9951Z"/><path class="cls-3" d="M1350.9171,1329.2268a28.3854,28.3854,0,0,1-28.3847-28.3848V1147.4167h-10.4759a28.3847,28.3847,0,1,1,0-56.7695h38.8606a28.3854,28.3854,0,0,1,28.3848,28.3848v181.81A28.383,28.383,0,0,1,1350.9171,1329.2268Z"/><path class="cls-3" d="M1165.3755,1669.8438a28.3854,28.3854,0,0,1-28.3848-28.3847V1488.0338h-10.4759a28.3848,28.3848,0,0,1,0-56.7695h38.8607a28.3854,28.3854,0,0,1,28.3847,28.3847v181.81A28.3854,28.3854,0,0,1,1165.3755,1669.8438Z"/><path class="cls-3" d="M986.8921,1669.8438a81.0529,81.0529,0,0,1-80.9608-80.9609V1504.8a80.9609,80.9609,0,1,1,161.9217,0v84.0832A81.0555,81.0555,0,0,1,986.8921,1669.8438Zm0-189.2317a24.2191,24.2191,0,0,0-24.1913,24.1914v84.0832a24.1913,24.1913,0,1,0,48.3827,0v-84.0832A24.2216,24.2216,0,0,0,986.8921,1480.6121Z"/><path class="cls-3" d="M1331.4868,1669.8438a81.053,81.053,0,0,1-80.9609-80.9609V1504.8a80.9609,80.9609,0,0,1,161.9218,0v84.0832A81.0507,81.0507,0,0,1,1331.4868,1669.8438Zm0-189.2317a24.2192,24.2192,0,0,0-24.1914,24.1914v84.0832a24.1914,24.1914,0,0,0,48.3828,0v-84.0832A24.2167,24.2167,0,0,0,1331.4868,1480.6121Z"/><path class="cls-3" d="M820.777,1669.8438a28.3855,28.3855,0,0,1-28.3848-28.3847V1488.0338H781.9164a28.3848,28.3848,0,1,1,0-56.7695H820.777a28.3855,28.3855,0,0,1,28.3848,28.3847v181.81A28.3855,28.3855,0,0,1,820.777,1669.8438Z"/><path class="cls-3" d="M642.2937,1669.8438a81.053,81.053,0,0,1-80.9609-80.9609V1504.8a80.9609,80.9609,0,1,1,161.9217,0v84.0832A81.0506,81.0506,0,0,1,642.2937,1669.8438Zm0-189.2317a24.2191,24.2191,0,0,0-24.1914,24.1914v84.0832a24.1914,24.1914,0,1,0,48.3827,0v-84.0832A24.2166,24.2166,0,0,0,642.2937,1480.6121Z"/><path class="cls-3" d="M476.1823,1669.8438a28.3854,28.3854,0,0,1-28.3848-28.3847V1488.0338H437.3216a28.3848,28.3848,0,0,1,0-56.7695h38.8607a28.3854,28.3854,0,0,1,28.3847,28.3847v181.81A28.3854,28.3854,0,0,1,476.1823,1669.8438Z"/><path class="cls-3" d="M297.699,1669.8438a81.053,81.053,0,0,1-80.9609-80.9609V1504.8a80.9609,80.9609,0,0,1,161.9218,0v84.0832A81.0555,81.0555,0,0,1,297.699,1669.8438Zm0-189.2317a24.2191,24.2191,0,0,0-24.1914,24.1914v84.0832a24.1914,24.1914,0,1,0,48.3827,0v-84.0832A24.2215,24.2215,0,0,0,297.699,1480.6121Z"/><path class="cls-4" d="M1609.366,237.36H19.82V85.9746A75.6912,75.6912,0,0,1,95.5125,10.2819H1533.6733a75.6913,75.6913,0,0,1,75.6927,75.6927Z"/><path class="cls-5" d="M279.283,199.5136a37.8455,37.8455,0,0,1,37.8463-37.8463V85.9746a37.8464,37.8464,0,0,1,0-75.6927H95.5125A75.6912,75.6912,0,0,0,19.82,85.9746V237.36h297.31A37.8455,37.8455,0,0,1,279.283,199.5136Z"/><circle class="cls-6" cx="1448.519" cy="123.8209" r="37.8463"/><circle class="cls-7" cx="1316.0569" cy="123.8209" r="37.8463"/><circle class="cls-8" cx="1183.5947" cy="123.8209" r="37.8463"/><path class="cls-2" d="M180.6668,161.6673H994.363a37.8464,37.8464,0,0,0,0-75.6927H180.6668a37.8464,37.8464,0,1,0,0,75.6927Z"/><path class="cls-3" d="M1003.3407,1951.9945a28.3854,28.3854,0,0,1-28.3848-28.3847V1770.1845H964.48a28.3848,28.3848,0,0,1,0-56.77h38.8607a28.3854,28.3854,0,0,1,28.3847,28.3847v181.81A28.3854,28.3854,0,0,1,1003.3407,1951.9945Z"/><path class="cls-3" d="M824.8573,1951.9945a81.053,81.053,0,0,1-80.9609-80.9609v-84.0831a80.9609,80.9609,0,0,1,161.9218,0v84.0831A81.0555,81.0555,0,0,1,824.8573,1951.9945Zm0-189.2317a24.2191,24.2191,0,0,0-24.1913,24.1914v84.0832a24.1913,24.1913,0,1,0,48.3827,0v-84.0832A24.2216,24.2216,0,0,0,824.8573,1762.7628Z"/><path class="cls-3" d="M1169.452,1951.9945a81.053,81.053,0,0,1-80.9609-80.9609v-84.0831a80.9609,80.9609,0,0,1,161.9218,0v84.0831A81.0506,81.0506,0,0,1,1169.452,1951.9945Zm0-189.2317a24.2192,24.2192,0,0,0-24.1914,24.1914v84.0832a24.1914,24.1914,0,1,0,48.3828,0v-84.0832A24.2167,24.2167,0,0,0,1169.452,1762.7628Z"/><path class="cls-3" d="M658.7422,1951.9945a28.3854,28.3854,0,0,1-28.3848-28.3847V1770.1845H619.8816a28.3848,28.3848,0,1,1,0-56.77h38.8606A28.3854,28.3854,0,0,1,687.1269,1741.8v181.81A28.3854,28.3854,0,0,1,658.7422,1951.9945Z"/><path class="cls-3" d="M480.2589,1951.9945a81.053,81.053,0,0,1-80.9609-80.9609v-84.0831a80.9609,80.9609,0,1,1,161.9217,0v84.0831A81.0505,81.0505,0,0,1,480.2589,1951.9945Zm0-189.2317a24.2191,24.2191,0,0,0-24.1914,24.1914v84.0832a24.1914,24.1914,0,1,0,48.3827,0v-84.0832A24.2166,24.2166,0,0,0,480.2589,1762.7628Z"/><path class="cls-3" d="M314.1475,1951.9945a28.3854,28.3854,0,0,1-28.3848-28.3847V1770.1845H275.2868a28.3848,28.3848,0,0,1,0-56.77h38.8607A28.3854,28.3854,0,0,1,342.5322,1741.8v181.81A28.3854,28.3854,0,0,1,314.1475,1951.9945Z"/><path class="cls-3" d="M1361.9026,1947.202a81.053,81.053,0,0,1-80.9609-80.9609V1782.158a80.9609,80.9609,0,0,1,161.9218,0v84.0831A81.0554,81.0554,0,0,1,1361.9026,1947.202Zm0-189.2317a24.2192,24.2192,0,0,0-24.1914,24.1914v84.0832a24.1914,24.1914,0,0,0,48.3828,0v-84.0832A24.2216,24.2216,0,0,0,1361.9026,1757.97Z"/></g><g id="Layer_2" data-name="Layer 2"><path class="cls-7" d="M467.5093,373.0171l-10.9606,19.356a8.008,8.008,0,0,0,9.3565,11.59l21.5663-6.7385Z"/><path class="cls-7" d="M558.4109,426.7813l4.8572,18.1271a8.0082,8.0082,0,0,0,14.7975,1.7023L587.17,429.579Z"/><path class="cls-7" d="M672.29,391.7229l-26.0714,10.7637L660.097,415.322a8.008,8.008,0,0,0,13.425-6.4527Z"/><path class="cls-7" d="M465.6237,274.6375l-18.617,8.9343a8.0079,8.0079,0,0,0,1.0579,14.8574l19.9874,6.2983Z"/><path class="cls-9" d="M675.6558,322.6078c-31.1708-22.9916-64.5291-9.342-75.5534,16.2256a5.6927,5.6927,0,0,1-7,3.1939,45.85,45.85,0,0,0-32.5934,1.6272,5.7992,5.7992,0,0,1-7.83-3.1874,46.1928,46.1928,0,0,0-8.7748-14.2548,5.6611,5.6611,0,0,1,.03-7.5914,46.126,46.126,0,0,0-2.3511-64.2291,5.8507,5.8507,0,0,1-.0058-8.5281c15.8131-15.17,20.9132-41.4076,2.5156-66.3629a6.8653,6.8653,0,0,0-1.4028-1.4086c-15.6929-11.6563-31.9307-13.9648-45.6164-10.1416a5.6956,5.6956,0,0,1-7-3.8333c-8.8025-28.4442-44.2209-45.1763-77.2269-20.8418a6.8286,6.8286,0,0,0-1.405,1.4014c-28.1452,37.97-1.6824,79.4177,34.4678,79.4177a46.2813,46.2813,0,0,0,12.3884-1.6792,5.7381,5.7381,0,0,1,7.08,3.8123,46.188,46.188,0,0,0,12.1723,19.6764,5.8175,5.8175,0,0,1-.039,8.4765,46.1238,46.1238,0,0,0-2.3658,64.2385,5.6864,5.6864,0,0,1-.0065,7.6343c-13.841,15.38-17.5672,40.0124-.3454,63.6251a6.83,6.83,0,0,0,1.38,1.4007c18.3319,13.8148,37.0947,14.7482,51.8707,8.2438a5.78,5.78,0,0,1,7.7833,3.2415,46.242,46.242,0,0,0,85.6106,1.6106,5.6961,5.6961,0,0,1,7.0026-3.2,45.7568,45.7568,0,0,0,14.1449,2.2413c36.1429,0,62.6362-41.4545,34.4886-79.3939A6.9178,6.9178,0,0,0,675.6558,322.6078Z"/><path class="cls-10" d="M654.1559,380.2781a45.12,45.12,0,0,1-5.3861-.3226,19.2022,19.2022,0,0,0-17.036,6.8215,47.557,47.557,0,0,1-12.0452,10.14,45.6164,45.6164,0,0,1-23.379,6.4989,46.1806,46.1806,0,0,1-44.8183-34.707c-1.4249-5.6532-12.5053-11.3062-16.4017,2.4622-1.5167,5.3594-7.2147,9.1964-12.6485,7.97a46.3528,46.3528,0,0,1-34.1679-32.073,10.2143,10.2143,0,0,1,9.8039-13.0656h11.4636A46.1021,46.1021,0,0,0,547.3918,314.22a45.9048,45.9048,0,0,1-26.4308.9136,46.533,46.533,0,0,1-33.1684-33.556,45.6374,45.6374,0,0,1-.648-19.3675,6.9444,6.9444,0,0,1,8.9524-5.4309A45.936,45.936,0,0,0,542.2957,245.11c.1317-.1324.2566-.271.3868-.4048a46.1121,46.1121,0,0,0,6.9874-9.2779,46.1872,46.1872,0,0,1-67.0477-26.9142,7.57,7.57,0,0,0-8.6472-5.345c-6.4159,1.1212-12.157,2.3076-21.9191-.0426-18.2042-4.3826-29.4435-22.9027-29.4435-22.9027l-22.285-9.7953A46.2264,46.2264,0,0,0,458.3152,222.41a5.7579,5.7579,0,0,1,7.0567,3.7986,46.179,46.179,0,0,0,12.18,19.6951,5.8156,5.8156,0,0,1-.039,8.4765,46.1238,46.1238,0,0,0-2.3658,64.2385,5.6872,5.6872,0,0,1-.0065,7.6343c-13.8307,15.3625-17.5689,39.9683-.398,63.5559l1.5,1.5219c18.3132,13.7619,37.047,14.6875,51.8035,8.1918a5.79,5.79,0,0,1,7.7833,3.2415c.0114.0289.0215.0433.0326.0721a46.184,46.184,0,0,0,85.4518,1.6612,5.9272,5.9272,0,0,1,7.2963-3.3173,45.0081,45.0081,0,0,0,13.9774,2.2363,46.2588,46.2588,0,0,0,45.4991-38.0213A46.0958,46.0958,0,0,1,654.1559,380.2781Z"/><path class="cls-11" d="M374.3267,137.3229c24.3587,0,44.1054,20.7191,44.1054,46.2774s-19.7467,46.2777-44.1054,46.2777S330.22,209.1593,330.22,183.601,349.9681,137.3229,374.3267,137.3229Z"/><path class="cls-12" d="M393.6235,209.6327c-24.36,0-44.1074-20.7192-44.1074-46.2767a47.8634,47.8634,0,0,1,4.8233-20.9695A46.5255,46.5255,0,0,0,330.22,183.601c0,25.5575,19.7468,46.277,44.1064,46.277,17.1572,0,31.9908-10.2993,39.2842-25.3068A42.2062,42.2062,0,0,1,393.6235,209.6327Z"/><circle class="cls-7" cx="370.7114" cy="172.0327" r="11.5675"/><path class="cls-13" d="M370.7114,155.0516a16.9815,16.9815,0,1,0,16.9812,16.9811A17,17,0,0,0,370.7114,155.0516Zm0,23.1387a6.1572,6.1572,0,1,1,6.1569-6.1576A6.164,6.164,0,0,1,370.7114,178.19Z"/><path class="cls-13" d="M678.0978,394.6462a51.6594,51.6594,0,1,0-83.243-57.2489,50.8991,50.8991,0,0,0-17.3441-3.0228,51.8384,51.8384,0,0,0-18.607,3.4674,51.17,51.17,0,0,0-10.6691-16.5374,51.6076,51.6076,0,0,0-.71-70.8333A51.1725,51.1725,0,0,0,563.1591,213.49a51.7223,51.7223,0,0,0-65.9523-49.6928,51.6119,51.6119,0,0,0-87.4291-19.6764,52.0268,52.0268,0,0,0-22.52-11.0472c-.9222-6.2-3.7759-18.3785-12.4869-28.2507a5.4124,5.4124,0,0,0-8.1167,7.1621c5.7616,6.53,8.2957,14.6243,9.3976,19.9412a51.6977,51.6977,0,0,0-6.32.446,49.4693,49.4693,0,0,0-20.4269-17.1977,5.4121,5.4121,0,1,0-3.9451,10.08,38.2954,38.2954,0,0,1,12.9221,9.9836,51.6747,51.6747,0,1,0,56.2768,83.2683,51.61,51.61,0,0,0,47.55,10.2087,51.6613,51.6613,0,0,0,12.1073,20.5784,51.173,51.173,0,0,0-13.1868,21.212l-17.6277,8.4595a13.42,13.42,0,0,0,1.773,24.8987l19.0962,6.0176a51.5724,51.5724,0,0,0,8.7482,12.2365,51.6264,51.6264,0,0,0-11.4038,50.33l-9.7743,17.26a13.4306,13.4306,0,0,0,11.64,20.043,13.551,13.551,0,0,0,4.04-.6191l19.65-6.14a51.5749,51.5749,0,0,0,42.4334,2.3677,51.74,51.74,0,0,0,23.563,26.2726l4.5144,16.8477a13.345,13.345,0,0,0,11.429,9.8587,13.7485,13.7485,0,0,0,1.5659.09,13.3366,13.3366,0,0,0,11.8036-7.0957l8.1781-15.299a51.9582,51.9582,0,0,0,34.5879-30.2272,50.8958,50.8958,0,0,0,17.344,3.0229c.56,0,1.1142-.0245,1.67-.0426L656.6643,420.26a13.42,13.42,0,0,0,22.4979-10.8128ZM448.4261,293.5381a2.5958,2.5958,0,0,1-.3428-4.8161l10.558-5.0672q-.0648,1.3054-.0656,2.6231a51.8788,51.8788,0,0,0,1.15,10.8207Zm15.8641,105.26a2.5963,2.5963,0,0,1-3.033-3.7575l5.939-10.4887a52.0626,52.0626,0,0,0,8.7986,10.5883Zm106.0555,48.785a2.5047,2.5047,0,0,1-2.21-1.9072L565.64,436.363a51.4721,51.4721,0,0,0,11.8238,1.3869l-4.5318,8.4776A2.5024,2.5024,0,0,1,570.3457,447.5834Zm7.1642-20.6563a40.87,40.87,0,0,1-38.43-27.0932,65.6276,65.6276,0,0,0,16.3259-22.7252,5.4121,5.4121,0,1,0-9.9237-4.3225,53.3016,53.3016,0,0,1-15.4888,20.5178A40.8258,40.8258,0,0,1,481.9951,328.41a75.607,75.607,0,0,0,26.8839,4.736q1.8455,0,3.7813-.0859a5.4119,5.4119,0,0,0-.4922-10.8127c-15.2846.6671-25.9328-3.7034-28.286-4.7793a40.7576,40.7576,0,0,1-.5686-61.8276,88.3745,88.3745,0,0,0,25.7379,5.0362c.0809.0036.161.0051.2411.0051a5.4122,5.4122,0,0,0,.2323-10.8192,76.2218,76.2218,0,0,1-24.307-5.0882,40.8159,40.8159,0,0,1-13.3088-21.2134,89.1517,89.1517,0,0,0,17.2272-21.0662,5.412,5.412,0,1,0-9.36-5.4359,79.2671,79.2671,0,0,1-16.7076,19.8791,40.7084,40.7084,0,0,1-43.2755-8.2669A183.7707,183.7707,0,0,0,421.7,184.6019a5.4119,5.4119,0,1,0-10.8236-.078,174.9579,174.9579,0,0,1-1.9808,23.8806,40.8388,40.8388,0,1,1-32.3993-65.6666,40.4251,40.4251,0,0,1,29.5,12.67,28.9858,28.9858,0,0,1,2.43,6.413,5.4122,5.4122,0,0,0,10.4411-2.8547,46.5856,46.5856,0,0,0-2.1764-6.3,40.7685,40.7685,0,0,1,71.2526,18.7484,38.5086,38.5086,0,0,1-.6624,5.8191,5.412,5.412,0,1,0,10.6474,1.9477c.3154-1.7233.5117-3.2192.6365-4.46A40.8193,40.8193,0,0,1,536.68,245.5692c-1.7023.6574-3.4421,1.2593-5.195,1.7673a5.4124,5.4124,0,1,0,3.0128,10.3971c1.2549-.3637,2.5062-.7657,3.7452-1.1965a40.7479,40.7479,0,0,1-.7664,60.1664c-1.4417.5665-2.8929,1.1042-4.33,1.5832a5.4121,5.4121,0,1,0,3.419,10.27c.8861-.2953,1.7781-.6112,2.6686-.9374a40.5908,40.5908,0,0,1,11.0407,18.472c.0736,1.9354.0779,3.865-.01,5.74a5.4076,5.4076,0,0,0,5.1531,5.66c.0858.0038.1717.0058.2569.0058a5.4121,5.4121,0,0,0,5.402-5.1589c.057-1.22.0844-2.4585.083-3.7048a40.9638,40.9638,0,0,1,16.35-3.432,39.863,39.863,0,0,1,18.1444,4.2943c.0267.0136.1485.0718.1833.0874a34.8424,34.8424,0,0,1,7.7891,5.4908,5.4124,5.4124,0,1,0,7.2732-8.0172,50.9817,50.9817,0,0,0-6.2918-4.8825,40.846,40.846,0,1,1,37.9788,55.8324,40.1883,40.1883,0,0,1-14.6792-2.7775,62.74,62.74,0,0,0-2.0869-24.56,5.4124,5.4124,0,0,0-10.361,3.1347,53.8215,53.8215,0,0,1,1.2722,23.5854A40.9685,40.9685,0,0,1,577.51,426.9271Zm89.3891-14.18a2.5039,2.5039,0,0,1-2.8872-.4337l-6.2341-5.7665a51.37,51.37,0,0,0,10.0125-4.3037l.5729,7.9782A2.5016,2.5016,0,0,1,666.899,412.7466Z"/></g><g id="Layer_3_copy" data-name="Layer 3 copy"><path class="cls-14" d="M1199.4992,892.7357a10.7872,10.7872,0,0,1-3.1692-7.654,11.7116,11.7116,0,0,1,11.3334-11.3333h48.5545a10.8231,10.8231,0,1,1,0,21.6462l-49.0648.51A10.7916,10.7916,0,0,1,1199.4992,892.7357Z"/><path class="cls-15" d="M1156.2067,849.4432a10.7868,10.7868,0,0,1-3.1692-7.6539l.51-49.0648a10.8231,10.8231,0,1,1,21.6462,0V841.279a11.7116,11.7116,0,0,1-11.3333,11.3334A10.7919,10.7919,0,0,1,1156.2067,849.4432Z"/><path class="cls-15" d="M1202.6405,846.3019c-21.126-21.126-55.9254-20.6138-77.0494.51a10.7188,10.7188,0,0,0,0,15.3079l61.2313,61.2313a10.72,10.72,0,0,0,15.3078,0C1223.2543,902.2273,1223.7645,867.4259,1202.6405,846.3019Z"/><path class="cls-14" d="M1202.13,923.3513a10.72,10.72,0,0,1-15.3078,0l-30.6157-30.6156,46.4338-46.4338C1223.7645,867.4259,1223.2543,902.2273,1202.13,923.3513Z"/><path class="cls-14" d="M1063.8494,1199.4027l-15.3078-15.3079a10.8162,10.8162,0,0,1,0-15.3078l27.1634-27.1635-5.4175-31.4607a10.8218,10.8218,0,1,1,21.3313-3.6636l6.3683,36.984a10.8153,10.8153,0,0,1-3.0117,9.4857l-23.472,23.472,7.6539,7.6539a10.8243,10.8243,0,0,1-15.3079,15.3079Z"/><path class="cls-14" d="M1213.649,979.207a10.8245,10.8245,0,0,1,5.5391-18.26l46.49-9.2963,28.81-28.81a10.8181,10.8181,0,0,1,15.3079,0l15.3078,15.3078a10.8242,10.8242,0,0,1-15.3078,15.3078l-7.654-7.6539-23.472,23.472a10.8312,10.8312,0,0,1-5.5311,2.96l-49.7047,9.94A10.8034,10.8034,0,0,1,1213.649,979.207Z"/><path class="cls-2" d="M1125.5911,1091.7375l91.847-91.847a54.186,54.186,0,0,0,0-76.5392l-45.9235-45.9235h-30.6157L956.6946,1061.6321v30.6157C1003.1184,1138.6716,1079.1673,1138.1613,1125.5911,1091.7375Z"/><path class="cls-15" d="M1069.7334,835.2914a10.8056,10.8056,0,0,1-2.9659-9.7827l9.94-49.7046a10.8313,10.8313,0,0,1,2.96-5.5311l23.4721-23.4721-7.654-7.6539a10.8243,10.8243,0,1,1,15.3079-15.3078l15.3078,15.3078a10.82,10.82,0,0,1,0,15.3079l-28.81,28.81-9.2983,46.4916a10.8205,10.8205,0,0,1-18.26,5.5351Z"/><path class="cls-14" d="M1186.8224,953.967l-45.9235-45.9235a10.818,10.818,0,0,0-15.3078,0l-91.8471,91.847a10.8165,10.8165,0,0,0,0,15.3079l45.9235,45.9235a10.8183,10.8183,0,0,0,15.3079,0l91.847-91.8471A10.82,10.82,0,0,0,1186.8224,953.967Z"/><path class="cls-15" d="M864.8476,1000.4008,849.54,985.0929a10.8243,10.8243,0,0,1,15.3079-15.3078l7.6539,7.6539,23.472-23.472a10.8078,10.8078,0,0,1,9.4857-3.0117l36.984,6.3683a10.8218,10.8218,0,1,1-3.6636,21.3313l-31.4608-5.4176-27.1634,27.1635A10.818,10.818,0,0,1,864.8476,1000.4008Z"/><path class="cls-16" d="M1110.2832,969.2748l-15.3078-15.3078a10.8242,10.8242,0,0,1,15.3078-15.3078l15.3079,15.3078a10.8243,10.8243,0,1,1-15.3079,15.3078Z"/><path class="cls-16" d="M1079.6675,999.8905,1064.36,984.5827a10.8243,10.8243,0,0,1,15.3078-15.3079l15.3079,15.3079a10.8243,10.8243,0,0,1-15.3079,15.3078Z"/><path class="cls-15" d="M892.294,899.8793a10.82,10.82,0,0,1,10.8232-10.8231h26.1309l43.3762-42.3557a10.8271,10.8271,0,0,1,11.0763-2.6171l45.9235,15.3079a10.8255,10.8255,0,1,1-6.8467,20.54L983.2,866.74,941.897,908.0435a10.8164,10.8164,0,0,1-7.6539,3.1692l-31.1259-.51A10.82,10.82,0,0,1,892.294,899.8793Z"/><path class="cls-7" d="M1133.245,839.1582l-38.27,22.9618,22.1864-37.4943a54.2082,54.2082,0,0,0-68.11,6.8786l-91.847,91.847a120.2093,120.2093,0,0,0-29.4856,121.3326l29.4856-14.1777-20.2092,35.517a118.5545,118.5545,0,0,0,19.6989,26.2246l214.82-214.82Z"/><path class="cls-17" d="M1033.744,953.967a10.818,10.818,0,0,0-15.3078,0l-90.7169,90.7169a118.0139,118.0139,0,0,0,9.2764,21.3393l96.7483-96.7484A10.82,10.82,0,0,0,1033.744,953.967Z"/><path class="cls-17" d="M1033.744,923.3513a10.8181,10.8181,0,0,0,15.3079,0l84.1931-84.1931-7.6539-7.6539a53.9368,53.9368,0,0,0-8.4293-6.8786l-83.4178,83.4178A10.8164,10.8164,0,0,0,1033.744,923.3513Z"/></g><g id="Layer_4_copy_2" data-name="Layer 4 copy 2"><path class="cls-13" d="M1079.1632,1184.1267l-7.6539-7.6539,23.472-23.472a10.8292,10.8292,0,0,0,3.0137-9.4917l-4.9232-28.5746a119.9135,119.9135,0,0,0,32.5252-23.1651l91.847-91.847a53.7793,53.7793,0,0,0,12.2742-18.9713l43.426-8.6845a10.8306,10.8306,0,0,0,5.5312-2.96l23.472-23.472,7.6539,7.6539a10.8242,10.8242,0,0,0,15.3078-15.3078l-15.3078-15.3078a10.8235,10.8235,0,0,0-15.3079,0l-28.8078,28.8078-32.5391,6.5078a53.8882,53.8882,0,0,0-15.7025-34.8054l-8.4233-8.4233a53.8134,53.8134,0,0,0,7.8652-19.0989l39.4575-.4345a10.8238,10.8238,0,1,0-.2391-21.6463l-39.2523.4326a53.9624,53.9624,0,0,0-42.0846-42.0846l.4326-39.2523a10.8248,10.8248,0,0,0-21.6483-.2372l-.4325,39.4556A53.8651,53.8651,0,0,0,1134.02,839.96l-8.4233-8.4233a53.8882,53.8882,0,0,0-34.8054-15.7025l6.5078-32.5391,28.8078-28.8078a10.8235,10.8235,0,0,0,0-15.3079l-15.3078-15.3078a10.8242,10.8242,0,0,0-15.3078,15.3078l7.6539,7.6539-23.472,23.472a10.8148,10.8148,0,0,0-2.96,5.5312l-8.6845,43.426a53.7793,53.7793,0,0,0-18.9713,12.2742l-25.77,25.77-39.5771-13.1911a10.8265,10.8265,0,0,0-11.0783,2.6151L929.84,889.5226l-26.5395-.4325a10.8246,10.8246,0,1,0-.3548,21.6462l31.1259.51a10.8318,10.8318,0,0,0,7.8313-3.1712L983.21,866.7681l22.9617,7.654-48.9611,48.9611a119.9859,119.9859,0,0,0-23.1671,32.5232l-28.5726-4.9212a10.8292,10.8292,0,0,0-9.4917,3.0137l-23.472,23.472-7.6539-7.6539a10.8242,10.8242,0,0,0-15.3078,15.3078l15.3078,15.3079a10.8234,10.8234,0,0,0,15.3078,0l27.1595-27.1595,18.9733,3.2669a118.6632,118.6632,0,0,0,146.146,146.146l3.2669,18.9733-27.16,27.1595a10.8234,10.8234,0,0,0,0,15.3078l15.3079,15.3078a10.8242,10.8242,0,0,0,15.3078-15.3078ZM964.785,1068.8874a96.042,96.042,0,0,1-11.77-18.8458l80.7349-80.7349a10.8243,10.8243,0,1,0-15.3079-15.3078L945.4608,1026.98a98.3258,98.3258,0,0,1,27.0578-88.2891l91.847-91.8471a32.52,32.52,0,0,1,36.9521-6.3364L1033.75,908.0754a10.8242,10.8242,0,0,0,15.3078,15.3078l68.8853-68.8852,30.6156,30.6156ZM1149.87,855.81a32.4762,32.4762,0,0,1,43.3,43.3Zm-54.889,128.8051-7.6539-7.654,15.3078-15.3078,7.6539,7.6539a10.8243,10.8243,0,0,0,15.3079-15.3078l-7.6539-7.6539,15.3078-15.3079,30.6157,30.6157-76.5392,76.5392-30.6157-30.6157,15.3079-15.3078,7.6539,7.6539a10.8242,10.8242,0,1,0,15.3078-15.3078Zm15.3078,91.847c-35.3615,35.3615-91.6257,38.5427-130.1963,7.7336l61.3111-61.311,38.27,38.27a10.8236,10.8236,0,0,0,15.3078,0l91.847-91.8471a10.8234,10.8234,0,0,0,0-15.3078l-38.27-38.27,15.3079-15.3078,38.27,38.27a32.51,32.51,0,0,1,0,45.9235Z"/></g><g id="Layer_6_copy" data-name="Layer 6 copy"><path class="cls-7" d="M1202.7755,1092.2317l-69.3955-69.3956,15.3078-15.3078,69.3955,69.3955a10.8243,10.8243,0,0,1-15.3078,15.3079Z"/><path class="cls-7" d="M1172.16,1122.8473l-69.3955-69.3955,15.3078-15.3078,69.3956,69.3955a10.8243,10.8243,0,1,1-15.3079,15.3078Z"/><path class="cls-7" d="M1233.3912,1061.616l-69.3955-69.3955,15.3078-15.3079,69.3955,69.3956a10.8242,10.8242,0,0,1-15.3078,15.3078Z"/><path class="cls-7" d="M1141.5442,1153.463l-15.8181-15.8181a10.8162,10.8162,0,0,1,0-15.3078l30.6156-30.6157a10.8243,10.8243,0,0,1,15.3079,15.3078l-22.9618,22.9618,8.1642,8.1642a10.8242,10.8242,0,0,1-15.3078,15.3078Z"/><path class="cls-7" d="M1217.5731,1045.7979a10.8162,10.8162,0,0,1,0-15.3078l30.6157-30.6157a10.818,10.818,0,0,1,15.3078,0l15.8181,15.8181A10.8242,10.8242,0,1,1,1264.0069,1031l-8.1642-8.1642-22.9618,22.9618A10.818,10.818,0,0,1,1217.5731,1045.7979Z"/></g><g id="Layer_16" data-name="Layer 16"><path class="cls-18" d="M617.9593,1570.2155a10.818,10.818,0,0,1-15.3078,0l-31.6362-31.6362a10.8138,10.8138,0,0,1-3.1687-7.6539V1469.694a10.823,10.823,0,1,1,21.646,0v56.7467l28.4667,28.467A10.818,10.818,0,0,1,617.9593,1570.2155Z"/><path class="cls-18" d="M525.0918,1507.9636l-31.126,31.126a10.8243,10.8243,0,0,1-15.3078-15.3079l27.9567-27.9567v-26.13a10.8176,10.8176,0,0,1,3.1692-7.6544l30.8025-30.8024a10.8242,10.8242,0,0,1,15.3078,15.3078l-27.6332,27.6332v26.13A10.817,10.817,0,0,1,525.0918,1507.9636Z"/><path class="cls-18" d="M527.9319,1413.2765l-33.4558,33.4558a10.8286,10.8286,0,0,1-11.0773,2.6161l-45.9235-15.3078a10.8256,10.8256,0,0,1,6.8467-20.54l39.5774,13.1928,28.7246-28.7246a10.8243,10.8243,0,0,1,15.3079,15.3078Z"/><path class="cls-19" d="M771.0377,1417.1371a10.8181,10.8181,0,0,1-15.3079,0L727.2629,1388.67H670.5167a10.8232,10.8232,0,0,1,0-21.6463h61.2314a10.8166,10.8166,0,0,1,7.6534,3.1692l31.6362,31.6362A10.818,10.818,0,0,1,771.0377,1417.1371Z"/><path class="cls-19" d="M739.9118,1293.1437l-31.126,31.1259a10.8146,10.8146,0,0,1-7.6539,3.169h-26.131l-27.6332,27.6334a10.8242,10.8242,0,0,1-15.3078-15.3078l30.8024-30.8024a10.8146,10.8146,0,0,1,7.6539-3.169h26.131l27.9567-27.957a10.8243,10.8243,0,0,1,15.3079,15.3079Z"/><path class="cls-19" d="M647.5545,1293.6539,614.0987,1327.11a10.8243,10.8243,0,0,1-15.3079-15.3078l28.7247-28.7247L614.3227,1243.5a10.8256,10.8256,0,0,1,20.54-6.8467l15.3078,45.9235A10.8285,10.8285,0,0,1,647.5545,1293.6539Z"/><path class="cls-20" d="M517.44,1336.4079H460.6908l-4.4842-4.4842,7.6538-7.6541a10.8242,10.8242,0,1,0-15.3077-15.3077l-7.6539,7.6539-19.7924-19.792v-26.1311a10.8235,10.8235,0,0,0-21.6469,0v30.6157a10.8169,10.8169,0,0,0,3.17,7.6534l45.9236,45.9235a10.8148,10.8148,0,0,0,7.6538,3.17H517.44a10.8235,10.8235,0,0,0,0-21.647Z"/><path class="cls-18" d="M502.13,1198.6378h-30.616a10.8235,10.8235,0,0,0,0,21.6469h26.1317l19.792,19.7919-7.654,7.6538a10.8244,10.8244,0,0,0,15.308,15.308l7.6539-7.6539,4.4843,4.4842v56.7489a10.824,10.824,0,0,0,21.648,0v-61.2333a10.8175,10.8175,0,0,0-3.17-7.6534l-45.9238-45.9238A10.8145,10.8145,0,0,0,502.13,1198.6378Z"/><path class="cls-19" d="M586.3234,1308.9617,601.631,1324.27l-76.5392,76.5392-15.3078-15.3077a54.1215,54.1215,0,0,1,76.5394-76.5394Z"/><path class="cls-21" d="M586.3234,1308.9617,601.631,1324.27l-38.27,38.27-53.5774-53.5773A54.1412,54.1412,0,0,1,586.3234,1308.9617Z"/><path class="cls-20" d="M616.9388,1308.9618l61.2313,61.2313A75.77,75.77,0,1,1,571.0153,1477.348l-61.2314-61.2314a10.7182,10.7182,0,0,1,0-15.3078l22.9619-22.9617,22.9616-7.654,15.3079-15.3078,7.654-22.9618,22.9617-22.9617A10.718,10.718,0,0,1,616.9388,1308.9618Z"/><path class="cls-18" d="M616.9388,1308.9618l61.2313,61.2313a75.8533,75.8533,0,0,1,0,107.155L563.3614,1362.5392l7.6539-7.6539,7.654-22.9618,22.9617-22.9617A10.718,10.718,0,0,1,616.9388,1308.9618Z"/><path class="cls-18" d="M578.6693,1331.9235l22.9618,22.9618a32.4728,32.4728,0,0,1-45.9232,45.9238l-22.9621-22.962Z"/><path class="cls-19" d="M578.6693,1331.9235l22.9618,22.9618a32.4284,32.4284,0,0,1,0,45.9235l-45.9236-45.9235Z"/></g><g id="Layer_17_copy" data-name="Layer 17 copy"><path class="cls-13" d="M609.4652,1301.128l-15.4874,15.4874-7.6544-7.6537a53.7909,53.7909,0,0,0-27.4453-14.732v-38.8455a10.8236,10.8236,0,0,0-3.17-7.6534l-45.9238-45.9238a10.8231,10.8231,0,0,0-7.6538-3.1692H471.9675c-5.9268,0-11.0951,4.5664-11.2727,10.4906a10.824,10.824,0,0,0,10.8194,11.1563h26.1317l19.792,19.7919-7.3327,7.3331c-4.1909,4.1909-4.6163,11.0749-.5532,15.39a10.8248,10.8248,0,0,0,15.54.239l7.6539-7.6539,4.4843,4.4842V1294.23a53.9674,53.9674,0,0,0-42.1787,42.1781H460.6908l-4.4842-4.4842,7.333-7.3328c4.1908-4.1908,4.6163-11.0746.5533-15.3895a10.8249,10.8249,0,0,0-15.54-.2395l-7.6539,7.6539-19.7924-19.792V1271.148c0-5.9269-4.5656-11.0958-10.49-11.2742a10.8236,10.8236,0,0,0-11.1571,10.819v30.6157a10.823,10.823,0,0,0,3.17,7.6534l45.9236,45.9235a10.8234,10.8234,0,0,0,7.6538,3.17h38.8459a53.7939,53.7939,0,0,0,14.7316,27.4462l7.654,7.6541-15.3038,15.3038c4.821,4.821,49.2711,49.8751,65.413,66.017,12.1065,12.1065,18.3981,15.3068,20.7873,16.15a31.24,31.24,0,0,1,3.2058,1.3292,75.7765,75.7765,0,0,0,100.2087-103.284s-1.33-6.2292-16.7489-21.6482S614.71,1306.3732,609.4652,1301.128Zm-84.3731,69.0653a32.28,32.28,0,0,1-7.6518-12.1384,10.8235,10.8235,0,0,0,0-21.647,32.4524,32.4524,0,0,1,19.79-19.79,10.824,10.824,0,0,0,21.648,0,32.2935,32.2935,0,0,1,12.1375,7.6523l7.6537,7.6537-45.9235,45.9236Zm129.3466,98.7309a54.2124,54.2124,0,0,1-68.1132-6.8818l-53.579-53.579,15.3078-15.3078,7.6536,7.6535a32.5244,32.5244,0,0,0,36.9535,6.3378Zm-68.1153-83.4231a10.8365,10.8365,0,0,1-15.3078,0l-7.6539-7.6539,15.3078-15.3078,7.6539,7.6539A10.836,10.836,0,0,1,586.3234,1385.5011Zm76.5413.0021a54.213,54.213,0,0,1,6.8818,68.1132l-61.7778-61.7779a32.5241,32.5241,0,0,0-6.3376-36.9532l-7.6538-7.6538,15.3079-15.3078Z"/></g></svg>