<svg xmlns="http://www.w3.org/2000/svg" width="2000" height="2000" viewBox="0 0 2000 2000"><defs><style>.cls-1{fill:#ee4d00;}.cls-2{fill:#f60;}.cls-3{fill:#ceff19;}.cls-4{fill:#4dbf00;}.cls-5{fill:#6f0;}.cls-6{fill:#338000;}.cls-7{fill:#27cbc5;}.cls-8{fill:#06f;}.cls-9{fill:#ef7900;}.cls-10{fill:#5dd2cf;}.cls-11{fill:#9e8c51;}.cls-12{fill:#ddd;}.cls-13{fill:#efefef;}.cls-14{fill:#fff;}.cls-15{fill:#ff3385;}.cls-16{fill:#ff66a3;}.cls-17{fill:#bf004d;}.cls-18{fill:#f06;}.cls-19{fill:#ff99c2;}.cls-20{fill:#ccc;}</style></defs><g id="Layer_3_copy" data-name="Layer 3 copy"><g id="_062---Computer" data-name="062---Computer"><path id="Rectangle-path" class="cls-1" d="M856.2676,1243.0447h313.8286v188.2971H856.2676Z"/><path id="Shape" class="cls-2" d="M605.2048,1117.5133H1421.159v125.5314a31.3829,31.3829,0,0,1-31.3828,31.3829H636.5876a31.3829,31.3829,0,0,1-31.3828-31.3829Z"/><rect id="Rectangle-path-2" data-name="Rectangle-path" class="cls-3" x="479.6733" y="81.8791" width="1067.0171" height="1067.0171" rx="31.3829"/><rect id="Rectangle-path-3" data-name="Rectangle-path" class="cls-2" x="542.4391" y="144.6448" width="941.4857" height="878.72" rx="94.1486"/><rect id="Rectangle-path-4" data-name="Rectangle-path" class="cls-3" x="103.0791" y="1399.959" width="1820.2056" height="502.1257" rx="62.7657"/><path id="Shape-2" data-name="Shape" class="cls-4" d="M1546.69,1651.0218V1745.17a31.3829,31.3829,0,0,1-31.3828,31.3829H1013.1819A31.3829,31.3829,0,0,1,981.799,1745.17v-94.1486Z"/><path id="Shape-3" data-name="Shape" class="cls-5" d="M1546.69,1556.8733v94.1485H981.799v-94.1485a31.3829,31.3829,0,0,1,31.3829-31.3829h502.1257A31.3829,31.3829,0,0,1,1546.69,1556.8733Z"/><rect id="Rectangle-path-5" data-name="Rectangle-path" class="cls-6" x="1672.2219" y="1525.4904" width="125.5314" height="251.0628" rx="31.3829"/><path id="Shape-4" data-name="Shape" class="cls-2" d="M856.2676,1556.8733H103.0791a31.3829,31.3829,0,1,1,0-62.7657H856.2676a31.3829,31.3829,0,1,1,0,62.7657Z"/><path id="Shape-5" data-name="Shape" class="cls-2" d="M291.3762,1682.4047H103.0791a31.3829,31.3829,0,1,1,0-62.7657H291.3762a31.3829,31.3829,0,1,1,0,62.7657Z"/><path id="Shape-6" data-name="Shape" class="cls-2" d="M291.3762,1807.9361H103.0791a31.3829,31.3829,0,1,1,0-62.7657H291.3762a31.3829,31.3829,0,1,1,0,62.7657Z"/><path id="Shape-7" data-name="Shape" class="cls-2" d="M448.2905,1619.639a31.3829,31.3829,0,0,1-31.3829-31.3829V1525.49a31.3829,31.3829,0,0,1,62.7657,0v62.7657A31.3829,31.3829,0,0,1,448.2905,1619.639Z"/><path id="Shape-8" data-name="Shape" class="cls-2" d="M573.8219,1619.639a31.3829,31.3829,0,0,1-31.3828-31.3829V1525.49a31.3829,31.3829,0,0,1,62.7657,0v62.7657A31.3829,31.3829,0,0,1,573.8219,1619.639Z"/><path id="Shape-9" data-name="Shape" class="cls-2" d="M699.3533,1619.639a31.3829,31.3829,0,0,1-31.3828-31.3829V1525.49a31.3829,31.3829,0,0,1,62.7657,0v62.7657A31.3829,31.3829,0,0,1,699.3533,1619.639Z"/><path id="Shape-10" data-name="Shape" class="cls-2" d="M824.8848,1619.639a31.3829,31.3829,0,0,1-31.3829-31.3829V1525.49a31.3829,31.3829,0,0,1,62.7657,0v62.7657A31.3829,31.3829,0,0,1,824.8848,1619.639Z"/><rect id="Rectangle-path-6" data-name="Rectangle-path" class="cls-7" x="605.2048" y="207.4105" width="815.9542" height="753.1885" rx="31.3829"/><path id="Shape-11" data-name="Shape" class="cls-8" d="M1170.0962,1086.13v62.7657h-62.7657V1086.13a31.3829,31.3829,0,0,1,62.7657,0Z"/><path id="Shape-12" data-name="Shape" class="cls-9" d="M1295.6276,1086.13v62.7657h-62.7657V1086.13a31.3829,31.3829,0,0,1,62.7657,0Z"/><path id="Shape-13" data-name="Shape" class="cls-10" d="M730.7363,395.7076a31.3828,31.3828,0,0,1-22.1877-53.5705l31.3828-31.3829A31.3829,31.3829,0,0,1,784.3068,355.13L752.924,386.5124A31.3756,31.3756,0,0,1,730.7363,395.7076Z"/><path id="Shape-14" data-name="Shape" class="cls-10" d="M730.7363,584.0047a31.3828,31.3828,0,0,1-22.1877-53.57l219.68-219.68A31.3829,31.3829,0,0,1,972.6039,355.13L752.924,574.81A31.3752,31.3752,0,0,1,730.7363,584.0047Z"/><path id="Shape-15" data-name="Shape" class="cls-11" d="M1421.159,238.7933V929.2162a31.3829,31.3829,0,0,1-31.3828,31.3828H636.5876a31.3829,31.3829,0,0,1-31.3828-31.3828V779.52c182.6482-16.0052,457.2482-116.1166,447.8333-572.1094h336.7381A31.3829,31.3829,0,0,1,1421.159,238.7933Z"/></g></g><g id="Layer_3_copy_3" data-name="Layer 3 copy 3"><g id="_062---Computer-2" data-name="062---Computer"><rect id="Rectangle-path-7" data-name="Rectangle-path" class="cls-12" x="605.2048" y="207.4105" width="815.9542" height="753.1885" rx="31.3829"/><path id="Shape-16" data-name="Shape" class="cls-13" d="M1421.159,238.7933V929.2162a31.3829,31.3829,0,0,1-31.3828,31.3828H636.5876a31.3829,31.3829,0,0,1-31.3828-31.3828V779.52c182.6482-16.0052,457.2482-116.1166,447.8333-572.1094h336.7381A31.3829,31.3829,0,0,1,1421.159,238.7933Z"/></g></g><g id="Layer_10_copy_4" data-name="Layer 10 copy 4"><g id="FILLED_OUTLINE" data-name="FILLED OUTLINE"><path class="cls-14" d="M1329.7277,828.576l-190.19-159.4506-48.5053,48.5054,175.7242,157.6423c13.3945,13.3942,49.5765,15.2025,62.9709,1.8082A34.2983,34.2983,0,0,0,1329.7277,828.576Z"/><circle class="cls-14" cx="1006.1482" cy="584.2411" r="169.7687"/><path class="cls-15" d="M909.1375,572.1147H884.8848V547.862A12.1271,12.1271,0,0,1,895.018,535.9l99.61-16.6012,3.9864,23.9241-89.4769,14.9122Z"/><path class="cls-15" d="M909.1375,632.7464H884.8848V608.4937a12.1275,12.1275,0,0,1,8.2917-11.5046l67.6608-22.5533,7.6692,23.0092-59.369,19.7882Z"/><path class="cls-15" d="M933.39,681.2517H909.1375V656.9991a12.1259,12.1259,0,0,1,6.7034-10.8459l48.5053-24.2527,10.8459,21.6918L933.39,664.4937Z"/><path class="cls-15" d="M1127.4116,572.1147h-24.2527v-13.98l-86.8783-14.48,3.9878-23.924L1117.2791,535.9a12.1272,12.1272,0,0,1,10.1325,11.962Z"/><path class="cls-15" d="M1127.4116,632.7464h-24.2527V617.2332l-54.1141-18.037,7.6693-23.0093,62.4058,20.8022a12.1275,12.1275,0,0,1,8.2917,11.5046Z"/><path class="cls-15" d="M1103.1589,681.2517h-24.2527v-16.758l-39.2751-19.6387,10.8459-21.6918,45.9785,22.99a12.1259,12.1259,0,0,1,6.7034,10.8459Z"/><path class="cls-16" d="M1012.8135,501.3792,1030.99,446.793l23.0158,7.6638-18.1762,54.5863Z"/><path class="cls-16" d="M958.3177,454.845l23.0158-7.6639L999.51,501.7674l-23.0158,7.6638Z"/><path class="cls-17" d="M1035.1573,498.8856a29.5837,29.5837,0,0,0-58.0182,0l-7.37,36.85h72.758Z"/><path class="cls-18" d="M1006.1482,523.6094a72.77,72.77,0,0,0-24.2527,141.3757l24.2527-68.6177,24.2527,68.6177a72.77,72.77,0,0,0-24.2527-141.3757Z"/><path class="cls-19" d="M994.0219,559.9884h24.2526V620.62H994.0219Z"/></g></g><g id="Layer_10_copy" data-name="Layer 10 copy"><g id="FILLED_OUTLINE-2" data-name="FILLED OUTLINE"><path class="cls-20" d="M669.824,266.364h24.4528v24.4527H669.824Z"/><path class="cls-20" d="M747.6606,266.364h24.4528v24.4527H747.6606Z"/><path class="cls-20" d="M785.717,266.364H810.17v24.4527H785.717Z"/><path class="cls-20" d="M1372.0685,217.4584H657.5976a36.7212,36.7212,0,0,0-36.6792,36.6792V914.3628a36.7211,36.7211,0,0,0,36.6792,36.6791h714.4709a36.7211,36.7211,0,0,0,36.6792-36.6791V254.1376A36.7212,36.7212,0,0,0,1372.0685,217.4584Zm0,709.1308H657.5976a12.24,12.24,0,0,1-12.2264-12.2264V254.1376a12.24,12.24,0,0,1,12.2264-12.2264h714.4709a12.24,12.24,0,0,1,12.2264,12.2264V266.364H834.6226v24.4527h549.6723V914.3628A12.24,12.24,0,0,1,1372.0685,926.5892Z"/><path class="cls-20" d="M1164.2408,676.5022A183.3838,183.3838,0,0,0,956.8865,407.4861V339.7223A12.2265,12.2265,0,0,0,944.66,327.4959H682.05a12.2265,12.2265,0,0,0-12.2264,12.2264V608.7029A12.2263,12.2263,0,0,0,682.05,620.9293H826.0838a183.3245,183.3245,0,0,0,271.96,121.77L1277.8379,886.328a46.8079,46.8079,0,0,0,66.1967-66.1959ZM932.4337,351.9487v64.2348q-5.6072,2.457-11.0163,5.2689l-29.244-29.244a12.2291,12.2291,0,0,0-17.29,0l-28.034,28.0339-28.034-28.034a12.2293,12.2293,0,0,0-17.29,0L694.2768,481.3742V351.9487Zm-53.6986,100.18L864.14,437.5334l19.388-19.3888,16.4176,16.4181A184.7715,184.7715,0,0,0,878.7351,452.1284ZM694.2768,596.4766v-80.52L810.17,418.1447l52.0861,52.0867a182.62,182.62,0,0,0-39.86,114.0188c.002,4.1091.15,8.1836.4173,12.2264ZM846.849,584.25c-.05-87.7819,71.1613-158.9431,158.9431-158.9431A158.943,158.943,0,0,1,1164.7352,584.25c0,87.7818-71.1612,158.9927-158.9431,158.9431A159.06,159.06,0,0,1,846.849,584.25Zm479.8944,284.7889a22.35,22.35,0,0,1-31.6132,0h0L1118.643,728.7154a185.0106,185.0106,0,0,0,31.6144-31.6144l176.486,140.3215A22.3782,22.3782,0,0,1,1326.7434,869.0391Z"/><path class="cls-20" d="M981.3393,327.4959h378.5029v24.4528H981.3393Z"/><path class="cls-20" d="M1103.6032,388.6279h256.239v24.4528h-256.239Z"/><path class="cls-20" d="M1189.188,461.9862h170.6542V486.439H1189.188Z"/><path class="cls-20" d="M1213.6408,535.3446h146.2014v24.4528H1213.6408Z"/><path class="cls-20" d="M1213.6408,608.7029h146.2014v24.4528H1213.6408Z"/><path class="cls-20" d="M1225.8672,682.0613h133.975v24.4528h-133.975Z"/><path class="cls-20" d="M972.6941,795.6793,936.015,832.3585a12.227,12.227,0,0,0,0,17.2916h0L972.6941,886.33l17.29-17.2918-28.034-28.0333,28.034-28.0332Z"/><path class="cls-20" d="M1006.2174,873.1094l24.4269-61.1,22.6922,9.072-24.4269,61.1Z"/><path class="cls-20" d="M1087.7956,795.6793l-17.29,17.2919,28.034,28.0332-28.034,28.0333,17.29,17.2918,36.6792-36.6792a12.2268,12.2268,0,0,0,0-17.2914Z"/><path class="cls-20" d="M669.824,828.778H907.981v24.4528H669.824Z"/><path class="cls-20" d="M669.824,755.42H883.5282v24.4527H669.824Z"/><path class="cls-20" d="M669.824,682.0613H810.17v24.4528H669.824Z"/></g><path class="cls-20" d="M710.3157,266.3964h24.4528v24.4527H710.3157Z"/></g></svg>