<svg xmlns="http://www.w3.org/2000/svg" width="2000" height="2111.734" viewBox="0 0 2000 2111.734"><polygon points="219.626 545.561 1789.219 534.92 1789.219 1748.029 208.984 1769.312 219.626 545.561" fill="#efefef" opacity="0.85"/><path d="M1748.447,75.976l-534.156-6a30.276,30.276,0,0,0-21.98,9.455L1022.658,274.216" fill="#333"/><path d="M1778.833,101.853,1564.966,529.588l320.8-106.934v-320.8Z" fill="#66a3ff"/><path d="M1222.7,111.308,1023.045,322.093,114.233,315.72V422.654L221.167,529.588H1778.833V101.853H1244.677A30.273,30.273,0,0,0,1222.7,111.308Z" fill="#99c2ff"/><path d="M1778.833,422.654,1771.1,1148.02l7.734,725.366h106.934V422.654Z" fill="#3385ff"/><polygon points="114.233 422.654 114.233 1873.386 1778.833 1873.386 1778.833 1766.453 1671.899 1766.453 221.167 1766.453 221.167 529.588 1671.899 529.588 1778.833 529.588 1778.833 422.654 114.233 422.654" fill="#06f"/><rect x="1671.899" y="529.588" width="106.934" height="1236.865" fill="#99c2ff"/><circle cx="1725.366" cy="262.254" r="53.467" fill="#f06"/><circle cx="1511.499" cy="262.254" r="53.467" fill="#f60"/><circle cx="1297.632" cy="262.254" r="53.467" fill="#6f0"/><path d="M1006.73,288.987H140.967s-12.45-.312-26.314-.527A26.738,26.738,0,0,0,87.5,315.191V1846.653a53.467,53.467,0,0,0,53.467,53.467H1859.033a53.467,53.467,0,0,0,53.467-53.467V128.587a53.467,53.467,0,0,0-53.467-53.467s-651.7-.52-652.555,0M1832.3,1846.653H167.7a26.733,26.733,0,0,1-26.733-26.733V476.121A26.734,26.734,0,0,1,167.7,449.387H1832.3a26.734,26.734,0,0,1,26.733,26.734v1343.8A26.733,26.733,0,0,1,1832.3,1846.653Zm0-1450.732H167.7a26.734,26.734,0,0,1-26.733-26.734h0A26.733,26.733,0,0,1,167.7,342.454h839.031a53.472,53.472,0,0,0,37.809-15.661l176.376-197.376a26.734,26.734,0,0,1,18.9-7.83l592.48,7a26.733,26.733,0,0,1,26.733,26.733V369.187A26.734,26.734,0,0,1,1832.3,395.921Z" fill="#333"/><path d="M1725.366,342.454a80.2,80.2,0,1,0-80.2-80.2A80.291,80.291,0,0,0,1725.366,342.454Zm0-106.934a26.734,26.734,0,1,1-26.733,26.734A26.762,26.762,0,0,1,1725.366,235.52Z" fill="#333"/><path d="M1511.5,342.454a80.2,80.2,0,1,0-80.2-80.2A80.291,80.291,0,0,0,1511.5,342.454Zm0-106.934a26.734,26.734,0,1,1-26.733,26.734A26.761,26.761,0,0,1,1511.5,235.52Z" fill="#333"/><path d="M1217.519,258.476a80.2,80.2,0,1,0,76.361-76.337A80.283,80.283,0,0,0,1217.519,258.476Zm106.846,3.778a26.734,26.734,0,1,1-26.733-26.734A26.762,26.762,0,0,1,1324.365,262.254Z" fill="#333"/><path d="M1778.833,502.854H221.167a26.732,26.732,0,0,0-26.733,26.734v564.965a26.733,26.733,0,1,0,53.466,0V556.321H1752.1v1183.4H247.9V1201.487a26.733,26.733,0,0,0-53.466,0v564.966a26.731,26.731,0,0,0,26.733,26.733H1778.833a26.731,26.731,0,0,0,26.733-26.733V529.588A26.732,26.732,0,0,0,1778.833,502.854Z" fill="#333"/><path d="M436.49,904.1v70.435a33.138,33.138,0,0,0,33.139,33.138H1551.967a33.138,33.138,0,0,0,33.138-33.138V904.1a33.138,33.138,0,0,0-33.138-33.139H469.629A33.144,33.144,0,0,0,436.49,904.1Z" fill="#787878"/><path d="M436.49,1210.54v70.435a33.139,33.139,0,0,0,33.139,33.139H1551.967a33.138,33.138,0,0,0,33.138-33.139V1210.54a33.138,33.138,0,0,0-33.138-33.139H469.629A33.142,33.142,0,0,0,436.49,1210.54Z" fill="#b3b3b3"/><path d="M1053.772,1503.306H927.824a65.778,65.778,0,0,0-65.779,65.779v3.679a65.777,65.777,0,0,0,65.779,65.778h125.948a65.777,65.777,0,0,0,65.778-65.778v-3.679A65.78,65.78,0,0,0,1053.772,1503.306Z" fill="#0f6"/><path d="M1538.976,1735.684l-280.894-162.173a19.089,19.089,0,0,0-28.633,16.529v324.35a19.087,19.087,0,0,0,28.633,16.529l72.36-41.777a22.262,22.262,0,0,1,30.409,8.148l54.83,94.968a21.382,21.382,0,0,0,29.2,7.826l60.592-34.983a21.382,21.382,0,0,0,7.826-29.2l-54.83-94.968a22.263,22.263,0,0,1,8.147-30.41l72.36-41.776A19.088,19.088,0,0,0,1538.976,1735.684Z" fill="#f06"/><path d="M1247.462,718.856a27.064,27.064,0,0,0,0-54.127H734.133a27.064,27.064,0,0,0,0,54.127Z" fill="#333"/><path d="M409.564,904.493v70.413a60.26,60.26,0,0,0,60.191,60.191H1551.844a60.26,60.26,0,0,0,60.191-60.191V904.493a60.26,60.26,0,0,0-60.191-60.191H469.755A60.26,60.26,0,0,0,409.564,904.493Zm1148.337,0v70.413a6.067,6.067,0,0,1-6.061,6.061H469.755a6.067,6.067,0,0,1-6.061-6.061V904.493a6.067,6.067,0,0,1,6.061-6.061H1551.844A6.066,6.066,0,0,1,1557.9,904.493Z" fill="#333"/><path d="M409.564,1281.242a60.26,60.26,0,0,0,60.191,60.191H1551.844a60.26,60.26,0,0,0,60.191-60.191v-70.41a60.26,60.26,0,0,0-60.191-60.191H469.755a60.26,60.26,0,0,0-60.191,60.191v70.41Zm54.13-70.41a6.067,6.067,0,0,1,6.061-6.061H1551.844a6.067,6.067,0,0,1,6.061,6.061v70.41a6.067,6.067,0,0,1-6.061,6.061H469.755a6.067,6.067,0,0,1-6.061-6.061Z" fill="#333"/><path d="M1053.75,1476.435h-125.9a92.926,92.926,0,0,0-92.82,92.82v3.678a92.927,92.927,0,0,0,92.82,92.821h125.9a92.926,92.926,0,0,0,92.82-92.821v-3.678A92.925,92.925,0,0,0,1053.75,1476.435Zm38.691,96.5a38.734,38.734,0,0,1-38.691,38.69h-125.9a38.734,38.734,0,0,1-38.691-38.69v-3.679a38.734,38.734,0,0,1,38.691-38.69h125.9a38.734,38.734,0,0,1,38.691,38.69Z" fill="#333"/><path d="M1575.4,1752.321a45.675,45.675,0,0,0-23.074-39.961l-280.8-162.118a46.147,46.147,0,0,0-69.219,39.964v324.238a46.147,46.147,0,0,0,69.219,39.965l68.168-39.359,52.408,90.77a48.461,48.461,0,0,0,66.162,17.724l60.569-34.972a48.488,48.488,0,0,0,17.728-66.161l-52.407-90.77,68.168-39.358A45.656,45.656,0,0,0,1575.4,1752.321Zm-122.472,34.854a49.321,49.321,0,0,0-18.053,67.374l51.964,90-50.707,29.276-51.964-90.005a49.339,49.339,0,0,0-67.367-18.049l-60.361,34.846V1604.032l256.852,148.293Z" fill="#333"/></svg>