<svg xmlns="http://www.w3.org/2000/svg" xmlns:xlink="http://www.w3.org/1999/xlink" width="2000" height="2000" viewBox="0 0 2000 2000"><defs><filter id="a" x="-15%" y="-15%" width="140%" height="130%" name="AI_Shadow_2"><feGaussianBlur result="blur" stdDeviation="8" in="SourceAlpha"/><feOffset result="offsetBlurredAlpha" dx="10" dy="10" in="blur"/><feMerge><feMergeNode in="offsetBlurredAlpha"/><feMergeNode in="SourceGraphic"/></feMerge></filter></defs><path d="M1077.293,1053.236c8.527-7.433,10.341-13.349,10.341-24.419,0-7.622-32.227-160.908-32.227-160.908H879.126v170.573c19.533,52.183,86.945,67.024,120.369,67.024C1015.731,1105.506,1071.391,1058.38,1077.293,1053.236Z" fill="#e1dee2"/><path d="M1120.837,867.91H1056.38v160.907c0,11.07-1.813,16.987-10.342,24.419-5.9,5.145-29.333,20.042-45.57,20.042-33.423,0-87.453-14.77-120.367-34.8,0,20.9,3.441,36.312,19.533,52.183,27.5,27.121,67.411,47.067,100.834,47.069s73.341-19.944,100.838-47.062c16.092-15.871,19.533-31.28,19.531-52.183Z" fill="#c5bec6"/><path d="M1192.761,678.934c48.82-73.364,78.159-142.192,76.853-220.815-.9-54.532-27.351-134.576-67.233-180.8-52.725-49.486-123.915-78.113-203.145-78.113-163.906,0-293.441,127.261-296.16,291.145-1.3,78.626,28.033,147.451,76.854,220.815,30.494,45.824,50.539,81.5,57.407,123.913L1115.459,867.3C1119.823,791.068,1148.237,745.842,1192.761,678.934Z" fill="#fc0"/><path d="M1202.387,277.912a301.072,301.072,0,0,1,41.452,148.579c1.305,78.628-28.033,147.454-76.855,220.819-36.265,54.5-61.844,94.608-72.444,148.805a48.577,48.577,0,0,1-47.532,39.567H837.336a205.245,205.245,0,0,1,2.53,25.41c.785,21.463,18.629,39.047,40.107,39.047h238.536c21.5,0,39.327-17.6,40.108-39.087,1.979-54.44,23.565-94.63,59.936-149.285,48.821-73.366,78.163-142.2,76.855-220.819C1294,406.281,1258.738,330.8,1202.387,277.912Z" fill="#ffaf14"/><path d="M1708.247,1543.1c0-13.32-4.918-34.906-26.9-56.888a96.73,96.73,0,0,0-126.668,126.668c17.948,17.947,43.572,26.9,56.889,26.9A96.681,96.681,0,0,0,1708.247,1543.1Z" fill="#8533ff"/><path d="M1681.343,1486.211a96.73,96.73,0,0,1-126.668,126.668,96.7,96.7,0,1,0,126.668-126.668Z" fill="#60f"/><path d="M1385.969,1607.555c0-13.32-4.917-34.906-26.9-56.889A96.73,96.73,0,0,0,1232.4,1677.334c17.947,17.948,43.572,26.9,56.888,26.9A96.681,96.681,0,0,0,1385.969,1607.555Z" fill="#fc0"/><path d="M1359.066,1550.666A96.73,96.73,0,0,1,1232.4,1677.334a96.7,96.7,0,1,0,126.668-126.668Z" fill="#ffaf14"/><path d="M1063.692,1672.01c0-13.32-4.918-34.906-26.9-56.888A96.73,96.73,0,0,0,910.12,1741.79c17.948,17.947,43.572,26.9,56.889,26.9A96.681,96.681,0,0,0,1063.692,1672.01Z" fill="#66ffa3"/><path d="M1036.788,1615.122A96.73,96.73,0,0,1,910.12,1741.79a96.7,96.7,0,1,0,126.668-126.668Z" fill="#0f6"/><path d="M741.414,1607.555c0-13.32-4.918-34.906-26.9-56.889a96.73,96.73,0,0,0-126.668,126.668c17.947,17.948,43.572,26.9,56.888,26.9A96.681,96.681,0,0,0,741.414,1607.555Z" fill="#3385ff"/><path d="M714.511,1550.666a96.73,96.73,0,0,1-126.668,126.668,96.7,96.7,0,1,0,126.668-126.668Z" fill="#06f"/><path d="M419.137,1543.1c0-13.32-4.918-34.906-26.9-56.888a96.73,96.73,0,0,0-126.668,126.668c17.948,17.947,43.572,26.9,56.888,26.9A96.681,96.681,0,0,0,419.137,1543.1Z" fill="#fc0"/><path d="M392.233,1486.211a96.73,96.73,0,0,1-126.668,126.668,96.7,96.7,0,1,0,126.668-126.668Z" fill="#ffaf14"/><path d="M881.044,248.478a266.014,266.014,0,0,1,117.864-25.106c.212,0,3.206-.025,4.482-.025,148.016,0,265.336,116.738,267.839,267.4.7,42.4-8.427,84.127-27.913,127.57a24.17,24.17,0,1,0,44.1,19.788c22.453-50.053,32.967-98.514,32.144-148.157-1.423-85.865-35.1-165.645-94.82-224.654-60-59.29-139.895-90.217-225.508-90.266-48.7-.028-95.444,9.368-138.731,29.685a24.171,24.171,0,1,0,20.539,43.762Z" fill="#333"/><path d="M1668.72,1456.839V1298.158a88.627,88.627,0,0,0-88.627-88.627H1064.437a40.285,40.285,0,0,1-40.285-40.284V1158.5c32.338-6.534,66.615-25.492,92.772-51.622,23.13-23.107,26.471-47.014,26.471-69.572v-119.6A63.8,63.8,0,0,0,1182,860.858c1.572-47.445,19.788-83.5,55.1-137.255,6.219-9.465,5.663-22.213-2.118-30.442a23.8,23.8,0,0,0-37.453,3.131c-39.611,60.244-61.45,104.055-63.393,162.941a15.842,15.842,0,0,1-15.778,15.123H881.6a15.823,15.823,0,0,1-15.778-15.083c-1.944-58.728-23.785-102.423-63.393-162.5C750.774,618.416,729.2,556.5,730.3,489.744c1.2-72.907,29.323-140.556,79.214-190.576,8.014-8.035,10.113-20.647,4.128-30.287a23.839,23.839,0,0,0-37.292-4.593c-59.162,59.01-92.52,138.792-93.934,224.653-1.255,76.277,23.464,148.636,80.142,234.608,35.507,53.86,53.827,89.89,55.4,137.342a63.636,63.636,0,0,0,38.607,56.7v119.275c0,22.495,3.342,46.335,26.475,69.386,26.154,26.061,60.433,44.971,92.768,51.487v11.509a40.284,40.284,0,0,1-40.284,40.284H742.152a88.627,88.627,0,0,0-88.627,88.627v40.287H419.868a88.627,88.627,0,0,0-88.627,88.626V1456.8A121.033,121.033,0,0,0,235.018,1585.9c5.058,58.635,52.757,105.614,111.456,109.858a120.863,120.863,0,0,0,33.11-238.952v-29.732a40.285,40.285,0,0,1,40.285-40.285H653.525v134.476a121.035,121.035,0,0,0-96.223,129.1c5.059,58.635,52.757,105.614,111.456,109.858a120.865,120.865,0,0,0,33.11-238.956v-223.1a40.285,40.285,0,0,1,40.285-40.285H935.524a88.367,88.367,0,0,0,64.457-27.894,88.363,88.363,0,0,0,64.456,27.894h192.292c19.847,0,37.583,13.9,40.8,33.486a40.341,40.341,0,0,1-39.725,47.085H775.3c-12.357,0-23.413,8.876-24.9,21.142a24.178,24.178,0,0,0,23.987,27.2H985.549a88.028,88.028,0,0,0-9.74,40.286V1585.72a121.036,121.036,0,0,0-96.224,129.1c5.06,58.634,52.758,105.614,111.457,109.858a120.865,120.865,0,0,0,33.11-238.956V1427.072a40.285,40.285,0,0,1,40.285-40.285h193.371a88.014,88.014,0,0,0,40.285-9.726v144.2a121.036,121.036,0,0,0-96.224,129.1c5.06,58.634,52.758,105.613,111.457,109.857a120.865,120.865,0,0,0,33.11-238.956v-223.1a88.015,88.015,0,0,0-9.727-40.285h243.383a40.285,40.285,0,0,1,40.285,40.285v158.674a121.052,121.052,0,0,0-96.248,129.128c5.066,58.634,52.76,105.6,111.458,109.857a121.008,121.008,0,0,0,129.857-120.547C1765.437,1516.905,1723.832,1468.069,1668.72,1456.839ZM427.194,1575.327a72.513,72.513,0,1,1-72.513-72.513A72.595,72.595,0,0,1,427.194,1575.327Zm322.277,64.455a72.513,72.513,0,1,1-72.512-72.512A72.595,72.595,0,0,1,749.471,1639.782Zm333.366-567.05c-.078.077-.157.155-.236.235-23.3,23.784-57.981,39.983-83.747,39.982-17.251,0-38.38-7.4-57.536-19.34l153.736-62.026v6.294C1095.051,1055.7,1092.247,1063.452,1082.837,1072.732Zm-181.153-34.646V1012.61l193.37-78.018v44.781l-191.488,77.26C902.205,1051.716,901.684,1045.847,901.684,1038.086Zm0-78.693V922.7h90.953Zm170.065,744.845a72.513,72.513,0,1,1-72.513-72.513A72.595,72.595,0,0,1,1071.749,1704.238Zm322.277-64.456a72.512,72.512,0,1,1-72.512-72.512A72.595,72.595,0,0,1,1394.026,1639.782Zm249.766,8.057a72.513,72.513,0,1,1,72.512-72.512A72.595,72.595,0,0,1,1643.792,1647.839Z" fill="#333"/><path d="M1102.043,416.716,967.009,551.751l-58.971-58.974a24.171,24.171,0,1,0-34.184,34.181l76.064,76.064a24.175,24.175,0,0,0,34.187,0l152.128-152.128a24.172,24.172,0,1,0-34.19-34.178Z" fill="#333"/><g opacity="0.5" filter="url(#a)"><circle cx="265.334" cy="1478.222" r="96" fill="#efefef"/><path d="M265.334,1579.723a101.5,101.5,0,1,1,101.5-101.5A101.615,101.615,0,0,1,265.334,1579.723Zm0-192a90.5,90.5,0,1,0,90.5,90.5A90.6,90.6,0,0,0,265.334,1387.723Z" fill="#f06"/><path d="M361,1478.222a96,96,0,0,1-96,96v-192A96,96,0,0,1,361,1478.222Z" fill="#efefef"/><path d="M265,1579.723a5.5,5.5,0,0,1-5.5-5.5v-192a5.5,5.5,0,0,1,5.5-5.5,101.5,101.5,0,0,1,0,203Zm5.5-191.835v180.67a90.5,90.5,0,0,0,0-180.67Z" fill="#f06"/><path d="M286.544,1478.222l24.58,24.58-21.21,21.21-24.58-24.58-24.58,24.58-21.21-21.21,24.58-24.58-24.58-24.58,21.21-21.21,24.58,24.58,24.58-24.58,21.21,21.21Z" fill="#f06"/><path d="M289.914,1529.513a5.5,5.5,0,0,1-3.89-1.612l-20.69-20.69-20.691,20.69a5.5,5.5,0,0,1-7.778,0l-21.21-21.211a5.5,5.5,0,0,1,0-7.777l20.69-20.69-20.69-20.692a5.5,5.5,0,0,1,0-7.777l21.21-21.21a5.5,5.5,0,0,1,7.778,0l20.691,20.69,20.69-20.69a5.5,5.5,0,0,1,7.779,0l21.21,21.21a5.5,5.5,0,0,1,0,7.777l-20.691,20.692,20.691,20.69a5.5,5.5,0,0,1,0,7.777L293.8,1527.9A5.5,5.5,0,0,1,289.914,1529.513ZM227.322,1502.8l13.432,13.432,20.691-20.69a5.5,5.5,0,0,1,7.778,0l20.691,20.69,13.431-13.432-20.69-20.691a5.5,5.5,0,0,1,0-7.777l20.69-20.691-13.431-13.432-20.691,20.69a5.5,5.5,0,0,1-7.778,0l-20.691-20.69-13.432,13.432,20.691,20.691a5.5,5.5,0,0,1,0,7.777Z" fill="#f06"/><path d="M286.21,1478.222l24.58,24.58-21.21,21.21L265,1499.432v-42.42l24.58-24.58,21.21,21.21Z" fill="#bf004d"/><path d="M289.58,1529.513a5.5,5.5,0,0,1-3.889-1.612l-24.58-24.58a5.5,5.5,0,0,1-1.611-3.888v-42.42a5.5,5.5,0,0,1,1.611-3.889l24.58-24.58a5.5,5.5,0,0,1,7.778,0l21.21,21.21a5.5,5.5,0,0,1,0,7.777l-20.691,20.692,20.691,20.689a5.5,5.5,0,0,1,0,7.778l-21.21,21.211A5.493,5.493,0,0,1,289.58,1529.513Zm-19.08-32.359,19.08,19.08,13.432-13.432-20.691-20.69a5.5,5.5,0,0,1,0-7.778l20.691-20.691-13.432-13.432-19.08,19.08Z" fill="#f06"/></g><g opacity="0.5" filter="url(#a)"><circle cx="1398.334" cy="1563.222" r="96" fill="#efefef"/><path d="M1398.334,1664.723a101.5,101.5,0,1,1,101.5-101.5A101.615,101.615,0,0,1,1398.334,1664.723Zm0-192a90.5,90.5,0,1,0,90.5,90.5A90.6,90.6,0,0,0,1398.334,1472.723Z" fill="#f06"/><path d="M1494,1563.222a96,96,0,0,1-96,96v-192A96,96,0,0,1,1494,1563.222Z" fill="#efefef"/><path d="M1398,1664.723a5.5,5.5,0,0,1-5.5-5.5v-192a5.5,5.5,0,0,1,5.5-5.5,101.5,101.5,0,0,1,0,203Zm5.5-191.835v180.67a90.5,90.5,0,0,0,0-180.67Z" fill="#f06"/><path d="M1419.544,1563.222l24.58,24.58-21.21,21.21-24.58-24.58-24.58,24.58-21.21-21.21,24.58-24.58-24.58-24.58,21.21-21.21,24.58,24.58,24.58-24.58,21.21,21.21Z" fill="#f06"/><path d="M1422.914,1614.513a5.5,5.5,0,0,1-3.889-1.612l-20.691-20.69-20.691,20.69a5.5,5.5,0,0,1-7.779,0l-21.21-21.211a5.5,5.5,0,0,1,0-7.778l20.691-20.689-20.691-20.692a5.5,5.5,0,0,1,0-7.777l21.21-21.21a5.5,5.5,0,0,1,7.778,0l20.691,20.69,20.691-20.69a5.5,5.5,0,0,1,7.778,0l21.21,21.21a5.5,5.5,0,0,1,0,7.777l-20.691,20.692,20.691,20.689a5.5,5.5,0,0,1,0,7.778L1426.8,1612.9A5.5,5.5,0,0,1,1422.914,1614.513Zm-24.58-35.58a5.484,5.484,0,0,1,3.889,1.611l20.691,20.69,13.432-13.432-20.691-20.69a5.5,5.5,0,0,1,0-7.778l20.691-20.691-13.432-13.432-20.691,20.69a5.5,5.5,0,0,1-7.778,0l-20.691-20.69-13.432,13.432,20.691,20.691a5.5,5.5,0,0,1,0,7.778l-20.691,20.69,13.432,13.432,20.691-20.69A5.484,5.484,0,0,1,1398.334,1578.933Z" fill="#f06"/><path d="M1419.21,1563.222l24.58,24.58-21.21,21.21-24.58-24.58v-42.42l24.58-24.58,21.21,21.21Z" fill="#bf004d"/><path d="M1422.58,1614.513a5.5,5.5,0,0,1-3.889-1.612l-24.58-24.58a5.494,5.494,0,0,1-1.611-3.888v-42.42a5.5,5.5,0,0,1,1.611-3.889l24.58-24.58a5.5,5.5,0,0,1,7.778,0l21.21,21.21a5.5,5.5,0,0,1,0,7.777l-20.691,20.692,20.691,20.689a5.5,5.5,0,0,1,0,7.778l-21.21,21.211A5.5,5.5,0,0,1,1422.58,1614.513Zm-19.08-32.359,19.08,19.08,13.432-13.432-20.691-20.69a5.5,5.5,0,0,1,0-7.778l20.691-20.691-13.432-13.432-19.08,19.08Z" fill="#f06"/></g><circle cx="265.334" cy="1478.222" r="96" fill="#efefef"/><path d="M265.334,1579.723a101.5,101.5,0,1,1,101.5-101.5A101.615,101.615,0,0,1,265.334,1579.723Zm0-192a90.5,90.5,0,1,0,90.5,90.5A90.6,90.6,0,0,0,265.334,1387.723Z" fill="#f06"/><path d="M361,1478.222a96,96,0,0,1-96,96v-192A96,96,0,0,1,361,1478.222Z" fill="#efefef"/><path d="M265,1579.723a5.5,5.5,0,0,1-5.5-5.5v-192a5.5,5.5,0,0,1,5.5-5.5,101.5,101.5,0,0,1,0,203Zm5.5-191.835v180.67a90.5,90.5,0,0,0,0-180.67Z" fill="#f06"/><path d="M286.544,1478.222l24.58,24.58-21.21,21.21-24.58-24.58-24.58,24.58-21.21-21.21,24.58-24.58-24.58-24.58,21.21-21.21,24.58,24.58,24.58-24.58,21.21,21.21Z" fill="#f06"/><path d="M289.914,1529.513a5.5,5.5,0,0,1-3.89-1.612l-20.69-20.69-20.691,20.69a5.5,5.5,0,0,1-7.778,0l-21.21-21.211a5.5,5.5,0,0,1,0-7.777l20.69-20.69-20.69-20.692a5.5,5.5,0,0,1,0-7.777l21.21-21.21a5.5,5.5,0,0,1,7.778,0l20.691,20.69,20.69-20.69a5.5,5.5,0,0,1,7.779,0l21.21,21.21a5.5,5.5,0,0,1,0,7.777l-20.691,20.692,20.691,20.69a5.5,5.5,0,0,1,0,7.777L293.8,1527.9A5.5,5.5,0,0,1,289.914,1529.513ZM227.322,1502.8l13.432,13.432,20.691-20.69a5.5,5.5,0,0,1,7.778,0l20.691,20.69,13.431-13.432-20.69-20.691a5.5,5.5,0,0,1,0-7.777l20.69-20.691-13.431-13.432-20.691,20.69a5.5,5.5,0,0,1-7.778,0l-20.691-20.69-13.432,13.432,20.691,20.691a5.5,5.5,0,0,1,0,7.777Z" fill="#f06"/><path d="M286.21,1478.222l24.58,24.58-21.21,21.21L265,1499.432v-42.42l24.58-24.58,21.21,21.21Z" fill="#bf004d"/><path d="M289.58,1529.513a5.5,5.5,0,0,1-3.889-1.612l-24.58-24.58a5.5,5.5,0,0,1-1.611-3.888v-42.42a5.5,5.5,0,0,1,1.611-3.889l24.58-24.58a5.5,5.5,0,0,1,7.778,0l21.21,21.21a5.5,5.5,0,0,1,0,7.777l-20.691,20.692,20.691,20.689a5.5,5.5,0,0,1,0,7.778l-21.21,21.211A5.493,5.493,0,0,1,289.58,1529.513Zm-19.08-32.359,19.08,19.08,13.432-13.432-20.691-20.69a5.5,5.5,0,0,1,0-7.778l20.691-20.691-13.432-13.432-19.08,19.08Z" fill="#f06"/><circle cx="1398.334" cy="1563.222" r="96" fill="#efefef"/><path d="M1398.334,1664.723a101.5,101.5,0,1,1,101.5-101.5A101.615,101.615,0,0,1,1398.334,1664.723Zm0-192a90.5,90.5,0,1,0,90.5,90.5A90.6,90.6,0,0,0,1398.334,1472.723Z" fill="#f06"/><path d="M1494,1563.222a96,96,0,0,1-96,96v-192A96,96,0,0,1,1494,1563.222Z" fill="#efefef"/><path d="M1398,1664.723a5.5,5.5,0,0,1-5.5-5.5v-192a5.5,5.5,0,0,1,5.5-5.5,101.5,101.5,0,0,1,0,203Zm5.5-191.835v180.67a90.5,90.5,0,0,0,0-180.67Z" fill="#f06"/><path d="M1419.544,1563.222l24.58,24.58-21.21,21.21-24.58-24.58-24.58,24.58-21.21-21.21,24.58-24.58-24.58-24.58,21.21-21.21,24.58,24.58,24.58-24.58,21.21,21.21Z" fill="#f06"/><path d="M1422.914,1614.513a5.5,5.5,0,0,1-3.889-1.612l-20.691-20.69-20.691,20.69a5.5,5.5,0,0,1-7.779,0l-21.21-21.211a5.5,5.5,0,0,1,0-7.778l20.691-20.689-20.691-20.692a5.5,5.5,0,0,1,0-7.777l21.21-21.21a5.5,5.5,0,0,1,7.778,0l20.691,20.69,20.691-20.69a5.5,5.5,0,0,1,7.778,0l21.21,21.21a5.5,5.5,0,0,1,0,7.777l-20.691,20.692,20.691,20.689a5.5,5.5,0,0,1,0,7.778L1426.8,1612.9A5.5,5.5,0,0,1,1422.914,1614.513Zm-24.58-35.58a5.484,5.484,0,0,1,3.889,1.611l20.691,20.69,13.432-13.432-20.691-20.69a5.5,5.5,0,0,1,0-7.778l20.691-20.691-13.432-13.432-20.691,20.69a5.5,5.5,0,0,1-7.778,0l-20.691-20.69-13.432,13.432,20.691,20.691a5.5,5.5,0,0,1,0,7.778l-20.691,20.69,13.432,13.432,20.691-20.69A5.484,5.484,0,0,1,1398.334,1578.933Z" fill="#f06"/><path d="M1419.21,1563.222l24.58,24.58-21.21,21.21-24.58-24.58v-42.42l24.58-24.58,21.21,21.21Z" fill="#bf004d"/><path d="M1422.58,1614.513a5.5,5.5,0,0,1-3.889-1.612l-24.58-24.58a5.494,5.494,0,0,1-1.611-3.888v-42.42a5.5,5.5,0,0,1,1.611-3.889l24.58-24.58a5.5,5.5,0,0,1,7.778,0l21.21,21.21a5.5,5.5,0,0,1,0,7.777l-20.691,20.692,20.691,20.689a5.5,5.5,0,0,1,0,7.778l-21.21,21.211A5.5,5.5,0,0,1,1422.58,1614.513Zm-19.08-32.359,19.08,19.08,13.432-13.432-20.691-20.69a5.5,5.5,0,0,1,0-7.778l20.691-20.691-13.432-13.432-19.08,19.08Z" fill="#f06"/><circle cx="1398.334" cy="1563.222" r="96" fill="#efefef"/><path d="M1494,1563.222a96,96,0,0,1-96,96v-192A96,96,0,0,1,1494,1563.222Z" fill="#b3b3b3" opacity="0.33"/><path d="M1419.544,1563.222l24.58,24.58-21.21,21.21-24.58-24.58-24.58,24.58-21.21-21.21,24.58-24.58-24.58-24.58,21.21-21.21,24.58,24.58,24.58-24.58,21.21,21.21Z" fill="#f06"/><path d="M1419.21,1563.222l24.58,24.58-21.21,21.21-24.58-24.58v-42.42l24.58-24.58,21.21,21.21Z" fill="#bf004d"/><circle cx="265.334" cy="1478.222" r="96" fill="#efefef"/><path d="M361,1478.222a96,96,0,0,1-96,96v-192A96,96,0,0,1,361,1478.222Z" fill="#b3b3b3" opacity="0.33"/><path d="M286.544,1478.222l24.58,24.58-21.21,21.21-24.58-24.58-24.58,24.58-21.21-21.21,24.58-24.58-24.58-24.58,21.21-21.21,24.58,24.58,24.58-24.58,21.21,21.21Z" fill="#f06"/><path d="M286.21,1478.222l24.58,24.58-21.21,21.21L265,1499.432v-42.42l24.58-24.58,21.21,21.21Z" fill="#bf004d"/></svg>