<?xml version="1.0" encoding="utf-8"?><svg xmlns="http://www.w3.org/2000/svg" preserveAspectRatio="xMidYMid meet" width="2000" height="2000" viewBox="0 0 2000 2000"><defs><style>.cls-1{isolation:isolate;}.cls-2,.cls-5{fill:#333;}.cls-10,.cls-11,.cls-12,.cls-13,.cls-14,.cls-15,.cls-2,.cls-3,.cls-4,.cls-6,.cls-7,.cls-8,.cls-9{fill-rule:evenodd;}.cls-3{fill:#f60;}.cls-4{fill:#f06;opacity:0.33;mix-blend-mode:multiply;}.cls-6{fill:#adadad;}.cls-7{fill:#858585;}.cls-8{fill:#fca;}.cls-9{fill:#ff802b;}.cls-10{fill:#f95;}.cls-11{fill:#5a5a5a;}.cls-12{fill:#fff;}.cls-13{fill:#b100ff;}.cls-14{fill:#60f;}.cls-15{fill:#6500bf;}</style></defs><g class="cls-1"><g id="Layer_1" data-name="Layer 1"><path class="cls-2" d="M538.1853,699.9529H587.763a258.0146,258.0146,0,0,1-49.5777-43.8068v43.8068Zm876.0689,0h42.61V662.8142a256.5925,256.5925,0,0,1-42.61,37.1387Zm106.84-169.2152.6275,215.0249a62.9124,62.9124,0,0,1,2.6916,18.33v642.4739c0,1.6149-.03,3.1994-.15,4.7843l.06,17.1641a63.4894,63.4894,0,0,1-15.4291,47.9628q-22.2025,25.79-46.2583,49.9059l-191.672,191.672-228.0621,228.0621a64.2484,64.2484,0,0,1-90.7225,0L724.1463,1718.0555l-191.7016-191.672q-24.086-24.0859-46.2586-49.9059a63.9669,63.9669,0,0,1-15.4591-35.7035,62.1508,62.1508,0,0,1,.03-12.2593l3.2892-913.7154H475.75a256.2127,256.2127,0,0,1,97.57-230.6632c.2095-.9275.4486-1.8244.718-2.7515C603.6411,170.8671,703.3941,94.079,815.4371,91.1786a256.74,256.74,0,0,1,338.55,4.0663A257.0623,257.0623,0,0,1,1411.4429,276.81a257.0472,257.0472,0,0,1,109.651,253.9277"/><path class="cls-3" d="M1441.4184,538.9748H562.54v-43.567h878.8788v43.567Zm-756.2508,131.15c-102.7435-27.54-163.7732-133.1529-136.1737-235.8665a192.0586,192.0586,0,0,1,86.2675-114.973,199.6344,199.6344,0,0,1,4.8737-24.0712c24.6994-92.1877,112.312-150.7656,204.35-141.8848a192.5756,192.5756,0,0,1,289.6006,6.3987,192.7043,192.7043,0,0,1,225.58,155.67,192.7064,192.7064,0,0,1,98.1386,221.2743c-27.54,102.7136-133.1537,163.6838-235.8968,136.1438l-536.7406-2.6912Z"/><path class="cls-4" d="M851.9606,538.9748H562.54v-43.567H852.26C854.9811,356.7523,876.54,124.8627,988.6125,90.8342a192.9381,192.9381,0,0,0-144.127,62.4952c-92.0384-8.8808-179.651,49.6971-204.35,141.8848a199.6344,199.6344,0,0,0-4.8737,24.0712A192.7314,192.7314,0,0,0,580.78,599.4665H853.5455s-1.3458-23.5329-1.5849-60.4917"/><g id="Layer_2" data-name="Layer 2"><path class="cls-5" d="M512.2258,616.5652a31.461,31.461,0,1,0,54.5116-31.427,172.0915,172.0915,0,0,1,215.4136-244.12,174.6008,174.6008,0,0,1,20.9318,10.6456,31.3977,31.3977,0,0,0,31.995-54.0331,226.448,226.448,0,0,0-28.7358-14.4724A234.5827,234.5827,0,0,0,512.2258,616.5652Z"/><path class="cls-5" d="M579.2362,321.2835a31.3292,31.3292,0,1,0,62.0762,8.5216c.3891-3.11,1.0472-6.6976,1.8543-10.8544.5979-2.93,1.4652-6.5184,2.5416-10.6745a172.17,172.17,0,0,1,266.9055-94.58,173.607,173.607,0,0,1,42.999,45.54,31.4046,31.4046,0,1,0,52.6574-34.2372,234.5253,234.5253,0,0,0-423.3229,67.01c-1.1064,4.1564-2.2723,9.0308-3.3191,14.5024-.8965,4.2765-1.7039,9.21-2.392,14.7721Z"/><path class="cls-5" d="M1194.7385,284.2648a31.4362,31.4362,0,1,0,23.2934,58.3983,171.0725,171.0725,0,0,1,53.4056-12.05,173.0554,173.0554,0,0,1,54.4813,5.7114,171.5794,171.5794,0,0,1,121.402,210.2706,163.6558,163.6558,0,0,1-5.8008,17.9112,179.4637,179.4637,0,0,1-7.7149,17.2532,31.3092,31.3092,0,1,0,55.5581,28.8854,224.2735,224.2735,0,0,0,10.6745-23.3237,241.1066,241.1066,0,0,0,8.1033-24.46,234.7049,234.7049,0,0,0-313.4025-278.5966Z"/><path class="cls-5" d="M959.44,392.181a31.404,31.404,0,1,0-62.7942-1.3155,63.7859,63.7859,0,0,1-58.8472,62.4054,64.2916,64.2916,0,0,1-52.119-20.812A31.3914,31.3914,0,1,0,739.2414,474.71,126.5044,126.5044,0,0,0,959.44,392.181Z"/><path class="cls-5" d="M1129.851,480.7506a31.3008,31.3008,0,1,0,29.753-55.0792,140.21,140.21,0,0,1-50.5643-46.9463,18.6913,18.6913,0,0,0-1.1367-1.7043,138.69,138.69,0,0,1-20.8412-63.4818,141.68,141.68,0,0,1,12.29-68.5654,31.3991,31.3991,0,1,0-57.1427-26.0445,201.9612,201.9612,0,0,0,12.8277,191.7315,18.1652,18.1652,0,0,0,1.3458,2.3321,201.68,201.68,0,0,0,73.4687,67.7579Z"/><path class="cls-5" d="M1130.5686,621.2a31.4021,31.4021,0,1,0,20.7825,59.2659,201.7507,201.7507,0,0,0,127.8006-244.6882,31.3423,31.3423,0,1,0-60.4314,16.6557,139.356,139.356,0,0,1,4.9332,34.6562,136.4612,136.4612,0,0,1-3.6779,34.8958,139.681,139.681,0,0,1-89.407,99.2146Z"/><path class="cls-5" d="M859.4775,717.6935a31.3822,31.3822,0,1,0,47.6037-40.9053,139.9808,139.9808,0,0,1,8.0742-190.2663,31.3361,31.3361,0,1,0-44.016-44.6139,201.9939,201.9939,0,0,0-11.6619,275.7855Z"/></g><polygon class="cls-2" points="474.988 787.417 474.988 491.119 1525.355 491.119 1525.355 787.417 474.988 787.417 474.988 787.417"/><polygon class="cls-6" points="542.325 715.337 1464.413 715.337 1464.413 547.377 542.325 547.377 542.325 715.337 542.325 715.337"/><polygon class="cls-7" points="542.325 715.337 853.545 715.337 853.545 547.377 542.325 547.377 542.325 715.337 542.325 715.337"/><path class="cls-8" d="M689.7427,1344.3254a173.5636,173.5636,0,0,1,155.9689,97.3005,173.6559,173.6559,0,0,1,311.9373,0,173.675,173.675,0,0,1,306.7643-9.8072c-13.5756,15.758-27.8389,31.2474-42.9987,46.4072l-191.7019,191.6723-54.0032,54.0024a239.4226,239.4226,0,0,0-348.0591,0l-54.0024-54.0024-191.702-191.6723c-15.1605-15.16-29.4234-30.6492-42.9994-46.4072a173.54,173.54,0,0,1,150.7962-87.4933"/><path class="cls-9" d="M921.3039,1662.7812l-75.5923-221.1553a173.6757,173.6757,0,0,0-306.7651-9.8072c13.576,15.758,27.8389,31.2474,42.9994,46.4072l245.6748,245.6747a239.2765,239.2765,0,0,1,93.6832-61.1194"/><path class="cls-10" d="M1001.68,1344.3254a173.529,173.529,0,0,0-155.9684,97.3005l75.5923,221.1553a239.7562,239.7562,0,0,1,160.7527,0l75.5923-221.1553a173.53,173.53,0,0,0-155.9689-97.3005"/><path class="cls-11" d="M1158.2471,1740.4369a215.4825,215.4825,0,0,0-83.9653-54.93l-73.11,213.978.5081.5387,157.1351-158.9893-.568-.5975Z"/><polygon class="cls-12" points="1157.081 715.337 1322.259 715.337 1322.259 547.377 1157.081 547.377 1157.081 715.337 1157.081 715.337"/><path class="cls-13" d="M1464.4132,1334.0689V761.2963H538.3789v573.2508a237.8262,237.8262,0,0,1,307.3327,3.887,237.8447,237.8447,0,0,1,311.9373,0,237.844,237.844,0,0,1,306.7643-4.3652"/><path class="cls-14" d="M1157.6489,1338.4341V761.2963H845.7116v577.1378a237.8447,237.8447,0,0,1,311.9373,0"/><path class="cls-15" d="M845.7116,1338.4341V761.2963H538.3789v573.2508a237.8262,237.8262,0,0,1,307.3327,3.887Z"/></g></g></svg>