<svg xmlns="http://www.w3.org/2000/svg" width="1000" height="910.214" viewBox="0 0 1000 910.214"><g style="isolation:isolate"><path d="M723.321,131.373,616.9,24.956H249.54V673.944H723.321Z" fill="#06f"/><path d="M249.54,24.956h38.939V488.983H249.54Z" fill="#00f1ff" style="mix-blend-mode:color-burn"/><path d="M249.54,483.072H723.325V673.944H249.54Z" fill="#f60"/><path d="M249.54,483.072h38.939V673.944H249.54Z" fill="#f60" opacity="0.5" style="mix-blend-mode:color-burn"/><path d="M684.382,483.072h38.939V673.944H684.382Z" fill="#f60" style="mix-blend-mode:color-dodge"/><polygon points="616.534 28.663 617.829 128.369 721.42 129.664 616.534 28.663" fill="#0c9ee8"/><path d="M249.54,24.956h38.939V488.983H249.54Z" fill="#00f1ff" style="mix-blend-mode:color-burn"/><path d="M94.4,710.831H24.311a5.841,5.841,0,0,0,0,11.682H94.4a5.841,5.841,0,0,0,0-11.682Z" fill="#333"/><path d="M948.561,710.831H878.47a5.841,5.841,0,0,0,0,11.682h70.091a5.841,5.841,0,1,0,0-11.682Z" fill="#333"/><path d="M838.749,710.831H134.112a5.841,5.841,0,1,0,0,11.682H838.749a5.841,5.841,0,0,0,0-11.682Z" fill="#333"/><path d="M619,63.638l67.17,64.809V485.5h38.939V128.879L618.026,23.725Z" fill="#06f" opacity="0.85" style="mix-blend-mode:color-dodge"/><path d="M948.561,668.1h-219.4V131.377a5.837,5.837,0,0,0-1.71-4.132L621.031,20.824a5.838,5.838,0,0,0-4.131-1.709H249.54a5.841,5.841,0,0,0-5.841,5.841V668.1H24.3a5.841,5.841,0,1,0,0,11.682H948.561a5.841,5.841,0,1,0,0-11.682ZM622.745,39.056l86.476,86.476H622.745ZM717.48,668.1h-462.1V488.913h462.1Zm0-190.872h-462.1V30.8H611.063v100.58a5.841,5.841,0,0,0,5.841,5.841v0h100.58Z" fill="#333"/><path d="M467.516,513.151a5,5,0,0,1,5,5h0v89.646q0,21.751-11.853,33.507t-32.814,11.755q-22.733,0-36.054-12.849a46.288,46.288,0,0,1-13.15-31.541,5.038,5.038,0,0,1,4.689-5.366q.158-.01.315-.012h23.208a5.036,5.036,0,0,1,4.961,4.56q1.611,14.837,14.465,14.836,12.733,0,12.737-14.894V518.131a5,5,0,0,1,5-5h0Z" fill="#60f"/><path d="M588.609,632.873a39.359,39.359,0,0,1-16.459,14.7,57.982,57.982,0,0,1-26.354,5.486,62.061,62.061,0,0,1-38.406-11.366,40.079,40.079,0,0,1-15.763-25.945,4.993,4.993,0,0,1,4.121-5.733,5.107,5.107,0,0,1,.828-.065H522.44a4.993,4.993,0,0,1,4.813,3.785,17.4,17.4,0,0,0,4.922,8.566,17.171,17.171,0,0,0,12.246,4.51,14.224,14.224,0,0,0,10.19-3.528,12.351,12.351,0,0,0,3.723-9.4,12.145,12.145,0,0,0-3.431-8.816,26.852,26.852,0,0,0-8.523-5.782q-5.1-2.255-14.108-5.39a172,172,0,0,1-21.456-8.718A39.472,39.472,0,0,1,496.51,572.63a40.828,40.828,0,0,1,.3-43.012A39.854,39.854,0,0,1,514.15,515.8a63.245,63.245,0,0,1,25.373-4.8q23.118,0,36.739,10.973a40.573,40.573,0,0,1,14.505,24.2,5.019,5.019,0,0,1-3.965,5.888,4.962,4.962,0,0,1-.965.093H559.385A5.039,5.039,0,0,1,554.6,548.5a17.009,17.009,0,0,0-4.2-7.223,14.713,14.713,0,0,0-10.875-4.019,14.022,14.022,0,0,0-9.5,3.135A11.514,11.514,0,0,0,526.4,549.6a11.683,11.683,0,0,0,3.232,8.329,24.613,24.613,0,0,0,8.131,5.584q4.9,2.157,14.107,5.486a155.469,155.469,0,0,1,21.752,8.917,41.68,41.68,0,0,1,14.5,12.85,36.691,36.691,0,0,1,6.074,21.946,38.192,38.192,0,0,1-5.584,20.159Z" fill="#60f"/><path d="M73.015,845.678a8.034,8.034,0,0,0,2.708,5.378,8.8,8.8,0,0,0,5.988,2.021,8.892,8.892,0,0,0,6.523-2.364,8.48,8.48,0,0,0,2.4-6.332V814.4H71.031v-8.772h29.142v38.753a18.676,18.676,0,0,1-1.3,7.133,14.858,14.858,0,0,1-3.7,5.378,16.382,16.382,0,0,1-5.8,3.394,23.23,23.23,0,0,1-7.667,1.183,21.98,21.98,0,0,1-7.132-1.106,16.555,16.555,0,0,1-5.607-3.166,15.945,15.945,0,0,1-3.815-4.959,17.815,17.815,0,0,1-1.754-6.56Z" fill="#60f"/><path d="M123.516,805.7h12.892l14.418,54.926h-9.841l-3.28-13.808H121.761l-3.28,13.808h-9.765Zm12.358,33.566-4.653-19.606q-.306-1.372-.573-2.746t-.419-2.441q-.155-1.22-.305-2.442h-.382q-.153,1.223-.305,2.442-.153,1.068-.382,2.441a26.5,26.5,0,0,1-.609,2.746l-4.654,19.606Z" fill="#60f"/><path d="M154.487,805.7h9.841l9.765,40.966a22.786,22.786,0,0,1,.61,2.67q.228,1.372.381,2.517.153,1.221.306,2.441h.381q.152-1.219.305-2.441.151-1.144.42-2.517t.572-2.67l9.841-40.966H196.6L181.8,860.63H168.905Z" fill="#60f"/><path d="M215.058,805.7H227.95l14.418,54.926h-9.841l-3.28-13.808H213.3l-3.28,13.808h-9.765Zm12.358,33.566-4.653-19.606q-.306-1.372-.573-2.746t-.419-2.441q-.154-1.22-.3-2.442h-.382q-.153,1.223-.305,2.442-.153,1.068-.382,2.441a26.5,26.5,0,0,1-.609,2.746l-4.654,19.606Z" fill="#60f"/><path d="M248.4,846.06h9.764a6.535,6.535,0,0,0,2.594,5.149,10.524,10.524,0,0,0,6.56,1.868q4.272,0,6.561-1.907a6.311,6.311,0,0,0,2.289-5.11,7.435,7.435,0,0,0-1.755-4.921A9.271,9.271,0,0,0,269.6,838.2l-6.026-1.755q-7.02-1.9-10.566-6.026a16.519,16.519,0,0,1-2.289-16.555,13.628,13.628,0,0,1,3.548-4.8,16.369,16.369,0,0,1,5.568-3.09,23.1,23.1,0,0,1,7.4-1.107q7.857,0,12.587,4.044a14.848,14.848,0,0,1,5.112,10.985h-9.689a6.305,6.305,0,0,0-2.365-4.882,9.186,9.186,0,0,0-5.874-1.755,8.893,8.893,0,0,0-5.836,1.793A5.951,5.951,0,0,0,259,819.893a6.384,6.384,0,0,0,1.6,4.348,10.28,10.28,0,0,0,4.959,2.822l6.408,1.832a20.123,20.123,0,0,1,10.261,6.141,15.9,15.9,0,0,1,3.547,10.566,15.338,15.338,0,0,1-1.335,6.484,14.163,14.163,0,0,1-3.776,4.958,17.658,17.658,0,0,1-5.874,3.2,26.28,26.28,0,0,1-15.22.038,17.919,17.919,0,0,1-5.836-3.089,14.011,14.011,0,0,1-3.814-4.806A15.886,15.886,0,0,1,248.4,846.06Z" fill="#60f"/><path d="M313.237,861.393a22.4,22.4,0,0,1-7.476-1.183,16,16,0,0,1-5.721-3.395,15.117,15.117,0,0,1-3.662-5.339,17.933,17.933,0,0,1-1.3-6.943V821.8a17.939,17.939,0,0,1,1.3-6.942,15.135,15.135,0,0,1,3.662-5.339,16.049,16.049,0,0,1,5.721-3.4,22.4,22.4,0,0,1,7.476-1.183,21.791,21.791,0,0,1,7.285,1.145,16.746,16.746,0,0,1,5.607,3.242,15.157,15.157,0,0,1,3.739,5.111,17.746,17.746,0,0,1,1.525,6.675h-9.536a7.485,7.485,0,0,0-2.479-5.606,9.032,9.032,0,0,0-6.141-2.022,8.761,8.761,0,0,0-6.294,2.212,8.02,8.02,0,0,0-2.326,6.1v22.733a8.167,8.167,0,0,0,2.25,6.1,8.7,8.7,0,0,0,6.37,2.212,8.823,8.823,0,0,0,6.141-2.1,7.657,7.657,0,0,0,2.479-5.607h9.536q-.382,7.477-5.226,11.862T313.237,861.393Z" fill="#60f"/><path d="M359.466,805.7a22.76,22.76,0,0,1,7.514,1.182,17.077,17.077,0,0,1,5.8,3.319,14.366,14.366,0,0,1,3.7,5.188,17.2,17.2,0,0,1,1.3,6.789,15.845,15.845,0,0,1-2.746,9.382,15.457,15.457,0,0,1-7.552,5.646l11.061,23.42H368.01l-9.917-21.971H351V860.63h-9.536V805.7ZM351,830.954h8.468a8.588,8.588,0,0,0,6.293-2.288,8.274,8.274,0,0,0,2.327-6.18,8.561,8.561,0,0,0-2.365-6.331,8.458,8.458,0,0,0-6.255-2.365H351Z" fill="#60f"/><path d="M387.843,814.019V805.7h33.109v8.315H409.2v38.295h11.748v8.316H387.843v-8.316h11.749V814.019Z" fill="#60f"/><path d="M451.923,805.7a22.755,22.755,0,0,1,7.514,1.182,16.324,16.324,0,0,1,5.76,3.357,14.883,14.883,0,0,1,3.662,5.264,17.682,17.682,0,0,1,1.3,6.9,17.477,17.477,0,0,1-1.3,6.828,14.651,14.651,0,0,1-3.7,5.264,16.777,16.777,0,0,1-5.76,3.356,22.369,22.369,0,0,1-7.476,1.183h-9.459V860.63h-9.536V805.7Zm-9.459,25.25h9.459a8.373,8.373,0,0,0,6.256-2.326,8.481,8.481,0,0,0,2.288-6.218,8.612,8.612,0,0,0-2.288-6.255,8.3,8.3,0,0,0-6.256-2.365h-9.459Z" fill="#60f"/><path d="M476.029,814.477V805.7h39.822v8.773H500.746V860.63h-9.612V814.477Z" fill="#60f"/><path d="M322.8,171.437h9.192L307.31,237.9h-9.263Zm12.02,22.98,2.687-7.5,4.808,1.7a15.3,15.3,0,0,1,2.651,1.2q1.378.78,2.687,1.627t2.475,1.732q1.166.885,2.015,1.591l.283-.212q-.354-1.06-.778-2.475t-.813-3q-.39-1.59-.637-3.182a19.587,19.587,0,0,1-.247-3V177.8h7.919v5.091a19.713,19.713,0,0,1-.247,3q-.249,1.592-.637,3.182t-.813,3q-.425,1.415-.777,2.475l.282.212q.849-.707,2.015-1.591t2.475-1.732q1.308-.849,2.687-1.627a15.3,15.3,0,0,1,2.651-1.2l4.738-1.7,2.758,7.5-4.809,1.7a25.526,25.526,0,0,1-2.757.742q-1.485.32-3,.5t-2.97.282q-1.451.107-2.581.177l-.141.354q.918.636,2.05,1.555t2.3,1.945q1.166,1.026,2.262,2.156a17.942,17.942,0,0,1,1.874,2.263l2.9,4.171-6.5,4.526-2.9-4.172a20.845,20.845,0,0,1-1.485-2.546,31.561,31.561,0,0,1-1.273-2.9q-.567-1.485-1.025-2.9t-.813-2.475h-.425q-.283,1.061-.742,2.475t-1.06,2.9q-.6,1.483-1.308,2.9a21.375,21.375,0,0,1-1.485,2.546l-2.97,4.172-6.434-4.526,2.828-4.171a17.6,17.6,0,0,1,1.874-2.263q1.095-1.129,2.3-2.192t2.334-1.98q1.129-.916,2.05-1.555l-.141-.283q-1.132-.069-2.581-.177t-3-.282q-1.557-.177-3.04-.5a25.608,25.608,0,0,1-2.758-.742Z" fill="#efefef"/><path d="M385.723,202.689h28.282v8.131H385.723Z" fill="#efefef"/><path d="M428.146,202.689h28.282v8.131H428.146Z" fill="#efefef"/><path d="M470.569,202.689h28.283v8.131H470.569Z" fill="#efefef"/><path d="M512.992,202.689h28.283v8.131H512.992Z" fill="#efefef"/><path d="M555.415,202.689H583.7v8.131H555.415Z" fill="#efefef"/><path d="M597.839,202.689h28.283v8.131H597.839Z" fill="#efefef"/><path d="M394.42,264.062l12.232,33.869a18.553,18.553,0,0,1,.743,2.615q.317,1.486.6,2.829.281,1.627.494,3.252h.849q-.284-2.121-.46-3.747t-.353-3.606q-.177-1.979-.177-3.818V264.062H416.2v50.909H405.309l-12.02-33.939a28.894,28.894,0,0,1-.849-2.9q-.354-1.485-.565-2.829-.284-1.485-.5-2.97h-.848q.212,1.7.424,3.607.141,1.628.283,3.57t.141,3.995v31.465h-7.848V264.062Z" fill="#efefef"/><path d="M442.287,315.678a21.068,21.068,0,0,1-6.964-1.1,14.829,14.829,0,0,1-5.339-3.146,14.038,14.038,0,0,1-3.394-4.95,16.629,16.629,0,0,1-1.2-6.434V278.911a16.367,16.367,0,0,1,1.2-6.4,14.128,14.128,0,0,1,3.394-4.915,14.858,14.858,0,0,1,5.339-3.146,22.676,22.676,0,0,1,13.929,0,14.871,14.871,0,0,1,5.338,3.146,14.154,14.154,0,0,1,3.394,4.915,16.385,16.385,0,0,1,1.2,6.4v21.141a16.455,16.455,0,0,1-1.2,6.363,13.833,13.833,0,0,1-3.429,4.95,15.678,15.678,0,0,1-5.339,3.181A20.159,20.159,0,0,1,442.287,315.678Zm-8.06-15.626a7.6,7.6,0,0,0,2.191,5.727,9.181,9.181,0,0,0,11.738,0,7.6,7.6,0,0,0,2.192-5.727V278.911a7.605,7.605,0,0,0-2.192-5.728,9.181,9.181,0,0,0-11.738,0,7.6,7.6,0,0,0-2.191,5.728Z" fill="#efefef"/><path d="M466.256,272.193v-8.131h36.908v8.131h-14v42.778h-8.909V272.193Z" fill="#efefef"/><path d="M512,314.971V264.062h31.322v7.778H520.841v13.08h20.01V292.7h-20.01v14.5h22.484v7.778Z" fill="#efefef"/><path d="M552.233,301.466h9.051a6.054,6.054,0,0,0,2.4,4.772,9.75,9.75,0,0,0,6.081,1.733,9.259,9.259,0,0,0,6.081-1.768,5.851,5.851,0,0,0,2.121-4.737,6.894,6.894,0,0,0-1.626-4.561,8.605,8.605,0,0,0-4.455-2.722l-5.586-1.626q-6.505-1.767-9.792-5.586a15.316,15.316,0,0,1-2.122-15.344,12.631,12.631,0,0,1,3.288-4.454,15.175,15.175,0,0,1,5.162-2.863,21.4,21.4,0,0,1,6.858-1.026q7.283,0,11.666,3.748a13.762,13.762,0,0,1,4.738,10.181h-8.98a5.847,5.847,0,0,0-2.191-4.525,8.517,8.517,0,0,0-5.445-1.626,8.245,8.245,0,0,0-5.409,1.662,5.514,5.514,0,0,0-2.015,4.489,5.921,5.921,0,0,0,1.485,4.031,9.527,9.527,0,0,0,4.6,2.616l5.939,1.7a18.646,18.646,0,0,1,9.51,5.692,14.728,14.728,0,0,1,3.288,9.793,14.212,14.212,0,0,1-1.237,6.01,13.14,13.14,0,0,1-3.5,4.595,16.374,16.374,0,0,1-5.445,2.97,24.359,24.359,0,0,1-14.106.035,16.621,16.621,0,0,1-5.409-2.863,13,13,0,0,1-3.536-4.455A14.73,14.73,0,0,1,552.233,301.466Z" fill="#efefef"/><path d="M300.876,372.384h28.283v8.132H300.876Z" fill="#efefef"/><path d="M343.3,372.384h28.282v8.132H343.3Z" fill="#efefef"/><path d="M385.723,372.384h28.282v8.132H385.723Z" fill="#efefef"/><path d="M428.146,372.384h28.282v8.132H428.146Z" fill="#efefef"/><path d="M470.569,372.384h28.283v8.132H470.569Z" fill="#efefef"/><path d="M512.992,372.384h28.283v8.132H512.992Z" fill="#efefef"/><path d="M555.415,372.384H583.7v8.132H555.415Z" fill="#efefef"/><path d="M596.424,378.96l2.687-7.5,4.808,1.7a15.265,15.265,0,0,1,2.651,1.2q1.378.779,2.687,1.626t2.475,1.733q1.167.883,2.015,1.59l.283-.211q-.352-1.06-.778-2.476t-.813-3q-.387-1.592-.636-3.182a19.587,19.587,0,0,1-.247-3v-5.091h7.919v5.091a19.468,19.468,0,0,1-.248,3q-.247,1.59-.636,3.182t-.814,3q-.425,1.416-.777,2.476l.282.211q.849-.7,2.016-1.59t2.474-1.733q1.311-.847,2.687-1.626a15.3,15.3,0,0,1,2.651-1.2l4.738-1.7,2.757,7.5-4.807,1.7a25.843,25.843,0,0,1-2.758.742q-1.485.318-3,.5t-2.97.283q-1.447.106-2.581.177l-.141.354q.92.636,2.051,1.555t2.3,1.945q1.168,1.024,2.263,2.156a17.6,17.6,0,0,1,1.874,2.262l2.9,4.172-6.5,4.525-2.9-4.171a21.375,21.375,0,0,1-1.485-2.546q-.707-1.413-1.273-2.9t-1.025-2.9q-.459-1.415-.813-2.476H615.3q-.282,1.062-.742,2.476t-1.061,2.9q-.6,1.483-1.309,2.9a20.974,20.974,0,0,1-1.484,2.546l-2.97,4.171L601.3,394.8l2.828-4.172a17.765,17.765,0,0,1,1.874-2.262q1.1-1.131,2.3-2.192t2.333-1.98q1.132-.918,2.051-1.555l-.142-.283q-1.129-.069-2.581-.177t-3.005-.283q-1.554-.176-3.04-.5a25.843,25.843,0,0,1-2.758-.742Zm65.757-37.828h9.192L646.7,407.6h-9.262Z" fill="#efefef"/><path d="M607.318,784.3h11.919l-32,86.186h-12.01Zm41.259,0H660.5l-32,86.186H616.486Z" fill="#333"/><path d="M679.476,809.975H690.3v8.711h.825a10.952,10.952,0,0,1,4.4-7.152,15.161,15.161,0,0,1,8.985-2.475q7.793,0,12.194,5.042t4.4,13.386V860.4H709.641V828.862a10.178,10.178,0,0,0-2.476-7.289,8.9,8.9,0,0,0-6.785-2.612,9,9,0,0,0-6.922,2.7,10.39,10.39,0,0,0-2.521,7.381V860.4H679.476Z" fill="#333"/><path d="M755.392,861.32a26.584,26.584,0,0,1-9.032-1.466,20.141,20.141,0,0,1-6.922-4.081,17.949,17.949,0,0,1-4.4-6.281,20.635,20.635,0,0,1-1.558-8.16V828.954a20.649,20.649,0,0,1,1.558-8.16,17.973,17.973,0,0,1,4.4-6.28,19.609,19.609,0,0,1,6.922-4.035,29.431,29.431,0,0,1,18.063,0,19.631,19.631,0,0,1,6.923,4.035,18.009,18.009,0,0,1,4.4,6.28,20.667,20.667,0,0,1,1.56,8.16v12.378a21,21,0,0,1-1.56,8.206,17.893,17.893,0,0,1-4.4,6.327,19.7,19.7,0,0,1-6.877,4.034A27.222,27.222,0,0,1,755.392,861.32Zm-10.453-19.988a9.511,9.511,0,0,0,2.8,7.243,12.351,12.351,0,0,0,15.312,0,9.518,9.518,0,0,0,2.8-7.243V828.954a9.524,9.524,0,0,0-2.8-7.243,12.351,12.351,0,0,0-15.312,0,9.517,9.517,0,0,0-2.8,7.243Z" fill="#333"/><path d="M787.023,809.975H800.96V794.388h11.461v15.587h19.163v10.361H812.421v24.48a5.133,5.133,0,0,0,1.422,3.8,5.382,5.382,0,0,0,3.988,1.422h12.836V860.4H817.006q-7.427,0-11.736-4.217t-4.31-11.37v-24.48H787.023Z" fill="#333"/><path d="M843.5,828.771a20.635,20.635,0,0,1,1.56-8.16,17.493,17.493,0,0,1,4.4-6.235,19.5,19.5,0,0,1,6.877-3.942,28.02,28.02,0,0,1,9.077-1.375,26.511,26.511,0,0,1,8.939,1.42,20.165,20.165,0,0,1,6.831,3.989,17.55,17.55,0,0,1,4.4,6.234,20.67,20.67,0,0,1,1.559,8.16v9.169H854.872v3.3q0,5.136,2.8,7.978a10.377,10.377,0,0,0,7.748,2.841,15.375,15.375,0,0,0,6.326-1.191,7.472,7.472,0,0,0,3.759-3.3h11.278a15.9,15.9,0,0,1-2.751,5.639,18.223,18.223,0,0,1-4.721,4.308,22.777,22.777,0,0,1-6.328,2.751,28.638,28.638,0,0,1-7.563.963,28.158,28.158,0,0,1-9.031-1.375,19.067,19.067,0,0,1-6.923-3.989,17.917,17.917,0,0,1-4.4-6.28,20.625,20.625,0,0,1-1.56-8.16Zm11.37,1.559H875.96v-1.468q0-5.04-2.8-7.839a10.559,10.559,0,0,0-18.291,7.748Z" fill="#333"/><path d="M898.239,847.476h11.736a5.645,5.645,0,0,0,2.842,3.712,11.169,11.169,0,0,0,5.685,1.331h3.668a11.172,11.172,0,0,0,6.646-1.7,5.415,5.415,0,0,0,2.339-4.631q0-5.04-7.794-6.142l-7.151-.825q-8.619-1.1-12.745-4.768t-4.126-10.545q0-7.15,5-11t14.35-3.85h3.758q8.343,0,13.433,3.529a13.9,13.9,0,0,1,6,9.856H930.146a5.085,5.085,0,0,0-2.521-3.346,9.922,9.922,0,0,0-5.181-1.238h-3.758q-8.07,0-8.069,5.685,0,4.86,6.784,5.684l7.427,1.009q8.985,1.1,13.3,4.906t4.31,10.681q0,7.426-5.227,11.461T922.17,861.32H918.5q-8.895,0-14.166-3.622A13.914,13.914,0,0,1,898.239,847.476Z" fill="#333"/></g></svg>