<?xml version="1.0" encoding="utf-8"?><svg xmlns="http://www.w3.org/2000/svg" preserveAspectRatio="xMidYMid meet" xmlns:xlink="http://www.w3.org/1999/xlink" width="3168.8093" height="3161.1536" viewBox="0 0 3168.8093 3161.1536"><defs><style>.cls-1{fill:none;}.cls-2{fill:#60f;}.cls-3{fill:#efefef;}.cls-4{fill:#e2e2e2;}.cls-5{fill:#e0e0e0;}.cls-6{fill:url(#linear-gradient);}.cls-7{fill:#cab192;}.cls-8{fill:#93a3a3;}.cls-9{fill:#d1d1d1;}.cls-10{fill:#f60;}.cls-11{fill:#cc5200;}.cls-12{fill:#37474f;}.cls-13{fill:#607d8a;}.cls-14{fill:#444;}.cls-15,.cls-16,.cls-17,.cls-18,.cls-20{fill:#333;}.cls-15{opacity:0.95;}.cls-16{opacity:0.92;}.cls-17{opacity:0.9;}.cls-18{opacity:0.8;}.cls-19{clip-path:url(#clip-path);}.cls-21{fill:#555;}</style><linearGradient id="linear-gradient" x1="2155.6113" y1="2000.0246" x2="2850.9206" y2="2461.7171" gradientUnits="userSpaceOnUse"><stop offset="0.6773" stop-color="#bbbdbf"/><stop offset="0.726" stop-color="#c1c2c4"/><stop offset="0.7879" stop-color="#d0d1d2"/><stop offset="0.837" stop-color="#e2e2e2"/></linearGradient><clipPath id="clip-path"><rect class="cls-1" x="82.5496" y="82.7049" width="3010.3107" height="3017.3607"/></clipPath></defs><g id="n"><path class="cls-2" d="M3015.8545,1606.0309c0,803.8346-651.6815,1455.5161-1455.5161,1455.5161-803.87,0-1455.516-651.6815-1455.516-1455.5161,0-803.87,651.6458-1455.5162,1455.516-1455.5162,803.8346,0,1455.5161,651.6461,1455.5161,1455.5162Zm0,0"/></g><g id="o"><path class="cls-3" d="M2761.5668,1640.802V1638.3l-122.46-897.3909-4.52.4973H526.6144l-4.5273-.4973L283.2,2491.031a50.4223,50.4223,0,0,0,50.1967,57.2111H1982.13a16.8756,16.8756,0,0,1,1.9971-1.5208c27.127-24.0713,341.3054-314.6826,148.5783-650.9564,325.23,176.6724,597.768-107.4078,642.4354-157.6045ZM1128.9022,1293.4769"/><path class="cls-4" d="M1081.3451,1238.09H888.5742l80.2074-200.5482h32.321Z"/><path class="cls-5" d="M2646.3116,738.36l-4.4986.4974H533.8194l-4.5272-.4974,48.6969-357.879a50.2992,50.2992,0,0,1,49.6922-43.1679h1920.27a50.322,50.322,0,0,1,49.6987,43.1679Zm0,0"/><path class="cls-6" d="M2885.2267,2488.4816a50.4632,50.4632,0,0,1-50.1895,57.211h-783.992c404.323.3909,734.2715-323.5023,741.3219-727.7686a74.5436,74.5436,0,0,0-.4975-10.5183Zm0,0"/><path class="cls-7" d="M2742.1775,2545.6926V2696.247a50.3317,50.3317,0,0,1-50.1967,50.1965H483.63a50.3274,50.3274,0,0,1-50.1967-50.1965V2545.6926Zm0,0"/><path class="cls-8" d="M834.9491,588.2819H734.5914a50.193,50.193,0,0,1,0-100.3859H834.9491a50.193,50.193,0,1,1,0,100.3859Zm0,0"/><path class="cls-8" d="M1236.4933,588.2819H1136.1072a50.193,50.193,0,0,1,0-100.3859h100.3861a50.193,50.193,0,1,1,0,100.3859Zm0,0"/><path class="cls-8" d="M2039.525,588.2819H1939.1388a50.193,50.193,0,0,1,0-100.3859H2039.525a50.193,50.193,0,1,1,0,100.3859Zm0,0"/><path class="cls-8" d="M1638.0092,588.2819H1537.623a50.193,50.193,0,0,1,0-100.3859h100.3862a50.193,50.193,0,1,1,0,100.3859Zm0,0"/><path class="cls-8" d="M2441.0408,588.2819h-100.386a50.193,50.193,0,0,1,0-100.3859h100.386a50.193,50.193,0,1,1,0,100.3859Zm0,0"/></g><g id="t"><path class="cls-5" d="M2800.0134,1799.33l-4.5017,80.4845,4.5017-80.4845-122.87,18.5937L2518.0209,771.87a50.2467,50.2467,0,0,0-49.6284-43.1146h143.37a50.21,50.21,0,0,1,49.6284,43.1146Zm0,0"/></g><g id="e"><path class="cls-9" d="M2766.363,1796.8334c-7.05,404.2663-336.9989,728.16-741.2933,727.7687h-11.5488q-24.1038,0-48.1924-1.5208c27.127-24.0713,341.3053-314.6827,148.5783-650.9565,325.23,176.6724,597.7679-107.4078,642.4353-157.6044l9.5233,69.7622v2.0041a75.1319,75.1319,0,0,1,.4976,10.5467Zm0,0"/></g><g id="s"><path class="cls-10" d="M2523.237,747.906v.4845H556.54l-4.5312-.4845,48.652-357.46A50.2155,50.2155,0,0,1,650.29,347.3315H2424.986a50.2211,50.2211,0,0,1,49.6284,43.1146Zm0,0"/></g><g id="_-" data-name="-"><path class="cls-11" d="M2643.8469,736.2537l-4.5017.4846H2500.4769v-.4846l-48.6225-357.46a50.2467,50.2467,0,0,0-49.6284-43.1146h143.37a50.21,50.21,0,0,1,49.6284,43.1146Zm0,0"/><path class="cls-12" d="M2739.6011,2541.5293v150.3981a50.2355,50.2355,0,0,1-50.1132,50.12H483.6378a50.2448,50.2448,0,0,1-50.1132-50.12V2541.5293Zm0,0"/><path class="cls-13" d="M2589.203,2541.5293v150.3981a50.2259,50.2259,0,0,1-50.1132,50.12H483.6378a50.2448,50.2448,0,0,1-50.1132-50.12V2541.5293Zm0,0"/><path class="cls-14" d="M1135.3577,586.34H1235.65a50.1315,50.1315,0,0,0,0-100.263H1135.3577a50.1315,50.1315,0,0,0,0,100.263Zm0,0"/><path class="cls-14" d="M1937.4829,586.34h100.2849a50.1315,50.1315,0,0,0,0-100.263H1937.4829a50.1315,50.1315,0,0,0,0,100.263Zm0,0"/><path class="cls-14" d="M1536.424,586.34h100.285a50.1315,50.1315,0,0,0,0-100.263H1536.424a50.1315,50.1315,0,0,0,0,100.263Zm0,0"/><path class="cls-15" d="M684.1857,1538.8635h49.9955l.147.0293.1394-.0293h49.9737a49.8267,49.8267,0,0,0,21.7445-94.8066l42.2847-105.7118h273.0077l42.2775,105.7118a49.8267,49.8267,0,0,0,21.7444,94.8066h49.9736l.1763.0293.11-.0293h50.0029a50.1315,50.1315,0,1,0,0-100.2629h-16.1486l-162.6251-406.5082a49.826,49.826,0,0,0-21.7447-94.8061H884.7262a49.832,49.832,0,0,0-21.7666,94.8061L700.3637,1438.6006h-16.178a50.1315,50.1315,0,0,0,0,100.2629ZM888.5742,1238.09l80.2074-200.5482h32.3561l80.2074,200.5482Zm0,0"/><path class="cls-16" d="M1586.5665,1087.6842H2438.827a50.1279,50.1279,0,0,0,0-100.2557H1586.5665a50.1279,50.1279,0,1,0,0,100.2557Zm0,0"/><path class="cls-17" d="M1586.5665,1288.2027H2438.827a50.1278,50.1278,0,0,0,0-100.2555H1586.5665a50.1278,50.1278,0,1,0,0,100.2555Zm0,0"/><path class="cls-18" d="M1586.5665,1488.7505H2438.827a50.1315,50.1315,0,0,0,0-100.2629H1586.5665a50.1315,50.1315,0,1,0,0,100.2629Zm0,0"/></g><g id="over"><path class="cls-12" d="M2739.6011,2541.5293v150.3981a50.2355,50.2355,0,0,1-50.1132,50.12H483.6378a50.2448,50.2448,0,0,1-50.1132-50.12V2541.5293Zm0,0"/><path class="cls-13" d="M2589.203,2541.5293v150.3981a50.2259,50.2259,0,0,1-50.1132,50.12H483.6378a50.2448,50.2448,0,0,1-50.1132-50.12V2541.5293Zm0,0"/><g class="cls-19"><path class="cls-20" d="M2908.3946,2305.1517c313.1338-576.2418,215.9475-1289.0681-240.0493-1760.4645L2644.853,372.28a100.6716,100.6716,0,0,0-99.3961-86.714H2336.7353a1503.3447,1503.3447,0,0,0-1500.3158,0H627.6688a100.6216,100.6216,0,0,0-99.3669,86.6844L504.78,544.7163C48.8126,1016.1127-48.4028,1728.9393,264.7382,2305.21l-23.5289,172.6052a100.287,100.287,0,0,0,99.3446,113.8269h42.8284v100.2849A100.3779,100.3779,0,0,0,483.6378,2792.19H685.3312c533.9057,401.0588,1268.587,401.0588,1802.4631,0H2689.488a100.3842,100.3842,0,0,0,100.2628-100.263V2591.6424h42.8279a100.2762,100.2762,0,0,0,99.3376-113.8269ZM1586.5665,185.274a1405.9089,1405.9089,0,0,1,520.1364,100.2921H1066.43A1405.8787,1405.8787,0,0,1,1586.5665,185.274ZM627.6688,385.8217H2545.4569l41.0213,300.8032H586.6546ZM289.4056,2124.3141A1400.8683,1400.8683,0,0,1,480.1423,725.5247Zm51.1779,367.1022L572.9955,786.8806H2600.16l127.6638,925.2678c.2071,1.5,9.0065,112.15,10.3746,129.5527-19.9084,343.6023-290.5591,619.7089-633.7057,646.44-13.8648.8373-113.2946,2.8325-136.4306,3.2754Zm1245.983,501.3142a1387.3972,1387.3972,0,0,1-721.5141-200.54H2308.0805A1387.3971,1387.3971,0,0,1,1586.5665,2992.7305Zm843.97-501.3437a789.747,789.747,0,0,0,349.7708-383.9923l52.3824,383.9923ZM2883.72,2124.3141l-190.73-1398.7894a1400.8119,1400.8119,0,0,1,190.73,1398.7894Z"/></g></g><g id="view"><path class="cls-21" d="M2721.6864,2594.4v83.5544a50.332,50.332,0,0,1-50.1968,50.1965H504.1387a50.3275,50.3275,0,0,1-50.1967-50.1965V2594.4Zm0,0"/></g></svg>