<?xml version="1.0" encoding="utf-8"?><svg preserveAspectRatio="xMidYMid meet" xmlns="http://www.w3.org/2000/svg" width="2000" height="1792.494" viewBox="0 0 2000 1792.494"><defs><style>.cls-1{isolation:isolate;}.cls-2{fill:#06f;}.cls-3{fill:#0f6;}.cls-4{fill:#f06;}.cls-5{fill:#f60;}.cls-6{fill:#ffcbc3;}.cls-10,.cls-7{fill:#efefef;}.cls-8{fill:#60f;}.cls-9{fill:#ff944d;}.cls-10{opacity:0.85;mix-blend-mode:hard-light;}.cls-11{fill:#b2ba00;}.cls-12{fill:#ffb100;}.cls-13{fill:red;}.cls-14{fill:#ff5100;}.cls-15{fill:#333;}</style></defs><g class="cls-1"><g id="data"><path class="cls-2" d="M755.251,1323.3l-60.893,60.9a597.463,597.463,0,0,0,145.648,57.6,17.22,17.22,0,0,1,13.04,16.7V1600.34a16.453,16.453,0,0,0,16.436,16.443h232.787a16.458,16.458,0,0,0,16.436-16.443V1458.5a17.22,17.22,0,0,1,13.046-16.7,596.584,596.584,0,0,0,145.676-57.621L1216.5,1323.3C1073.007,1394.907,901.162,1396.119,755.251,1323.3Z"/><path class="cls-2" d="M1726.38,727.006H1584.541a17.222,17.222,0,0,1-16.7-13.04,597.412,597.412,0,0,0-57.649-145.717l-60.852,60.962A511.8,511.8,0,0,1,1493.9,760.436c.069,0,.069.075.069.075a17.269,17.269,0,0,1-13.633,20.183c-.1.019-.2.024-.3.042q2.694,16.931,4.236,34.23c.11-.009.216-.029.326-.036a17.212,17.212,0,1,1,1.86,34.373c-.105,0-.2-.012-.309-.013.073,3.512.123,7.029.123,10.559q0,12.048-.566,23.956c.088.006.175,0,.263.009a17.212,17.212,0,0,1,15.775,18.53,513.052,513.052,0,0,1-52.421,188.122l60.852,60.97a597.42,597.42,0,0,0,57.649-145.718,17.225,17.225,0,0,1,16.705-13.04h141.839a16.457,16.457,0,0,0,16.436-16.442h.007V743.449A16.458,16.458,0,0,0,1726.38,727.006Z"/><path class="cls-2" d="M365.925,942.924a17.221,17.221,0,0,1-34.442,0v-.007H297.041v.007a17.227,17.227,0,0,1-17.221,17.221h-50.9v16.07a16.481,16.481,0,0,0,16.463,16.464H387.19a17.228,17.228,0,0,1,16.7,13.026,600.753,600.753,0,0,0,57.649,145.724l60.949-60.956a512.338,512.338,0,0,1-44.43-130.328h-60.48a17.227,17.227,0,0,1-17.221-17.221v-.007H365.925Z"/><path class="cls-2" d="M461.536,568.263a601.07,601.07,0,0,0-57.649,145.731,17.22,17.22,0,0,1-16.7,13.026h-141.8a16.485,16.485,0,0,0-16.463,16.463V759.54h249.14a511.888,511.888,0,0,1,44.43-130.328Z"/><path class="cls-3" d="M454.813,1206.846l-74.732,74.733a16.49,16.49,0,0,0,0,23.234L540.9,1465.644a16.883,16.883,0,0,0,23.249,0l74.774-74.788A640.985,640.985,0,0,1,454.813,1206.846Z"/><path class="cls-3" d="M1332.817,1390.856l74.8,74.8a16.86,16.86,0,0,0,23.241,0l160.824-160.824h0a16.5,16.5,0,0,0-.041-23.269l-74.754-74.753A638.684,638.684,0,0,1,1332.817,1390.856Z"/><path class="cls-2" d="M917.494,102.875H869.482a16.542,16.542,0,0,0-16.394,16.47V261.177A17.225,17.225,0,0,1,840,277.916a595.684,595.684,0,0,0-145.594,57.615L755.272,396.4c147.888-73.8,319.561-70.71,461.248,0l60.922-60.866a596.249,596.249,0,0,0-145.656-57.615,17.238,17.238,0,0,1-13.081-16.739V119.345a16.543,16.543,0,0,0-16.395-16.47h-46.917c0,.075-.069.075-.137.075a17.271,17.271,0,0,1-17.221-17.221V85.7h-34.452c0,.012,0,.023,0,.034a17.221,17.221,0,0,1-34.442,0c0-.011,0-.022,0-.034H934.714c0,.012,0,.023,0,.034A17.207,17.207,0,0,1,917.494,102.875Z"/><path class="cls-3" d="M1516.9,512.9l74.788-74.781a16.5,16.5,0,0,0,0-23.242L1430.86,254.055a16.851,16.851,0,0,0-23.235,0l-74.8,74.794A638.762,638.762,0,0,1,1516.9,512.9Z"/><path class="cls-3" d="M638.968,328.863l-74.815-74.815a16.874,16.874,0,0,0-23.242,0L380.088,414.872a16.5,16.5,0,0,0,.034,23.269l74.726,74.725A640.4,640.4,0,0,1,638.968,328.863Z"/><path class="cls-4" d="M279.82,925.7a17.227,17.227,0,0,1,17.221,17.214h34.442a17.221,17.221,0,0,1,34.442,0h34.436A17.227,17.227,0,0,1,417.582,925.7H941.087a17.27,17.27,0,0,1,17.235,17.221v69.848l152.923-152.923L958.322,706.927v69.848A17.258,17.258,0,0,1,941.087,794c-83.756,0-706.806-.007-838.85-.007h-.014V925.7h177.6ZM235.4,863.294H949.5a17.221,17.221,0,0,1,0,34.442H235.4a17.221,17.221,0,1,1,0-34.442Zm-96.438,0h27.553a17.221,17.221,0,1,1,0,34.442H138.959a17.221,17.221,0,1,1,0-34.442Z"/><path class="cls-5" d="M1413.026,1085.713a477.887,477.887,0,0,0,54.418-186.193,17.292,17.292,0,0,1,18.267-15.715q.563-11.907.566-23.956c0-3.53-.05-7.047-.123-10.559-10.9-.146-17.364-7.811-17.807-16.244a17.127,17.127,0,0,1,15.93-18.08q-1.539-17.292-4.236-34.23a17.394,17.394,0,0,1-19.885-13.612,476.376,476.376,0,0,0-47.123-133.084,17.313,17.313,0,0,1,3.031-20.252l75.979-76.041a607.773,607.773,0,0,0-184.065-184.065l-76.048,75.979a17.67,17.67,0,0,1-20.245,3.031c-144.161-76.627-313.933-73.066-451.674,0a17.588,17.588,0,0,1-20.252-3.031l-75.91-75.979A607.151,607.151,0,0,0,479.722,537.747l76.048,76.034a17.128,17.128,0,0,1,3.031,20.252A476.865,476.865,0,0,0,513.165,759.54H671.592C712.612,629.239,836.679,530,985.875,530c182.192,0,329.845,147.929,329.845,329.845,0,182.22-147.632,329.845-329.845,329.845-146.4,0-271.727-95.811-314.283-229.549H513.165A476.787,476.787,0,0,0,558.8,1085.645a17.125,17.125,0,0,1-3.031,20.251l-76.048,76.049A607.9,607.9,0,0,0,663.849,1366l75.91-75.972A17.584,17.584,0,0,1,760.011,1287a482.609,482.609,0,0,0,451.674,0,17.544,17.544,0,0,1,20.244,3.031L1307.978,1366a605.91,605.91,0,0,0,183.989-184.058l-75.91-76.049A17.248,17.248,0,0,1,1413.026,1085.713Z"/><path class="cls-6" d="M138.959,897.736h27.553a17.221,17.221,0,1,0,0-34.442H138.959a17.221,17.221,0,1,0,0,34.442Z"/><path class="cls-6" d="M235.4,897.736H949.5a17.221,17.221,0,0,0,0-34.442H235.4a17.221,17.221,0,1,0,0,34.442Z"/><path class="cls-7" d="M1726.38,692.578H1597.835a631.756,631.756,0,0,0-62.422-149.492l80.663-80.65a51,51,0,0,0-.035-71.908L1455.218,229.7a50.86,50.86,0,0,0-71.943,0l-80.629,80.622A631.01,631.01,0,0,0,1153.14,247.89V119.345A50.933,50.933,0,0,0,1102.3,68.508h-47.047a17.271,17.271,0,0,0-17.22,17.187v.034a17.271,17.271,0,0,0,17.221,17.221c.068,0,.137,0,.137-.075h46.917a16.543,16.543,0,0,1,16.395,16.47V261.177a17.238,17.238,0,0,0,13.081,16.739,596.249,596.249,0,0,1,145.656,57.615L1216.52,396.4c-141.687-70.71-313.36-73.8-461.248,0l-60.866-60.866A595.684,595.684,0,0,1,840,277.916a17.225,17.225,0,0,0,13.088-16.739V119.345a16.542,16.542,0,0,1,16.394-16.47h48.012a17.207,17.207,0,0,0,17.221-17.146c0-.011,0-.022,0-.034a17.227,17.227,0,0,0-17.22-17.187H869.482a50.888,50.888,0,0,0-50.836,50.837V247.883A632.481,632.481,0,0,0,669.14,310.319L588.5,229.7a50.868,50.868,0,0,0-71.95,0L355.737,390.514a51,51,0,0,0,0,71.95l80.6,80.6a635.156,635.156,0,0,0-62.43,149.52H245.385a50.962,50.962,0,0,0-50.9,50.9v16.064H102.237A17.221,17.221,0,0,0,102.223,794h.014c132.044,0,755.094.007,838.85.007a17.258,17.258,0,0,0,17.235-17.228V706.927l152.923,152.922L958.322,1012.772V942.924A17.27,17.27,0,0,0,941.087,925.7h-523.5a17.227,17.227,0,0,0-17.221,17.214v.007a17.227,17.227,0,0,0,17.221,17.221h60.48a512.338,512.338,0,0,0,44.43,130.328l-60.949,60.956a600.753,600.753,0,0,1-57.649-145.724,17.228,17.228,0,0,0-16.7-13.026h-141.8a16.481,16.481,0,0,1-16.463-16.464v-16.07h50.9a17.227,17.227,0,0,0,17.221-17.221v-.007A17.227,17.227,0,0,0,279.82,925.7h-177.6a17.221,17.221,0,0,0,.014,34.442h92.236v16.07a50.966,50.966,0,0,0,50.9,50.906H373.9a635.044,635.044,0,0,0,62.43,149.52L355.7,1257.269a51,51,0,0,0,.035,71.916l160.816,160.823a50.862,50.862,0,0,0,71.95,0l80.622-80.622A631.011,631.011,0,0,0,818.611,1471.8v128.545a50.939,50.939,0,0,0,50.878,50.885h232.787a50.939,50.939,0,0,0,50.878-50.885V1471.8a631.163,631.163,0,0,0,149.492-62.416l80.622,80.622a50.862,50.862,0,0,0,71.95,0l160.824-160.823a51.011,51.011,0,0,0,0-71.943l-80.629-80.622a631.652,631.652,0,0,0,62.422-149.492H1726.38a50.939,50.939,0,0,0,50.878-50.885V743.463A50.943,50.943,0,0,0,1726.38,692.578ZM1407.625,254.055a16.851,16.851,0,0,1,23.235,0l160.824,160.823a16.5,16.5,0,0,1,0,23.242L1516.9,512.9a638.762,638.762,0,0,0-184.072-184.052ZM380.122,438.141a16.5,16.5,0,0,1-.034-23.269L540.911,254.048a16.874,16.874,0,0,1,23.242,0l74.815,74.815a640.4,640.4,0,0,0-184.12,184ZM228.915,759.54V743.483a16.485,16.485,0,0,1,16.463-16.463H387.183a17.22,17.22,0,0,0,16.7-13.026,601.07,601.07,0,0,1,57.649-145.731l60.949,60.949a511.888,511.888,0,0,0-44.43,130.328ZM923.989,959.676V1053.9c0,15.03,18.475,23,29.324,12.213h0c.021-.021.055-.035.076-.055L1147.9,871.546a17.245,17.245,0,0,0,0-24.351L953.389,652.68c-10.712-10.7-29.4-3.024-29.4,12.179v94.22H708.161C750.546,642.086,862.365,564.006,986,564.006c162.456,0,295.375,131.982,295.375,295.375,0,162.242-131.886,295.375-295.444,295.375-122.407,0-235.067-76.826-277.8-195.08ZM564.153,1465.644a16.883,16.883,0,0,1-23.249,0L380.081,1304.813a16.49,16.49,0,0,1,0-23.234l74.732-74.733a640.985,640.985,0,0,0,184.114,184.01Zm567.6-23.848a17.22,17.22,0,0,0-13.046,16.7V1600.34a16.458,16.458,0,0,1-16.436,16.443H869.482a16.453,16.453,0,0,1-16.436-16.443V1458.5a17.22,17.22,0,0,0-13.04-16.7,597.463,597.463,0,0,1-145.648-57.6l60.893-60.9c145.911,72.824,317.756,71.612,461.248,0l60.928,60.88A596.584,596.584,0,0,1,1131.751,1441.8Zm459.892-160.238a16.5,16.5,0,0,1,.041,23.269h0L1430.86,1465.651a16.86,16.86,0,0,1-23.241,0l-74.8-74.8a638.684,638.684,0,0,0,184.072-184.051Zm151.173-305.322h-.007a16.457,16.457,0,0,1-16.436,16.442H1584.534a17.225,17.225,0,0,0-16.705,13.04,597.42,597.42,0,0,1-57.649,145.718l-60.852-60.97a513.052,513.052,0,0,0,52.421-188.122,17.212,17.212,0,0,0-15.775-18.53c-.088-.008-.175,0-.263-.009a17.292,17.292,0,0,0-18.267,15.715,477.887,477.887,0,0,1-54.418,186.193,17.248,17.248,0,0,0,3.031,20.183l75.91,76.049A605.91,605.91,0,0,1,1307.978,1366l-76.049-75.972a17.544,17.544,0,0,0-20.244-3.031,482.609,482.609,0,0,1-451.674,0,17.584,17.584,0,0,0-20.252,3.031L663.849,1366a607.9,607.9,0,0,1-184.127-184.058L555.77,1105.9a17.125,17.125,0,0,0,3.031-20.251,476.787,476.787,0,0,1-45.636-125.507H671.592c42.556,133.738,167.884,229.549,314.283,229.549,182.213,0,329.845-147.625,329.845-329.845C1315.72,677.926,1168.067,530,985.875,530c-149.2,0-273.263,99.242-314.283,229.543H513.165A476.865,476.865,0,0,1,558.8,634.033a17.128,17.128,0,0,0-3.031-20.252l-76.048-76.034A607.151,607.151,0,0,1,663.849,353.682l75.91,75.979a17.588,17.588,0,0,0,20.252,3.031c137.741-73.066,307.513-76.627,451.674,0a17.67,17.67,0,0,0,20.245-3.031l76.048-75.979a607.773,607.773,0,0,1,184.065,184.065l-75.979,76.041a17.313,17.313,0,0,0-3.031,20.252,476.376,476.376,0,0,1,47.123,133.084,17.394,17.394,0,0,0,19.885,13.612c.1-.018.2-.023.3-.042a17.269,17.269,0,0,0,13.633-20.183s0-.075-.069-.075a511.8,511.8,0,0,0-44.568-131.225l60.852-60.962a597.412,597.412,0,0,1,57.649,145.717,17.222,17.222,0,0,0,16.7,13.04H1726.38a16.458,16.458,0,0,1,16.436,16.443Z"/><path class="cls-8" d="M986.365,102.875a17.207,17.207,0,0,0,17.221-17.146c0-.011,0-.022,0-.034a17.22,17.22,0,0,0-34.439,0c0,.012,0,.023,0,.034A17.206,17.206,0,0,0,986.365,102.875Z"/><path class="cls-8" d="M1468.347,833.046c.443,8.433,6.908,16.1,17.807,16.244.105,0,.2.013.309.013a17.212,17.212,0,1,0-1.86-34.373c-.11.007-.216.027-.326.036A17.127,17.127,0,0,0,1468.347,833.046Z"/><path class="cls-8" d="M348.7,960.145a17.222,17.222,0,0,0,17.221-17.221v-.007a17.221,17.221,0,0,0-34.442,0v.007A17.222,17.222,0,0,0,348.7,960.145Z"/></g><g id="maanage"><path class="cls-9" d="M738.318,1144.629c-6.592-5.745-13.081-11.793-19.267-17.979A17.219,17.219,0,1,0,694.7,1151c6.744,6.75,13.812,13.349,21,19.611h0a17.223,17.223,0,0,0,22.615-25.983Z"/><path class="cls-9" d="M1253.227,568.124a17.207,17.207,0,0,0,0,24.35,375.241,375.241,0,0,1,110.628,267.085c0,208.939-169.076,377.712-377.754,377.712a377.207,377.207,0,0,1-194.591-53.888,17.222,17.222,0,0,0-17.765,29.51h0a411.632,411.632,0,0,0,212.39,58.827c227.821,0,412.155-184.362,412.155-412.155,0-110.09-42.867-213.589-120.713-291.441A17.207,17.207,0,0,0,1253.227,568.124Z"/></g><g id="api"><path class="cls-8" d="M888.108,714.273V443.312a46.489,46.489,0,1,0-92.978,0V714.273a46.489,46.489,0,1,0,92.978,0Z"/><path class="cls-8" d="M473.91,443.312V714.273a46.489,46.489,0,0,0,92.978,0V645.911H616.18A117.756,117.756,0,0,0,733.8,528.294V514.445A117.753,117.753,0,0,0,616.18,396.828H520.4A46.485,46.485,0,0,0,473.91,443.312ZM566.888,489.8H616.18a24.672,24.672,0,0,1,24.644,24.644v13.849a24.672,24.672,0,0,1-24.644,24.644H566.888V489.8Z"/><path class="cls-8" d="M262.079,389.878a46.491,46.491,0,0,0-42.724,28.158L100.037,696.105a46.488,46.488,0,0,0,85.442,36.661l76.6-178.508,76.6,178.508a46.484,46.484,0,1,0,85.437-36.656L304.793,418.041A46.456,46.456,0,0,0,262.079,389.878Z"/></g><g id="performance"><path class="cls-10" d="M1590.618,1063.151c-166.845,0-302.1,135.255-302.1,302.1s135.254,302.1,302.1,302.1,302.1-135.254,302.1-302.1S1757.463,1063.151,1590.618,1063.151Zm-195.476,302.1a17.771,17.771,0,0,1-35.541,0c0-127.588,103.43-231.017,231.017-231.017a230.207,230.207,0,0,1,97.21,21.391,17.77,17.77,0,0,1-14.971,32.234,194.667,194.667,0,0,0-82.239-18.084C1482.66,1169.775,1395.142,1257.292,1395.142,1365.251Zm195.476,71.082a71.083,71.083,0,1,1,36.11-132.323l129.03-129.031a17.772,17.772,0,0,1,25.131,0c6.406,6.407,7.561,17.962,0,25.132l-129.031,129.03a71.1,71.1,0,0,1-61.24,107.192Zm213.247-53.312a17.77,17.77,0,0,1-17.771-17.77,194.678,194.678,0,0,0-17.763-81.543,17.77,17.77,0,0,1,32.293-14.843h0a230.215,230.215,0,0,1,21.011,96.386A17.77,17.77,0,0,1,1803.865,1383.021Z"/><g id="Layer_17" data-name="Layer 17"><path class="cls-11" d="M1594.294,1145.89v-86.34c.051,0,.1,0,.153,0-169.506,0-306.6,132.639-312.1,301.973a19.17,19.17,0,0,0,5.47,14.076,19.755,19.755,0,0,0,14.1,5.979h68.924q-.285-5.607-.291-11.249C1370.553,1246.8,1470.854,1146.271,1594.294,1145.89Z"/><path class="cls-12" d="M1594.294,1145.89c.235,0,.469-.009.7-.009a223.064,223.064,0,0,1,112.59,30.346l43.523-75.024a311.684,311.684,0,0,0-129.992-40.548l-.357-.029q-2.248-.185-4.507-.337l-.91-.061q-2.421-.158-4.853-.282l-.042,0q-2.439-.121-4.89-.2c-.4-.014-.806-.025-1.209-.037q-1.857-.057-3.721-.092c-.452-.009-.905-.019-1.358-.025q-2.408-.036-4.825-.04c-.052,0-.1,0-.153,0Z"/><path class="cls-13" d="M1781.794,1121.414q2.013,1.509,4,3.047Q1783.807,1122.922,1781.794,1121.414Z"/><path class="cls-13" d="M1906.318,1361.334c-.006-.194-.017-.386-.023-.579q-.069-2.025-.164-4.043c-.026-.563-.056-1.125-.086-1.687q-.081-1.563-.177-3.123c-.035-.559-.068-1.119-.106-1.677q-.13-1.961-.286-3.915c-.019-.245-.035-.49-.055-.735q-.186-2.274-.406-4.538c-.048-.5-.1-1-.151-1.506q-.165-1.635-.345-3.263-.084-.756-.17-1.511-.234-2.016-.492-4.023c-.024-.19-.046-.381-.071-.571q-.3-2.309-.639-4.605c-.058-.4-.119-.791-.178-1.186q-.267-1.782-.552-3.556-.1-.617-.2-1.231-.357-2.16-.741-4.311c-.015-.08-.028-.16-.042-.24q-.429-2.376-.894-4.738c-.047-.237-.1-.472-.142-.708q-.4-2.013-.825-4.016c-.06-.281-.119-.562-.179-.842q-1.024-4.755-2.186-9.453l-.02-.079q-.577-2.327-1.189-4.637c-.031-.115-.061-.229-.091-.343A310.1,310.1,0,0,0,1786.7,1125.16a311.256,311.256,0,0,1,78.378,90.458l-75.258,43.351a223.077,223.077,0,0,1,29.625,111.358q0,5.552-.282,11.071h67.594a19.728,19.728,0,0,0,14.113-5.989A19.172,19.172,0,0,0,1906.318,1361.334Z"/><path class="cls-13" d="M1777.066,1117.941q.922.665,1.841,1.333Q1777.989,1118.605,1777.066,1117.941Z"/><path class="cls-14" d="M1789.817,1258.969l75.258-43.351a311.256,311.256,0,0,0-78.378-90.458c-.3-.234-.6-.466-.9-.7q-1.988-1.541-4-3.047-1.437-1.077-2.887-2.14-.916-.67-1.841-1.333-2.291-1.649-4.606-3.261l-.3-.21q-1.78-1.23-3.578-2.436l-.088-.059q-1.907-1.278-3.836-2.524l-.515-.337q-1.736-1.12-3.491-2.214c-.284-.178-.564-.359-.848-.536-1.11-.69-2.229-1.369-3.348-2.046-.329-.2-.656-.4-.986-.6q-2.156-1.293-4.334-2.552l-.022.038-43.523,75.024A226.114,226.114,0,0,1,1789.817,1258.969Z"/></g><path class="cls-15" d="M1672.857,1187.859a17.77,17.77,0,0,0,14.971-32.234,230.207,230.207,0,0,0-97.21-21.391c-127.587,0-231.017,103.429-231.017,231.017a17.771,17.771,0,0,0,35.541,0c0-107.959,87.518-195.476,195.476-195.476A194.667,194.667,0,0,1,1672.857,1187.859Z"/><path class="cls-15" d="M1800.624,1268.865h0a17.77,17.77,0,0,0-32.293,14.843,194.678,194.678,0,0,1,17.763,81.543,17.771,17.771,0,0,0,35.541,0A230.215,230.215,0,0,0,1800.624,1268.865Z"/><path class="cls-15" d="M1590.618,1027.61c-186.474,0-337.641,151.167-337.641,337.641s151.167,337.64,337.641,337.64,337.64-151.167,337.64-337.64S1777.092,1027.61,1590.618,1027.61Zm0,639.74c-166.845,0-302.1-135.254-302.1-302.1s135.254-302.1,302.1-302.1,302.1,135.255,302.1,302.1S1757.463,1667.35,1590.618,1667.35Z"/><path class="cls-15" d="M1780.889,1200.111c7.561-7.17,6.406-18.725,0-25.132a17.772,17.772,0,0,0-25.131,0l-129.03,129.031a71.055,71.055,0,1,0,25.13,25.131Zm-190.271,200.681a35.542,35.542,0,1,1,35.541-35.541A35.541,35.541,0,0,1,1590.618,1400.792Z"/></g></g></svg>