<?xml version="1.0" encoding="utf-8"?><svg preserveAspectRatio="xMidYMid meet"  xmlns="http://www.w3.org/2000/svg" xmlns:xlink="http://www.w3.org/1999/xlink" width="1726.65" height="2000" viewBox="0 0 1726.65 2000"><defs><style>.cls-1{isolation:isolate;}.cls-2{fill:url(#linear-gradient);}.cls-3{fill:#60f;}.cls-4{mix-blend-mode:screen;}.cls-5{fill:#2d2d59;}.cls-6{fill:#f06;}.cls-7{fill:#ffe91a;}.cls-8{fill:#0f6;}.cls-9{fill:#f60;}.cls-10{fill:#bcbcbc;}.cls-11{fill:#939393;}.cls-12{opacity:0.1;}.cls-13{fill:#333;}.cls-14{fill:#06f;}.cls-15{fill:#1aa9e8;}.cls-16{fill:#65d33c;}.cls-17{fill:#55bf28;}.cls-18{fill:#89e56a;}.cls-19{fill:#fff600;}.cls-20{fill:#8ae1ff;}.cls-21{fill:#42c3fc;}.cls-22{fill:#ff8736;}.cls-23{fill:#00b247;}</style><linearGradient id="linear-gradient" x1="66.47" y1="1607.16" x2="1393.15" y2="280.48" gradientUnits="userSpaceOnUse"><stop offset="0" stop-color="#ccc"/><stop offset="0.49" stop-color="#efefef"/></linearGradient></defs><g class="cls-1"><g id="post"><polygon class="cls-2" points="1378.99 1539.59 689.89 1552.91 324.4 1865.1 280.62 1611.92 143.56 1493.9 132.14 296.54 1408.17 295.5 1378.99 1539.59"/></g><g id="browser"><path class="cls-3" d="M1376.9,165.06H201.15a31.31,31.31,0,0,0-31.31,31.31V295.1H1408.2V196.37A31.3,31.3,0,0,0,1376.9,165.06Z"/><g class="cls-4"><path class="cls-5" d="M416.73,197.31A35.2,35.2,0,0,1,438,165.06H199.25a31.31,31.31,0,0,0-31.31,31.31V300.82H416.73Z"/></g><path class="cls-6" d="M256.07,262a29,29,0,1,1,29-29A29,29,0,0,1,256.07,262Z"/><path class="cls-7" d="M336.58,262a29,29,0,1,1,29-29A29.05,29.05,0,0,1,336.58,262Z"/><path class="cls-8" d="M417.1,262a29,29,0,1,1,29-29A29.05,29.05,0,0,1,417.1,262Z"/><path class="cls-9" d="M640.75,254.41h-41.5a21.47,21.47,0,0,1,0-42.94h41.5a21.47,21.47,0,1,1,0,42.94Z"/><path class="cls-9" d="M1225.18,254.41H774.81c-11.86,0-64.4-9.61-64.4-21.47s52.54-21.47,64.4-21.47h450.37a21.47,21.47,0,1,1,0,42.94Z"/></g><g id="headline"><path class="cls-10" d="M727.18,577.5a43.59,43.59,0,0,0,43.59,43.59h435.77a43.59,43.59,0,1,0,0-87.18H770.77a43.59,43.59,0,0,0-43.59,43.59Z"/><path class="cls-11" d="M977.86,577.5a43.6,43.6,0,0,1,43.59-43.59H770.77a43.59,43.59,0,0,0,0,87.18h250.68A43.6,43.6,0,0,1,977.86,577.5Z"/></g><g id="photo"><g class="cls-12"><path class="cls-13" d="M1228.45,900.16H753.11a23,23,0,0,1,0-46.08h475.34a23,23,0,0,1,0,46.08Z"/></g><g class="cls-12"><path class="cls-13" d="M1228.45,813H753.11a23,23,0,0,1,0-46.09h475.34a23,23,0,0,1,0,46.09Z"/></g><g class="cls-12"><path class="cls-13" d="M1228.45,725.81H753.11a23,23,0,0,1,0-46.09h475.34a23,23,0,0,1,0,46.09Z"/></g><g class="cls-12"><path class="cls-13" d="M1228.45,987.34H753.12a23,23,0,1,1,0-46.08h475.33a23,23,0,0,1,0,46.08Z"/></g><path class="cls-14" d="M655.42,522H619.93v4.9a52.58,52.58,0,0,1,1.62,8.28,56.39,56.39,0,0,1-71.41,60.69,20.83,20.83,0,0,0-23.75,9.46A92.55,92.55,0,0,1,375.6,618.45a20.61,20.61,0,0,0-15.8-7.3,20.88,20.88,0,0,0-9,2.05,56.53,56.53,0,0,1-67.46-14.6h-4.9V873.43l92.73-92.73a32.47,32.47,0,0,1,45.9,0L525.58,889.25l59.95-60a32.47,32.47,0,0,1,45.9,0l50,50V547.93a26,26,0,0,0-26-26Z"/><path class="cls-15" d="M349,629a21.64,21.64,0,0,0-.78-14.7,55.69,55.69,0,0,1-21.65,4.42,56.36,56.36,0,0,1-43.24-20.08h-4.9V873.43l92.73-92.73v-6.54C315.81,707.4,340.53,656.46,349,629Z"/><path class="cls-16" d="M304.36,985.56H628.43L417,774.16a32.45,32.45,0,0,0-45.89,0L278.4,866.9v92.69a26,26,0,0,0,26,26Z"/><path class="cls-17" d="M304.36,985.56H628.43L443,800.12s10.42,43.89-13.9,68.21-80.61,81.33-80.61,81.33S327,973.89,278.4,959.59a26,26,0,0,0,26,26Z"/><path class="cls-18" d="M585.53,822.76,422.74,985.56H655.42a26,26,0,0,0,26-26V872.72l-50-50A32.47,32.47,0,0,0,585.53,822.76Z"/><circle class="cls-7" cx="527.27" cy="740.63" r="45.84" transform="translate(-248.87 1214.07) rotate(-85.93)"/><path class="cls-19" d="M558.36,732.41a22.92,22.92,0,1,1-22.92-22.91,22.92,22.92,0,0,1,22.92,22.91Z"/><path class="cls-20" d="M278.4,547.93v52.42a61.42,61.42,0,0,0,74.47,17.27,15.79,15.79,0,0,1,19,4,97.44,97.44,0,0,0,158.76-13.85,15.85,15.85,0,0,1,18.17-7.22,61.26,61.26,0,0,0,77.63-65.94A59.37,59.37,0,0,0,623.54,522H304.36a26,26,0,0,0-26,26Z"/><path class="cls-21" d="M304.36,522a26,26,0,0,0-26,26v52.42a61.4,61.4,0,0,0,71.18,18.71,22.68,22.68,0,0,0-4.51-10.21c-34.68-44.31.61-86.89.61-86.89Z"/></g><g id="copy"><g class="cls-12"><path class="cls-13" d="M1228.45,1221.22H298.9a23,23,0,0,0,0,46.09h898.36v0h31.19a23,23,0,0,0,0-46.08Z"/><path class="cls-13" d="M1228.45,1134H330.08v0H298.9a23,23,0,1,0,0,46.08h929.55a23,23,0,0,0,0-46.09Z"/><path class="cls-13" d="M298.9,1093h898.36v0h31.19a23,23,0,0,0,0-46.08H298.9a23,23,0,1,0,0,46.09Z"/></g><g class="cls-12"><path class="cls-13" d="M298.9,1354.09h898.36v0h31.19a23,23,0,0,0,0-46.08H298.9a23,23,0,1,0,0,46.09Z"/></g><g class="cls-12"><path class="cls-13" d="M298.9,1446.25h898.36v0h31.19a23,23,0,1,0,0-46.08H298.9a23,23,0,1,0,0,46.09Z"/></g><g class="cls-12"><path class="cls-13" d="M1228.45,429H298.9a23,23,0,0,0,0,46.09h898.36v0h31.19a23,23,0,0,0,0-46.08Z"/><path class="cls-13" d="M298.9,387.94h898.36v0h31.19a23,23,0,0,0,0-46.08H298.9a23,23,0,1,0,0,46.09Z"/></g></g><g id="Layer_16" data-name="Layer 16"><polygon class="cls-22" points="526.18 115.7 1477.98 104.28 1588.39 226.11 1607.42 332.71 1622.65 481.19 636.59 485 617.55 321.29 583.29 203.27 526.18 115.7"/></g><g id="Layer_14_copy" data-name="Layer 14 copy"><path class="cls-9" d="M1362.9,45.76H395.8c-7.93,0-16,.16-24,.67C205.94,57.19,76,199.87,76,371.3v1053c0,104.25,70.75,192.28,166.77,218.57v257.56a59.84,59.84,0,0,0,96.87,47L715.8,1650.84h489.55c124.94,0,226.59-101.65,226.59-226.59v-879h187.87a59.85,59.85,0,0,0,59.83-59.82V362.51C1679.64,187.85,1537.56,45.76,1362.9,45.76ZM1205.36,1531.18H695.07A59.9,59.9,0,0,0,658,1544L362.44,1777V1591a59.83,59.83,0,0,0-59.83-59.83,107.06,107.06,0,0,1-106.94-106.93V371.31c0-108.54,80.76-198.79,183.86-205.45q6.44-.45,12.84-.44h1.32A197.11,197.11,0,0,1,589.84,362.51V485.44a59.83,59.83,0,0,0,59.82,59.83h662.62v879h0A107,107,0,0,1,1205.36,1531.18ZM1560,425.61H709.5v-63.1a318.15,318.15,0,0,0-68.84-197.09H1362.9c108.68,0,197.09,88.4,197.09,197.09v63.1Z"/></g><g id="comment"><path class="cls-8" d="M1239.26,1160c-1.15-.45-1.08-3-.88-5.49.15-1.94,2.15-77.1,2.15-77.1h-79.84a40,40,0,0,1-39.91-39.91V837.88A40,40,0,0,1,1160.69,798H1480a40,40,0,0,1,39.91,39.91v199.59a40,40,0,0,1-39.91,39.91H1320s-77.07,78.14-77.87,78.86"/></g><g id="commenttext"><path class="cls-23" d="M1205.05,919.9h234.5a21.35,21.35,0,1,0,0-42.7h-234.5a21.35,21.35,0,1,0,0,42.7Z"/><path class="cls-23" d="M1204,999.19h234.5a21.35,21.35,0,0,0,0-42.7H1204a21.35,21.35,0,1,0,0,42.7Z"/></g></g></svg>