<svg id="reference_icon" data-name="reference icon" xmlns="http://www.w3.org/2000/svg" width="2000" height="2000" viewBox="0 0 2000 2000"><defs><style>.cls-1{fill:#803300;}.cls-2{fill:#f60;}.cls-3{fill:#bf4d00;}.cls-4{fill:#333;}.cls-5{fill:#fff;}</style></defs><g id="refbutton"><circle class="cls-1" cx="999.498" cy="1001.085" r="955.484"/><circle class="cls-2" cx="999.498" cy="1001.085" r="803.452"/><path class="cls-3" d="M349.83,1001.085c0-417.8,318.905-761.069,726.568-799.785-25.316-2.4-50.958-3.683-76.9-3.683-443.745,0-803.468,359.723-803.468,803.468S555.753,1804.552,999.5,1804.552c25.942,0,51.584-1.276,76.9-3.683C668.735,1762.153,349.83,1418.883,349.83,1001.085Z"/><path class="cls-4" d="M999.5,16.763c-262.922,0-510.109,102.386-696.023,288.3s-288.3,433.1-288.3,696.023,102.382,510.108,288.3,696.023,433.1,288.3,696.023,288.3,510.109-102.385,696.023-288.3,288.3-433.1,288.3-696.022-102.385-510.11-288.3-696.023S1262.419,16.763,999.5,16.763Zm655.238,1639.56c-175.02,175.021-407.72,271.408-655.238,271.408s-480.219-96.387-655.239-271.408S72.851,1248.6,72.851,1001.085s96.387-480.219,271.408-655.239S751.979,74.438,999.5,74.438s480.218,96.387,655.238,271.408,271.408,407.72,271.408,655.239S1829.757,1481.3,1654.736,1656.323Z"/><path class="cls-4" d="M999.5,168.783A832.4,832.4,0,0,0,458.874,368.308a28.839,28.839,0,0,0,37.485,43.837A774.743,774.743,0,0,1,999.5,226.458c427.13,0,774.63,347.5,774.63,774.627s-347.5,774.63-774.63,774.63-774.631-347.5-774.631-774.63a773.855,773.855,0,0,1,192.327-510.8,28.836,28.836,0,1,0-43.34-38.05,831.516,831.516,0,0,0-206.662,548.852c0,222.318,86.576,431.327,243.777,588.528S777.179,1833.39,999.5,1833.39s431.324-86.575,588.528-243.777S1831.8,1223.4,1831.8,1001.084s-86.573-431.326-243.777-588.528S1221.812,168.783,999.5,168.783Z"/></g><g id="book"><g id="pages"><path class="cls-4" d="M700.077,651.753a30.875,30.875,0,0,1-30.916,30.916H648.55V1066.44a72.387,72.387,0,0,0,80.794,71.313c65.542-7.42,129.023,6.183,187.558,39.572h7.2a345.648,345.648,0,0,1,17.98-56.785c-55.676-30.7-115.684-46.681-177.7-46.681a365.056,365.056,0,0,0-42.045,2.473,10.687,10.687,0,0,1-8.657-2.885,8.8,8.8,0,0,1-3.3-7.007v-452.2c0-4.947,4.122-9.481,9.48-10.3,93.161-13.6,172.306,9.481,248.153,71.725v-13.6a30.916,30.916,0,1,1,61.832,0v13.6c75.847-62.244,154.993-84.916,248.153-71.725,5.358.824,9.481,5.358,9.481,10.3V905.673a346.915,346.915,0,0,1,61.832,9.7v-232.7H1328.7a30.916,30.916,0,1,1,0-61.832h20.611v-6.6c0-35.45-26.794-66.366-62.656-71.313-106.764-15.664-201.161,9.893-287.726,77.909-86.565-68.016-180.962-93.573-287.725-77.909-35.863,4.947-62.657,35.863-62.657,71.313v6.6h20.611A30.873,30.873,0,0,1,700.077,651.753Z"/><path class="cls-4" d="M924.1,1177.325H617.634a10.2,10.2,0,0,1-10.305-10.305V692.974a10.47,10.47,0,0,1,10.305-10.305h51.527a30.916,30.916,0,1,0,0-61.832H617.222c-39.573.412-71.725,32.564-71.725,72.137V1167.02c0,39.572,32.565,72.137,72.137,72.137H916A347.906,347.906,0,0,1,924.1,1177.325Z"/><path class="cls-4" d="M1297.787,651.753a31.141,31.141,0,0,0,30.916,30.916h51.527a10.2,10.2,0,0,1,10.305,10.305V928.517a347.939,347.939,0,0,1,61.832,31.507V692.974c0-39.573-32.565-72.137-72.137-72.137H1328.7A31.141,31.141,0,0,0,1297.787,651.753Z"/><path class="cls-4" d="M1029.848,662.058a30.916,30.916,0,1,0-61.832,0v408a351.359,351.359,0,0,1,61.832-74.292Z"/></g><circle id="dot" class="cls-4" cx="1269.288" cy="1252.313" r="240.215"/></g><g id="i"><path class="cls-5" d="M1325.778,1351.978v43.589h-108.97v-43.589H1238.6v-108.97h-21.794v-43.589h87.176v152.559Z"/><path class="cls-5" d="M1303.984,1128.2a37.132,37.132,0,1,1-37.131-37.131A37.128,37.128,0,0,1,1303.984,1128.2Z"/></g></svg>