<svg xmlns="http://www.w3.org/2000/svg" xmlns:xlink="http://www.w3.org/1999/xlink" width="2000" height="1636" viewBox="0 0 2000 1636"><defs><linearGradient id="a" x1="546.761" y1="473.886" x2="1173.23" y2="473.886" gradientUnits="userSpaceOnUse"><stop offset="0.18" stop-color="#575757"/><stop offset="1" stop-color="#fff"/></linearGradient></defs><path d="M1085.466,417.992V530.939l-30.119,10.73a218.114,218.114,0,0,1-9.977,23.719l13.93,28.8-80,80-28.8-13.93a218.015,218.015,0,0,1-23.718,9.977l-10.73,30.119H803.1l-10.73-30.119a217.947,217.947,0,0,1-23.719-9.977l-28.8,13.93-80-80,13.93-28.8a218.114,218.114,0,0,1-9.977-23.719l-30.119-10.73V417.992l30.119-10.73a218.03,218.03,0,0,1,9.977-23.719l-13.93-28.8,80-80,28.8,13.93a217.947,217.947,0,0,1,23.719-9.977l10.73-30.119H916.046l10.73,30.119a218.015,218.015,0,0,1,23.718,9.977l28.8-13.93,80,80-13.93,28.8a218.03,218.03,0,0,1,9.977,23.719Zm-94.122,56.473A131.772,131.772,0,1,0,859.572,606.237,131.675,131.675,0,0,0,991.344,474.465Z" fill="#06f"/><path d="M859.572,342.694A131.772,131.772,0,1,1,727.8,474.465,131.675,131.675,0,0,1,859.572,342.694Zm56.474,131.771a56.474,56.474,0,1,0-56.474,56.474A56.4,56.4,0,0,0,916.046,474.465Z" fill="#66a3ff"/><path d="M859.572,323.87c-83.034,0-150.6,67.561-150.6,150.595s67.561,150.6,150.6,150.6,150.6-67.561,150.6-150.6S942.607,323.87,859.572,323.87Zm0,263.542A112.947,112.947,0,1,1,972.519,474.465,113.06,113.06,0,0,1,859.572,587.412Z" fill="#333"/><path d="M859.572,399.168a75.3,75.3,0,1,0,75.3,75.3A75.373,75.373,0,0,0,859.572,399.168Zm0,112.946a37.649,37.649,0,1,1,37.649-37.649A37.687,37.687,0,0,1,859.572,512.114Z" fill="#333"/><path d="M1066.227,565.256c1.3-2.937,2.542-5.892,3.69-8.867l34.373-12.123V404.683l-34.373-12.142q-1.75-4.432-3.69-8.866l15.738-32.905-98.716-98.7-32.9,15.738c-2.937-1.3-5.892-2.542-8.866-3.69l-12.1-34.374H789.79l-12.142,34.374q-4.433,1.751-8.866,3.69L735.9,252.073,637.18,350.789l15.738,32.905c-1.3,2.937-2.542,5.892-3.69,8.866l-34.374,12.1V544.248l34.374,12.141q1.75,4.434,3.69,8.867L637.18,598.142,735.9,696.858,768.8,681.12c2.936,1.3,5.892,2.542,8.866,3.69l12.1,34.373H929.355L941.5,684.81q4.434-1.75,8.867-3.69l32.9,15.738,98.715-98.716ZM1037.5,535.475a184.12,184.12,0,0,1-9,21.592l-4.01,8.189,12.01,25.112L975.475,651.4l-25.112-12.01-8.189,4.01a187.43,187.43,0,0,1-21.592,9l-8.621,2.956-9.243,26.184h-86.31l-9.243-26.2-8.622-2.956a183.935,183.935,0,0,1-21.591-9l-8.189-4.009-25.112,12.01-61.029-61.029,12.01-25.112-4.009-8.189a187.416,187.416,0,0,1-9-21.591l-2.956-8.622L652.5,517.611V431.3l26.2-9.243,2.955-8.622a183.944,183.944,0,0,1,9-21.591l4.009-8.189-12.01-25.112,61.029-61.029,25.112,12.01,8.189-4.009a187.342,187.342,0,0,1,21.591-9l8.622-2.956,9.224-26.166h86.31l9.243,26.2,8.621,2.955a183.957,183.957,0,0,1,21.592,9l8.189,4.009,25.111-12.01,61.029,61.029-12.01,25.112,4.01,8.188a187.43,187.43,0,0,1,9,21.592l2.955,8.622,26.166,9.224v86.31l-26.2,9.243Z" fill="#333"/><path d="M128.875,1076.548,447.329,781.583c10.442-10.442,26.1-10.442,36.544,0l67.869,67.868c10.442,10.443,10.442,26.1,0,36.545L259.39,1204.452c-18.274,18.271-41.767,28.713-67.869,28.713h0c-49.595,0-91.36-41.764-91.36-91.359h0C100.161,1118.312,110.6,1092.21,128.875,1076.548Z" fill="#f60"/><rect x="502.157" y="739.821" width="109.63" height="73.086" transform="translate(-385.839 621.23) rotate(-45)" fill="#d6d6d6"/><path d="M583.066,802.467h0l39.156-39.153-52.207-52.207-78.308,78.309,26.1,26.1,13.051-13.051C546.522,786.805,567.4,786.805,583.066,802.467Z" fill="#adadad"/><path d="M465.6,476.18c0,216.652,174.891,391.542,391.543,391.542S1248.69,692.832,1248.69,476.18,1073.8,84.637,857.147,84.637,465.6,259.527,465.6,476.18Zm78.309,0c0-172.28,140.955-313.235,313.234-313.235S1170.381,303.9,1170.381,476.182,1029.426,789.416,857.147,789.416,543.913,648.459,543.913,476.18Z" fill="#efefef"/><g opacity="0.5"><circle cx="857.147" cy="476.18" r="313.234" fill="#efefef"/><path d="M857.147,170.969a304.227,304.227,0,1,1-118.8,23.981,303.3,303.3,0,0,1,118.8-23.981m0-8.024c-172.994,0-313.234,140.24-313.234,313.235s140.24,313.234,313.234,313.234,313.234-140.24,313.234-313.234S1030.142,162.945,857.147,162.945Z" fill="#adadad"/></g><path d="M1008.544,512.726c5.22,44.375,67.867,49.6,75.7,5.22,5.222-23.493,7.831-52.206,2.611-78.308C1073.8,340.447,992.882,259.527,891.08,243.865c-26.1-2.609-52.206-2.609-78.308,2.611-41.764,7.829-39.156,70.478,5.22,75.7H820.6a221.545,221.545,0,0,1,190.55,190.55S1011.153,515.335,1008.544,512.726Z" fill="#efefef" opacity="0.75"/><path d="M1057.947,711.107c62.647-57.426,114.039-140.954,114.039-234.925,0-172.279-140.955-313.234-313.234-313.234-93.971,0-177.5,47.176-234.926,112.434C681.253,228.4,751.73,189.05,832.65,189.05c172.279,0,313.234,140.955,313.234,313.234C1145.884,583.2,1104.932,653.681,1057.947,711.107Z" fill="#efefef" opacity="0.9"/><path d="M831.043,841.623c-91.36-7.832-174.888-46.987-234.926-109.633-60.035-60.038-99.191-140.955-104.411-229.706,0-15.66-13.051-26.1-26.1-26.1h0c0,216.652,174.888,391.543,391.543,391.543h0C857.147,854.674,846.705,841.622,831.043,841.623Z" fill="#d6d6d6"/><path d="M883.249,110.739c93.971,7.831,180.111,52.206,242.757,117.464a353.387,353.387,0,0,1,96.582,221.874c0,15.66,13.051,26.1,26.1,26.1h0c0-216.653-174.89-391.543-391.543-391.543h0C857.147,97.688,867.587,110.739,883.249,110.739Z" fill="#f4f4f4"/><path d="M102.773,1128.755c-2.612,28.713,7.831,57.426,26.1,75.7s46.984,28.713,75.7,26.1c20.882-2.611,41.764-15.662,57.427-31.324l284.521-305.4-26.1-26.1c-15.659-15.663-39.153-15.663-54.815,0L191.523,1141.806c-23.493,23.491-65.257,10.44-65.257-23.494h0a91.221,91.221,0,0,1,20.882-57.426l-15.662,13.051C115.824,1089.6,102.773,1107.87,102.773,1128.755Z" fill="#bf4d00"/><path d="M392.516,891.216a12.616,12.616,0,0,1,0-18.271l65.257-65.258a12.92,12.92,0,0,1,18.271,18.271l-65.257,65.258c-2.611,2.611-7.831,2.611-10.442,2.611S392.514,893.827,392.516,891.216Z" fill="#ffa366"/><path d="M889.377,998.823l75.3,150.595h-150.6Z" fill="#a3ff66"/><path d="M1742.033,740.216l-75.3,150.6-75.3-150.6h150.595Z" fill="#6f0"/><path d="M1908.676,1231.809v112.946l-30.12,10.73a217.94,217.94,0,0,1-9.976,23.719l13.93,28.8-80,80-28.8-13.93a217.817,217.817,0,0,1-23.718,9.977l-10.73,30.119H1626.309l-10.73-30.119a217.749,217.749,0,0,1-23.719-9.977l-28.8,13.93-80-80,13.93-28.8a217.947,217.947,0,0,1-9.977-23.719l-30.119-10.73V1231.809l30.119-10.73a217.947,217.947,0,0,1,9.977-23.719l-13.93-28.8,80-80,28.8,13.93a217.749,217.749,0,0,1,23.719-9.977l10.73-30.119h112.947l10.73,30.119a217.817,217.817,0,0,1,23.718,9.977l28.8-13.93,80,80-13.93,28.8a217.94,217.94,0,0,1,9.976,23.719Zm-94.123,56.473a131.771,131.771,0,1,0-131.771,131.771A131.674,131.674,0,0,0,1814.553,1288.282Z" fill="#f60"/><path d="M1682.782,1156.511a131.771,131.771,0,1,1-131.771,131.771A131.674,131.674,0,0,1,1682.782,1156.511Zm56.473,131.771a56.473,56.473,0,1,0-56.473,56.473A56.4,56.4,0,0,0,1739.255,1288.282Z" fill="#ff8533"/><path d="M1682.782,1137.686c-83.035,0-150.6,67.561-150.6,150.6s67.561,150.6,150.6,150.6,150.6-67.561,150.6-150.6S1765.817,1137.686,1682.782,1137.686Zm0,263.543a112.947,112.947,0,1,1,112.947-112.947A113.061,113.061,0,0,1,1682.782,1401.229Z" fill="#333"/><path d="M1682.782,1212.984a75.3,75.3,0,1,0,75.3,75.3A75.374,75.374,0,0,0,1682.782,1212.984Zm0,112.947a37.649,37.649,0,1,1,37.649-37.649A37.687,37.687,0,0,1,1682.782,1325.931Z" fill="#333"/><path d="M1927.5,1358.083V1218.5l-34.373-12.142c-1.168-2.956-2.391-5.911-3.69-8.866l15.737-32.906-98.715-98.715-32.9,15.737c-2.937-1.3-5.892-2.541-8.867-3.689l-12.1-34.355H1613l-12.142,34.373c-2.956,1.168-5.911,2.391-8.866,3.69l-32.906-15.737-98.715,98.715,15.737,32.9c-1.3,2.937-2.541,5.892-3.689,8.867l-34.355,12.1v139.583l34.373,12.142c1.168,2.956,2.391,5.911,3.69,8.866l-15.737,32.906,98.715,98.715,32.9-15.737c2.937,1.3,5.892,2.541,8.867,3.689l12.1,34.355h139.583l12.142-34.373c2.956-1.168,5.911-2.391,8.866-3.69l32.906,15.737,98.715-98.715-15.737-32.9c1.3-2.937,2.541-5.892,3.689-8.867Zm-37.649-26.655-26.2,9.242-2.955,8.622a184.12,184.12,0,0,1-9,21.592l-4.01,8.188,12.01,25.112-61.029,61.029-25.111-12.01-8.189,4.01a187.43,187.43,0,0,1-21.592,9l-8.621,2.955-9.224,26.185h-86.31l-9.243-26.2-8.622-2.955a184.12,184.12,0,0,1-21.592-9l-8.188-4.01-25.112,12.01-61.029-61.029,12.01-25.111-4.01-8.189a187.43,187.43,0,0,1-9-21.592l-2.955-8.621-26.166-9.224v-86.31l26.2-9.243,2.955-8.622a184.12,184.12,0,0,1,9-21.592l4.01-8.188-12.01-25.112,61.029-61.029,25.111,12.01,8.189-4.01a187.43,187.43,0,0,1,21.592-9l8.621-2.955,9.224-26.166h86.31l9.243,26.2,8.622,2.955a184.12,184.12,0,0,1,21.592,9l8.188,4.01,25.112-12.01,61.029,61.029-12.01,25.111,4.01,8.189a187.43,187.43,0,0,1,9,21.592l2.955,8.621,26.166,9.224Z" fill="#333"/><path d="M1560.98,721.391,1666.735,932.9l105.756-211.512H1685.56v-287.3a56.542,56.542,0,0,0-56.473-56.473h-56.474v37.649h56.474a18.855,18.855,0,0,1,18.824,18.824v287.3ZM1666.735,848.72,1621.9,759.04h89.679Z" fill="#333"/><path d="M1497.315,377.616h37.649v37.649h-37.649Z" fill="#333"/><path d="M995.133,1168.243,889.377,956.731,783.621,1168.243h86.932v94.122a56.542,56.542,0,0,0,56.473,56.474H983.5V1281.19H927.026a18.857,18.857,0,0,1-18.825-18.825v-94.122ZM889.377,1040.914l44.84,89.68h-89.68Z" fill="#333"/><path d="M1096.446,1281.19H1134.1v37.649h-37.649Z" fill="#333"/><path d="M1021.148,1281.19H1058.8v37.649h-37.649Z" fill="#333"/><path d="M1171.744,1281.19h37.649v37.649h-37.649Z" fill="#333"/><path d="M1250.707,1280.249h37.649V1317.9h-37.649Z" fill="#333"/><path d="M1326,1280.249h37.649V1317.9H1326Z" fill="#333"/><path d="M1347.293,377.575h37.649v37.649h-37.649Z" fill="#333"/><path d="M1422.591,377.575h37.649v37.649h-37.649Z" fill="#333"/><g opacity="0.33"><path d="M860,168.675a304.234,304.234,0,1,1-118.8,23.982A303.3,303.3,0,0,1,860,168.675m0-8.023c-172.995,0-313.235,140.24-313.235,313.234S687,787.12,860,787.12,1173.23,646.881,1173.23,473.886,1032.99,160.652,860,160.652Z" fill="#adadad"/><path d="M860,168.675a304.234,304.234,0,1,1-118.8,23.982A303.3,303.3,0,0,1,860,168.675m0-8.023c-172.995,0-313.235,140.24-313.235,313.234S687,787.12,860,787.12,1173.23,646.881,1173.23,473.886,1032.99,160.652,860,160.652Z" fill="url(#a)"/></g></svg>