<?xml version="1.0" encoding="utf-8"?><svg xmlns="http://www.w3.org/2000/svg" preserveAspectRatio="xMidYMid meet" width="1998.5868" height="1997.4608" viewBox="0 0 1998.5868 1997.4608"><defs><style>.cls-1{isolation:isolate;}.cls-15,.cls-2{fill:#dcfd92;}.cls-3{fill:#60f;}.cls-16,.cls-4{fill:#bee86e;}.cls-17,.cls-5{fill:#4b3f4e;}.cls-18,.cls-6{fill:#afd755;}.cls-19,.cls-7{fill:#ffdc64;}.cls-20,.cls-8{fill:#ffc850;}.cls-21,.cls-9{fill:#7daa55;}.cls-10,.cls-22{fill:#5d5360;}.cls-11,.cls-23{fill:#fff;}.cls-12,.cls-24{fill:#e6646e;}.cls-13,.cls-25{fill:#ff8087;}.cls-14{fill:#f60;}.cls-15,.cls-16,.cls-17,.cls-18,.cls-19,.cls-20,.cls-21,.cls-22,.cls-23,.cls-24,.cls-25{mix-blend-mode:color-burn;}</style></defs><g class="cls-1"><g id="shawneee.com"><path class="cls-2" d="M203.385,914.7845c0,220.2455,436.4649,641.8588,795.9072,641.8588s795.9072-421.6133,795.9072-641.8588Z"/><path class="cls-3" d="M1795.1993,914.7844h.0049m-.0049,0c0,220.2456-436.4648,641.8589-795.9071,641.8589S203.3851,1135.03,203.3851,914.7844H1795.1993m.0049-36.1091H203.3851a36.109,36.109,0,0,0-36.1091,36.1091c0,31.4278,7.3671,66.3721,21.8962,103.863,13.412,34.6074,32.8894,71.36,57.8909,109.2359,48.8785,74.0485,116.6173,149.3488,195.8938,217.76,83.0006,71.6254,174.63,131.92,264.9818,174.3639C756.9881,1543.05,805.75,1560.8989,852.87,1573.06c50.6276,13.0668,99.8911,19.6921,146.4223,19.6921s95.7947-6.6253,146.4224-19.6921c47.12-12.1614,95.8817-30.0108,144.9311-53.0529,90.3518-42.4444,181.9812-102.7385,264.9818-174.3639,79.2765-68.4114,147.0153-143.7117,195.8938-217.76,25.0015-37.8762,44.4788-74.6285,57.8909-109.2359,14.4537-37.2964,21.82-72.0726,21.8956-103.3735.0021-.1626.0032-.3264.0032-.49a36.107,36.107,0,0,0-36.1068-36.1091Zm-.0049,72.2182h0Z"/><path class="cls-4" d="M203.385,914.7845c0,181.1995,295.4308,498.49,600.3379,605.3713-74.43-101.7082-190.5545-274.6284-240.8956-425.6518-18.9277-56.78-5.1859-118.2108,27.2816-179.7195Z"/><path class="cls-3" d="M590.1089,914.7844h.005m-.005,0c-32.4674,61.5087-46.2093,122.94-27.2816,179.72,50.3411,151.0233,166.4658,323.9435,240.8957,425.6517-304.9072-106.8816-600.338-424.1719-600.338-605.3714H590.1089m.005-36.1091H203.385a36.1093,36.1093,0,0,0-36.1093,36.1091c0,50.64,18.73,109.1475,55.6706,173.8962,33.7053,59.0785,82.2408,121.9478,140.36,181.8115a1269.7056,1269.7056,0,0,0,197.7882,165.4c76.7437,51.7691,154.357,91.5845,230.6838,118.34a36.1093,36.1093,0,0,0,41.0851-55.4008c-48.0235-65.624-90.9576-130.0557-127.6094-191.5054-50.2742-84.2885-86.668-159.734-108.17-224.2405-7.2635-21.79-8.667-44.8868-4.2906-70.6121,4.202-24.7019,13.9262-51.6742,28.9076-80.1833a36.119,36.119,0,0,0-31.5865-53.6147Zm-.005,72.2182h0Z"/><path class="cls-5" d="M203.385,914.7814c0,116.3889,539.1619,436.4649,795.9072,436.4649s795.9072-320.076,795.9072-436.4649Z"/><path class="cls-3" d="M1795.1993,914.7815h.0049m-.0049,0c0,116.3888-539.1618,436.4647-795.9071,436.4647S203.3851,1031.17,203.3851,914.7815H1795.1993m.0049-36.1091H203.3851a36.109,36.109,0,0,0-36.1091,36.1091c0,22.5644,10.1786,46.8144,31.1174,74.1356,16.4779,21.5006,39.9826,45.28,69.8615,70.6765,55.4894,47.1662,133.2658,99.8979,219.002,148.4817,89.2577,50.58,181.5541,93.8853,266.9112,125.2359,97.6385,35.8612,180.11,54.0441,245.1241,54.0441s147.4856-18.1829,245.1241-54.0441c85.3571-31.3506,177.6535-74.6562,266.9112-125.2359,85.7362-48.5838,163.5126-101.3155,219.002-148.4817,29.8789-25.3968,53.3836-49.1759,69.8615-70.6765,20.7471-27.071,30.93-51.1268,31.1148-73.5154.0035-.206.0052-.4133.0052-.62a36.107,36.107,0,0,0-36.1068-36.1091Zm-.0049,72.2182h0Z"/><path class="cls-4" d="M999.2922,1094.5009c395.8146,0,795.9072-128.3711,795.9072-179.72s-89.86-171.1635-89.86-171.1635c-62.0466-89.86-23.5353-192.5567-96.8613-253.1576-71.88-59.4039-205.4778-67.9972-275.4181-12.1469-114.6386,91.5418-209.6749,128.3712-333.768,128.3712s-219.1294-36.8294-333.768-128.3712c-69.94-55.85-203.5378-47.257-275.4181,12.1469C316.78,551.058,355.2914,653.758,293.2448,743.6178c0,0-89.86,119.812-89.86,171.1636S603.4776,1094.5009,999.2922,1094.5009Z"/><path class="cls-3" d="M1456.331,440.8179c55.5177.0007,112.9914,17.2827,152.1474,49.6423,73.3259,60.6008,34.8147,163.2976,96.8611,253.1576,0,0,89.86,119.8153,89.86,171.1636s-400.0924,179.72-795.9071,179.72-795.9071-128.3682-795.9071-179.72,89.86-171.1636,89.86-171.1636c62.0465-89.86,23.5352-192.56,96.8612-253.1576,39.16-32.3633,96.6237-49.6423,152.1471-49.6423,46.3919,0,91.4341,12.0725,123.2711,37.4954C780.1628,569.8552,875.199,606.6846,999.2922,606.6846s219.1294-36.8294,333.7679-128.3713c31.8411-25.4263,76.8724-37.496,123.2709-37.4954m.0006-36.1092c-57.3688-.0009-109.15,16.1182-145.8035,45.388-108.5747,86.7-195.8371,120.4787-311.2359,120.4787S796.631,536.7964,688.056,450.0967c-36.6532-29.2689-88.4335-45.388-145.8027-45.388a310.2848,310.2848,0,0,0-93.192,14.3955c-31.6764,10.1131-59.2511,24.756-81.9583,43.5219-22.81,18.8506-39.1346,42.5038-49.9067,72.3111-8.8277,24.4279-12.9677,50.185-16.9712,75.0942C293.8011,650,287.733,687.7615,263.8889,722.58c-3.4947,4.6954-24.762,33.5237-46.2955,68.3879-13.8314,22.3939-24.94,42.7186-33.0159,60.41C172.9354,876.88,167.276,897.62,167.276,914.7814c0,11.6146,4.2289,22.7581,12.5688,33.1208,5.1079,6.3464,11.7876,12.45,20.4206,18.6594,13.7562,9.8938,33.02,20.3265,57.2568,31.0077,47.4673,20.9188,111.9159,42.115,186.3785,61.2965,81.0562,20.88,170.6579,38.3588,259.1183,50.5467,102.09,14.0659,201.77,21.1977,296.2732,21.1977s194.1832-7.1321,296.2735-21.1983c88.46-12.1882,178.0618-29.667,259.1183-50.5473,74.462-19.1815,138.91-40.3777,186.3782-61.2965,24.2365-10.6811,43.5-21.1135,57.2565-31.0071,8.6329-6.2091,15.3123-12.3124,20.42-18.6588,8.3405-10.3627,12.5694-21.5058,12.5694-33.1208,0-17.1613-5.6595-37.9-17.3015-63.4027-8.0762-17.6908-19.1844-38.0155-33.0156-60.41-21.5352-34.8667-42.8034-63.6968-46.2961-68.3895C1710.851,687.761,1704.7832,650,1698.3593,610.032c-4.0036-24.9088-8.1436-50.6657-16.9715-75.0937-10.7718-29.807-27.0962-53.4605-49.9059-72.312-22.7053-18.7644-50.28-33.4067-81.9594-43.5206a310.2934,310.2934,0,0,0-93.1909-14.397Z"/><path class="cls-6" d="M665.5242,478.3165c-69.94-55.85-203.5377-47.257-275.4181,12.1469-73.326,60.5977-34.8147,163.2977-96.8613,253.1575,0,0-89.86,119.8121-89.86,171.16,0,31.1275,147.14,90.5283,351.11,132.5093C548.5538,891.9489,742.4785,713.019,885.9874,593.9251,811.5048,576.49,742.9044,540.105,665.5242,478.3165Z"/><path class="cls-3" d="M542.2535,440.8209c46.3919,0,91.4338,12.0725,123.2707,37.4955,77.38,61.7886,145.9805,98.1733,220.4632,115.6088C742.4785,713.0189,548.5538,891.9487,554.4952,1047.2906c-203.97-41.9809-351.11-101.3818-351.11-132.5091,0-51.3485,89.86-171.1605,89.86-171.1605,62.0465-89.86,23.5351-192.56,96.8613-253.1576,39.16-32.3633,96.6239-49.6425,152.1473-49.6425m0-36.1092a310.2853,310.2853,0,0,0-93.192,14.3956c-31.6764,10.1132-59.2511,24.756-81.9581,43.5218-22.81,18.8508-39.1349,42.5041-49.9068,72.3113-8.828,24.428-12.9677,50.1851-16.9713,75.094-6.4237,39.9666-12.4947,77.7305-36.3352,112.5471-3.4907,4.69-24.76,33.52-46.2966,68.3887-13.8314,22.3938-24.94,42.7183-33.0158,60.4089-11.6423,25.502-17.3019,46.2411-17.3019,63.4024,0,28.3368,24.6344,46.994,43.1639,58.5625,19.08,11.9122,45.67,24.4679,79.033,37.318,68.1286,26.2409,159.6636,51.81,257.7432,71.9964a36.1093,36.1093,0,0,0,43.3624-36.7478c-2.276-59.5034,31.837-132.1151,101.3914-215.818,67.7487-81.53,156.3365-157.9731,217.0774-208.38a36.1091,36.1091,0,0,0-14.8294-62.946c-68.5616-16.0494-132.1444-49.5635-206.162-108.6669-36.6524-29.2686-88.4327-45.3877-145.8022-45.3877Z"/><circle class="cls-7" cx="460.1273" cy="683.7258" r="205.3814"/><path class="cls-3" d="M460.1273,478.3446c113.429,0,205.3813,91.952,205.3813,205.3812S573.5563,889.107,460.1273,889.107,254.7461,797.1548,254.7461,683.7258s91.9523-205.3812,205.3812-205.3812m0-36.1094a240.8493,240.8493,0,1,0,94.01,18.9925,240.01,240.01,0,0,0-94.01-18.9925Z"/><path class="cls-8" d="M537.1531,812.0845C423.821,812.19,331.8617,720.4017,331.7562,607.07A205.2068,205.2068,0,0,1,358.69,505.25c-98.6107,55.9745-133.1742,181.2906-77.2,279.9013s181.2906,133.1743,279.9013,77.2a205.31,205.31,0,0,0,77.2-77.2A204.2717,204.2717,0,0,1,537.1531,812.0845Z"/><path class="cls-3" d="M358.69,505.25a205.2042,205.2042,0,0,0-26.9334,101.82c.1054,113.27,91.9552,205.0149,205.2016,205.0149h.2527a204.2745,204.2745,0,0,0,101.38-26.9334,205.2752,205.2752,0,0,1-357.1009,0C225.5152,686.54,260.0788,561.2245,358.69,505.25M638.5908,785.1511h.005M358.6777,469.14a36.0282,36.0282,0,0,0-17.8135,4.7072,241.4648,241.4648,0,0,0-.5046,419.6535,241.46,241.46,0,0,0,329.25-89.85,36.1175,36.1175,0,0,0-29.9332-54.5932q-.5485-.0166-1.0971-.0166-1.4283,0-2.8582.1132a35.89,35.89,0,0,0-15.5528,4.9342,168.4408,168.4408,0,0,1-82.9576,21.8866h-.0574l-.1366,0h-.0587A169.0968,169.0968,0,0,1,390.0593,523.133,36.11,36.11,0,0,0,358.6777,469.14Zm.0119,72.2192h0Z"/><circle class="cls-7" cx="1538.4572" cy="683.7258" r="205.3814"/><path class="cls-3" d="M1538.4572,478.3446c113.429,0,205.3813,91.952,205.3813,205.3812S1651.8862,889.107,1538.4572,889.107s-205.3813-91.9522-205.3813-205.3812,91.9523-205.3812,205.3813-205.3812m0-36.1094a240.8493,240.8493,0,1,0,94.01,18.9925,240.01,240.01,0,0,0-94.01-18.9925Z"/><path class="cls-8" d="M1615.48,812.0845c-113.332.1055-205.2914-91.6828-205.3969-205.015a205.2069,205.2069,0,0,1,26.9334-101.82c-98.61,55.9738-133.1731,181.2885-77.1993,279.8983s181.2884,133.173,279.8981,77.1993a205.3084,205.3084,0,0,0,77.1994-77.1994A204.2216,204.2216,0,0,1,1615.48,812.0845Z"/><path class="cls-3" d="M1437.0163,505.25a205.2068,205.2068,0,0,0-26.9333,101.82c.1053,113.27,91.9554,205.015,205.2018,205.015h.2574a204.2274,204.2274,0,0,0,101.3724-26.9364,205.2732,205.2732,0,0,1-357.0976,0c-55.9739-98.61-21.41-223.9245,77.1993-279.8984m279.8983,279.8984h.0049M1437.0046,469.14a36.0288,36.0288,0,0,0-17.8135,4.7073,241.4626,241.4626,0,0,0-.5051,419.65,241.4584,241.4584,0,0,0,329.2489-89.8519,36.1173,36.1173,0,0,0-29.9765-54.5913q-.5274-.0155-1.0555-.0154-1.4027,0-2.805.109a35.8882,35.8882,0,0,0-15.609,4.94,168.3888,168.3888,0,0,1-82.9468,21.8879h-.2573a169.0968,169.0968,0,0,1-146.8987-252.8424,36.11,36.11,0,0,0-31.3815-53.9933Zm.0117,72.2194h0Z"/><path class="cls-5" d="M408.782,786.41h0a77.2477,77.2477,0,0,1-77.0227-77.0226V632.3649a77.2478,77.2478,0,0,1,77.0227-77.0227h0a77.2478,77.2478,0,0,1,77.0226,77.0227v77.0227A77.25,77.25,0,0,1,408.782,786.41Z"/><path class="cls-3" d="M408.782,555.3423a77.2477,77.2477,0,0,1,77.0226,77.0227v77.0226a77.0227,77.0227,0,1,1-154.0453,0V632.365a77.2477,77.2477,0,0,1,77.0227-77.0227m0-36.1092-.1051,0A113.3568,113.3568,0,0,0,295.65,632.26l0,.105v77.0226l0,.1049A113.3568,113.3568,0,0,0,408.6769,822.5193h.2112A113.3592,113.3592,0,0,0,521.9136,709.4936V632.26A113.3566,113.3566,0,0,0,408.8871,519.2333l-.1051,0Z"/><path class="cls-9" d="M896.5953,940.4556a25.6726,25.6726,0,0,1-18.1535-43.8246l25.6742-25.6742a25.6708,25.6708,0,1,1,36.3668,36.2411l-.0629.0628-25.6742,25.6742A25.5779,25.5779,0,0,1,896.5953,940.4556Z"/><path class="cls-3" d="M922.3,863.4065a25.6708,25.6708,0,0,1,18.183,43.7914l-.0628.0628-25.6742,25.6742a25.58,25.58,0,0,1-18.1154,7.5207h-.035a25.6726,25.6726,0,0,1-18.1535-43.8246l25.6742-25.6742a25.5946,25.5946,0,0,1,18.1837-7.55m.0016-36.1091h-.0033a61.3669,61.3669,0,0,0-43.7593,18.17l-25.63,25.63a61.7819,61.7819,0,0,0,43.6852,105.467,62.1265,62.1265,0,0,0,43.685-18.0968h0l25.6741-25.6742.1066-.107h0a61.78,61.78,0,0,0-43.7584-105.3895Z"/><path class="cls-9" d="M1101.9892,940.4556a25.5909,25.5909,0,0,1-18.1535-7.5207l-25.6742-25.6742a25.6708,25.6708,0,0,1,36.3039-36.304l25.6742,25.6742a25.6727,25.6727,0,0,1-18.15,43.8247Z"/><path class="cls-3" d="M1076.3448,863.4692a25.5909,25.5909,0,0,1,18.1206,7.4876L1120.14,896.631a25.6727,25.6727,0,0,1-18.15,43.8246h-.0327a25.5908,25.5908,0,0,1-18.1207-7.5207l-25.6743-25.6743a25.6709,25.6709,0,0,1,18.1834-43.7914m0-36.1091A61.78,61.78,0,0,0,1032.5843,932.75l.044.0441,25.6743,25.6744A61.78,61.78,0,0,0,1145.6745,871.1l-25.676-25.676-.044-.0438a61.3848,61.3848,0,0,0-43.61-18.02Z"/><path class="cls-10" d="M411.064,555.5723a38.1271,38.1271,0,0,0-2.2852,12.6039v102.697a38.5114,38.5114,0,0,0,77.0227,0V632.3618A77.128,77.128,0,0,0,411.064,555.5723Z"/><path class="cls-3" d="M411.064,555.5723a77.1282,77.1282,0,0,1,74.7375,76.7895v38.5114a38.5114,38.5114,0,0,1-77.0227,0V568.1763a38.1272,38.1272,0,0,1,2.2852-12.604m-.0081-36.1094a36.1089,36.1089,0,0,0-33.9352,23.7914,74.0576,74.0576,0,0,0-4.4491,24.5394q-.002.1914-.0021.3826V670.8732a74.6206,74.6206,0,1,0,149.2412,0V632.3618l0-.1412A113.2376,113.2376,0,0,0,412.1829,519.48c-.3761-.0116-.7529-.0174-1.127-.0174Z"/><circle class="cls-11" cx="408.7664" cy="632.3649" r="25.6742" transform="translate(-250.9847 995.2752) rotate(-85.935)"/><path class="cls-3" d="M408.7663,606.6907a25.6743,25.6743,0,1,1-25.6741,25.6743,25.6743,25.6743,0,0,1,25.6741-25.6743m0-36.1093A61.7835,61.7835,0,1,0,470.55,632.365a61.8534,61.8534,0,0,0-61.7836-61.7836Z"/><path class="cls-5" d="M1589.8056,786.41h0a77.2477,77.2477,0,0,1-77.0226-77.0226V632.3649a77.2478,77.2478,0,0,1,77.0226-77.0227h0a77.2479,77.2479,0,0,1,77.0227,77.0227v77.0227A77.25,77.25,0,0,1,1589.8056,786.41Z"/><path class="cls-3" d="M1589.8056,555.3423a77.2475,77.2475,0,0,1,77.0226,77.0227v77.0226a77.0226,77.0226,0,1,1-154.0452,0V632.365a77.2476,77.2476,0,0,1,77.0226-77.0227m0-36.1092-.105,0A113.3566,113.3566,0,0,0,1476.674,632.26v77.2323a113.3569,113.3569,0,0,0,113.0266,113.0269h.2111a113.3594,113.3594,0,0,0,113.0256-113.0257V632.26a113.3568,113.3568,0,0,0-113.0266-113.0268l-.1051,0Z"/><path class="cls-10" d="M1592.0877,555.5723a38.1245,38.1245,0,0,0-2.2851,12.6039v102.697a38.5113,38.5113,0,1,0,77.0226.0808V632.3618A77.128,77.128,0,0,0,1592.0877,555.5723Z"/><path class="cls-3" d="M1592.0876,555.5723a77.128,77.128,0,0,1,74.7376,76.7895V670.954a38.51,38.51,0,0,1-38.5108,38.471h-.0409a38.5115,38.5115,0,0,1-38.471-38.5517V568.1763a38.13,38.13,0,0,1,2.2851-12.604m-.008-36.1094a36.1089,36.1089,0,0,0-33.9352,23.7914,74.0561,74.0561,0,0,0-4.4491,24.5405q-.002.1907-.002.3815V670.8732a74.6975,74.6975,0,0,0,74.5421,74.661h.079a74.7211,74.7211,0,0,0,74.62-74.5425v-38.63l0-.1411a113.2373,113.2373,0,0,0-109.7276-112.74c-.376-.0118-.7527-.0176-1.1269-.0176Z"/><circle class="cls-11" cx="1589.8181" cy="632.3649" r="25.6742"/><path class="cls-3" d="M1589.8181,606.6907a25.6743,25.6743,0,1,1-25.6742,25.6743,25.6742,25.6742,0,0,1,25.6742-25.6743m0-36.1093a61.7835,61.7835,0,1,0,61.7834,61.7836,61.8535,61.8535,0,0,0-61.7834-61.7836Z"/><path class="cls-12" d="M1298.2362,1273.207c-70.6119-46.3491-178.2459-76.006-298.944-76.006s-228.3352,29.6569-298.9439,76.006c110.5192,46.6663,218.57,78.0393,298.9439,78.0393S1187.717,1319.8733,1298.2362,1273.207Z"/><path class="cls-3" d="M999.2922,1197.201c120.698,0,228.332,29.6568,298.944,76.006-110.5191,46.6663-218.57,78.0393-298.944,78.0393s-188.4248-31.373-298.9439-78.0393c70.6088-46.3492,178.2459-76.006,298.9439-76.006m0-36.1092c-123.2568,0-239.44,29.8618-318.7591,81.9285a36.1093,36.1093,0,0,0,5.769,63.452c87.3863,36.8985,212.6225,80.8832,312.99,80.8832s225.6039-43.9847,312.99-80.8832a36.1091,36.1091,0,0,0,5.7683-63.4523c-79.3221-52.0665-195.5051-81.9282-318.7585-81.9282Z"/><path class="cls-13" d="M903.6062,1339.8207a474.4909,474.4909,0,0,0,95.686,11.4256c80.3742,0,188.4248-31.3761,298.944-78.0393-50.223-32.968-119.3861-57.2338-198.4545-68.647C1024.8949,1222.0388,957.3392,1270.2689,903.6062,1339.8207Z"/><path class="cls-3" d="M1099.7818,1204.56c79.0683,11.4131,148.2314,35.679,198.4544,68.6468-110.5191,46.6633-218.57,78.0394-298.944,78.0394a474.4839,474.4839,0,0,1-95.686-11.4257c53.733-69.5517,121.2887-117.7819,196.1756-135.2605m0-36.1092a36.11,36.11,0,0,0-8.2075.945c-81.356,18.9887-156.2354,70.2868-216.5431,148.3487a36.1093,36.1093,0,0,0,20.6748,57.31A511.6646,511.6646,0,0,0,998.6739,1387.35q.3093.0054.6183.0053c100.3571,0,225.5976-43.9845,312.9894-80.883a36.1092,36.1092,0,0,0,5.77-63.4522c-27.6136-18.1264-60.0413-33.7145-96.3824-46.3317-36.0439-12.5139-75.3172-21.89-116.7286-27.8674a36.1124,36.1124,0,0,0-5.1587-.37Z"/><path class="cls-2" d="M203.385,914.7843c0,220.2456,436.4649,641.8588,795.9072,641.8588s795.9072-421.6132,795.9072-641.8588Z"/><path class="cls-14" d="M1795.1993,914.7842h.005m-.005,0c0,220.2457-436.4647,641.8588-795.9071,641.8588S203.385,1135.03,203.385,914.7842H1795.1993m.005-18.0545H203.385a18.0544,18.0544,0,0,0-18.0544,18.0545c0,56.7872,26.5571,127.0362,76.8,203.1526,47.9767,72.6826,114.5841,146.6958,192.6212,214.0377,81.7735,70.5661,171.9786,129.9361,260.8631,171.6914,48.0348,22.5654,95.7322,40.0312,141.7664,51.9126,49.155,12.6864,96.9,19.119,141.91,19.119s92.7555-6.4326,141.9105-19.119c46.0343-11.8814,93.7316-29.3472,141.7664-51.9126,88.8845-41.7553,179.09-101.1253,260.8631-171.6914,78.0371-67.3419,144.6445-141.3551,192.6212-214.0377,50.1482-75.9724,76.7-146.0957,76.8-202.8263q.0028-.1629.0029-.3263a18.0526,18.0526,0,0,0-18.0522-18.0545Zm-.005,36.109h0Z"/><path class="cls-4" d="M203.385,914.7843c0,181.1995,295.4308,498.49,600.3379,605.3714-74.43-101.7082-190.5545-274.6285-240.8957-425.6518-18.9276-56.78-5.1858-118.2109,27.2816-179.72Z"/><path class="cls-14" d="M590.1088,914.7843h.005m-.005,0c-32.4675,61.5087-46.2092,122.94-27.2815,179.7195,50.3411,151.0235,166.4658,323.9437,240.8956,425.6518C498.8158,1413.2741,203.385,1095.9838,203.385,914.7843H590.1088m.005-18.0546H203.385A18.0546,18.0546,0,0,0,185.33,914.7843c0,24.1381,4.7786,50.8257,14.2029,79.3215,8.93,27.0008,22.0835,55.81,39.095,85.628,32.9634,57.7779,80.5555,119.3923,137.6316,178.1818C499.2782,1384.6271,652.9056,1486.42,797.75,1537.1937a18.0545,18.0545,0,0,0,20.5425-27.7c-48.356-66.0785-91.6049-130.9858-128.5452-192.9189-50.94-85.4046-87.8793-162.0409-109.7923-227.78-8.11-24.33-9.78-51.0265-4.9617-79.3492,4.5369-26.6695,14.9283-55.5562,30.8876-85.8646A18.0591,18.0591,0,0,0,590.1138,896.73Zm-.005,36.1092h0Z"/><path class="cls-5" d="M203.385,914.7812c0,116.389,539.1619,436.465,795.9072,436.465s795.9072-320.076,795.9072-436.465Z"/><path class="cls-14" d="M1795.1993,914.7814h.005m-.005,0c0,116.3888-539.1619,436.4647-795.9071,436.4647S203.385,1031.17,203.385,914.7814H1795.1993m.005-18.0546H203.385a18.0545,18.0545,0,0,0-18.0544,18.0546c0,18.4442,8.96,39.1019,27.3928,63.153,15.7012,20.4872,38.3186,43.3329,67.2242,67.9026,54.6491,46.4515,131.4339,98.49,216.21,146.5305,88.4155,50.1022,179.7864,92.9791,264.2348,123.9958,45.409,16.6781,88.1266,29.6325,126.9662,38.5035,41.9331,9.5776,79.5931,14.4339,111.9333,14.4339s70-4.8563,111.9333-14.4339c38.84-8.871,81.5572-21.8254,126.9662-38.5035,84.4484-31.0167,175.8193-73.8936,264.2348-123.9958,84.7764-48.04,161.5612-100.079,216.21-146.5305,28.9057-24.57,51.5231-47.4154,67.2243-67.9026,18.3066-23.8867,27.27-44.4271,27.3916-62.7755.0025-.1253.0039-.2516.0039-.3775a18.0527,18.0527,0,0,0-18.0522-18.0546Zm-.005,36.109h0Z"/><path class="cls-4" d="M999.2922,1094.5008c395.8146,0,795.9072-128.3712,795.9072-179.72s-89.86-171.1636-89.86-171.1636c-62.0466-89.86-23.5353-192.5567-96.8613-253.1575-71.88-59.404-205.4778-67.9973-275.4181-12.1469-114.6386,91.5418-209.6749,128.3711-333.768,128.3711S780.1628,569.8549,665.5241,478.3132c-69.94-55.85-203.5377-47.257-275.418,12.1469-73.3261,60.5977-34.8148,163.2977-96.8613,253.1576,0,0-89.86,119.812-89.86,171.1635S603.4776,1094.5008,999.2922,1094.5008Z"/><path class="cls-14" d="M1456.3308,440.8176c55.5177.0009,112.9915,17.2829,152.1476,49.6426,73.3259,60.6007,34.8145,163.2976,96.8612,253.1576,0,0,89.86,119.8149,89.86,171.1636s-400.0926,179.7194-795.9071,179.7194S203.385,966.1328,203.385,914.7814s89.86-171.1636,89.86-171.1636c62.0466-89.86,23.5351-192.56,96.861-253.1576,39.1606-32.3634,96.624-49.6426,152.1474-49.6426,46.3919,0,91.434,12.0727,123.2708,37.4956,114.6388,91.5417,209.675,128.3712,333.7681,128.3712s219.13-36.8295,333.7678-128.3714c31.8412-25.4263,76.8723-37.496,123.2708-37.4954m0-18.0545c-53.29-.0008-101.07,14.7168-134.5369,41.4416-57.2626,45.7257-107.6471,76.1588-158.5631,95.7747-50.7362,19.5465-102.8288,28.65-163.9388,28.65s-113.2026-9.104-163.9388-28.65c-50.9157-19.6156-101.3-50.0487-158.5634-95.7745-33.4659-26.7241-81.2454-41.4417-134.5366-41.4417a292,292,0,0,0-87.701,13.54c-29.0567,9.2767-55.319,23.1914-75.9478,40.24-20.2519,16.7364-34.7845,37.8446-44.4283,64.53-8.2513,22.8322-12.076,46.6288-16.1253,71.8229-6.475,40.2865-13.1719,81.9439-39.4765,120.192-2.5684,3.4408-23.9311,32.25-45.62,67.3671-32.0457,51.8838-47.6235,89.28-47.6235,114.3262,0,16.85,14.54,29.2566,25.4769,37.123,12.739,9.1621,30.9056,18.9674,53.9956,29.1434,46.5846,20.53,110.0729,41.393,183.6012,60.334,80.3967,20.71,169.2931,38.05,257.0788,50.1447,101.2762,13.9539,200.1279,21.0289,293.8091,21.0289s192.5326-7.0752,293.809-21.0293c87.7855-12.0953,176.6819-29.4352,257.0789-50.1455,73.5281-18.9409,137.0161-39.804,183.6011-60.334,23.09-10.176,41.2567-19.9809,53.9955-29.1432,10.9369-7.8659,25.4772-20.2723,25.4772-37.122,0-25.0446-15.5777-62.4406-47.6236-114.3251-21.6908-35.1189-43.0548-63.9308-45.6207-67.3687-26.3047-38.2481-33.0014-79.9047-39.4765-120.1908-4.0492-25.1936-7.8738-48.99-16.125-71.8223-9.6438-26.6858-24.1764-47.7941-44.4281-64.5313-20.6266-17.0466-46.8892-30.9607-75.9488-40.2383a292.0025,292.0025,0,0,0-87.7-13.5418Z"/><path class="cls-6" d="M665.5242,478.3163c-69.94-55.85-203.5377-47.257-275.4181,12.1469C316.78,551.061,355.2914,653.761,293.2448,743.6208c0,0-89.86,119.812-89.86,171.16,0,31.1274,147.14,90.5282,351.11,132.5092C548.5538,891.9487,742.4785,713.0188,885.9874,593.925,811.5047,576.49,742.9044,540.1048,665.5242,478.3163Z"/><path class="cls-14" d="M542.2535,440.8208c46.3919,0,91.4338,12.0724,123.2707,37.4955,77.38,61.7886,145.9806,98.1733,220.4632,115.6087-143.509,119.0938-337.4335,298.0237-331.4922,453.3656-203.97-41.981-351.11-101.3819-351.11-132.5094,0-51.3483,89.86-171.16,89.86-171.16,62.0465-89.86,23.5351-192.56,96.8612-253.1576,39.16-32.3632,96.624-49.6424,152.1474-49.6424m0-18.0547a292.0051,292.0051,0,0,0-87.7011,13.54c-29.0568,9.2769-55.319,23.1915-75.9478,40.24-20.2519,16.7365-34.7844,37.8444-44.4283,64.53-8.2513,22.8322-12.076,46.6289-16.1252,71.823-6.4751,40.2864-13.1707,81.9421-39.4754,120.19-2.5617,3.4316-23.928,32.2454-45.6216,67.3682C200.9082,852.3411,185.33,889.7367,185.33,914.7812c0,8.601,3.918,17.1133,11.645,25.3008,5.521,5.85,13.0529,11.7206,23.0258,17.9469,18.1092,11.3063,43.6661,23.346,75.9609,35.785,67.2318,25.8956,157.7548,51.1676,254.8935,71.1606a18.0547,18.0547,0,0,0,21.6812-18.3739c-1.2846-33.5838,7.9068-70.9538,27.3188-111.0718,17.5517-36.2737,43.8713-75.63,78.228-116.9752,68.7072-82.6834,158.14-159.8693,219.4337-210.7349a18.0547,18.0547,0,0,0-7.4148-31.473C818.7975,559.654,753.01,525.0694,676.79,464.2078c-33.4658-26.7239-81.2452-41.4417-134.5364-41.4417Z"/><circle class="cls-7" cx="460.1273" cy="683.7256" r="205.3814"/><path class="cls-14" d="M460.1272,478.3442c113.4291,0,205.3814,91.9524,205.3814,205.3814S573.5563,889.1069,460.1272,889.1069,254.746,797.1547,254.746,683.7256s91.9522-205.3814,205.3812-205.3814m0-18.0545a222.7933,222.7933,0,1,0,86.9769,17.5661A222.0541,222.0541,0,0,0,460.1272,460.29Z"/><path class="cls-8" d="M537.1531,812.0843c-113.3321.1055-205.2915-91.6828-205.3969-205.0149A205.2055,205.2055,0,0,1,358.69,505.25c-98.6107,55.9745-133.1742,181.2905-77.2,279.9012s181.2906,133.1743,279.9013,77.2a205.31,205.31,0,0,0,77.2-77.2A204.2719,204.2719,0,0,1,537.1531,812.0843Z"/><path class="cls-14" d="M358.69,505.25a205.2039,205.2039,0,0,0-26.9334,101.82c.1055,113.27,91.9555,205.0152,205.2019,205.0152l.195,0h.0569A204.2752,204.2752,0,0,0,638.5908,785.151a205.2754,205.2754,0,0,1-357.1011,0c-55.9745-98.6107-21.411-223.9269,77.2-279.9013M638.5908,785.151h.005M358.6837,487.1947a18.0146,18.0146,0,0,0-8.9067,2.3536,223.41,223.41,0,0,0-.4807,388.2642,223.4052,223.4052,0,0,0,304.7919-83.39,18.0581,18.0581,0,0,0-14.9818-27.3186c-.1739-.0051-.3473-.0076-.5214-.0076q-.7324,0-1.466.06l-.0062,0-.0026,0a17.9452,17.9452,0,0,0-7.7421,2.47A186.5229,186.5229,0,0,1,537.21,794.03h-.2519A187.1513,187.1513,0,0,1,374.3745,514.1914a18.0552,18.0552,0,0,0-15.6908-26.9967Zm.0059,36.11h0Z"/><circle class="cls-7" cx="1538.4572" cy="683.7256" r="205.3814"/><path class="cls-14" d="M1538.4572,478.3442c113.4289,0,205.3814,91.9524,205.3814,205.3814s-91.9525,205.3813-205.3814,205.3813-205.3814-91.9522-205.3814-205.3813,91.9524-205.3814,205.3814-205.3814m0-18.0545a222.7933,222.7933,0,1,0,86.9769,17.5661,222.0541,222.0541,0,0,0-86.9769-17.5661Z"/><path class="cls-8" d="M1615.48,812.0843c-113.3321.1055-205.2914-91.6828-205.3969-205.0149a205.2066,205.2066,0,0,1,26.9334-101.82c-98.61,55.9737-133.1731,181.2884-77.1993,279.8982s181.2884,133.1731,279.8981,77.1993a205.3081,205.3081,0,0,0,77.1994-77.1993A204.2216,204.2216,0,0,1,1615.48,812.0843Z"/><path class="cls-14" d="M1437.0162,505.25a205.2069,205.2069,0,0,0-26.9333,101.82c.1055,113.27,91.9556,205.0152,205.2019,205.0152l.195,0h.0615a204.2286,204.2286,0,0,0,101.3732-26.9365,205.2732,205.2732,0,0,1-357.0976,0c-55.9738-98.61-21.41-223.9245,77.1993-279.8982m279.8983,279.8981h.005M1437.01,487.1947a18.0144,18.0144,0,0,0-8.9068,2.3536,223.4079,223.4079,0,0,0-.4811,388.26,223.4033,223.4033,0,0,0,304.79-83.39,18.0582,18.0582,0,0,0-15-27.3191q-.2517-.0069-.5034-.0069-.7254,0-1.4519.0583a17.9464,17.9464,0,0,0-7.7679,2.4739,186.4666,186.4666,0,0,1-92.1477,24.4048h-.2564a187.1515,187.1515,0,0,1-162.5837-279.8385,18.0552,18.0552,0,0,0-15.6907-26.9967Zm.0058,36.11h0Z"/><path class="cls-5" d="M408.7819,786.41h0a77.2477,77.2477,0,0,1-77.0226-77.0227V632.3648a77.2477,77.2477,0,0,1,77.0226-77.0227h0a77.2477,77.2477,0,0,1,77.0227,77.0227v77.0227A77.25,77.25,0,0,1,408.7819,786.41Z"/><path class="cls-14" d="M408.782,555.342a77.2479,77.2479,0,0,1,77.0226,77.0227v77.0227a77.0227,77.0227,0,1,1-154.0453,0V632.3647A77.2479,77.2479,0,0,1,408.782,555.342m0-18.0545h-.0526a95.3027,95.3027,0,0,0-95.0247,95.0246V709.44a95.3027,95.3027,0,0,0,95.0247,95.0246h.1057a95.3046,95.3046,0,0,0,95.024-95.0242V632.3121a95.3025,95.3025,0,0,0-95.0245-95.0246Z"/><path class="cls-9" d="M896.5953,940.4554a25.6726,25.6726,0,0,1-18.1535-43.8246l25.6742-25.6742a25.6708,25.6708,0,0,1,36.3668,36.2411l-.0629.0629-25.6742,25.6742A25.5783,25.5783,0,0,1,896.5953,940.4554Z"/><path class="cls-14" d="M922.3,863.4064a25.6708,25.6708,0,0,1,18.1832,43.7913l-.0629.0629-25.6742,25.6742a25.5786,25.5786,0,0,1-18.1155,7.5206h-.0349a25.6726,25.6726,0,0,1-18.1535-43.8245l25.6742-25.6742a25.5937,25.5937,0,0,1,18.1836-7.55m.0014-18.0546h-.0024a43.434,43.434,0,0,0-30.9713,12.86l-25.6521,25.6522A43.7273,43.7273,0,0,0,896.5945,958.51a43.949,43.949,0,0,0,30.9381-12.8292l25.6539-25.6537.08-.08a43.7254,43.7254,0,0,0-30.9652-74.5956Z"/><path class="cls-9" d="M1101.9891,940.4554a25.59,25.59,0,0,1-18.1534-7.5207l-25.6743-25.6742a25.6708,25.6708,0,0,1,36.304-36.3039l25.6742,25.6742a25.6727,25.6727,0,0,1-18.15,43.8246Z"/><path class="cls-14" d="M1076.3448,863.4691a25.5919,25.5919,0,0,1,18.1206,7.4874l25.6742,25.6742a25.6727,25.6727,0,0,1-18.15,43.8247h-.0329a25.59,25.59,0,0,1-18.1206-7.5207l-25.6743-25.6742a25.6709,25.6709,0,0,1,18.1834-43.7914m0-18.0546a43.7254,43.7254,0,0,0-30.972,74.59l25.6963,25.6964a43.721,43.721,0,0,0,61.8333.0038,43.7772,43.7772,0,0,0,.0047-61.84L1107.2319,858.19a43.4653,43.4653,0,0,0-30.8871-12.7754Z"/><path class="cls-10" d="M411.064,555.5722a38.1267,38.1267,0,0,0-2.2852,12.6039V670.873a38.5114,38.5114,0,1,0,77.0227,0V632.3616A77.1279,77.1279,0,0,0,411.064,555.5722Z"/><path class="cls-14" d="M411.064,555.5721a77.128,77.128,0,0,1,74.7375,76.79V670.873a38.5114,38.5114,0,1,1-77.0227,0V568.1761a38.1277,38.1277,0,0,1,2.2852-12.604m-.0041-18.0547a18.0543,18.0543,0,0,0-16.9674,11.8954,56.0459,56.0459,0,0,0-3.3673,18.5721q-.001.0957-.0011.1912V670.873a56.566,56.566,0,1,0,113.132,0V632.2911a95.1828,95.1828,0,0,0-92.2326-94.7649c-.188-.0058-.3765-.0088-.5635-.0088Z"/><circle class="cls-11" cx="408.7664" cy="632.3648" r="25.6742" transform="translate(-250.9846 995.275) rotate(-85.9349)"/><path class="cls-14" d="M408.7663,606.6905a25.6742,25.6742,0,1,1-25.6741,25.6742,25.6743,25.6743,0,0,1,25.6741-25.6742m0-18.0545a43.7288,43.7288,0,1,0,43.729,43.7287,43.7782,43.7782,0,0,0-43.729-43.7287Z"/><path class="cls-5" d="M1589.8056,786.41h0a77.2477,77.2477,0,0,1-77.0226-77.0227V632.3648a77.2477,77.2477,0,0,1,77.0226-77.0227h0a77.2476,77.2476,0,0,1,77.0226,77.0227v77.0227A77.25,77.25,0,0,1,1589.8056,786.41Z"/><path class="cls-14" d="M1589.8056,555.342a77.248,77.248,0,0,1,77.0227,77.0227v77.0227a77.0226,77.0226,0,1,1-154.0453,0V632.3647a77.2479,77.2479,0,0,1,77.0226-77.0227m0-18.0545h-.0526a95.3023,95.3023,0,0,0-95.0245,95.0246V709.44a95.3023,95.3023,0,0,0,95.0245,95.0246h.1057a95.3047,95.3047,0,0,0,95.0241-95.0242V632.3121a95.3025,95.3025,0,0,0-95.0246-95.0246Z"/><path class="cls-10" d="M1592.0876,555.5722a38.1264,38.1264,0,0,0-2.285,12.6039V670.873a38.5113,38.5113,0,1,0,77.0226.0808V632.3616A77.128,77.128,0,0,0,1592.0876,555.5722Z"/><path class="cls-14" d="M1592.0877,555.5721a77.1281,77.1281,0,0,1,74.7375,76.79v38.5921a38.51,38.51,0,0,1-38.5107,38.471h-.041a38.5113,38.5113,0,0,1-38.4709-38.5518V568.1761a38.125,38.125,0,0,1,2.2851-12.604m-.0041-18.0547a18.0543,18.0543,0,0,0-16.9674,11.8954,56.045,56.045,0,0,0-3.3673,18.5725q-.0009.0954-.001.1908V670.873a56.6263,56.6263,0,0,0,56.5066,56.6065h.06a56.6421,56.6421,0,0,0,56.5652-56.5069V632.2911a95.1828,95.1828,0,0,0-92.2326-94.7649c-.188-.0058-.3764-.0088-.5635-.0088Z"/><circle class="cls-11" cx="1589.818" cy="632.3648" r="25.6742"/><path class="cls-14" d="M1589.818,606.6905a25.6742,25.6742,0,1,1-25.6742,25.6742,25.6742,25.6742,0,0,1,25.6742-25.6742m0-18.0545a43.7288,43.7288,0,1,0,43.7289,43.7287,43.7783,43.7783,0,0,0-43.7289-43.7287Z"/><path class="cls-12" d="M1298.2362,1273.2068c-70.6119-46.3491-178.2459-76.006-298.944-76.006s-228.3352,29.6569-298.944,76.006c110.5192,46.6663,218.57,78.0394,298.944,78.0394S1187.717,1319.8731,1298.2362,1273.2068Z"/><path class="cls-14" d="M999.2922,1197.2009c120.698,0,228.332,29.6568,298.9439,76.0059-110.5192,46.6664-218.57,78.0394-298.9439,78.0394s-188.4248-31.373-298.9439-78.0394c70.6087-46.3491,178.2458-76.0059,298.9439-76.0059m0-18.0545c-119.8274,0-232.3994,28.7823-308.8515,78.9671a18.0545,18.0545,0,0,0,2.8845,31.726c85.85,36.25,208.6208,79.4613,305.967,79.4613s220.1168-43.2114,305.967-79.4613a18.0546,18.0546,0,0,0,2.8842-31.7262c-76.4553-50.1846-189.0272-78.9669-308.8512-78.9669Z"/><path class="cls-13" d="M903.6062,1339.8205a474.4839,474.4839,0,0,0,95.686,11.4257c80.3742,0,188.4248-31.3762,298.944-78.0394-50.223-32.9679-119.3861-57.2338-198.4545-68.6469C1024.8949,1222.0387,957.3392,1270.2688,903.6062,1339.8205Z"/><path class="cls-14" d="M1099.7816,1204.56c79.0685,11.4131,148.2316,35.679,198.4545,68.6469-110.5192,46.6632-218.57,78.0393-298.9439,78.0393a474.4847,474.4847,0,0,1-95.6861-11.4256c53.7331-69.5517,121.2888-117.7818,196.1755-135.2606m0-18.0546a18.0513,18.0513,0,0,0-4.1037.4726c-77.2631,18.0334-148.621,67.0687-206.3592,141.8046a18.0546,18.0546,0,0,0,10.3374,28.6552,493.5671,493.5671,0,0,0,99.327,11.86q.1545.0027.3091.0027c53.7248,0,150.4179-13.7857,305.9666-79.4611a18.0546,18.0546,0,0,0,2.885-31.7261c-26.3718-17.3114-57.4584-32.2393-92.3963-44.3692-34.9609-12.1379-73.11-21.24-113.3865-27.0539a18.05,18.05,0,0,0-2.5794-.1852Z"/><path class="cls-2" d="M203.3862,914.7844c0,220.2455,436.4649,641.8588,795.9072,641.8588s795.9072-421.6133,795.9072-641.8588Z"/><path class="cls-4" d="M203.3862,914.7844c0,181.1995,295.4308,498.49,600.3379,605.3713-74.43-101.7082-190.5545-274.6284-240.8957-425.6518-18.9276-56.78-5.1858-118.2108,27.2816-179.7195Z"/><path class="cls-5" d="M203.3862,914.7813c0,116.3889,539.1619,436.4649,795.9072,436.4649s795.9072-320.076,795.9072-436.4649Z"/><path class="cls-4" d="M999.2934,1094.5008c395.8146,0,795.9072-128.3711,795.9072-179.72s-89.86-171.1635-89.86-171.1635c-62.0466-89.86-23.5353-192.5567-96.8613-253.1576-71.88-59.4039-205.4778-67.9972-275.4181-12.1469-114.6386,91.5418-209.6749,128.3711-333.768,128.3711S780.164,569.855,665.5253,478.3132c-69.94-55.85-203.5377-47.257-275.418,12.1469-73.3261,60.5978-34.8148,163.2978-96.8613,253.1576,0,0-89.86,119.812-89.86,171.1636S603.4788,1094.5008,999.2934,1094.5008Z"/><path class="cls-6" d="M665.5254,478.3164c-69.94-55.85-203.5377-47.257-275.4181,12.1469-73.326,60.5977-34.8147,163.2977-96.8613,253.1575,0,0-89.86,119.8121-89.86,171.16,0,31.1274,147.14,90.5283,351.11,132.5093C548.555,891.9488,742.48,713.0189,885.9886,593.925,811.5059,576.49,742.9056,540.1049,665.5254,478.3164Z"/><circle class="cls-7" cx="460.1285" cy="683.7257" r="205.3814"/><path class="cls-8" d="M537.1543,812.0844c-113.3321.1055-205.2915-91.6829-205.3969-205.015a205.2057,205.2057,0,0,1,26.9333-101.82C260.08,561.2242,225.5165,686.54,281.4909,785.151s181.2906,133.1743,279.9013,77.2a205.31,205.31,0,0,0,77.2-77.2A204.2717,204.2717,0,0,1,537.1543,812.0844Z"/><circle class="cls-7" cx="1538.4584" cy="683.7257" r="205.3814"/><path class="cls-8" d="M1615.481,812.0844c-113.3321.1055-205.2914-91.6829-205.3969-205.015a205.2069,205.2069,0,0,1,26.9334-101.82c-98.61,55.9738-133.1731,181.2885-77.1993,279.8983s181.2884,133.173,279.8981,77.1993a205.3084,205.3084,0,0,0,77.1994-77.1994A204.2216,204.2216,0,0,1,1615.481,812.0844Z"/><path class="cls-5" d="M408.7831,786.41h0a77.2477,77.2477,0,0,1-77.0226-77.0226V632.3648a77.2478,77.2478,0,0,1,77.0226-77.0227h0a77.2478,77.2478,0,0,1,77.0227,77.0227v77.0227A77.25,77.25,0,0,1,408.7831,786.41Z"/><path class="cls-9" d="M896.5965,940.4555a25.6726,25.6726,0,0,1-18.1535-43.8246l25.6742-25.6742a25.6708,25.6708,0,1,1,36.3668,36.2411l-.0629.0628-25.6742,25.6742A25.5784,25.5784,0,0,1,896.5965,940.4555Z"/><path class="cls-9" d="M1101.99,940.4555a25.5909,25.5909,0,0,1-18.1534-7.5207l-25.6743-25.6742a25.6708,25.6708,0,0,1,36.304-36.304l25.6742,25.6742a25.6727,25.6727,0,0,1-18.15,43.8246Z"/><path class="cls-10" d="M411.0652,555.5722a38.1271,38.1271,0,0,0-2.2852,12.6039v102.697a38.5114,38.5114,0,0,0,77.0227,0V632.3617A77.128,77.128,0,0,0,411.0652,555.5722Z"/><circle class="cls-11" cx="408.7676" cy="632.3648" r="25.6742" transform="translate(-250.9834 995.2764) rotate(-85.935)"/><path class="cls-5" d="M1589.8068,786.41h0a77.2477,77.2477,0,0,1-77.0226-77.0226V632.3648a77.2478,77.2478,0,0,1,77.0226-77.0227h0a77.2477,77.2477,0,0,1,77.0226,77.0227v77.0227A77.25,77.25,0,0,1,1589.8068,786.41Z"/><path class="cls-10" d="M1592.0888,555.5722a38.1269,38.1269,0,0,0-2.285,12.6039v102.697a38.5113,38.5113,0,1,0,77.0226.0808V632.3617A77.128,77.128,0,0,0,1592.0888,555.5722Z"/><circle class="cls-11" cx="1589.8192" cy="632.3648" r="25.6742"/><path class="cls-12" d="M1298.2374,1273.2069c-70.6119-46.3491-178.2459-76.006-298.944-76.006s-228.3352,29.6569-298.944,76.006c110.5192,46.6663,218.57,78.0393,298.944,78.0393S1187.7182,1319.8732,1298.2374,1273.2069Z"/><path class="cls-13" d="M903.6074,1339.8206a474.4909,474.4909,0,0,0,95.686,11.4256c80.3742,0,188.4248-31.3761,298.944-78.0393-50.223-32.968-119.3861-57.2338-198.4545-68.647C1024.8961,1222.0387,957.34,1270.2688,903.6074,1339.8206Z"/><path class="cls-15" d="M203.3862,914.7844c0,220.2455,436.4649,641.8588,795.9072,641.8588s795.9072-421.6133,795.9072-641.8588Z"/><path class="cls-16" d="M203.3862,914.7844c0,181.1995,295.4308,498.49,600.3379,605.3713-74.43-101.7082-190.5545-274.6284-240.8957-425.6518-18.9276-56.78-7.3589-44.79-8.86-46.2915l-181.6179-46.53L263.78,969.6614Z"/><path class="cls-17" d="M203.3862,914.7813c0,116.3889,539.1619,436.465,795.9072,436.465s795.9072-320.0761,795.9072-436.465c0,0-258.5942,188.9672-797.9443,181.9626C389.86,1088.8557,203.3862,914.7813,203.3862,914.7813Z"/><path class="cls-16" d="M999.2934,1094.5008c420.237-8.764,795.9072-128.3711,795.9072-179.72s-89.86-171.1635-89.86-171.1635c-62.0466-89.86-23.5353-192.5567-96.8613-253.1576-71.88-59.4039-205.4778-67.9972-275.4181-12.1469-114.6386,91.5418-209.6749,128.3711-333.768,128.3711S780.164,569.855,665.5253,478.3132c-69.94-55.85-203.5377-47.257-275.4181,12.1469-73.326,60.5978-34.8147,163.2978-96.8612,253.1576,0,0-89.86,119.812-89.86,171.1636S614.7128,1102.5212,999.2934,1094.5008Z"/><path class="cls-18" d="M665.5254,478.3163c-69.94-55.85-203.5378-47.2569-275.4181,12.1469C316.7812,551.061,355.2926,653.761,293.246,743.6208c0,0-89.86,119.8121-89.86,171.16,0,31.1274,147.14,90.5283,351.11,132.5093C551.4669,920.63,665.9117,776.56,885.9886,593.925,811.5059,576.49,742.9056,540.1049,665.5254,478.3163Z"/><circle class="cls-19" cx="460.1285" cy="683.7257" r="205.3814"/><path class="cls-20" d="M537.1542,812.0844c-113.3321.1054-205.2914-91.6829-205.3968-205.015a205.2055,205.2055,0,0,1,26.9333-101.82C260.08,561.2242,225.5164,686.54,281.4909,785.151s181.2906,133.1743,279.9013,77.2a205.31,205.31,0,0,0,77.2-77.2A204.2723,204.2723,0,0,1,537.1542,812.0844Z"/><circle class="cls-19" cx="1538.4584" cy="683.7257" r="205.3814"/><path class="cls-20" d="M1615.481,812.0844c-113.332.1054-205.2914-91.6829-205.3969-205.015a205.2066,205.2066,0,0,1,26.9334-101.82c-98.61,55.9738-133.1731,181.2885-77.1993,279.8982s181.2884,133.1731,279.8981,77.1993a205.3074,205.3074,0,0,0,77.1994-77.1993A204.2214,204.2214,0,0,1,1615.481,812.0844Z"/><path class="cls-17" d="M408.7831,786.41h0A77.2478,77.2478,0,0,1,331.76,709.3874V632.3648a77.248,77.248,0,0,1,77.0227-77.0227h0a77.248,77.248,0,0,1,77.0227,77.0227v77.0227A77.25,77.25,0,0,1,408.7831,786.41Z"/><path class="cls-21" d="M896.5965,940.4555a25.6726,25.6726,0,0,1-18.1535-43.8246l25.6742-25.6742a25.6708,25.6708,0,1,1,36.3668,36.2411l-.0629.0628-25.6742,25.6742A25.5784,25.5784,0,0,1,896.5965,940.4555Z"/><path class="cls-21" d="M1101.99,940.4555a25.5909,25.5909,0,0,1-18.1534-7.5207l-25.6743-25.6742a25.6708,25.6708,0,0,1,36.304-36.304l25.6742,25.6742a25.6726,25.6726,0,0,1-18.15,43.8246Z"/><path class="cls-22" d="M411.0651,555.5722a38.13,38.13,0,0,0-2.2851,12.6039V670.873a38.5114,38.5114,0,1,0,77.0227,0V632.3617A77.128,77.128,0,0,0,411.0651,555.5722Z"/><circle class="cls-23" cx="408.7676" cy="632.3648" r="25.6742" transform="translate(-250.9835 995.2763) rotate(-85.935)"/><path class="cls-17" d="M1589.8068,786.41h0a77.2477,77.2477,0,0,1-77.0226-77.0227V632.3648a77.2478,77.2478,0,0,1,77.0226-77.0227h0a77.2479,77.2479,0,0,1,77.0227,77.0227v77.0227A77.25,77.25,0,0,1,1589.8068,786.41Z"/><path class="cls-22" d="M1592.0889,555.5722a38.1245,38.1245,0,0,0-2.2851,12.6039V670.873a38.5113,38.5113,0,1,0,77.0226.0809V632.3617A77.128,77.128,0,0,0,1592.0889,555.5722Z"/><circle class="cls-23" cx="1589.8193" cy="632.3648" r="25.6742"/><path class="cls-24" d="M1298.2374,1273.2069c-70.6119-46.3491-178.2459-76.006-298.944-76.006s-228.3352,29.6569-298.944,76.006c110.5192,46.6663,218.57,78.0394,298.944,78.0394S1187.7182,1319.8732,1298.2374,1273.2069Z"/><path class="cls-25" d="M903.6073,1339.8206a474.5,474.5,0,0,0,95.6861,11.4257c80.3742,0,188.4248-31.3762,298.944-78.0394-50.223-32.968-119.3861-57.2338-198.4545-68.647C1024.8961,1222.0387,957.34,1270.2688,903.6073,1339.8206Z"/></g></g></svg>