<?xml version="1.0" encoding="utf-8"?><svg xmlns="http://www.w3.org/2000/svg" preserveAspectRatio="xMidYMid meet"  width="1860" height="266" viewBox="0 0 1860 266"><defs><style>.cls-1{fill:#333;}.cls-2{fill:#ffc919;}.cls-3{fill:#ffe540;}.cls-4{fill:#89c9ee;}.cls-5{fill:#56ade2;}.cls-6{fill:#3319ff;}.cls-7{fill:#ffd2e0;}.cls-8{fill:#fbc5ff;}.cls-9{fill:#a00ce8;}.cls-10{fill:#0a76ed;}.cls-11{fill:#06f;}.cls-12{fill:#9acff6;}.cls-13{fill:#1a92ea;}.cls-14{fill:#f60;}.cls-15{fill:#f20dff;}.cls-16{fill:#ffa7bf;}.cls-17{fill:#1255b3;}.cls-18{fill:#4890cd;}.cls-19{fill:#0d72ff;}.cls-20{fill:#8ac7f4;}.cls-21{fill:#fff;}</style></defs><g id="simple_useful" data-name="simple useful"><path class="cls-1" d="M35.1426,171.229a56.2468,56.2468,0,0,0,42,18.8c21.6,0,29.2-10.9995,29.2-20.6,0-14-15.2-18-32.2-22.3994-21.3994-5.6-46.1992-11.8-46.1992-38.9995,0-21.9995,19.4-37.9995,47.1992-37.9995,20.6,0,36.7993,6.6,48.5991,18.6l-11.6,14.8c-10.2-10.8-24.2-15.6-38.6-15.6-14.8,0-25,7.6-25,18.8,0,12,14.4,15.8,31,20,21.8,5.8,47.1992,12.6,47.1992,41,0,20.8-14.3994,40.1992-50.3989,40.1992-23.8,0-41.2-8.6-52.5991-21.2Z"/><path class="cls-1" d="M151.7422,81.2305a11.7385,11.7385,0,0,1,11.6-11.6,11.6078,11.6078,0,0,1,11.6,11.6,11.4388,11.4388,0,0,1-11.6,11.4A11.5661,11.5661,0,0,1,151.7422,81.2305Zm2.8,27.6h18v96.5986h-18Z"/><path class="cls-1" d="M323.5376,141.03c0-11.2-5-18.6-16.8-18.6-9.8,0-19.3994,6.8-24,13.8v69.1987H264.7388V141.03c0-11.2-4.8-18.6-17-18.6-9.4,0-18.8,6.9995-23.6,13.9995v68.999h-18V108.83h18v13.6c4-6,16.8-16,31.2-16,14.6,0,23.2,7.6,26.2,18,5.6-9,18.3994-18,32.5991-18,17.8,0,27.4,9.8,27.4,29.2v69.7988h-18Z"/><path class="cls-1" d="M375.1382,242.228V108.83h18v13.8a39.3649,39.3649,0,0,1,31.6-16.2c25.2,0,43,18.9995,43,50.5991s-17.8,50.7993-43,50.7993c-12.6,0-23.8-5.8-31.6-16.4V242.228ZM419.9375,122.43c-11,0-22,6.4-26.8,14.2v40.999c4.8,7.6,15.8,14.2,26.8,14.2,18,0,29-14.6,29-34.8C448.937,137.03,437.937,122.43,419.9375,122.43Z"/><path class="cls-1" d="M495.5371,72.0308h18V205.4287h-18Z"/><path class="cls-1" d="M589.5337,106.43c29,0,46.999,22.6,46.999,52.1992v4.4H560.1338c1.4,16.4,13.4,29.9995,32.8,29.9995,10.2,0,21.3994-4,28.6-11.4l8.4,11.8c-9.6,9.4-23.2,14.4-38.8,14.4-28.7993,0-49.999-20.3994-49.999-50.7993C541.1343,129.03,561.334,106.43,589.5337,106.43Zm-29.6,43.6h58.999c-.4-12.8-9-28.8-29.3994-28.8C570.1338,121.23,560.9341,136.83,559.9341,150.03Z"/><path class="cls-1" d="M721.1328,72.0308h20.2v80.5986c0,22.8,12.6,37.3994,36,37.3994s35.7993-14.6,35.7993-37.3994V72.0308h20.2v80.9985c0,33.2-18.6,54.7993-55.9991,54.7993s-56.1992-21.8-56.1992-54.5991Z"/><path class="cls-1" d="M867.9312,179.6289c6.6,7.2,19.4,13.8,32.4,13.8,13.6,0,20.7993-5.6,20.7993-13.8,0-9.6-11-12.8-23.3994-15.6-16.4-3.8-35.6-8.2-35.6-29,0-15.4,13.2-28.6,36.7994-28.6,16.6,0,28.6,6,36.8,13.8l-8,12.6c-5.6-6.8-16.4-11.8-28.6-11.8s-19.8,4.8-19.8,12.6c0,8.4,10.4,11.2,22.4,14,16.8,3.8,36.7993,8.4,36.7993,30.6,0,16.6-13.6,29.6-39,29.6-16.2,0-30.3995-5-40.1993-14.9995Z"/><path class="cls-1" d="M1008.7275,106.43c29,0,47,22.6,47,52.1992v4.4H979.3281c1.4,16.4,13.4,29.9995,32.8,29.9995,10.2,0,21.3994-4,28.6-11.4l8.3995,11.8c-9.6,9.4-23.1993,14.4-38.7989,14.4-28.8,0-50-20.3994-50-50.7993C960.3281,129.03,980.5283,106.43,1008.7275,106.43Zm-29.6,43.6h58.9991c-.3995-12.8-8.9991-28.8-29.3995-28.8C989.3281,121.23,980.1279,136.83,979.1279,150.03Z"/><path class="cls-1" d="M1212.7246,192.229c-7.3994,8-19.6,15.6-34.3994,15.6-20.6,0-30.8-10.4-30.8-30.7993V108.83h18v62.1992c0,15.9995,8,20.8,20.3994,20.8,11.2,0,21.4-6.4,26.8-13.6V108.83h18v96.5986h-18Z"/><path class="cls-1" d="M1264.3242,72.0308h18V205.4287h-18Z"/><path class="cls-1" d="M1405.5205,89.63h-41.3994v-17.6H1466.72v17.6h-41.1992V205.4287h-20Z"/><path class="cls-1" d="M1464.123,157.0293c0-27.7993,18.8-50.5991,48.8-50.5991,30.1992,0,48.7988,22.8,48.7988,50.5991,0,27.9995-18.6,50.7993-48.7988,50.7993C1482.9229,207.8286,1464.123,185.0288,1464.123,157.0293Zm78.7989,0c0-18.2-10.6-34.5991-29.999-34.5991-19.2,0-30,16.3994-30,34.5991,0,18.4,10.8,34.8,30,34.8C1532.3223,191.8291,1542.9219,175.4292,1542.9219,157.0293Z"/><path class="cls-1" d="M1583.5205,157.0293c0-27.7993,18.8-50.5991,48.8-50.5991,30.1992,0,48.7988,22.8,48.7988,50.5991,0,27.9995-18.6,50.7993-48.7988,50.7993C1602.32,207.8286,1583.5205,185.0288,1583.5205,157.0293Zm78.7988,0c0-18.2-10.6-34.5991-29.999-34.5991-19.2,0-30,16.3994-30,34.5991,0,18.4,10.8,34.8,30,34.8C1651.72,191.8291,1662.3193,175.4292,1662.3193,157.0293Z"/><path class="cls-1" d="M1708.9189,72.0308h18V205.4287h-18Z"/><path class="cls-1" d="M1760.7168,179.6289c6.6,7.2,19.3994,13.8,32.3994,13.8,13.6,0,20.8-5.6,20.8-13.8,0-9.6-11-12.8-23.3994-15.6-16.3994-3.8-35.6-8.2-35.6-29,0-15.4,13.2-28.6,36.8-28.6,16.6,0,28.6,6,36.7988,13.8l-8,12.6c-5.6-6.8-16.3994-11.8-28.6-11.8s-19.7988,4.8-19.7988,12.6c0,8.4,10.3994,11.2,22.3994,14,16.8,3.8,36.7988,8.4,36.7988,30.6,0,16.6-13.6,29.6-38.999,29.6-16.1992,0-30.3994-5-40.1992-14.9995Z"/></g><g id="tools"><g id="Idea_demonstration" data-name="Idea demonstration"><path class="cls-2" d="M1091.7521,91.6237a2.3327,2.3327,0,0,1-2.1467,1.4222l-2.5322-.0424a18.5958,18.5958,0,0,1-2.6016-.3854c-.4355-.1-.8826-.1889-1.322-.316l-1.3065-.4433a11.7549,11.7549,0,0,1-1.295-.54,12.2736,12.2736,0,0,1-1.2719-.6436,28.0841,28.0841,0,0,1-3.9775-3.0409,2.7746,2.7746,0,0,0-2.8058-.4972,32.0278,32.0278,0,0,1-39.7556-44.3806,29.4051,29.4051,0,1,0,57.292.131,31.9285,31.9285,0,0,1-5.35,36.16,2.7534,2.7534,0,0,0-.5742,2.8675,12.128,12.128,0,0,0,3.0756,4.5055,12.89,12.89,0,0,0,1.4877,1.1139l.84.4817,1.1254.6052a2.3877,2.3877,0,0,1,1.1177,3.0023Z"/><path class="cls-3" d="M1090.7732,49.322a29.4072,29.4072,0,1,1-58.0359-6.7447,32.0022,32.0022,0,0,1,57.292.131,29.663,29.663,0,0,1,.7439,6.6137Z"/><path class="cls-4" d="M1144.3883,57.7087A32.7643,32.7643,0,0,0,1154.39,81.3115a32.1482,32.1482,0,0,1-8.6256-3.4417,3.2826,3.2826,0,0,0-3.5266.17L1123.1828,91.421c1.372-.9636,1.5378-3.3146.686-6.159a24.2025,24.2025,0,0,0-8.0166-11.3928c-2.3781-1.7537-4.6289-2.3858-5.9932-1.4261l19.0549-13.3778a3.2922,3.2922,0,0,0,1.3566-3.2683,32.115,32.115,0,0,1,51.9386-30.5711,32.8771,32.8771,0,0,0-37.8208,32.4828Z"/><path class="cls-5" d="M1180.336,76.3744a32.0128,32.0128,0,0,1-25.9462,4.9371,32.8644,32.8644,0,0,1,27.8193-56.0856,31.5154,31.5154,0,0,1,5.4883,5.75A32.1259,32.1259,0,0,1,1180.98,75.91q-.3191.2361-.6441.4644Z"/><path class="cls-6" d="M1158.2286,54.4673c-2.1044.2274-3.9621.5049-5.5962.821,11.0575-2.9639,14.638-9.7318,13.9674-19.2747a13.76,13.76,0,0,1,2.5515-8.56,3.1721,3.1721,0,0,0,.0231,2.166C1173.4679,41.3516,1173.9189,52.76,1158.2286,54.4673Z"/><path class="cls-7" d="M1088.0942,199.8523a50.5105,50.5105,0,0,0,1.1909,10.9419c-16.8112-1.2873-29.1954-5.6964-29.1954-10.9419a3.5725,3.5725,0,0,1,.3866-1.588h-.0038l25.3947-53.989a14.7881,14.7881,0,0,0,1.4-6.3285l-.1005-19.001c.0773,2.9407,5.5213,5.2918,12.214,5.2609.4292,0,.8545-.0115,1.2721-.0308a22.9161,22.9161,0,0,0,6.1631-1.1138l.0039-.0039c2.8534-.979,4.7015-2.5052,4.7286-4.2126l.0967,19.1744a14.7734,14.7734,0,0,0,1.3957,6.19l4.5624,9.724a50.53,50.53,0,0,0-29.5086,45.9185Z"/><path class="cls-8" d="M1138.846,199.6765c0,6.2553-17.5633,11.3235-39.2275,11.3235-3.5,0-6.8951-.131-10.1249-.3816a50.6167,50.6167,0,0,1,28.2278-56.86l20.8009,44.4577a3.5857,3.5857,0,0,1,.3237,1.4607Z"/><path class="cls-2" d="M1133.8807,108.3494a6.7507,6.7507,0,0,0-5.2546,5.2546,1.02,1.02,0,0,1-1.9469,0,6.7506,6.7506,0,0,0-5.2546-5.2546,1.02,1.02,0,0,1,0-1.9469,6.7506,6.7506,0,0,0,5.2546-5.2545,1.02,1.02,0,0,1,1.9469,0,6.7506,6.7506,0,0,0,5.2546,5.2545,1.02,1.02,0,0,1,0,1.9469Z"/><path class="cls-9" d="M1111.548,118.62v.05c-.027,1.7057-1.8675,3.2305-4.7092,4.2086l-.0038.0038a22.7585,22.7585,0,0,1-6.1377,1.1128c-.4158.0193-.8394.0308-1.2668.0308-6.6652.0308-12.0867-2.318-12.1637-5.2559v-.05c-.0115-2.9571,5.4138-5.3791,12.1175-5.4061.4621-.0038.9164.0077,1.3631.027a22.5347,22.5347,0,0,1,6.0915,1.0666c2.857.97,4.7014,2.4913,4.7091,4.2124Z"/><path class="cls-10" d="M1123.1828,91.421c-1.322.9288-3.4765.3661-5.7659-1.2642a21.9886,21.9886,0,0,1-4.8947-5.0219c-.0617-.0887-.1272-.1773-.1889-.266-3.6807-5.2378-4.7869-10.8032-2.4744-12.4258,1.3644-.96,3.6152-.3276,5.9933,1.4261a24.2038,24.2038,0,0,1,8.0166,11.3928c.8518,2.8444.686,5.1954-.686,6.159Z"/><path class="cls-11" d="M1189.0194,54.5583a27.4912,27.4912,0,0,1-31.5426,22.7287q-.1291-.0209-.258-.0431h-.0039a27.4271,27.4271,0,0,1-9.1343-3.3069,7.7053,7.7053,0,0,0-2.5977-.94,7.9842,7.9842,0,0,0-5.9046,1.3258L1123.8688,85.33a20.5666,20.5666,0,0,0-1.6573-3.8657l-.027-.0386a26.46,26.46,0,0,0-1.4761-2.3664l.0115-.0077c.3161-.1927,10.58-6.3979,15.8291-10.2637a6.78,6.78,0,0,0,2.2315-2.9522c1.5609-3.5921,1.7036-8.1323,13.8519-10.48,1.6341-.316,3.4918-.5935,5.5962-.8209,15.69-1.7074,15.2393-13.1157,10.9458-24.8478a3.1721,3.1721,0,0,1-.0231-2.166,3.5673,3.5673,0,0,1,4.5665-2.1442q.1533.0555.3013.1246a27.4456,27.4456,0,0,1,15,29.0565Z"/><path class="cls-12" d="M1179.7249,63.0077a1.5419,1.5419,0,0,1-1.2752-2.4062,20.7708,20.7708,0,0,0,3.31-8.3806,1.5416,1.5416,0,0,1,3.0434.4942,23.8285,23.8285,0,0,1-3.8006,9.6151A1.54,1.54,0,0,1,1179.7249,63.0077Z"/><path class="cls-12" d="M1172.93,69.52a1.5417,1.5417,0,0,1-.8154-2.8512c.3389-.2107.6771-.4343,1.0053-.6646.4364-.3066.8648-.6316,1.2728-.9658a1.5417,1.5417,0,1,1,1.9766,2.3664l-.0228.0187c-.4666.3822-.9561.7537-1.4548,1.1039-.375.2633-.7616.5191-1.1493.76A1.5349,1.5349,0,0,1,1172.93,69.52Z"/><circle class="cls-13" cx="1160.2439" cy="27.4759" r="3.5913"/><circle class="cls-13" cx="1149.5949" cy="29.2831" r="2.2165"/><path class="cls-9" d="M1104.4593,183.2231c-.0424.2351-.081.4548-.12.6552a3.0623,3.0623,0,0,1-1.4569,2.0813c-8.0783,4.7252-18.8892,5.6232-30.9488-.7555l-.0039-.0038h0s4.6057-3.6152,14.58-2.0774C1094.0415,184.283,1098.9286,185.0307,1104.4593,183.2231Z"/><path class="cls-3" d="M1117.4866,90.0474l-7.2035,5.4651a8.4924,8.4924,0,0,0-3.36,6.7669v12.29a22.8119,22.8119,0,0,0-6.1666-1.08l.0506-10.3765a18.8979,18.8979,0,0,1,7.5544-15.0152l4.1747-3.13a22.239,22.239,0,0,0,4.95,5.0791Z"/><path class="cls-14" d="M1123.8688,85.262l-6.4519,4.8948a21.9886,21.9886,0,0,1-4.8947-5.0219l8.1862-6.1436A22.6531,22.6531,0,0,1,1123.8688,85.262Z"/><path class="cls-14" d="M1106.923,114.39v8.5058l-.0039.0038a22.8473,22.8473,0,0,1-6.1627,1.1174l.05-10.6979a22.63,22.63,0,0,1,6.1164,1.0709Z"/><path class="cls-15" d="M1132.4518,200.8689c-4.23,2.3739-15.2175,5.637-32.9094,5.637-17.6726,0-28.6527-3.2554-32.894-5.6293a2.1378,2.1378,0,0,1-.8931-2.7721l6.0159-12.84.0038.0038h0c12.0975,6.3987,22.9423,5.4978,31.0459.7578a3.0717,3.0717,0,0,0,1.4615-2.0878c.0386-.201.0773-.4214.12-.6572.6612-3.7348,1.6741-11.5949-.9008-14.2974-3.4216-3.5917-2.745-9.9207-2.745-9.9207v-35.19a22.8473,22.8473,0,0,0,6.1627-1.1174l.0039-.0038v35.4572s-.7307,6.2208,2.03,8.7841c2.002,1.8593,2.6532,7.0979,2.4295,11.4263a.8761.8761,0,0,0,1.0888.93.8217.8217,0,0,0,.1469-.05c.2745-.12.5451-.2319.8157-.3325a18.42,18.42,0,0,1,9.3834-.9472,2.3073,2.3073,0,0,1,1.7437,1.3068l8.78,18.7706a2.1362,2.1362,0,0,1-.8892,2.7721Z"/><path class="cls-16" d="M1121.9792,200.6639a1.5419,1.5419,0,0,1-.35-3.0433c1.21-.2828,2.3559-.5907,3.4055-.9151a.3431.3431,0,0,0,.2181-.1927.3357.3357,0,0,0-.0036-.2857l-2.0435-4.3677a1.5417,1.5417,0,0,1,2.7927-1.3069l2.0439,4.368a3.43,3.43,0,0,1-2.0966,4.7307c-1.1183.3459-2.3344.6728-3.6148.972a1.5419,1.5419,0,0,1-.3522.0407Z"/><path class="cls-16" d="M1112.3436,202.2569a1.5416,1.5416,0,0,1-.1639-3.0746c1.2549-.1357,2.4969-.2951,3.6915-.4737a1.5417,1.5417,0,1,1,.4562,3.0494h0c-1.236.1848-2.52.35-3.8161.49A1.5661,1.5661,0,0,1,1112.3436,202.2569Z"/><path class="cls-17" d="M1077.0748,55.7722a16.232,16.232,0,0,1-7.0653,10.8953,3.5612,3.5612,0,0,0-1.628,2.9518l0,2.8692a1.2942,1.2942,0,0,1-1.3,1.2866l-12.4274-.0016a1.2948,1.2948,0,0,1-1.3033-1.2864v-.0006l0-2.8691a3.4455,3.4455,0,0,0-1.5362-2.8945,16.2,16.2,0,0,1-7.2771-11.9209,20.7552,20.7552,0,0,0,28.8111,4.4433,20.5389,20.5389,0,0,0,3.7264-3.473Z"/><path class="cls-18" d="M1077.1945,53.2168a16.2756,16.2756,0,0,1-.2094,2.5988,20.41,20.41,0,0,1-32.2092-.97,16.25,16.25,0,1,1,32.4187-1.6285Z"/><path class="cls-19" d="M1068.6088,78.296a1.4961,1.4961,0,0,1-1.39.8749h-.0177l-12.4773-.0016a1.5787,1.5787,0,0,1-1.5675-1.2231,1.5426,1.5426,0,0,1,1.5093-1.8587l12.5359.0016A1.5518,1.5518,0,0,1,1068.6088,78.296Z"/><path class="cls-20" d="M1048.637,54.6446a1.1564,1.1564,0,0,1-1.1481-.9607c-.8505-4.9526,2.1275-7.445,2.2547-7.5487a1.1563,1.1563,0,1,1,1.4689,1.7861c-.1013.0865-2.0553,1.8139-1.4444,5.3713a1.157,1.157,0,0,1-1.131,1.352Z"/><path class="cls-20" d="M1053.2086,44.39a1.1563,1.1563,0,0,1-.8431-1.9579,5.9827,5.9827,0,0,1,1.9592-1.3661,1.1562,1.1562,0,0,1,.9106,2.1256,3.6838,3.6838,0,0,0-1.2033.8441A1.1536,1.1536,0,0,1,1053.2086,44.39Z"/><path class="cls-21" d="M1067.996,57.2542a1.1075,1.1075,0,0,1-1.1043,1.1043h.1885a1.4089,1.4089,0,0,0-1.3967,1.4043v2.6559a2.8754,2.8754,0,0,1-2.8505,2.8735.0486.0486,0,0,1-.0229.0038h-.5953l-.0038,8.4791h-2.3087l.0038-8.4791h-.5825a2.8885,2.8885,0,0,1-2.89-2.8806V59.7529a1.4136,1.4136,0,0,0-1.41-1.4116,1.1655,1.1655,0,0,1-1.169-1.1438,1.1374,1.1374,0,0,1,1.123-1.1515h.072a3.7041,3.7041,0,0,1,3.697,3.6977v2.6532a.5865.5865,0,0,0,.5881.5866h0l3.4525.0038a.5924.5924,0,0,0,.5844-.5877V59.7768a3.64,3.64,0,0,1,3.4988-3.7308h.0248a1.1014,1.1014,0,0,1,1.1013,1.1014Z"/></g></g></svg>