<svg xmlns="http://www.w3.org/2000/svg" xmlns:xlink="http://www.w3.org/1999/xlink" width="2000" height="1920" viewBox="0 0 2000 1920"><defs><linearGradient id="a" x1="1447.285" y1="1082.831" x2="841.435" y2="433.137" gradientUnits="userSpaceOnUse"><stop offset="0" stop-color="#f06"/><stop offset="1" stop-color="#3322e0"/></linearGradient><linearGradient id="b" x1="1663.241" y1="1295.175" x2="646.351" y2="204.693" xlink:href="#a"/><linearGradient id="c" x1="1642.015" y1="2108.579" x2="630.918" y2="1024.31" xlink:href="#a"/><linearGradient id="d" x1="1454.952" y1="1489.407" x2="438.062" y2="398.925" xlink:href="#a"/><linearGradient id="e" x1="1848.54" y1="1915.992" x2="435.811" y2="401.025" xlink:href="#a"/><linearGradient id="i" x1="820.794" y1="1432.225" x2="1475.295" y2="1432.225" xlink:href="#a"/><linearGradient id="j" x1="1148.044" y1="1432.225" x2="1475.295" y2="1432.225" xlink:href="#a"/></defs><g style="isolation:isolate"><path d="M1024.526,943.015H644.941V414.091h379.585v-192.2H483.549a75.026,75.026,0,0,0-75.026,75.026v771.975h616Z" fill="#f60"/><path d="M1391.482,414.091V943.015H1024.526v125.877h616V285.5a63.611,63.611,0,0,0-63.611-63.61H1024.526v192.2Z" fill="#f60"/><path d="M1391.482,414.091H644.941V943.015h746.541Zm0,522.608H1024.526V417.249h366.953Z" fill="#f60"/><path d="M1040.317,1473.147l0-.1q-7.863.093-15.787.1c-75.933,0-147.905-6.465-202.669-18.2-34.073-7.3-124.582-26.7-124.582-97.3s90.512-90,124.582-97.3c54.764-11.735,126.736-18.2,202.669-18.2,2.114,0,4.211.023,6.318.033v-.033c.663,0,1.31.01,1.972.01l-8.289-173.264h-616L241.289,1703.245v38.5h814.819l-12.245-268.615C1042.672,1473.131,1041.518,1473.147,1040.317,1473.147Z" fill="#f60"/><rect x="1024.526" y="417.249" width="366.953" height="519.45" fill="#f60"/><path d="M1640.529,1068.892h-616l8.289,173.264c75.091.112,140.1,6.554,194.38,18.187,1.644.353,11.573,2.551,12.148,2.684,39.585,9.149,112.434,31.265,112.434,94.619,0,70.605-90.508,90-124.582,97.3-53.9,11.547-109.211,17.978-183.332,18.179l12.245,268.615h748.5v-38.5Z" fill="#f60"/><path d="M1024.526,1242.146c-75.933,0-147.905,6.462-202.669,18.2-34.07,7.3-124.582,26.7-124.582,97.3s90.509,90,124.582,97.3c54.764,11.733,126.736,18.2,202.669,18.2q7.927,0,15.787-.1l-9.469-230.864C1028.737,1242.169,1026.64,1242.146,1024.526,1242.146Z" fill="#f60"/><path d="M1232.541,1261.5c1.623.354,3.308.727,5.089,1.132C1235.849,1262.227,1234.163,1261.853,1232.541,1261.5Z" fill="#f60"/><path d="M1351.777,1357.646c0-63.354-72.849-85.47-112.434-94.619C1278.926,1272.176,1351.776,1294.291,1351.777,1357.646Z" fill="#f60"/><path d="M1030.844,1242.179l9.473,230.968c1.2,0,2.355-.016,3.546-.019,74.121-.2,129.435-6.632,183.332-18.179,34.074-7.3,124.582-26.7,124.582-97.3,0-63.355-72.851-85.47-112.434-94.619-.575-.133-10.5-2.331-12.148-2.684-54.285-11.633-119.289-18.075-194.38-18.187-.662,0-1.309-.01-1.972-.01Z" fill="#f60"/><g style="mix-blend-mode:luminosity"><path d="M483.549,221.891H1576.918a63.611,63.611,0,0,1,63.611,63.61v821.893H408.523V296.917A75.026,75.026,0,0,1,483.549,221.891Z" fill="#dfdfe1"/><path d="M1024.526,221.891h552.392a63.611,63.611,0,0,1,63.611,63.61v821.893h-616Z" fill="#cfcdd2"/><rect x="644.941" y="414.091" width="746.541" height="528.925" fill="#88888f"/><polygon points="408.523 1068.892 241.289 1703.245 241.289 1741.743 1804.605 1741.743 1804.605 1703.245 1640.529 1068.892 408.523 1068.892" fill="#cfcdd2"/><rect x="1024.526" y="417.249" width="366.953" height="519.45" fill="#56545a"/><polygon points="1640.529 1068.892 1024.526 1068.892 1056.108 1741.743 1804.605 1741.743 1804.605 1703.245 1640.529 1068.892" fill="#aeadb3"/><path d="M1024.526,1473.144c-75.933,0-147.905-6.466-202.669-18.2-34.073-7.3-124.582-26.7-124.582-97.3s90.512-90,124.582-97.3c54.764-11.733,126.736-18.2,202.669-18.2s147.9,6.466,202.669,18.2c34.074,7.3,124.582,26.7,124.582,97.3s-90.511,90-124.582,97.3C1172.431,1466.682,1100.459,1473.144,1024.526,1473.144Z" fill="#88888f"/><path d="M1227.2,1260.343c-54.764-11.734-120.419-18.2-196.352-18.2l9.474,231c75.933,0,132.114-6.467,186.878-18.2,34.074-7.3,124.582-26.7,124.582-97.3S1261.266,1267.643,1227.2,1260.343Z" fill="#56545a"/></g><g style="mix-blend-mode:multiply"><rect x="775.375" y="494.738" width="737.969" height="526.491" opacity="0.33" fill="url(#a)"/><path d="M583.777,1092.816h64.007V419.064h993.784v673.752h70.744c30.318,0,57.269,20.212,64.006,50.531l3.369,13.4V355.057a67.573,67.573,0,0,0-67.375-67.375H583.777A67.573,67.573,0,0,0,516.4,355.057v801.7l3.368-13.4C526.508,1113.028,553.458,1092.816,583.777,1092.816Z" opacity="0.33" fill="url(#b)"/><path d="M1938.019,1786.781l-158.332-630.029v3.439c-3.369,37.056-33.688,67.376-70.744,67.376h-50.531l128.012,512.051H506.3l128.014-512.051H583.777a67.574,67.574,0,0,1-67.375-67.376v-3.439L358.07,1786.781c-3.369,20.212,0,40.425,13.475,57.269,10.106,16.843,30.319,26.95,50.531,26.95H1870.644c20.212,0,40.425-10.107,53.9-26.95S1941.387,1806.993,1938.019,1786.781Z" opacity="0.33" fill="url(#c)"/><path d="M583.777,1227.567H1708.943c37.056,0,67.375-30.32,70.744-67.376v-3.439l-3.369-13.4c-6.737-30.319-33.688-50.531-64.006-50.531H583.777c-30.319,0-57.269,20.212-64.007,50.531l-3.368,13.4v3.439A67.574,67.574,0,0,0,583.777,1227.567Z" opacity="0.33" fill="url(#d)"/><g opacity="0.33"><rect x="775.375" y="494.738" width="737.969" height="526.491" fill="url(#e)"/><path d="M583.777,1092.816h64.007V419.064h993.784v673.752h70.744c30.318,0,57.269,20.212,64.006,50.531l3.369,13.4V355.057a67.573,67.573,0,0,0-67.375-67.375H583.777A67.573,67.573,0,0,0,516.4,355.057v801.7l3.368-13.4C526.508,1113.028,553.458,1092.816,583.777,1092.816Z" fill="url(#e)"/><path d="M1938.019,1786.781l-158.332-630.029v3.439c-3.369,37.056-33.688,67.376-70.744,67.376h-50.531l128.012,512.051H506.3l128.014-512.051H583.777a67.574,67.574,0,0,1-67.375-67.376v-3.439L358.07,1786.781c-3.369,20.212,0,40.425,13.475,57.269,10.106,16.843,30.319,26.95,50.531,26.95H1870.644c20.212,0,40.425-10.107,53.9-26.95S1941.387,1806.993,1938.019,1786.781Z" fill="url(#e)"/><path d="M583.777,1227.567H1708.943c37.056,0,67.375-30.32,70.744-67.376v-3.439l-3.369-13.4c-6.737-30.319-33.688-50.531-64.006-50.531H583.777c-30.319,0-57.269,20.212-64.007,50.531l-3.368,13.4v3.439A67.574,67.574,0,0,0,583.777,1227.567Z" fill="url(#e)"/></g></g><path d="M1148.044,1547.725c-75.933,0-147.905-6.468-202.668-18.2-34.074-7.3-124.582-26.7-124.582-97.3s90.511-90,124.582-97.3c54.763-11.734,126.735-18.2,202.668-18.2s147.906,6.466,202.669,18.2c34.074,7.3,124.582,26.7,124.582,97.3s-90.511,90-124.582,97.3C1295.949,1541.261,1223.977,1547.725,1148.044,1547.725Z" opacity="0.33" fill="url(#i)"/><path d="M1350.713,1334.923c-54.764-11.734-126.736-18.2-202.669-18.2v231c75.933,0,147.906-6.466,202.669-18.2,34.074-7.3,124.582-26.7,124.582-97.3S1384.784,1342.223,1350.713,1334.923Z" opacity="0.33" fill="url(#j)"/><g opacity="0.2" style="mix-blend-mode:color-dodge"><path d="M247.107,92.47V874.531A32.469,32.469,0,0,0,279.576,907H1446.64a32.47,32.47,0,0,0,32.47-32.47V92.47A32.47,32.47,0,0,0,1446.64,60H279.576A32.469,32.469,0,0,0,247.107,92.47ZM1273.39,733.751H452.83a32.47,32.47,0,0,1-32.47-32.47V265.72a32.47,32.47,0,0,1,32.47-32.47h820.56a32.47,32.47,0,0,1,32.47,32.47V701.281A32.47,32.47,0,0,1,1273.39,733.751Z" fill="#efefef"/><path d="M1456.813,984H269.407a32.471,32.471,0,0,0-30.306,20.813L56.771,1478.879A32.47,32.47,0,0,0,87.077,1523H1639.142a32.47,32.47,0,0,0,30.306-44.125l-182.33-474.064A32.469,32.469,0,0,0,1456.813,984Zm-391.035,347.555c-54.763,11.736-126.735,18.2-202.668,18.2s-147.906-6.466-202.669-18.2c-34.074-7.3-124.582-26.7-124.582-97.3s90.511-90,124.582-97.3c54.764-11.734,126.736-18.2,202.669-18.2s147.9,6.466,202.668,18.2c34.074,7.3,124.583,26.7,124.583,97.3S1099.849,1324.255,1065.778,1331.557Z" fill="#efefef"/></g></g></svg>