<svg xmlns="http://www.w3.org/2000/svg" width="2000" height="2000" viewBox="0 0 2000 2000"><defs><style>.cls-1{isolation:isolate;}.cls-13,.cls-15,.cls-2{opacity:0.85;}.cls-2{mix-blend-mode:difference;}.cls-3{fill:#394f9b;}.cls-4{fill:#118ea3;}.cls-4,.cls-5,.cls-6{fill-rule:evenodd;}.cls-5{fill:#19c275;}.cls-6{fill:#2ce022;}.cls-14,.cls-15,.cls-17,.cls-7{fill:#efefef;}.cls-8{opacity:0.9;}.cls-16,.cls-8{mix-blend-mode:color-dodge;}.cls-9{fill:#f06;mix-blend-mode:hue;}.cls-10{fill:#00ad00;}.cls-11{fill:#00c200;}.cls-12{fill:#00e400;}.cls-13{mix-blend-mode:color-burn;}.cls-14{opacity:0.65;}.cls-16{opacity:0.15;}.cls-17{mix-blend-mode:screen;}</style></defs><g class="cls-1"><g id="Layer_1_copy_2" data-name="Layer 1 copy 2"><g class="cls-2"><circle class="cls-3" cx="984.345" cy="992.012" r="69.19"/><path class="cls-4" d="M984.345,1061.2a69.191,69.191,0,1,1,69.19-69.191A69.192,69.192,0,0,1,984.345,1061.2Zm0-230.635a161.444,161.444,0,1,0,161.444,161.444A161.444,161.444,0,0,0,984.345,830.568Z"/><path class="cls-5" d="M822.9,992.012a161.445,161.445,0,1,1,161.445,161.444A161.444,161.444,0,0,1,822.9,992.012ZM984.345,692.187c-165.589,0-299.825,134.236-299.825,299.825s134.236,299.825,299.825,299.825S1284.17,1157.6,1284.17,992.012,1149.934,692.187,984.345,692.187Z"/><path class="cls-6" d="M684.52,992.012c0-165.589,134.236-299.825,299.825-299.825S1284.17,826.423,1284.17,992.012s-134.236,299.825-299.825,299.825S684.52,1157.6,684.52,992.012Zm25.489-274.335C590.158,772.9,498.5,966.225,528.977,1007.209c9.539,12.828,31.046,10.731,67.4-15.2-45.7,123.793,26.188,325.313,76.723,332.739,15.817,2.325,29.542-14.364,36.913-58.4C765.23,1386.2,958.56,1477.86,999.544,1447.38c12.828-9.539,10.731-31.046-15.2-67.4,123.793,45.7,325.313-26.188,332.739-76.72,2.325-15.817-14.364-29.542-58.4-36.913,119.851-55.219,211.512-248.549,181.032-289.532-9.539-12.828-31.046-10.732-67.4,15.2,45.7-123.793-26.188-325.312-76.72-332.739-15.817-2.325-29.542,14.364-36.913,58.4-55.221-119.852-248.551-211.513-289.535-181.032-12.828,9.541-10.731,31.045,15.2,67.4-123.793-45.7-325.311,26.189-332.739,76.721-2.325,15.817,14.364,29.542,58.4,36.913Z"/><path class="cls-7" d="M986.984,670.431A320.107,320.107,0,0,0,850.165,700.8a23.063,23.063,0,1,0,19.569,41.77,274.353,274.353,0,0,1,117.253-26.01c152.606,0,276.761,124.155,276.761,276.761s-124.155,276.762-276.761,276.762S710.225,1145.926,710.225,993.319a274.31,274.31,0,0,1,26.016-117.264,23.063,23.063,0,1,0-41.768-19.571A320.069,320.069,0,0,0,664.1,993.319c0,178.041,144.848,322.889,322.888,322.889s322.889-144.848,322.889-322.889S1165.025,670.431,986.984,670.431Z"/><path class="cls-7" d="M1171.492,993.319c0-101.737-82.77-184.508-184.508-184.508S802.477,891.582,802.477,993.319s82.77,184.508,184.507,184.508S1171.492,1095.059,1171.492,993.319Zm-322.889,0c0-76.3,62.078-138.381,138.381-138.381s138.381,62.078,138.381,138.381S1063.288,1131.7,986.984,1131.7,848.6,1069.622,848.6,993.319Z"/><path class="cls-7" d="M1079.238,993.319a92.254,92.254,0,1,0-92.254,92.254A92.359,92.359,0,0,0,1079.238,993.319Zm-138.381,0a46.127,46.127,0,1,1,46.127,46.127A46.18,46.18,0,0,1,940.857,993.319Z"/><path class="cls-7" d="M1560.317,1031.422a23.063,23.063,0,0,0-28.246,16.309c-25.879,96.594-119.5,189.973-199.291,226.69a60.5,60.5,0,0,0-16.359-13.275c88.492-66.289,152.931-190.885,154.852-256.528.319-10.868-1.065-19.622-3.452-26.74,19.881-45.845,30.651-105.893,29.706-166.931-1.1-70.761-17.676-137.4-46.688-187.651a23.063,23.063,0,0,0-39.946,23.063c50,86.6,49.829,218.833,19.376,301.214a60.493,60.493,0,0,0-20.953,2.179c15.7-109.445-26.839-243.109-71.9-290.883-7.464-7.913-14.646-13.169-21.369-16.516-18.365-46.464-53.2-96.521-97.012-139-50.808-49.257-109.655-84.657-165.7-99.676a23.063,23.063,0,1,0-11.937,44.554c96.6,25.885,189.973,119.506,226.691,199.292a60.5,60.5,0,0,0-13.276,16.359c-66.289-88.492-190.885-152.932-256.526-154.851-10.9-.325-19.659,1.054-26.774,3.437-45.839-19.874-105.847-30.647-166.9-29.692-70.762,1.1-137.4,17.676-187.652,46.687a23.063,23.063,0,1,0,23.064,39.946c86.608-50,218.837-49.826,301.216-19.373a60.5,60.5,0,0,0,2.179,20.953c-109.445-15.7-243.117,26.839-290.888,71.9-7.913,7.463-13.169,14.645-16.513,21.368-46.464,18.366-96.521,53.2-139,97.012-49.257,50.809-84.657,109.655-99.676,165.7A23.063,23.063,0,1,0,441.9,938.908c25.884-96.6,119.508-189.974,199.294-226.691a60.5,60.5,0,0,0,16.357,13.275C569.06,791.781,504.621,916.377,502.7,982.02c-.318,10.87,1.066,19.623,3.453,26.743-19.881,45.845-30.652,105.893-29.706,166.931,1.095,70.758,17.676,137.4,46.687,187.649a23.063,23.063,0,0,0,39.946-23.064c-50-86.608-49.828-218.835-19.373-301.213a60.49,60.49,0,0,0,20.955-2.182c-15.7,109.447,26.837,243.114,71.894,290.888,7.466,7.915,14.647,13.171,21.371,16.516,18.365,46.463,53.2,96.52,97.011,138.994,50.809,49.259,109.658,84.659,165.7,99.676a23.063,23.063,0,0,0,11.937-44.554c-96.6-25.885-189.976-119.506-226.691-199.292a60.486,60.486,0,0,0,13.276-16.359c66.289,88.492,190.884,152.932,256.528,154.853,1.051.03,2.08.046,3.093.046a74.1,74.1,0,0,0,23.688-3.485c43.982,19.067,101.016,29.752,159.47,29.752,2.468,0,4.95-.021,7.422-.058,70.759-1.1,137.4-17.675,187.649-46.687a23.063,23.063,0,0,0-23.063-39.946c-86.6,50-218.834,49.831-301.216,19.373a60.551,60.551,0,0,0-2.178-20.95c109.434,15.68,243.115-26.844,290.886-71.9,7.913-7.463,13.167-14.645,16.514-21.368,46.461-18.363,96.518-53.2,139-97.014,49.259-50.809,84.659-109.658,99.676-165.7a23.07,23.07,0,0,0-16.315-28.244Zm-299.768,298.506c-69.861,37.015-188.3,58.249-265.578,29.729a23.063,23.063,0,0,0-26.763,35.029c15.146,21.237,18,32.063,18.488,36.1-5.049,1.271-18.88,1.8-44.286-6.006-75.575-23.225-174.342-91.956-208.813-166.772a23.063,23.063,0,0,0-43.693,5.847c-4.306,25.727-9.945,35.4-12.452,38.6-4.468-2.673-14.623-12.072-27.068-35.564-37.016-69.862-58.256-188.3-29.728-265.578a23.063,23.063,0,0,0-35.029-26.763c-21.239,15.148-32.065,18-36.1,18.487-1.269-5.046-1.8-18.872,6-44.284,23.225-75.576,91.957-174.343,166.772-208.814a23.063,23.063,0,0,0-5.844-43.694c-25.725-4.3-35.4-9.945-38.6-12.452,2.671-4.467,12.069-14.622,35.562-27.067C783.285,619.709,901.723,598.472,979,627a23.063,23.063,0,0,0,26.763-35.029c-15.148-21.239-18-32.065-18.488-36.1,5.047-1.273,18.878-1.8,44.284,6.006,75.575,23.225,174.344,91.954,208.815,166.772a23.063,23.063,0,0,0,43.694-5.845c4.306-25.727,9.945-35.4,12.452-38.6,4.467,2.67,14.622,12.069,27.069,35.564,37.015,69.861,58.256,188.3,29.729,265.575a23.063,23.063,0,0,0,35.029,26.763c21.237-15.145,32.063-18,36.1-18.487,1.268,5.046,1.8,18.875-6.006,44.286-23.225,75.575-91.956,174.342-166.772,208.812a23.063,23.063,0,0,0,5.844,43.694c25.728,4.306,35.4,9.945,38.6,12.452-2.67,4.463-12.071,14.618-35.564,27.067Z"/><path class="cls-7" d="M774.98,804.367a23.066,23.066,0,1,0-16.3-39.376l-.014.014a23.06,23.06,0,0,0,16.315,39.362Z"/></g></g><g id="Layer_8" data-name="Layer 8"><g class="cls-8"><path class="cls-9" d="M799.4,792.045s-312.96,263.931-21.946,538.353a32.466,32.466,0,0,0,49.892-6.742s14.445-21.007-3.735-38.968c-55.215-54.55-195.235-247.76,25.672-440.906Z"/><path class="cls-9" d="M776.074,1170.871s263.56,313.339,537.982,22.325a32.474,32.474,0,0,0-6.746-49.9s-21-14.445-38.968,3.736c-54.55,55.215-247.76,195.235-440.9-25.669Z"/><path class="cls-9" d="M1176.264,1186.226s312.762-264.129,21.752-538.547a32.467,32.467,0,0,0-49.9,6.738s-14.445,21.007,3.735,38.968c55.215,54.55,195.235,247.76-25.673,440.906Z"/><path class="cls-9" d="M1176.134,800.636S912,487.874,637.583,778.889a32.467,32.467,0,0,0,6.742,49.892s21.007,14.445,38.968-3.735c54.55-55.216,247.76-195.236,440.906,25.672Z"/><path class="cls-10" d="M1176.134,1186.356c-106.342,106.342-279.379,106.342-385.72,0s-106.342-279.378,0-385.72,279.378-106.341,385.72,0S1282.479,1080.011,1176.134,1186.356Z"/><path class="cls-11" d="M1098.952,1109.175c-63.786,63.785-167.571,63.785-231.356,0s-63.79-167.575,0-231.361,167.575-63.781,231.361,0S1162.737,1045.389,1098.952,1109.175Z"/><path class="cls-12" d="M1047.5,929.269a90.831,90.831,0,1,1-128.455,0A90.829,90.829,0,0,1,1047.5,929.269Z"/></g></g><g id="Layer_1" data-name="Layer 1"><g class="cls-13"><circle class="cls-3" cx="994.673" cy="994.674" r="115.019"/><path class="cls-4" d="M887.474,1036.361a115.019,115.019,0,1,1,148.886,65.512A115.022,115.022,0,0,1,887.474,1036.361ZM1244.8,897.4c-53.721-138.143-209.258-206.582-347.4-152.861S690.821,953.8,744.542,1091.944s209.257,206.582,347.4,152.861S1298.524,1035.548,1244.8,897.4Z"/><path class="cls-5" d="M897.4,744.543c138.143-53.721,293.68,14.718,347.4,152.861s-14.718,293.68-152.862,347.4-293.68-14.717-347.4-152.861S759.259,798.264,897.4,744.543Zm561.8,69.487c-99.766-256.552-388.62-383.652-645.173-283.885S430.377,918.766,530.144,1175.318,918.765,1558.97,1175.317,1459.2,1558.968,1070.582,1459.2,814.03Z"/><path class="cls-6" d="M814.028,530.145c256.553-99.767,545.407,27.333,645.173,283.885s-27.332,545.406-283.884,645.173-545.406-27.333-645.173-283.885S557.476,629.912,814.028,530.145Zm440.4-125.794C1096.66,251.93,741.9,226.4,696.77,298.314c-14.127,22.508,2.078,54.566,64.152,95.267-219.331,3.78-488.239,236.575-469.3,319.344,5.928,25.906,40.053,37.116,112.727,22C251.93,892.69,226.4,1247.447,298.314,1292.58c22.508,14.128,54.566-2.078,95.267-64.151,3.78,219.331,236.575,488.238,319.34,469.3,25.906-5.928,37.116-40.054,22-112.727,157.762,152.421,512.519,177.954,557.652,106.037,14.128-22.508-2.078-54.566-64.151-95.267,219.331-3.78,488.238-236.575,469.3-319.34-5.928-25.907-40.054-37.116-112.727-22,152.42-157.766,177.953-512.523,106.035-557.656-22.511-14.126-54.565,2.078-95.266,64.152-3.781-219.332-236.574-488.236-319.341-469.3-25.906,5.928-37.116,40.054-22,112.727Z"/><path class="cls-14" d="M1494.938,800.133a532.113,532.113,0,0,0-129.483-193.682,38.34,38.34,0,1,0-52.926,55.486,456.051,456.051,0,0,1,110.944,165.991c91.945,236.438-25.609,503.6-262.047,595.544s-503.6-25.609-595.544-262.047,25.609-503.6,262.047-595.544a455.992,455.992,0,0,1,197.355-30.345,38.339,38.339,0,1,0,5.158-76.5,532.09,532.09,0,0,0-230.306,35.379c-275.844,107.269-412.991,418.957-305.722,694.8s418.958,412.991,694.8,305.722S1602.207,1075.977,1494.938,800.133Z"/><path class="cls-14" d="M1105.842,1280.537c157.625-61.3,235.995-239.4,174.7-397.03s-239.4-235.995-397.029-174.7-235.995,239.4-174.7,397.029S948.213,1341.835,1105.842,1280.537ZM911.3,780.275C1029.521,734.3,1163.1,793.08,1209.074,911.3s-12.805,251.8-131.024,297.772-251.8-12.8-297.772-131.024S793.083,826.247,911.3,780.275Z"/><path class="cls-14" d="M1050.259,1137.605c78.813-30.649,118-119.7,87.349-198.515s-119.7-118-198.515-87.349-118,119.7-87.349,198.515S971.446,1168.253,1050.259,1137.605Zm-83.374-214.4a76.68,76.68,0,1,1-43.675,99.257A76.766,76.766,0,0,1,966.885,923.207Z"/><path class="cls-15" d="M1281.073,1905.913a38.337,38.337,0,0,0-42.284-33.937c-165.25,18.1-366.332-70.688-471.293-172.188,5.174-9.47,8.765-20.546,10.712-33.344,156.02,97.165,387.885,121.935,490.746,85.361,17.029-6.054,29.759-13.473,39.348-21.46,83.009,3.18,182.532-16.311,276.53-54.551,108.972-44.331,202.233-110.171,262.6-185.394a38.339,38.339,0,1,0-59.8-47.994c-104.052,129.647-309.024,209.048-455.006,211.5-3.041-10.357-8.332-20.726-16-31.15,179.026-41.618,360.487-188.056,407.356-286.651,7.764-16.331,11.58-30.625,12.714-43.058,60.923-56.448,117.491-140.575,156.906-234.05,45.7-108.4,65.1-220.9,54.6-316.785a38.339,38.339,0,0,0-76.222,8.348c18.1,165.256-70.695,366.335-172.187,471.293-9.471-5.174-20.55-8.764-33.344-10.712,97.165-156.02,121.934-387.885,85.358-490.741-6.062-17.08-13.477-29.824-21.455-39.412,3.173-82.993-16.291-182.457-54.553-276.467-44.33-108.973-110.17-202.234-185.393-262.606a38.339,38.339,0,1,0-47.994,59.8c129.654,104.057,209.047,309.032,211.5,455.011-10.353,3.039-20.726,8.331-31.15,16-41.621-179.025-188.06-360.5-286.65-407.365-16.331-7.764-30.625-11.58-43.056-12.711C1236.6,191.73,1152.477,135.161,1059,95.75c-108.4-45.7-220.9-65.095-316.785-54.595a38.339,38.339,0,1,0,8.348,76.222c165.256-18.1,366.336,70.7,471.294,172.191-5.174,9.47-8.761,20.545-10.713,33.34-156.02-97.165-387.885-121.934-490.744-85.357-17.033,6.056-29.76,13.473-39.353,21.461-83.008-3.18-182.531,16.312-276.529,54.552-108.969,44.329-202.23,110.169-262.6,185.392a38.339,38.339,0,1,0,59.8,47.994C305.777,417.3,510.747,337.9,656.727,335.454c3.04,10.357,8.332,20.726,16.006,31.152C493.7,408.221,312.237,554.661,265.366,653.253c-7.765,16.336-11.581,30.63-12.712,43.061-60.923,56.448-117.491,140.575-156.9,234.047-45.706,108.4-65.1,220.9-54.595,316.785a38.339,38.339,0,1,0,76.222-8.348c-18.1-165.256,70.694-366.338,172.188-471.292,9.47,5.174,20.545,8.761,33.344,10.711C225.749,934.238,200.98,1166.1,237.553,1268.963q.88,2.472,1.792,4.82c5.7,14.665,12.451,25.936,19.671,34.6-3.041,79.63,14.767,174.432,49.985,265,1.487,3.824,3.014,7.656,4.561,11.464,44.33,108.969,110.17,202.23,185.393,262.6a38.339,38.339,0,0,0,47.994-59.8C417.3,1683.6,337.9,1478.625,335.451,1332.637c10.353-3.039,20.723-8.331,31.148-16,41.639,179,188.066,360.492,286.652,407.361,16.331,7.763,30.624,11.576,43.056,12.71,56.444,60.921,140.574,117.487,234.053,156.9,108.4,45.707,220.9,65.1,316.785,54.6a38.35,38.35,0,0,0,33.929-42.3ZM637.979,1621.322c-99.439-85.937-203.7-256.65-206.07-393.557a38.339,38.339,0,0,0-70.4-20.36c-23.777,36.261-38.83,47.208-44.79,50.393-5.011-7.056-14.166-28.165-17.378-72.233-9.55-131.082,37.431-325.516,132.576-424a38.339,38.339,0,0,0-35.383-64.173c-42.455,8.829-60.842,5.921-67.305,3.963,1.45-8.532,9.893-29.928,38.792-63.363,85.936-99.443,256.646-203.711,393.557-206.07a38.339,38.339,0,0,0,20.36-70.4c-36.266-23.78-47.209-38.834-50.394-44.794,7.054-5.006,28.153-14.165,72.229-17.377,131.086-9.551,325.52,37.43,424,132.575a38.338,38.338,0,0,0,64.175-35.38c-8.832-42.449-5.921-60.838-3.962-67.3,8.53,1.446,29.926,9.889,63.362,38.789,99.439,85.937,203.7,256.642,206.07,393.557a38.339,38.339,0,0,0,70.4,20.36c23.78-36.266,38.834-47.209,44.794-50.395,5.013,7.052,14.164,28.163,17.376,72.23,9.55,131.083-37.426,325.518-132.575,424a38.338,38.338,0,0,0,35.38,64.175c42.455-8.829,60.839-5.92,67.3-3.962-1.447,8.531-9.89,29.926-38.791,63.367-85.938,99.44-256.643,203.71-393.554,206.069a38.339,38.339,0,0,0-20.36,70.4c36.261,23.777,47.207,38.83,50.393,44.79-7.054,5.006-28.157,14.167-72.233,17.378-131.083,9.55-325.516-37.431-424-132.576a38.338,38.338,0,0,0-64.175,35.38c8.829,42.454,5.922,60.842,3.964,67.305-8.524-1.449-29.921-9.9-63.364-38.793Z"/><path class="cls-14" d="M1159.694,552.365a38.343,38.343,0,1,0,51.185-48.98l-.03-.014a38.334,38.334,0,0,0-51.155,48.994Z"/></g></g><g id="Layer_1_copy" data-name="Layer 1 copy"><g class="cls-16"><circle class="cls-3" cx="1006.747" cy="989.193" r="103.814"/><path class="cls-4" d="M1006.747,1093.007a103.814,103.814,0,1,1,103.814-103.814A103.816,103.816,0,0,1,1006.747,1093.007Zm0-346.046c-133.781,0-242.232,108.45-242.232,242.232s108.451,242.232,242.232,242.232,242.233-108.451,242.233-242.232S1140.529,746.961,1006.747,746.961Z"/><path class="cls-5" d="M764.515,989.193c0-133.782,108.451-242.232,242.232-242.232s242.233,108.45,242.233,242.232-108.451,242.232-242.233,242.232S764.515,1122.974,764.515,989.193Zm242.232-449.86c-248.45,0-449.859,201.409-449.859,449.86s201.409,449.86,449.859,449.86,449.86-201.409,449.86-449.86S1255.2,539.333,1006.747,539.333Z"/><path class="cls-6" d="M556.888,989.193c0-248.451,201.409-449.86,449.859-449.86s449.86,201.409,449.86,449.86-201.409,449.86-449.86,449.86S556.888,1237.644,556.888,989.193Zm38.245-411.615C415.306,660.428,277.777,950.5,323.511,1011.994c14.312,19.247,46.581,16.1,101.125-22.8-68.569,185.74,39.293,488.1,115.115,499.244,23.732,3.488,44.325-21.552,55.385-87.629,82.85,179.826,372.924,317.355,434.416,271.622,19.247-14.313,16.1-46.581-22.8-101.125,185.74,68.569,488.1-39.294,499.244-115.112,3.488-23.732-21.552-44.325-87.629-55.385,179.826-82.85,317.355-372.924,271.622-434.416-14.313-19.247-46.581-16.1-101.125,22.8,68.569-185.74-39.294-488.1-115.112-499.244-23.732-3.488-44.325,21.552-55.385,87.629-82.854-179.826-372.927-317.355-434.419-271.622-19.248,14.316-16.1,46.581,22.8,101.125-185.74-68.569-488.1,39.294-499.244,115.112-3.488,23.732,21.552,44.325,87.63,55.385Z"/><path class="cls-17" d="M1006.747,504.725a480.277,480.277,0,0,0-205.284,45.564,34.6,34.6,0,1,0,29.362,62.672,411.634,411.634,0,0,1,175.926-39.027c228.972,0,415.255,186.284,415.255,415.255s-186.283,415.256-415.255,415.256S591.5,1218.161,591.5,989.189A411.565,411.565,0,0,1,630.53,813.246a34.6,34.6,0,0,0-62.669-29.366,480.255,480.255,0,0,0-45.578,205.309c0,267.134,217.331,484.465,484.464,484.465s484.465-217.331,484.465-484.465S1273.881,504.725,1006.747,504.725Z"/><path class="cls-17" d="M1283.584,989.189c0-152.647-124.189-276.836-276.837-276.836S729.911,836.542,729.911,989.189s124.189,276.837,276.836,276.837S1283.584,1141.841,1283.584,989.189Zm-484.464,0c0-114.485,93.142-207.627,207.627-207.627s207.628,93.142,207.628,207.627-93.142,207.628-207.628,207.628S799.12,1103.675,799.12,989.189Z"/><path class="cls-17" d="M1145.166,989.189c0-76.324-62.1-138.418-138.419-138.418S868.329,912.865,868.329,989.189s62.1,138.419,138.418,138.419S1145.166,1065.513,1145.166,989.189Zm-207.628,0a69.21,69.21,0,1,1,69.209,69.21A69.288,69.288,0,0,1,937.538,989.189Z"/><path class="cls-17" d="M1866.98,1046.36a34.6,34.6,0,0,0-42.38,24.469c-38.83,144.931-179.3,285.038-299.019,340.128a90.717,90.717,0,0,0-24.545-19.918c132.775-99.461,229.46-286.4,232.343-384.9.477-16.305-1.6-29.441-5.181-40.12,29.829-68.787,45.99-158.884,44.571-250.465-1.644-106.17-26.521-206.16-70.05-281.553a34.6,34.6,0,1,0-59.935,34.6c75.022,129.94,74.763,328.339,29.071,451.943a90.8,90.8,0,0,0-31.438,3.27c23.555-164.212-40.27-364.763-107.877-436.443-11.2-11.873-21.974-19.76-32.061-24.781-27.556-69.714-79.819-144.82-145.557-208.555-76.234-73.9-164.528-127.019-248.624-149.554a34.6,34.6,0,1,0-17.911,66.849c144.934,38.837,285.038,179.307,340.128,299.019A90.748,90.748,0,0,0,1408.6,494.9c-99.461-132.775-286.4-229.46-384.893-232.339-16.351-.488-29.5,1.581-40.173,5.156-68.776-29.819-158.814-45.983-250.413-44.55-106.17,1.644-206.16,26.521-281.553,70.05a34.6,34.6,0,1,0,34.605,59.935c129.947-75.026,328.345-74.76,451.946-29.068a90.791,90.791,0,0,0,3.27,31.439C777.174,331.972,576.612,395.793,504.936,463.4c-11.873,11.2-19.76,21.974-24.777,32.061-69.715,27.555-144.821,79.819-208.552,145.557C197.7,717.249,144.587,805.543,122.053,889.639A34.6,34.6,0,1,0,188.9,907.55c38.837-144.934,179.311-285.038,299.022-340.128a90.8,90.8,0,0,0,24.542,19.918c-132.775,99.461-229.46,286.4-232.339,384.9-.478,16.309,1.6,29.441,5.18,40.124-29.829,68.787-45.989,158.883-44.571,250.464,1.644,106.167,26.521,206.157,70.05,281.55a34.6,34.6,0,1,0,59.936-34.6c-75.027-129.947-74.764-328.343-29.068-451.943a90.748,90.748,0,0,0,31.442-3.274c-23.559,164.216,40.265,364.771,107.869,436.451,11.2,11.876,21.977,19.762,32.065,24.78,27.555,69.715,79.819,144.82,145.557,208.548,76.234,73.909,164.531,127.023,248.624,149.554a34.6,34.6,0,1,0,17.911-66.849C780.188,1768.2,640.08,1627.731,584.993,1508.02a90.791,90.791,0,0,0,19.919-24.545c99.46,132.774,286.4,229.459,384.9,232.342,1.578.045,3.122.069,4.641.069,14.2,0,25.891-1.99,35.542-5.229,65.991,28.608,151.565,44.64,239.27,44.64,3.7,0,7.427-.031,11.136-.086,106.167-1.644,206.157-26.521,281.55-70.05a34.6,34.6,0,0,0-34.6-59.936C1397.4,1700.252,1199,1699.992,1075.4,1654.293a90.813,90.813,0,0,0-3.267-31.435c164.2,23.528,364.771-40.276,436.448-107.876,11.872-11.2,19.755-21.974,24.776-32.061,69.711-27.552,144.817-79.819,208.552-145.561,73.909-76.234,127.023-164.531,149.554-248.624a34.614,34.614,0,0,0-24.479-42.377Zm-449.773,447.88c-104.821,55.537-282.533,87.4-398.476,44.606a34.6,34.6,0,0,0-40.155,52.557c22.725,31.864,27.009,48.107,27.739,54.163-7.575,1.907-28.327,2.7-66.448-9.011-113.392-34.847-261.583-137.972-313.3-250.226a34.6,34.6,0,0,0-65.559,8.772c-6.46,38.6-14.921,53.119-18.683,57.915-6.7-4.011-21.939-18.112-40.612-53.361-55.54-104.821-87.407-282.532-44.6-398.475a34.6,34.6,0,0,0-52.557-40.155c-31.868,22.728-48.111,27.008-54.167,27.739-1.9-7.572-2.706-28.317,9.011-66.445,34.847-113.4,137.972-261.586,250.226-313.306a34.6,34.6,0,0,0-8.769-65.559c-38.6-6.457-53.114-14.921-57.911-18.683,4.008-6.7,18.109-21.939,53.357-40.612,104.821-55.537,282.526-87.4,398.476-44.605A34.6,34.6,0,0,0,1034.926,387c-22.728-31.867-27.009-48.11-27.739-54.166,7.571-1.91,28.324-2.7,66.444,9.011,113.393,34.847,261.587,137.968,313.307,250.226A34.6,34.6,0,0,0,1452.5,583.3c6.461-38.6,14.922-53.115,18.683-57.911,6.7,4.007,21.94,18.109,40.616,53.36,55.537,104.821,87.408,282.53,44.605,398.473a34.6,34.6,0,0,0,52.558,40.155c31.864-22.725,48.107-27.009,54.163-27.739,1.9,7.571,2.706,28.32-9.011,66.447-34.847,113.393-137.972,261.584-250.226,313.3a34.6,34.6,0,0,0,8.769,65.558c38.6,6.461,53.118,14.922,57.914,18.683-4.007,6.7-18.112,21.933-53.36,40.612Z"/><path class="cls-17" d="M688.655,705.684A34.608,34.608,0,1,0,664.2,646.6l-.02.021a34.6,34.6,0,0,0,24.479,59.059Z"/></g></g></g></svg>