<?xml version="1.0" encoding="utf-8"?><svg xmlns="http://www.w3.org/2000/svg" preserveAspectRatio="xMidYMid meet" xmlns:xlink="http://www.w3.org/1999/xlink" width="12120" height="2000" viewBox="0 0 12120 2000"><defs><style>.cls-1{fill:#0dff84;}.cls-2{fill:#f60;}.cls-3{fill:#89c9ee;}.cls-4{fill:#4890cd;}.cls-5{fill:#e8440c;}.cls-6{fill:#fdfdfd;}.cls-7{fill:#60f;}.cls-8{fill:#f2007b;}.cls-9{fill:#333;}.cls-10{fill:url(#linear-gradient);}</style><linearGradient id="linear-gradient" x1="1917.643" y1="1344.3847" x2="11879.1021" y2="1344.3847" gradientUnits="userSpaceOnUse"><stop offset="0" stop-color="#333"/><stop offset="1"/></linearGradient></defs><g id="static"><path class="cls-1" d="M1417.7479,1632.3339c-4.5184.1937-3.8821-3.5246-4.41-5.8222-4.7471-20.676-9.32-41.392-13.9168-62.1026q-19.79-89.1655-39.5546-178.3369-33.4171-151.0149-66.79-302.04-41.2392-186.1162-82.5859-372.2084-38.3037-172.7494-76.5306-345.516c-1.972-8.9076-3.5974-17.8982-5.8131-26.7426-.9236-3.687.0063-4.6762,3.5573-5.4588q85.1549-18.7675,170.252-37.7956c58.8273-13.03,117.7-25.8584,176.4793-39.0979,5.1787-1.1663,6.0938.5431,7.005,4.68q27.6431,125.5465,55.4416,251.0589,21.9508,99.107,44.0225,198.187,32.9521,148.8144,65.8131,297.6489,28.212,127.3765,56.5516,254.7247,31.6242,142.5918,63.3289,285.1658c1.3372,5.9762-1.977,6.0244-5.67,6.8405q-107.1975,23.6859-214.387,47.4073-64.6235,14.321-129.2176,28.7731C1420.0846,1631.9756,1418.8206,1632.1459,1417.7479,1632.3339Zm-52.4657-936.7606c73.9291.0885,128.1615-57.7721,129.1125-127.62,1-73.4236-58.1821-129.2366-130.1416-129.5635-73.5617-.3341-127.3133,60.69-127.3319,127.6409C1236.9013,637.4869,1294.2711,695.4856,1365.2822,695.5733Zm254.9636,429.543c.1732-14.2934-8.1629-25.1767-21.924-29.2057-6.4771-1.8962-12.6142-.5358-18.8308.8408q-68.3346,15.1312-136.6591,30.3075c-18.214,4.0562-36.5288,7.76-54.5458,12.5689-14.7871,3.9467-23.97,20.0564-20.3556,33.4993,4.5414,16.89,19.1236,26.9188,34.3646,23.4989,27.5082-6.1722,54.98-12.5075,82.5009-18.6207,22.1264-4.9149,44.3111-9.5654,66.4546-14.4042,15.0889-3.2973,30.1756-6.6109,45.2181-10.1119C1611.1562,1150.0708,1620.0742,1139.2759,1620.2458,1125.1163Zm1.0807,107.5556c-4.0276.2885-7.73.0109-11.5789.8929-27.6691,6.34-55.4218,12.3151-83.1428,18.43-34.7764,7.6711-69.5706,15.2647-104.3118,23.0928-17.1491,3.864-27.4991,19.2237-23.9716,34.8892,3.8181,16.9562,19.1587,26.3778,36.8426,22.5016q65.2218-14.2963,130.4212-28.6936c20.2207-4.467,40.4709-8.8205,60.6033-13.6605,17.9223-4.3088,25.9747-18.7323,24.2081-32.8617S1636.3449,1230.2441,1621.3265,1232.6719Zm58.5187,164.1853c1.176-6.0172-.8453-11.51-4.7661-16.7363-8.8382-11.78-20.98-12.82-33.7492-10.0557-49.0785,10.6247-98.078,21.6153-147.1006,32.4978-15.1189,3.3564-30.3517,6.3076-45.2877,10.3488-15.2362,4.1225-23.7667,19.9819-19.9932,35.104,3.3117,13.2708,17.7469,25.43,34.7018,21.4888,19.151-4.4514,38.454-8.2428,57.65-12.5056,44.7769-9.9435,89.513-20.07,134.3013-29.9619C1668.8921,1424.102,1682.1548,1412.3046,1679.8452,1396.8572Z"/><path class="cls-2" d="M237.8276,1482.8846c-.0741-2.5476-.213-5.0955-.2131-7.6431q-.0144-581.0147.0133-1162.0294c.0007-9.8047-1.3807-8.4716,8.3445-8.4759q133.0494-.0592,266.099-.0128c2.5465,0,5.093.1547,7.64.2373q.0051,66.0044-.0007,132.0089c-.0156,20.8292-.1492,41.6583-.2294,62.4875-1.3286-1.3648-2.67-2.7172-3.9839-4.0961-30.3243-31.8261-67.5345-46.1217-111.0448-40.7092-73.5886,9.154-122.7553,76.5487-110.7556,150.2254,11.4112,70.0628,82.4942,118.6182,151.9367,104.0176,29.586-6.2206,53.8641-21.11,73.8091-43.5152.0927,2.3351.2664,4.67.2665,7.0055q.0123,236.6949-.0023,473.39c-2.5465.0719-5.093.206-7.6395.2065q-92.48.0176-184.9595.01c-2.1259,0-4.2536-.0376-6.3774.0345-19.4372.6595-32.7593,18.22-28.1144,37.0362,3.2905,13.3294,15.0284,21.7818,30.6658,21.793q94.3932.0669,188.7863.0317c2.5443.0007,5.0886.1718,7.6329.2636.5971,16.5368-1.4473,32.857-3.7861,49.1782-1.5278,10.6617-5.5616,20.7864-6.4274,31.5644-2.7558.1013-5.5115.29-8.2674.2912q-89.9223.0289-179.8446.0461c-12.7452.0128-22.0742,6.0365-27.1808,17.5924-5.0112,11.34-3.0394,22.116,5.125,31.4315,6.2664,7.15,14.5175,9.8422,23.9474,9.8394q79.0755-.0227,158.151.15a8.1873,8.1873,0,0,1-1.5542,5.4153c-15.5314,23.9181-32.9708,46.17-54.955,64.6665-3.5212,2.9627-8.413,5.0865-9.8387,10.2429-2.751.112-5.502.3189-8.2531.3214q-40.7513.0369-81.5023.0117a44.3333,44.3333,0,0,0-13.8053,1.8033c-16.6523,5.3724-28.9257,28.6221-11.3479,48.9226a9.1777,9.1777,0,0,1-2.1741,1.1107A261.7326,261.7326,0,0,1,237.8276,1482.8846Z"/><path class="cls-3" d="M682.3781,1498.3774c-.1255-2.7552-.361-5.51-.361-8.2654q-.0246-588.6018-.0037-1177.2037c0-9.2023-1.021-8.173,8.1469-8.1755q133.3526-.0367,266.7052-.0048c2.3342,0,4.6684.1492,7.0025.2288q.0051,92.801-.0337,185.602c-.0021,2.41,1.022,5.1781-1.4823,7.126-2.87-2.8283-5.68-5.7221-8.6209-8.4747-29.5835-27.6864-64.7869-39.4577-104.7741-34.6311C776.4028,463.3365,726.4624,530.6,737.8076,603.0805c12.157,77.667,92.8551,126.7143,167.2764,101.8363,23.2062-7.7575,42.2792-21.4234,58.6548-39.2527.0465,1.9117.1339,3.8233.1339,5.735q.0014,237.1886-.01,474.3771-52.31.1068-104.6206.2067c-31.05.0359-62.1-.0867-93.1495.0529-16.5132.0742-29.1485,12.1262-29.791,27.94-.726,17.8688,11.9229,30.8219,30.5493,30.8475q91.5544.126,183.1092.0505c2.9712.0009,5.9425.2,8.9138.3073a73.1687,73.1687,0,0,1-.4861,7.57c-4.1757,25.243-11.762,49.5-21.3371,73.1726-2.7568.093-5.5136.2661-8.27.2671q-81.6366.03-163.2731.0591a28.8854,28.8854,0,0,0-28.1989,20.7673,29.466,29.466,0,0,0,11.44,32.6855c5.7716,4.0669,12.2846,5.3945,19.2873,5.3921q67.92-.0234,135.8393.1427c.3867,2.3656-1.0888,3.9652-2.274,5.7268a345.3966,345.3966,0,0,1-60.7,68.0649c-2.0091,1.7442-4.5823,3.2986-4.6439,6.5224q-33.7362.156-67.4726.2967c-8.5332.0223-16.41,1.8094-22.9195,7.7468-13.0671,11.9177-13.1464,28.7462-.2,44.1-1.0531,2.435-3.3671,3.0651-5.5532,3.8751-5.96,2.2088-11.82,4.7613-17.9037,6.55C709.0539,1491.9876,696.3353,1497.6179,682.3781,1498.3774Z"/><path class="cls-4" d="M836.2572,1425.5519c.0616-3.2237,2.6348-4.7781,4.6439-6.5223a345.3966,345.3966,0,0,0,60.7-68.0649c1.1852-1.7616,2.6607-3.3612,2.274-5.7266,20.1611-.0661,40.3241.0159,60.4828-.2438,16.7893-.2163,29.3032-13.166,29.1841-29.7339-.1178-16.37-12.4986-28.7362-29.1317-29.0246-9.119-.158-18.24-.2113-27.36-.3117,9.5751-23.673,17.1614-47.93,21.3371-73.1726a73.0827,73.0827,0,0,0,.4858-7.5683c2.5311-.14,5.0647-.2542,7.5937-.43a27.6844,27.6844,0,0,0,20.71-10.8117c7.15-9.1165,8.5181-19.381,4.1363-29.8945-4.9734-11.9328-14.8146-17.4118-27.4507-18.27q.0081-237.1886.01-474.3771c0-1.9117-.0874-3.8233-.1337-5.7345.81-1.2238,1.545-2.5055,2.44-3.6641,22.5582-29.2144,30.9928-62.14,26.0617-98.6289-3.3666-24.9131-14.3187-46.3426-29.8884-65.6868,2.5043-1.9479,1.48-4.7161,1.4823-7.126q.0788-92.8009.0337-185.602c26.5817-.0774,53.1636-.11,79.7445-.2873,3.4272-.0228,4.58,1.3033,4.29,4.5225-.1522,1.6876-.0237,3.4006-.0237,5.1022q0,654.9941-.0179,1309.9883c-.0006,10.8125,1.3572,9.4465-9.4967,9.4493q-174.1973.0465-348.3942.1575c-6.2574.01-8.22-1.2425-8.16-7.9354.36-40.1962.172-80.3971.1957-120.5965.0013-2.3276.2475-4.6553.3762-6.9815,13.9536-.758,26.6722-6.3883,39.8263-10.2553,6.084-1.7884,11.9434-4.3409,17.9037-6.55,2.1861-.81,4.5-1.44,5.5532-3.8751,7.3583,5.7654,15.7759,7.6117,25.0138,7.5838,47.1684-.1421,94.3375-.0655,141.5063-.0658,16.5729,0,33.1462.0731,49.7185-.0224,18.65-.1075,31.5363-12.1465,31.6393-29.375.1038-17.3513-12.395-29.4774-31.1-29.9381-8.4938-.2094-16.997-.0232-25.4958-.0454Q886.602,1425.7018,836.2572,1425.5519Z"/><path class="cls-5" d="M237.8276,1482.8846a261.7326,261.7326,0,0,0,60.16-5.1459,9.1711,9.1711,0,0,0,2.1741-1.1109c7.437,6.434,16.1,8.6744,25.8667,8.6451,55.4571-.1666,110.9149-.08,166.3725-.081,8.7117,0,17.4255.1163,26.1347-.0314,17.1664-.2908,30.0573-12.0553,30.6645-27.8121.6616-17.1658-10.5887-29.6359-28.3488-31.309-2.7406-.2582-5.5191-.1413-8.28-.1508q-48.75-.1674-97.5008-.32c1.4257-5.1564,6.3175-7.28,9.8387-10.2429,21.9842-18.4968,39.4236-40.7484,54.955-64.6665a8.1873,8.1873,0,0,0,1.5542-5.4153c12.9558-.0743,25.9152.0164,38.8666-.2642a29.1411,29.1411,0,0,0,28.94-29.4265c.0191-16.32-12.4324-28.9437-28.9286-29.3405-3.6035-.0868-7.2061-.2122-10.809-.32.8658-10.778,4.9-20.9027,6.4274-31.5644,2.3388-16.3212,4.3832-32.6414,3.7861-49.1783,13.3141-.8574,23.2035-7.0246,27.8487-19.6764,6.3055-17.1738-4.1119-38.1-27.8429-39.6993q.0069-236.6949.0023-473.39c0-2.3352-.1738-4.67-.2663-7.0048.5789-.8773,1.1013-1.7992,1.7443-2.6273,24.5866-31.6626,32.9577-67.2069,25.4343-106.52-4.0734-21.2862-14.0051-39.8045-27.14-56.7756.08-20.8292.2138-41.6583.2294-62.4875q.0494-66.0045.0007-132.0089c26.58-.0818,53.16-.1165,79.7389-.3031,3.45-.0242,4.5692,1.3167,4.2565,4.5217-.1439,1.4747-.022,2.9752-.022,4.464q0,655.6039-.0144,1311.208c0,10.0471,1.1977,8.9051-8.74,8.9071q-174.19.0365-348.3794-.0092c-10.4589-.0035-8.9058,1.4434-8.9209-9.23q-.0954-67.3149-.0174-134.63C237.6132,1487.5541,237.7527,1485.2194,237.8276,1482.8846Z"/><path class="cls-6" d="M1367.0876,497.0063c39.1976,1.4187,69.9635,33.58,68.6074,71.72-1.4086,39.6147-33.75,69.5208-73.4417,67.9121-37.6322-1.5253-67.79-34.785-66.4446-73.2788C1297.0987,526.4535,1330.1677,495.67,1367.0876,497.0063Z"/><path class="cls-6" d="M420.5785,512.6077a69.8092,69.8092,0,1,1-.079,139.6184c-38.72.0172-70.19-31.6012-69.8374-70.1652A69.7273,69.7273,0,0,1,420.5785,512.6077Z"/><path class="cls-6" d="M864.7207,512.6091A69.8093,69.8093,0,1,1,795.11,582.9272,69.5664,69.5664,0,0,1,864.7207,512.6091Z"/></g><g id="documentation"><circle class="cls-7" cx="422.2612" cy="582.7831" r="110.4751"/></g><g id="helpers"><circle class="cls-2" cx="871.5974" cy="579.5964" r="110.4751"/></g><g id="instructions"><circle class="cls-8" cx="1368.7353" cy="572.1605" r="110.4751"/></g><g id="breakdown"><path class="cls-9" d="M1780.3905,1633.5981h6.9732q79.1274.0008,158.2549.0212c21.1069.0243,37.2185,12.9978,40.5832,32.4018a39.2214,39.2214,0,0,1-36.7842,46.23c-2.1212.1192-4.2529.0733-6.38.0733q-938.3628.0039-1876.7257.0007c-21.1309,0-36.4727-10.1848-41.8443-27.74-7.8651-25.7038,11.0313-50.7553,38.7064-50.9394,29.3525-.1954,58.71-.2464,88.059.1159,6.191.0765,7.6024-1.5,7.6-7.6361q-.24-660.4594-.2068-1320.9188c-.0036-19.8384,4.6213-37.9065,17.7288-53.1634,15.508-18.0511,35.4885-26.372,59.1146-26.3722q185.0564-.0014,370.1125-.0055c9.6588-.0005,19.3206.9767,27.9673,5.2155,6.54,3.2061,11.8827,3.0059,18.3029-.0769,8.3044-3.9875,17.4981-5.1138,26.7143-5.1153q186.3326-.03,372.6648.0471c23.9491.0233,43.6923,9.586,58.7678,28.2819,2.1514,2.668,3.871,3.5086,7.4084,2.72q175.8982-39.21,351.8549-78.157c41.3459-9.1816,81.441,15.922,90.5736,57.0805q49.248,221.9488,98.3594,443.9281,53.9615,243.4115,107.9852,486.809,41.42,186.83,82.77,373.6754c9.3971,42.4054-16.2157,80.9058-60.2554,90.4832-2.8357.6165-5.6672,1.2517-8.5008,1.8783Q1780.2928,1633.0169,1780.3905,1633.5981ZM682.1976,1498.1611c-.1323,2.3277-.3785,4.6554-.38,6.983-.0236,40.1994.1644,80.4-.1956,120.5965-.06,6.6929,1.9023,7.9457,8.16,7.9354q174.1968-.2831,348.3942-.1575c10.8539-.0028,9.4961,1.3632,9.4967-9.4493q.0316-654.9942.0179-1309.9883c0-1.7016-.1286-3.4146.0237-5.1022.29-3.2192-.8623-4.5453-4.29-4.5225-26.5809.1771-53.1629.21-79.7445.2873-2.3342-.08-4.6684-.2285-7.0025-.2288q-133.3525-.0177-266.7052.0048c-9.168.0025-8.1466-1.0268-8.1469,8.1755q-.0207,588.6018.0036,1177.2037C681.8294,1492.6539,682.0648,1495.4089,682.1976,1498.1611ZM519.5232,304.7474c-2.5466-.0826-5.0931-.237-7.64-.2373q-133.0494-.0188-266.099.0128c-9.7251.0043-8.3437-1.3288-8.3444,8.4759q-.04,581.0146-.0133,1162.0294c0,2.5476.139,5.0954.213,7.6431-.0748,2.3348-.2144,4.6695-.215,7.0043q-.0194,67.3151.0173,134.63c.0152,10.6736-1.5379,9.2266,8.921,9.23q174.19.0591,348.3794.0092c9.9374-.002,8.7394,1.14,8.74-8.9071q.0254-655.6041.0144-1311.208c0-1.4888-.1219-2.9893.022-4.464.3127-3.2051-.8062-4.5459-4.2565-4.5217C572.683,304.6308,546.1029,304.6656,519.5232,304.7474ZM1417.56,1632.1206c1.0726-.188,2.3367-.3583,3.577-.6344q64.61-14.3817,129.2175-28.7731,107.1828-23.7531,214.3871-47.4073c3.6926-.8161,7.0068-.8644,5.6695-6.8406q-31.8915-142.532-63.3288-285.1657-28.248-127.3686-56.5516-254.7247-32.96-148.8127-65.8131-297.6489-21.9451-99.108-44.0225-198.187-27.7988-125.5122-55.4417-251.0589c-.9111-4.1375-1.8263-5.8469-7.0049-4.68-58.78,13.2395-117.652,26.0681-176.4794,39.0978q-85.1349,18.8568-170.2519,37.7957c-3.5511.7826-4.481,1.7718-3.5573,5.4587,2.2157,8.8445,3.8411,17.8351,5.8131,26.7427q38.2461,172.7622,76.53,345.5159,41.2661,186.11,82.5859,372.2085,33.4594,151.0057,66.79,302.04,19.7337,89.178,39.5546,178.3369c4.5966,20.7106,9.17,41.4266,13.9167,62.1026C1413.6781,1628.596,1413.0418,1632.3143,1417.56,1632.1206ZM1126.8937,698.1382l-.9211.1463v2.91q0,463.2987-.1463,926.5972c-.0031,5.7811,2.45,5.8769,6.7645,5.8711q97.318-.1291,194.6364-.06a23.6089,23.6089,0,0,1,2.551.0128c3.4534.3773,4.4854-.77,3.5351-4.3389-1.7462-6.5594-3.0635-13.2337-4.5311-19.8661q-48.0872-217.3237-96.1726-434.6477Q1185.5918,962.4209,1138.5,750.0951,1132.74,724.1073,1126.8937,698.1382Z"/><path class="cls-9" d="M1365.0945,695.36c-71.0111-.0878-128.3809-58.0864-128.3611-129.5427.0187-66.9507,53.77-127.975,127.332-127.6409,71.9595.3268,131.1412,56.14,130.1416,129.5635C1493.256,637.5879,1439.0236,695.4485,1365.0945,695.36ZM1366.9,496.7929c-36.92-1.3363-69.9889,29.4472-71.2789,66.3529-1.3455,38.4937,28.8123,71.7535,66.4446,73.2788,39.692,1.6087,72.0331-28.2974,73.4417-67.9121C1436.8634,530.3734,1406.0974,498.2117,1366.9,496.7929Z"/><path class="cls-9" d="M1620.058,1124.903c-.1715,14.16-9.09,24.9545-23.777,28.3729-15.0425,3.501-30.1292,6.8146-45.2181,10.1119-22.1435,4.8388-44.3283,9.4893-66.4546,14.4042-27.5211,6.1132-54.9928,12.4484-82.5009,18.6207-15.241,3.42-29.8232-6.6084-34.3646-23.4989-3.6144-13.4429,5.5684-29.5526,20.3556-33.4993,18.017-4.8088,36.3318-8.5127,54.5458-12.5689q68.3162-15.2139,136.6591-30.3075c6.2166-1.3766,12.3537-2.737,18.8308-.8408C1611.8952,1099.7263,1620.2313,1110.61,1620.058,1124.903Z"/><path class="cls-9" d="M1621.1388,1232.4586c15.0184-2.4279,27.3036,10.46,29.07,24.5908s-6.2858,28.5529-24.2082,32.8617c-20.1324,4.84-40.3825,9.1935-60.6033,13.66q-65.1983,14.4024-130.4211,28.6936c-17.684,3.8762-33.0245-5.5454-36.8426-22.5017-3.5275-15.6654,6.8225-31.0251,23.9716-34.8892,34.7412-7.828,69.5354-15.4216,104.3118-23.0927,27.7209-6.115,55.4737-12.09,83.1428-18.43C1613.4091,1232.47,1617.1112,1232.7471,1621.1388,1232.4586Z"/><path class="cls-9" d="M1679.6575,1396.6438c2.31,15.4475-10.9531,27.2449-24.2436,30.18-44.7883,9.8916-89.5244,20.0184-134.3014,29.9619-19.196,4.2628-38.4991,8.0542-57.65,12.5056-16.9548,3.941-31.39-8.218-34.7017-21.4888-3.7735-15.1221,4.757-30.9816,19.9932-35.104,14.936-4.0412,30.1688-6.9924,45.2877-10.3488,49.0226-10.8825,98.022-21.8731,147.1006-32.4978,12.77-2.7642,24.911-1.7245,33.7492,10.0557C1678.8121,1385.1339,1680.8335,1390.6267,1679.6575,1396.6438Z"/><path class="cls-9" d="M519.2931,499.2438c13.1352,16.971,23.0669,35.4894,27.14,56.7756,7.5233,39.3134-.8477,74.8577-25.4343,106.52-.6431.8281-1.1655,1.75-1.7443,2.6273-19.9453,22.4046-44.2233,37.2939-73.8093,43.5145C376.003,723.2821,304.92,674.7267,293.5088,604.6639c-12-73.6767,37.167-141.0714,110.7556-150.2255,43.51-5.4124,80.72,8.8832,111.0448,40.7093C516.6229,496.5266,517.9645,497.879,519.2931,499.2438Zm-98.9023,13.1505a69.7274,69.7274,0,0,0-69.9164,69.4533c-.3527,38.564,31.1179,70.1824,69.8374,70.1652a69.8093,69.8093,0,1,0,.079-139.6185Z"/><path class="cls-9" d="M414.8822,1425.3557q48.75.1578,97.5008.3195c2.7611.01,5.54-.1073,8.28.1509,17.76,1.6731,29.01,14.1432,28.3488,31.309-.6072,15.7568-13.4981,27.5213-30.6645,27.8121-8.7092.1477-17.423.0313-26.1347.0313-55.4576.0007-110.9154-.0855-166.3725.0811-9.7669.0293-18.43-2.2112-25.8668-8.6453-17.5777-20.3-5.3043-43.55,11.3479-48.9223a44.3372,44.3372,0,0,1,13.8054-1.8032q40.7511.01,81.5022-.0117C409.38,1425.6746,412.1311,1425.4677,414.8822,1425.3557Z"/><path class="cls-9" d="M519.5188,1145.5614c23.731,1.5993,34.1484,22.5256,27.8429,39.6994-4.6452,12.6518-14.5346,18.8189-27.8487,19.6764-2.5443-.0917-5.0886-.2628-7.6329-.2635q-94.3932-.0231-188.7863-.0317c-15.6374-.0112-27.3753-8.4636-30.6658-21.793-4.6449-18.8164,8.6772-36.3767,28.1144-37.0362,2.1238-.0721,4.2515-.0345,6.3774-.0345q92.48-.0021,184.96-.01C514.4258,1145.7675,516.9723,1145.6334,519.5188,1145.5614Z"/><path class="cls-9" d="M509.3,1285.68c3.6029.1076,7.2055.2331,10.8089.32,16.4962.3969,28.9478,13.02,28.9287,29.3406a29.1411,29.1411,0,0,1-28.94,29.4265c-12.9514.2806-25.9108.19-38.8666.2642q-79.0755-.0939-158.1511-.15c-9.43.0028-17.6809-2.69-23.9473-9.8394-8.1645-9.3155-10.1363-20.0911-5.125-31.4315,5.1066-11.5559,14.4356-17.58,27.1808-17.5924q89.9221-.0908,179.8446-.0461C503.7879,1285.97,506.5437,1285.7812,509.3,1285.68Z"/><path class="cls-9" d="M962.1642,497.4715c15.57,19.3442,26.5219,40.7737,29.8885,65.6868,4.9311,36.4889-3.5035,69.4145-26.0618,98.6289-.8946,1.1586-1.63,2.44-2.44,3.6641-16.3758,17.8287-35.4488,31.4947-58.6551,39.2522C830.475,729.5815,749.7769,680.5342,737.62,602.8672c-11.3452-72.48,38.5951-139.744,111.1494-148.5015,39.9872-4.8266,75.1906,6.9446,104.7741,34.6311C956.4847,491.7494,959.2939,494.6432,962.1642,497.4715ZM864.533,512.3957A69.8094,69.8094,0,1,0,934.52,581.6883,69.6038,69.6038,0,0,0,864.533,512.3957Z"/><path class="cls-9" d="M836.07,1425.3386q50.3448.142,100.69.281c8.4988.0222,17.002-.164,25.4957.0454,18.7053.4607,31.2041,12.5868,31.1,29.9381-.103,17.2285-12.99,29.2675-31.6393,29.375-16.5723.0955-33.1457.0223-49.7185.0224-47.1688,0-94.3379-.0763-141.5063.0658-9.238.0278-17.6556-1.8184-25.0138-7.5838-12.9462-15.3541-12.8669-32.1826.2-44.1,6.51-5.9374,14.3863-7.7246,22.9195-7.7468Q802.3333,1425.5475,836.07,1425.3386Z"/><path class="cls-9" d="M963.6746,1145.5629c12.6361.8585,22.4772,6.3375,27.4506,18.27,4.3819,10.5135,3.0138,20.778-4.1362,29.8945a27.6844,27.6844,0,0,1-20.71,10.8117c-2.5291.1762-5.0626.29-7.5937.4305-2.971-.1088-5.9423-.3082-8.9136-.3091q-91.5546-.03-183.1091-.0505c-18.6264-.0256-31.2753-12.9787-30.5493-30.8475.6425-15.8141,13.2777-27.8661,29.791-27.94,31.0492-.14,62.1-.017,93.1495-.0529Q911.3643,1145.709,963.6746,1145.5629Z"/><path class="cls-9" d="M936.8626,1285.7107c9.12.1005,18.2408.1538,27.36.3118,16.6331.2884,29.0139,12.6544,29.1316,29.0245.1192,16.568-12.3948,29.5177-29.1841,29.734-20.1586.26-40.3216.1777-60.4827.2436q-67.92-.0909-135.8393-.1427c-7.0027.0024-13.5158-1.3252-19.2873-5.3921a29.466,29.466,0,0,1-11.44-32.6855,28.8854,28.8854,0,0,1,28.1989-20.7673q81.6364-.1341,163.2731-.0591C931.349,1285.9768,934.1058,1285.8038,936.8626,1285.7107Z"/></g><g id="static-documentation"><path class="cls-9" d="M1917.6693,1634.3729c67.3352,3.5351,212.4163,1.4723,268.9394,1.4723,128.2579,0,169.2141-68.979,169.2141-123.9467,0-86.2237-87.3015-109.9353-182.1477-135.8024-115.3243-30.1783-243.5821-62.5122-243.5821-203.7036C1930.093,1053.8348,2035.7171,973,2176.9085,973c109.9353,0,195.0813,36.6451,255.4379,100.2351l-53.89,65.7457c-53.89-59.2789-129.3357-86.2238-208.0149-86.2238-86.2237,0-147.6582,46.3453-147.6582,114.2465,0,72.2124,82.99,93.7683,174.6032,118.5577,117.48,31.2561,251.1267,67.9012,251.1267,218.7928,0,104.5463-71.1346,211.2482-265.1381,211.2482-59.2282,0-198.4731.7683-265.7323-.99"/><path class="cls-9" d="M2576.7715,1593.8111V1253.2272h-86.2238v-71.1346h86.2238V1039.8234h80.8348v142.2692H2763.23v71.1346H2657.6063v323.3392c0,38.8007,17.2447,66.8234,52.812,66.8234,22.6338,0,44.19-9.7,54.9674-21.556l23.7116,60.3567c-20.4782,19.4-49.5784,33.4117-97.0015,33.4117C2615.5722,1715.6022,2576.7715,1671.4125,2576.7715,1593.8111Z"/><path class="cls-9" d="M3202.9619,1643.39c-43.1119,47.4231-102.3907,72.2124-172.4476,72.2124-88.3793,0-182.1477-59.2788-182.1477-172.4475,0-116.4021,93.7684-171.37,182.1477-171.37,71.1347,0,130.4135,22.6338,172.4476,71.1346v-93.7683c0-70.0568-56.0455-109.9353-131.4913-109.9353-62.5122,0-113.1687,22.6337-159.5139,72.2124l-37.7229-56.0455c56.0454-58.201,122.8688-86.2237,208.0148-86.2237,109.9353,0,201.5481,49.5786,201.5481,175.6809v357.8286h-80.8348Zm0-148.736c-31.2561-43.1119-86.2238-64.6678-143.347-64.6678-75.4458,0-128.2579,47.423-128.2579,114.2465,0,65.7456,52.8121,113.1687,128.2579,113.1687,57.1232,0,112.0909-21.556,143.347-64.6679Z"/><path class="cls-9" d="M3461.6258,1593.8111V1253.2272H3375.402v-71.1346h86.2238V1039.8234h80.8348v142.2692h105.6241v71.1346H3542.4606v323.3392c0,38.8007,17.2447,66.8234,52.8121,66.8234,22.6337,0,44.19-9.7,54.9676-21.556l23.7115,60.3567c-20.4781,19.4-49.5786,33.4117-97.0017,33.4117C3500.4265,1715.6022,3461.6258,1671.4125,3461.6258,1593.8111Z"/><path class="cls-9" d="M3748.31,1039.8234a54.0465,54.0465,0,0,1,53.89-53.89c30.1783,0,54.9676,23.7115,54.9676,53.89a55.1991,55.1991,0,0,1-54.9676,54.9677C3773.0992,1094.7911,3748.31,1070.0017,3748.31,1039.8234Zm14.0114,142.2692h80.8348v520.576h-80.8348Z"/><path class="cls-9" d="M4234.3863,1169.1591c94.8462,0,150.8916,38.8007,190.77,90.5349l-53.89,49.5787c-34.4895-47.4231-78.6792-67.9012-132.5691-67.9012-111.0131,0-179.9921,85.1459-179.9921,200.47s68.979,201.5481,179.9921,201.5481c53.89,0,98.08-21.556,132.5691-67.9012l53.89,49.5786c-39.8785,51.7343-95.9239,90.535-190.77,90.535-155.2028,0-259.7491-118.5577-259.7491-273.7605C3974.6372,1287.7167,4079.1835,1169.1591,4234.3863,1169.1591Z"/><path class="cls-9" d="M4819.6207,983.778h245.7377c223.104,0,368.6066,156.2805,368.6066,359.9842,0,204.7814-145.5026,358.9064-368.6066,358.9064H4819.6207Zm245.7377,639.1336c174.6031,0,275.9161-125.0244,275.9161-279.1494,0-155.2028-98.08-280.2272-275.9161-280.2272H4909.0778v559.3766Z"/><path class="cls-9" d="M5540.6638,1441.8417c0-150.8916,99.1573-272.6826,257.5935-272.6826s257.5935,121.791,257.5935,272.6826-99.1574,273.7605-257.5935,273.7605S5540.6638,1592.7333,5540.6638,1441.8417Zm430.041,0c0-105.6241-61.4344-200.47-172.4475-200.47s-173.5254,94.8461-173.5254,200.47c0,106.7019,62.5123,201.5481,173.5254,201.5481S5970.7048,1548.5436,5970.7048,1441.8417Z"/><path class="cls-9" d="M6416.9028,1169.1591c94.8461,0,150.8916,38.8007,190.77,90.5349l-53.89,49.5787c-34.49-47.4231-78.6792-67.9012-132.569-67.9012-111.0131,0-179.9921,85.1459-179.9921,200.47s68.979,201.5481,179.9921,201.5481c53.89,0,98.0795-21.556,132.569-67.9012l53.89,49.5786c-39.8785,51.7343-95.924,90.535-190.77,90.535-155.2028,0-259.7491-118.5577-259.7491-273.7605C6157.1537,1287.7167,6261.7,1169.1591,6416.9028,1169.1591Z"/><path class="cls-9" d="M7072.1987,1629.3784c-39.8785,45.2675-107.78,86.2238-185.3811,86.2238-108.8575,0-165.9808-52.8121-165.9808-165.9808V1182.0926h80.8348v342.74c0,91.6128,46.3453,118.5577,116.4021,118.5577,63.59,0,123.9467-36.6451,154.125-78.6792v-382.618h80.8348v520.576h-80.8348Z"/><path class="cls-9" d="M7943.0535,1349.1512c0-65.7456-29.1-107.78-95.924-107.78-53.89,0-111.0131,38.8007-137.958,79.757v381.54h-80.8348V1349.1512c0-65.7456-28.0227-107.78-95.9239-107.78-52.8121,0-108.8575,38.8007-136.88,80.8348v380.4623h-80.8348v-520.576h80.8348v75.4458c21.5559-33.4117,91.6127-88.3793,168.1363-88.3793,79.757,0,125.0245,43.1119,140.1136,97.0017,29.1-47.4231,99.1574-97.0017,174.6032-97.0017,94.8461,0,145.5026,52.812,145.5026,157.3583v376.1512h-80.8348Z"/><path class="cls-9" d="M8411.8931,1169.1591c157.3584,0,250.0489,122.8688,250.0489,279.1494v20.4782H8240.5234c6.4668,98.0795,75.4458,179.9921,187.5367,179.9921,59.2788,0,119.6354-23.7116,160.5917-65.7456l38.8007,52.812c-51.7342,51.7343-121.791,79.757-206.937,79.757-154.125,0-265.1381-111.0131-265.1381-273.7605C8155.3774,1290.95,8263.1571,1169.1591,8411.8931,1169.1591Zm-171.37,240.3487H8582.185c-1.0778-77.6014-52.812-173.5253-171.37-173.5253C8299.8022,1235.9825,8244.8346,1329.7508,8240.5234,1409.5078Z"/><path class="cls-9" d="M9143.7047,1362.0847c0-91.6127-46.3453-120.7132-116.4021-120.7132-63.59,0-123.9467,38.8007-154.125,80.8348v380.4623h-80.8348v-520.576h80.8348v75.4458c36.6451-43.1119,107.78-88.3793,185.3811-88.3793,108.8575,0,165.9808,54.9676,165.9808,168.1363v365.3732h-80.8348Z"/><path class="cls-9" d="M9402.3707,1593.8111V1253.2272H9316.147v-71.1346h86.2237V1039.8234h80.8348v142.2692H9588.83v71.1346H9483.2055v323.3392c0,38.8007,17.2448,66.8234,52.8121,66.8234,22.6337,0,44.19-9.7,54.9676-21.556l23.7116,60.3567c-20.4782,19.4-49.5787,33.4117-97.0018,33.4117C9441.1714,1715.6022,9402.3707,1671.4125,9402.3707,1593.8111Z"/><path class="cls-9" d="M10028.5614,1643.39c-43.1119,47.4231-102.3908,72.2124-172.4476,72.2124-88.3793,0-182.1477-59.2788-182.1477-172.4475,0-116.4021,93.7684-171.37,182.1477-171.37,71.1346,0,130.4135,22.6338,172.4476,71.1346v-93.7683c0-70.0568-56.0455-109.9353-131.4913-109.9353-62.5122,0-113.1687,22.6337-159.5139,72.2124l-37.7229-56.0455c56.0454-58.201,122.8688-86.2237,208.0148-86.2237,109.9353,0,201.5481,49.5786,201.5481,175.6809v357.8286h-80.8348Zm0-148.736c-31.2561-43.1119-86.2238-64.6678-143.347-64.6678-75.4458,0-128.2579,47.423-128.2579,114.2465,0,65.7456,52.8121,113.1687,128.2579,113.1687,57.1232,0,112.0909-21.556,143.347-64.6679Z"/><path class="cls-9" d="M10287.2243,1593.8111V1253.2272h-86.2238v-71.1346h86.2238V1039.8234h80.8347v142.2692h105.6241v71.1346H10368.059v323.3392c0,38.8007,17.2448,66.8234,52.8121,66.8234,22.6337,0,44.19-9.7,54.9676-21.556l23.7116,60.3567c-20.4782,19.4-49.5787,33.4117-97.0018,33.4117C10326.0249,1715.6022,10287.2243,1671.4125,10287.2243,1593.8111Z"/><path class="cls-9" d="M10573.9088,1039.8234a54.0464,54.0464,0,0,1,53.89-53.89c30.1783,0,54.9676,23.7115,54.9676,53.89a55.1991,55.1991,0,0,1-54.9676,54.9677C10598.6981,1094.7911,10573.9088,1070.0017,10573.9088,1039.8234Zm14.0114,142.2692h80.8347v520.576H10587.92Z"/><path class="cls-9" d="M10800.2367,1441.8417c0-150.8916,99.1574-272.6826,257.5935-272.6826s257.5935,121.791,257.5935,272.6826-99.1573,273.7605-257.5935,273.7605S10800.2367,1592.7333,10800.2367,1441.8417Zm430.0411,0c0-105.6241-61.4345-200.47-172.4476-200.47s-173.5253,94.8461-173.5253,200.47c0,106.7019,62.5122,201.5481,173.5253,201.5481S11230.2778,1548.5436,11230.2778,1441.8417Z"/><path class="cls-9" d="M11798.2674,1362.0847c0-91.6127-46.3453-120.7132-116.4021-120.7132-63.59,0-123.9467,38.8007-154.125,80.8348v380.4623h-80.8348v-520.576h80.8348v75.4458c36.6451-43.1119,107.78-88.3793,185.3811-88.3793,108.8575,0,165.9807,54.9676,165.9807,168.1363v365.3732h-80.8347Z"/><path class="cls-10" d="M1917.6693,1634.3729c67.3352,3.5351,212.4163,1.4723,268.9394,1.4723,128.2579,0,169.2141-68.979,169.2141-123.9467,0-86.2237-87.3015-109.9353-182.1477-135.8024-115.3243-30.1783-243.5821-62.5122-243.5821-203.7036C1930.093,1053.8348,2035.7171,973,2176.9085,973c109.9353,0,195.0813,36.6451,255.4379,100.2351l-53.89,65.7457c-53.89-59.2789-129.3357-86.2238-208.0149-86.2238-86.2237,0-147.6582,46.3453-147.6582,114.2465,0,72.2124,82.99,93.7683,174.6032,118.5577,117.48,31.2561,251.1267,67.9012,251.1267,218.7928,0,104.5463-71.1346,211.2482-265.1381,211.2482-59.2282,0-198.4731.7683-265.7323-.99"/><path class="cls-10" d="M2576.7715,1593.8111V1253.2272h-86.2238v-71.1346h86.2238V1039.8234h80.8348v142.2692H2763.23v71.1346H2657.6063v323.3392c0,38.8007,17.2447,66.8234,52.812,66.8234,22.6338,0,44.19-9.7,54.9674-21.556l23.7116,60.3567c-20.4782,19.4-49.5784,33.4117-97.0015,33.4117C2615.5722,1715.6022,2576.7715,1671.4125,2576.7715,1593.8111Z"/><path class="cls-10" d="M3202.9619,1643.39c-43.1119,47.4231-102.3907,72.2124-172.4476,72.2124-88.3793,0-182.1477-59.2788-182.1477-172.4475,0-116.4021,93.7684-171.37,182.1477-171.37,71.1347,0,130.4135,22.6338,172.4476,71.1346v-93.7683c0-70.0568-56.0455-109.9353-131.4913-109.9353-62.5122,0-113.1687,22.6337-159.5139,72.2124l-37.7229-56.0455c56.0454-58.201,122.8688-86.2237,208.0148-86.2237,109.9353,0,201.5481,49.5786,201.5481,175.6809v357.8286h-80.8348Zm0-148.736c-31.2561-43.1119-86.2238-64.6678-143.347-64.6678-75.4458,0-128.2579,47.423-128.2579,114.2465,0,65.7456,52.8121,113.1687,128.2579,113.1687,57.1232,0,112.0909-21.556,143.347-64.6679Z"/><path class="cls-10" d="M3461.6258,1593.8111V1253.2272H3375.402v-71.1346h86.2238V1039.8234h80.8348v142.2692h105.6241v71.1346H3542.4606v323.3392c0,38.8007,17.2447,66.8234,52.8121,66.8234,22.6337,0,44.19-9.7,54.9676-21.556l23.7115,60.3567c-20.4781,19.4-49.5786,33.4117-97.0017,33.4117C3500.4265,1715.6022,3461.6258,1671.4125,3461.6258,1593.8111Z"/><path class="cls-10" d="M3748.31,1039.8234a54.0465,54.0465,0,0,1,53.89-53.89c30.1783,0,54.9676,23.7115,54.9676,53.89a55.1991,55.1991,0,0,1-54.9676,54.9677C3773.0992,1094.7911,3748.31,1070.0017,3748.31,1039.8234Zm14.0114,142.2692h80.8348v520.576h-80.8348Z"/><path class="cls-10" d="M4234.3863,1169.1591c94.8462,0,150.8916,38.8007,190.77,90.5349l-53.89,49.5787c-34.4895-47.4231-78.6792-67.9012-132.5691-67.9012-111.0131,0-179.9921,85.1459-179.9921,200.47s68.979,201.5481,179.9921,201.5481c53.89,0,98.08-21.556,132.5691-67.9012l53.89,49.5786c-39.8785,51.7343-95.9239,90.535-190.77,90.535-155.2028,0-259.7491-118.5577-259.7491-273.7605C3974.6372,1287.7167,4079.1835,1169.1591,4234.3863,1169.1591Z"/><path class="cls-10" d="M4819.6207,983.778h245.7377c223.104,0,368.6066,156.2805,368.6066,359.9842,0,204.7814-145.5026,358.9064-368.6066,358.9064H4819.6207Zm245.7377,639.1336c174.6031,0,275.9161-125.0244,275.9161-279.1494,0-155.2028-98.08-280.2272-275.9161-280.2272H4909.0778v559.3766Z"/><path class="cls-10" d="M5540.6638,1441.8417c0-150.8916,99.1573-272.6826,257.5935-272.6826s257.5935,121.791,257.5935,272.6826-99.1574,273.7605-257.5935,273.7605S5540.6638,1592.7333,5540.6638,1441.8417Zm430.041,0c0-105.6241-61.4344-200.47-172.4475-200.47s-173.5254,94.8461-173.5254,200.47c0,106.7019,62.5123,201.5481,173.5254,201.5481S5970.7048,1548.5436,5970.7048,1441.8417Z"/><path class="cls-10" d="M6416.9028,1169.1591c94.8461,0,150.8916,38.8007,190.77,90.5349l-53.89,49.5787c-34.49-47.4231-78.6792-67.9012-132.569-67.9012-111.0131,0-179.9921,85.1459-179.9921,200.47s68.979,201.5481,179.9921,201.5481c53.89,0,98.0795-21.556,132.569-67.9012l53.89,49.5786c-39.8785,51.7343-95.924,90.535-190.77,90.535-155.2028,0-259.7491-118.5577-259.7491-273.7605C6157.1537,1287.7167,6261.7,1169.1591,6416.9028,1169.1591Z"/><path class="cls-10" d="M7072.1987,1629.3784c-39.8785,45.2675-107.78,86.2238-185.3811,86.2238-108.8575,0-165.9808-52.8121-165.9808-165.9808V1182.0926h80.8348v342.74c0,91.6128,46.3453,118.5577,116.4021,118.5577,63.59,0,123.9467-36.6451,154.125-78.6792v-382.618h80.8348v520.576h-80.8348Z"/><path class="cls-10" d="M7943.0535,1349.1512c0-65.7456-29.1-107.78-95.924-107.78-53.89,0-111.0131,38.8007-137.958,79.757v381.54h-80.8348V1349.1512c0-65.7456-28.0227-107.78-95.9239-107.78-52.8121,0-108.8575,38.8007-136.88,80.8348v380.4623h-80.8348v-520.576h80.8348v75.4458c21.5559-33.4117,91.6127-88.3793,168.1363-88.3793,79.757,0,125.0245,43.1119,140.1136,97.0017,29.1-47.4231,99.1574-97.0017,174.6032-97.0017,94.8461,0,145.5026,52.812,145.5026,157.3583v376.1512h-80.8348Z"/><path class="cls-10" d="M8411.8931,1169.1591c157.3584,0,250.0489,122.8688,250.0489,279.1494v20.4782H8240.5234c6.4668,98.0795,75.4458,179.9921,187.5367,179.9921,59.2788,0,119.6354-23.7116,160.5917-65.7456l38.8007,52.812c-51.7342,51.7343-121.791,79.757-206.937,79.757-154.125,0-265.1381-111.0131-265.1381-273.7605C8155.3774,1290.95,8263.1571,1169.1591,8411.8931,1169.1591Zm-171.37,240.3487H8582.185c-1.0778-77.6014-52.812-173.5253-171.37-173.5253C8299.8022,1235.9825,8244.8346,1329.7508,8240.5234,1409.5078Z"/><path class="cls-10" d="M9143.7047,1362.0847c0-91.6127-46.3453-120.7132-116.4021-120.7132-63.59,0-123.9467,38.8007-154.125,80.8348v380.4623h-80.8348v-520.576h80.8348v75.4458c36.6451-43.1119,107.78-88.3793,185.3811-88.3793,108.8575,0,165.9808,54.9676,165.9808,168.1363v365.3732h-80.8348Z"/><path class="cls-10" d="M9402.3707,1593.8111V1253.2272H9316.147v-71.1346h86.2237V1039.8234h80.8348v142.2692H9588.83v71.1346H9483.2055v323.3392c0,38.8007,17.2448,66.8234,52.8121,66.8234,22.6337,0,44.19-9.7,54.9676-21.556l23.7116,60.3567c-20.4782,19.4-49.5787,33.4117-97.0018,33.4117C9441.1714,1715.6022,9402.3707,1671.4125,9402.3707,1593.8111Z"/><path class="cls-10" d="M10028.5614,1643.39c-43.1119,47.4231-102.3908,72.2124-172.4476,72.2124-88.3793,0-182.1477-59.2788-182.1477-172.4475,0-116.4021,93.7684-171.37,182.1477-171.37,71.1346,0,130.4135,22.6338,172.4476,71.1346v-93.7683c0-70.0568-56.0455-109.9353-131.4913-109.9353-62.5122,0-113.1687,22.6337-159.5139,72.2124l-37.7229-56.0455c56.0454-58.201,122.8688-86.2237,208.0148-86.2237,109.9353,0,201.5481,49.5786,201.5481,175.6809v357.8286h-80.8348Zm0-148.736c-31.2561-43.1119-86.2238-64.6678-143.347-64.6678-75.4458,0-128.2579,47.423-128.2579,114.2465,0,65.7456,52.8121,113.1687,128.2579,113.1687,57.1232,0,112.0909-21.556,143.347-64.6679Z"/><path class="cls-10" d="M10287.2243,1593.8111V1253.2272h-86.2238v-71.1346h86.2238V1039.8234h80.8347v142.2692h105.6241v71.1346H10368.059v323.3392c0,38.8007,17.2448,66.8234,52.8121,66.8234,22.6337,0,44.19-9.7,54.9676-21.556l23.7116,60.3567c-20.4782,19.4-49.5787,33.4117-97.0018,33.4117C10326.0249,1715.6022,10287.2243,1671.4125,10287.2243,1593.8111Z"/><path class="cls-10" d="M10573.9088,1039.8234a54.0464,54.0464,0,0,1,53.89-53.89c30.1783,0,54.9676,23.7115,54.9676,53.89a55.1991,55.1991,0,0,1-54.9676,54.9677C10598.6981,1094.7911,10573.9088,1070.0017,10573.9088,1039.8234Zm14.0114,142.2692h80.8347v520.576H10587.92Z"/><path class="cls-10" d="M10800.2367,1441.8417c0-150.8916,99.1574-272.6826,257.5935-272.6826s257.5935,121.791,257.5935,272.6826-99.1573,273.7605-257.5935,273.7605S10800.2367,1592.7333,10800.2367,1441.8417Zm430.0411,0c0-105.6241-61.4345-200.47-172.4476-200.47s-173.5253,94.8461-173.5253,200.47c0,106.7019,62.5122,201.5481,173.5253,201.5481S11230.2778,1548.5436,11230.2778,1441.8417Z"/><path class="cls-10" d="M11798.2674,1362.0847c0-91.6127-46.3453-120.7132-116.4021-120.7132-63.59,0-123.9467,38.8007-154.125,80.8348v380.4623h-80.8348v-520.576h80.8348v75.4458c36.6451-43.1119,107.78-88.3793,185.3811-88.3793,108.8575,0,165.9807,54.9676,165.9807,168.1363v365.3732h-80.8347Z"/></g></svg>