<svg xmlns="http://www.w3.org/2000/svg" width="1736.6275" height="1752.5895" viewBox="0 0 1736.6275 1752.5895"><defs><style>.cls-1{isolation:isolate;}.cls-2{fill:#cce0ff;}.cls-3{fill:#3385ff;}.cls-4{fill:#99c2ff;}.cls-5{fill:#60f;}.cls-6{fill:#f60;}.cls-7{fill:#b0d3f0;}.cls-8{fill:#90bae1;}.cls-9{mix-blend-mode:color-burn;}.cls-10{fill:#efefef;}.cls-11,.cls-12{mix-blend-mode:hard-light;}.cls-12{fill:#06f;}.cls-13{fill:none;}.cls-14{fill:#09f;}</style></defs><g class="cls-1"><g id="Layer_1_copy_2" data-name="Layer 1 copy 2"><g id="Icons"><path class="cls-2" d="M75.83,1186.4628,256.1075,156.3435A112.3051,112.3051,0,0,1,366.7281,63.4109h990.4756a112.3052,112.3052,0,0,1,110.6206,92.9326l180.278,1030.1193-168.4578,280.763H244.2874Z"/><path class="cls-3" d="M1648.1023,1186.4628l-168.4578,280.763H244.2874L75.83,1186.4628Z"/><path class="cls-4" d="M47.7533,1579.531v56.1526a56.1526,56.1526,0,0,0,56.1526,56.1526h1516.12a56.1528,56.1528,0,0,0,56.1526-56.1526V1579.531l-40.6264-81.2529a56.1527,56.1527,0,0,0-50.2285-31.0523H138.6082A56.1526,56.1526,0,0,0,88.38,1498.2781Z"/><path class="cls-5" d="M1395.4156,1354.9206H1002.3474a28.0763,28.0763,0,0,1,0-56.1526h393.0682a28.0763,28.0763,0,0,1,0,56.1526Z"/><path class="cls-6" d="M890.0422,1354.9206H861.9659a28.0763,28.0763,0,0,1,0-56.1526h28.0763a28.0763,28.0763,0,1,1,0,56.1526Z"/><path class="cls-3" d="M1676.1786,1579.531v56.1526a56.3212,56.3212,0,0,1-56.1526,56.1526H103.9059a56.3211,56.3211,0,0,1-56.1526-56.1526V1579.531Z"/></g></g><g id="Layer_10_copy" data-name="Layer 10 copy"><path class="cls-7" d="M1287.27,1040.8648H464.6341a165.7046,165.7046,0,0,1-64.5755-12.9151A168.6668,168.6668,0,0,1,298.7032,843.4885l88.44-505.3734a168.4579,168.4579,0,0,1,165.931-139.5392h645.7548A168.458,168.458,0,0,1,1364.76,338.1151l88.44,505.3734A168.4576,168.4576,0,0,1,1287.27,1040.8648Z"/><path class="cls-8" d="M1287.27,1040.8648s-651.8885-.9579-658.4532-.6844c14.3092-191.55,120.608-521.62,484.1625-495.784,94.9356,6.7466,216.181,48.4571,301.2732,93.1061a8.5,8.5,0,0,1,4.4174,6.1026l34.531,199.8834A168.4576,168.4576,0,0,1,1287.27,1040.8648Z"/></g><g id="Layer_2_copy_9" data-name="Layer 2 copy 9"><g class="cls-9"><path class="cls-10" d="M1312.7059,790.2313c-22.5114-.85-32.1221-32.6846-37.9765-49.67q-19.978-61.5492-42.2228-122.3c-16.7077-44.9773-48.0771-82.7124-86.7636-110.5921-33.7948-24.3546-75.3144-32.4169-116.1924-31.5008-43.9869.9858-78.12,30.0046-108.4808,58.8588Q942.1289,564.611,963.938,593.63c12.9461-10.9879,26.3377-22.95,40.7807-31.28,13.8057-7.9635,29.8262-12.1073,45.2261-13.8266,12.7009-1.418,29.6917-.0228,41.5981,6.2821,15.18,8.0382,29.8158,21.4022,38.6929,36.39q7.514,16.0725,14.964,32.1747c-18.5683-4.7544-38.3135-6.6935-57.0838-8.64-15.7511-1.6334-31.0981-1.4437-46.8457,1.619-14.4107,2.8026-30.5637,4.3835-43.488,11.0558-13.9157,7.184-26.7807,17.9265-38.57,28.46-13.1965,11.79-21.5939,29.9335-28.3044,46.1284-6.3719,15.3781-2.1869,34.355-.4185,50.1648,1.92,17.1669,6.514,34.6974,14.7714,50.0174C953.683,817.8,964.9067,832.47,978.55,843.9457a168.21,168.21,0,0,0,48.91,28.7132c18.9452,7.1179,39.486,10.5334,59.8423,10.8314,32.0277.469,63.3242-5.8177,94.0363-17.09,18.3033-6.718,29.9117-22.8115,38.7756-39.4286,1.17,3.4332,1.7526,5.1514,2.9111,8.5907,7.9229,18.3708,28.7735,28.3512,46.3044,35.058.2431.093.49.1894.7363.2815a135.1507,135.1507,0,0,0,42.8331,8.2824c4.9007.16,17.2479-.7785,26.3115-2.3852Q1326.7045,833.2763,1312.7059,790.2313ZM1299.9985,849.21a111.4075,111.4075,0,0,1-18.0756,2.0016c-11.035-.0038-22.2762-2.7209-31.3725-9.2275a47.1369,47.1369,0,0,1-17.4833-25.1066q-4.4184-14.2088-9.0305-28.3591c-10.9889,21.9954-29.8843,39.3974-51.7,49.3957-25.9934,11.9127-52.8186,16.373-81.6336,16.6587-17.11.1695-34.6425-3.3678-50.7825-9.2693a135.978,135.978,0,0,1-42.0921-24.4578c-11.7478-10.2733-21.96-22.24-29.326-35.6362-7.2081-13.11-11.5139-27.6478-13.7872-42.853a81.9748,81.9748,0,0,1,27.776-74.1711c11.5284-9.9662,24.9134-16.3951,38.8-21.1505,16.7946-5.7512,35.4168-7.5765,53.1217-7.686a334.1866,334.1866,0,0,1,52.49,4.3354,267.6132,267.6132,0,0,1,51.0667,12.97q-5.0928-15.4575-10.2733-30.8839c-8.8838-27.332-25.5158-52.2831-48.0857-70.0507-20.5067-16.1434-46.4765-25.4749-71.942-24.3249A113.7621,113.7621,0,0,0,1003.343,542.11c-15.1272,7.22-28.7823,17.9292-42.097,29.406q-9.74-13.8174-19.3633-27.7114c28.3542-24.1167,61.308-43.2126,99.2481-43.853,35.8959-.6058,72.0839,11.2779,101.26,32.4067,32.8526,23.7916,56.7275,58.96,70.3255,97.033,18.6914,52.4857,36.2921,105.2947,52.2494,158.6789,3.3423,11.177,11.1084,19.2917,23.2019,19.4419Q1294.2338,828.3213,1299.9985,849.21Z"/><path class="cls-10" d="M1087.6956,667.4206c-24.1572.1257-50.133,3.9216-70.3327,19.6948-15.7389,12.29-23.0824,32.89-19.8444,52.1928a93.2115,93.2115,0,0,0,11.0973,30.3358c5.3638,8.8694,13.3617,18.77,21.64,25.05,9.6669,7.3333,19.2931,13.11,30.2812,17.1538a109.4728,109.4728,0,0,0,35.7084,6.5917c21.8368.504,46.0007-2.8934,66.0139-13.18,15.2993-7.8635,30.8878-18.9462,37.76-36.1a29.101,29.101,0,0,0,5.5265-13.2825,30.9563,30.9563,0,0,0-.7931-13.29q-8.4438-28.7715-17.5575-57.3426c-16.58-5.3757-33.3842-10.1912-50.1768-13.2575A271.1352,271.1352,0,0,0,1087.6956,667.4206Zm92.8633,68.6308c.8989,3.1537,2.0641,13.2417,1.4929,16.9283-.5693,3.6746-3.005,7.5334-5.3547,10.6823-5.7836,12.5144-18.8477,17.7273-30.3225,23.4769-15.302,7.6672-32.41,12.5708-49.5363,12.5482-9.204-.0121-19.68-2.92-28.1753-6.1911-8.6815-3.3427-15.7-4.5807-22.4949-10.0949a77.1641,77.1641,0,0,1-17.0317-19.33,65.07,65.07,0,0,1-9.0033-23.4906c-2.5687-15.053,2.8218-31.1957,15.041-40.5621,15.1939-11.6465,36.479-14.483,55.126-15.2382a228.1645,228.1645,0,0,1,36.7741,1.0023c14.3789,1.7694,27.5844,6.2226,40.9434,11.8229Q1174.4171,716.7864,1180.5589,736.0514Z"/><g class="cls-11"><path class="cls-12" d="M1265.242,788.069c-15.9644-53.3853-33.5718-106.1955-52.27-158.6821-13.6032-38.0759-37.4841-73.2439-70.342-97.0349-29.1816-21.129-65.3752-33.0129-101.276-32.4071-37.9412.64-70.8954,19.734-99.2493,43.8532q9.627,13.8995,19.37,27.7121c13.3137-11.4773,26.9681-22.1869,42.0946-29.4063a113.7635,113.7635,0,0,1,44.327-10.7157c25.4688-1.15,51.442,8.1819,71.9528,24.3254,22.5737,17.7673,39.21,42.7186,48.0986,70.0523q5.183,15.4287,10.2778,30.8848a267.6482,267.6482,0,0,0-51.0714-12.97,334.2248,334.2248,0,0,0-52.4934-4.3356c-17.7053.11-36.3281,1.9348-53.123,7.6865-13.886,4.7556-27.2707,11.1841-38.7976,21.1509a81.9623,81.9623,0,0,0-27.7616,74.173c2.2768,15.206,6.5861,29.7443,13.7967,42.8537,7.3689,13.3973,17.5838,25.3632,29.334,35.6366a136.011,136.011,0,0,0,42.0973,24.4582c16.1406,5.9011,33.6735,9.4386,50.7842,9.2689,28.8138-.2858,55.638-4.7459,81.63-16.6591,21.8142-9.9984,40.7068-27.401,51.6924-49.3961q4.6116,14.1477,9.0346,28.3589a47.1474,47.1474,0,0,0,17.4867,25.1066c9.0968,6.5062,20.3377,9.2235,31.3731,9.2269a111.389,111.389,0,0,0,18.075-2.0016q-5.7665-20.895-11.8366-41.698C1276.3525,807.3605,1268.5856,799.2457,1265.242,788.069Zm-60.2192-45.483a30.9559,30.9559,0,0,1,.795,13.29,29.0987,29.0987,0,0,1-5.5245,13.2829c-6.8692,17.1537-22.456,28.2368-37.7541,36.1-20.0124,10.2869-44.1757,13.6846-66.0114,13.1806a109.4907,109.4907,0,0,1-35.71-6.5916c-10.9891-4.0438-20.6164-9.821-30.2848-17.1543-8.28-6.2805-16.28-16.18-21.6459-25.05a93.2368,93.2368,0,0,1-11.1037-30.3365c-3.2421-19.3016,4.0965-39.903,19.8346-52.1941,20.1985-15.7745,46.1754-19.5694,70.332-19.6953a271.1568,271.1568,0,0,1,49.3258,4.5669c16.7942,3.0664,33.6,7.8816,50.181,13.2574Q1196.5377,713.82,1205.0228,742.586Z"/></g><g class="cls-11"><path class="cls-13" d="M657.079,652.5759q44.2658-.5982,88.5334-1.0237c-13.2635-39.4041-26.0033-78.9354-37.3356-118.9426Q684.6869,593.4858,657.079,652.5759Z"/><path class="cls-14" d="M728.8415,421.8477c-10.9674.2108-16.4551.3153-27.4651.5212C644.5511,567.6576,572.7034,703.26,488.1509,834.293q19.0164-.348,38.0342-.6114c25.9591-42.24,50.9581-84.99,74.5072-128.6228q97.8393-1.1311,195.6847-1.1579c16.8,43.0962,33.6184,86.1825,49.9579,129.4561q19.9323.1571,39.8644.3379C829.9505,698.3636,764.0142,564.7429,728.8415,421.8477ZM601.974,688.9842c43.4977-82.3764,80.3049-167.4438,112.4867-254.83,19.4327,86.8694,50.1158,170.25,81.5673,253.3519Q698.9974,687.81,601.974,688.9842Z"/><path class="cls-10" d="M601.974,688.9842q97.0233-1.2633,194.054-1.478c-31.4515-83.1015-62.1346-166.4825-81.5673-253.3519C682.2789,521.54,645.4717,606.6078,601.974,688.9842Zm55.105-36.4083Q684.767,593.45,708.2768,532.61c11.3323,40.0072,24.0721,79.5385,37.3356,118.9426Q701.3446,651.9834,657.079,652.5759Z"/><path class="cls-10" d="M748.636,385.9362q-30.5683.31-61.1369.57c-71.4523,174.4908-162.9834,334.4051-268.312,490.5782q61.7042-1.7643,123.4247-2.6161c26.83-43.6059,52.6615-87.74,76.9156-132.8341q75.6051-.54,151.2112-.4057c15.5942,44.0507,30.9684,88.17,45.6817,132.5241q65.904.38,131.806.9958C877.6575,714.74,789.0635,557.2417,748.636,385.9362Zm47.741,317.9647q-97.8454.1235-195.6847,1.1579c-23.5491,43.6328-48.5481,86.3831-74.5072,128.6228q-19.0177.2646-38.0342.6114c84.5525-131.033,156.4-266.6354,213.2255-411.9241,11.01-.2059,16.4977-.31,27.4651-.5212,35.1727,142.8952,101.109,276.5159,157.3578,411.8472q-19.9321-.18-39.8644-.3379C829.9954,790.0834,813.1769,746.9971,796.377,703.9009Z"/></g></g></g><g id="Layer_2_copy_10" data-name="Layer 2 copy 10"><path class="cls-10" d="M1312.7059,790.2313c-22.5114-.85-32.1221-32.6846-37.9765-49.67q-19.978-61.5492-42.2228-122.3c-16.7077-44.9773-48.0771-82.7124-86.7636-110.5921-33.7948-24.3546-75.3144-32.4169-116.1924-31.5008-43.9869.9858-78.12,30.0046-108.4808,58.8588Q942.1289,564.611,963.938,593.63c12.9461-10.9879,26.3377-22.95,40.7807-31.28,13.8057-7.9635,29.8262-12.1073,45.2261-13.8266,12.7009-1.418,29.6917-.0228,41.5981,6.2821,15.18,8.0382,29.8158,21.4022,38.6929,36.39q7.514,16.0725,14.964,32.1747c-18.5683-4.7544-38.3135-6.6935-57.0838-8.64-15.7511-1.6334-31.0981-1.4437-46.8457,1.619-14.4107,2.8026-30.5637,4.3835-43.488,11.0558-13.9157,7.184-26.7807,17.9265-38.57,28.46-13.1965,11.79-21.5939,29.9335-28.3044,46.1284-6.3719,15.3781-2.1869,34.355-.4185,50.1648,1.92,17.1669,6.514,34.6974,14.7714,50.0174C953.683,817.8,964.9067,832.47,978.55,843.9457a168.21,168.21,0,0,0,48.91,28.7132c18.9452,7.1179,39.486,10.5334,59.8423,10.8314,32.0277.469,63.3242-5.8177,94.0363-17.09,18.3033-6.718,29.9117-22.8115,38.7756-39.4286,1.17,3.4332,1.7526,5.1514,2.9111,8.5907,7.9229,18.3708,28.7735,28.3512,46.3044,35.058.2431.093.49.1894.7363.2815a135.1507,135.1507,0,0,0,42.8331,8.2824c4.9007.16,17.2479-.7785,26.3115-2.3852Q1326.7045,833.2763,1312.7059,790.2313ZM1299.9985,849.21a111.4075,111.4075,0,0,1-18.0756,2.0016c-11.035-.0038-22.2762-2.7209-31.3725-9.2275a47.1369,47.1369,0,0,1-17.4833-25.1066q-4.4184-14.2088-9.0305-28.3591c-10.9889,21.9954-29.8843,39.3974-51.7,49.3957-25.9934,11.9127-52.8186,16.373-81.6336,16.6587-17.11.1695-34.6425-3.3678-50.7825-9.2693a135.978,135.978,0,0,1-42.0921-24.4578c-11.7478-10.2733-21.96-22.24-29.326-35.6362-7.2081-13.11-11.5139-27.6478-13.7872-42.853a81.9748,81.9748,0,0,1,27.776-74.1711c11.5284-9.9662,24.9134-16.3951,38.8-21.1505,16.7946-5.7512,35.4168-7.5765,53.1217-7.686a334.1866,334.1866,0,0,1,52.49,4.3354,267.6132,267.6132,0,0,1,51.0667,12.97q-5.0928-15.4575-10.2733-30.8839c-8.8838-27.332-25.5158-52.2831-48.0857-70.0507-20.5067-16.1434-46.4765-25.4749-71.942-24.3249A113.7621,113.7621,0,0,0,1003.343,542.11c-15.1272,7.22-28.7823,17.9292-42.097,29.406q-9.74-13.8174-19.3633-27.7114c28.3542-24.1167,61.308-43.2126,99.2481-43.853,35.8959-.6058,72.0839,11.2779,101.26,32.4067,32.8526,23.7916,56.7275,58.96,70.3255,97.033,18.6914,52.4857,36.2921,105.2947,52.2494,158.6789,3.3423,11.177,11.1084,19.2917,23.2019,19.4419Q1294.2338,828.3213,1299.9985,849.21Z"/><path class="cls-10" d="M1087.6956,667.4206c-24.1572.1257-50.133,3.9216-70.3327,19.6948-15.7389,12.29-23.0824,32.89-19.8444,52.1928a93.2115,93.2115,0,0,0,11.0973,30.3358c5.3638,8.8694,13.3617,18.77,21.64,25.05,9.6669,7.3333,19.2931,13.11,30.2812,17.1538a109.4728,109.4728,0,0,0,35.7084,6.5917c21.8368.504,46.0007-2.8934,66.0139-13.18,15.2993-7.8635,30.8878-18.9462,37.76-36.1a29.101,29.101,0,0,0,5.5265-13.2825,30.9563,30.9563,0,0,0-.7931-13.29q-8.4438-28.7715-17.5575-57.3426c-16.58-5.3757-33.3842-10.1912-50.1768-13.2575A271.1352,271.1352,0,0,0,1087.6956,667.4206Zm92.8633,68.6308c.8989,3.1537,2.0641,13.2417,1.4929,16.9283-.5693,3.6746-3.005,7.5334-5.3547,10.6823-5.7836,12.5144-18.8477,17.7273-30.3225,23.4769-15.302,7.6672-32.41,12.5708-49.5363,12.5482-9.204-.0121-19.68-2.92-28.1753-6.1911-8.6815-3.3427-15.7-4.5807-22.4949-10.0949a77.1641,77.1641,0,0,1-17.0317-19.33,65.07,65.07,0,0,1-9.0033-23.4906c-2.5687-15.053,2.8218-31.1957,15.041-40.5621,15.1939-11.6465,36.479-14.483,55.126-15.2382a228.1645,228.1645,0,0,1,36.7741,1.0023c14.3789,1.7694,27.5844,6.2226,40.9434,11.8229Q1174.4171,716.7864,1180.5589,736.0514Z"/><g class="cls-11"><path class="cls-12" d="M1265.242,788.069c-15.9644-53.3853-33.5718-106.1955-52.27-158.6821-13.6032-38.0759-37.4841-73.2439-70.342-97.0349-29.1816-21.129-65.3752-33.0129-101.276-32.4071-37.9412.64-70.8954,19.734-99.2493,43.8532q9.627,13.8995,19.37,27.7121c13.3137-11.4773,26.9681-22.1869,42.0946-29.4063a113.7635,113.7635,0,0,1,44.327-10.7157c25.4688-1.15,51.442,8.1819,71.9528,24.3254,22.5737,17.7673,39.21,42.7186,48.0986,70.0523q5.183,15.4287,10.2778,30.8848a267.6482,267.6482,0,0,0-51.0714-12.97,334.2248,334.2248,0,0,0-52.4934-4.3356c-17.7053.11-36.3281,1.9348-53.123,7.6865-13.886,4.7556-27.2707,11.1841-38.7976,21.1509a81.9623,81.9623,0,0,0-27.7616,74.173c2.2768,15.206,6.5861,29.7443,13.7967,42.8537,7.3689,13.3973,17.5838,25.3632,29.334,35.6366a136.011,136.011,0,0,0,42.0973,24.4582c16.1406,5.9011,33.6735,9.4386,50.7842,9.2689,28.8138-.2858,55.638-4.7459,81.63-16.6591,21.8142-9.9984,40.7068-27.401,51.6924-49.3961q4.6116,14.1477,9.0346,28.3589a47.1474,47.1474,0,0,0,17.4867,25.1066c9.0968,6.5062,20.3377,9.2235,31.3731,9.2269a111.389,111.389,0,0,0,18.075-2.0016q-5.7665-20.895-11.8366-41.698C1276.3525,807.3605,1268.5856,799.2457,1265.242,788.069Zm-60.2192-45.483a30.9559,30.9559,0,0,1,.795,13.29,29.0987,29.0987,0,0,1-5.5245,13.2829c-6.8692,17.1537-22.456,28.2368-37.7541,36.1-20.0124,10.2869-44.1757,13.6846-66.0114,13.1806a109.4907,109.4907,0,0,1-35.71-6.5916c-10.9891-4.0438-20.6164-9.821-30.2848-17.1543-8.28-6.2805-16.28-16.18-21.6459-25.05a93.2368,93.2368,0,0,1-11.1037-30.3365c-3.2421-19.3016,4.0965-39.903,19.8346-52.1941,20.1985-15.7745,46.1754-19.5694,70.332-19.6953a271.1568,271.1568,0,0,1,49.3258,4.5669c16.7942,3.0664,33.6,7.8816,50.181,13.2574Q1196.5377,713.82,1205.0228,742.586Z"/></g><g class="cls-11"><path class="cls-13" d="M657.079,652.5759q44.2658-.5982,88.5334-1.0237c-13.2635-39.4041-26.0033-78.9354-37.3356-118.9426Q684.6869,593.4858,657.079,652.5759Z"/><path class="cls-14" d="M728.8415,421.8477c-10.9674.2108-16.4551.3153-27.4651.5212C644.5511,567.6576,572.7034,703.26,488.1509,834.293q19.0164-.348,38.0342-.6114c25.9591-42.24,50.9581-84.99,74.5072-128.6228q97.8393-1.1311,195.6847-1.1579c16.8,43.0962,33.6184,86.1825,49.9579,129.4561q19.9323.1571,39.8644.3379C829.9505,698.3636,764.0142,564.7429,728.8415,421.8477ZM601.974,688.9842c43.4977-82.3764,80.3049-167.4438,112.4867-254.83,19.4327,86.8694,50.1158,170.25,81.5673,253.3519Q698.9974,687.81,601.974,688.9842Z"/><path class="cls-10" d="M601.974,688.9842q97.0233-1.2633,194.054-1.478c-31.4515-83.1015-62.1346-166.4825-81.5673-253.3519C682.2789,521.54,645.4717,606.6078,601.974,688.9842Zm55.105-36.4083Q684.767,593.45,708.2768,532.61c11.3323,40.0072,24.0721,79.5385,37.3356,118.9426Q701.3446,651.9834,657.079,652.5759Z"/><path class="cls-10" d="M748.636,385.9362q-30.5683.31-61.1369.57c-71.4523,174.4908-162.9834,334.4051-268.312,490.5782q61.7042-1.7643,123.4247-2.6161c26.83-43.6059,52.6615-87.74,76.9156-132.8341q75.6051-.54,151.2112-.4057c15.5942,44.0507,30.9684,88.17,45.6817,132.5241q65.904.38,131.806.9958C877.6575,714.74,789.0635,557.2417,748.636,385.9362Zm47.741,317.9647q-97.8454.1235-195.6847,1.1579c-23.5491,43.6328-48.5481,86.3831-74.5072,128.6228q-19.0177.2646-38.0342.6114c84.5525-131.033,156.4-266.6354,213.2255-411.9241,11.01-.2059,16.4977-.31,27.4651-.5212,35.1727,142.8952,101.109,276.5159,157.3578,411.8472q-19.9321-.18-39.8644-.3379C829.9954,790.0834,813.1769,746.9971,796.377,703.9009Z"/></g></g></g></svg>