<?xml version="1.0" encoding="utf-8"?><svg xmlns="http://www.w3.org/2000/svg" preserveAspectRatio="xMidYMid meet"  xmlns:xlink="http://www.w3.org/1999/xlink" width="43.7539" height="33.9168" viewBox="0 0 43.7539 33.9168"><defs><style>.cls-1{fill:none;}.cls-2{fill:#55bbe1;}.cls-3{fill:#fff56d;}.cls-4{fill:#404968;}.cls-5{fill:#f0ead8;}.cls-6{fill:#cddfc7;}.cls-7{fill:#f8b5ba;}.cls-8{fill:#fcaf17;}.cls-9{isolation:isolate;}.cls-10{fill:#60f;}.cls-11{fill:url(#linear-gradient);}.cls-12{mix-blend-mode:exclusion;fill:url(#Coloured_Curves);}.cls-13{fill:#6f0;}</style><linearGradient id="linear-gradient" x1="36.2902" y1="4.9643" x2="42.0052" y2="1.6648" gradientUnits="userSpaceOnUse"><stop offset="0.1382" stop-color="#60f"/><stop offset="0.8502" stop-color="#f60"/></linearGradient><pattern id="Coloured_Curves" data-name="Coloured Curves" width="283.4646" height="283.4646" patternTransform="translate(3.3508 53.7926) scale(0.0741)" patternUnits="userSpaceOnUse" viewBox="0 0 283.465 283.465"><rect class="cls-1" width="283.4646" height="283.4646"/><path class="cls-2" d="M14.9478,292.8915c1.29-1.2683,2.6569-2.4736,4.0018-3.6962a4.2661,4.2661,0,0,1,2.7662-.9279c2.6863-.1679,5.122.83,7.3683,1.7617a69.4327,69.4327,0,0,1,7.4331,3.2526,2.1,2.1,0,0,0,1.5685.25c1.171-.6343,1.789.2148,2.57.61.2236-.2432.42-.4568.616-.6708.21.1643.3883.3032.5458.42a2.12,2.12,0,0,0,1.1521.5323c.0143.0012.0262.0055.0406.0063a2.8932,2.8932,0,0,0,.3649-.0042c.27-.0179.6007-.0637,1.0419-.124a3.094,3.094,0,0,1,1.2988-.0369c1.9632.66,3.8247-.0474,5.5718-.5295a44.0857,44.0857,0,0,1,7.1-1.5647,6.9594,6.9594,0,0,0,1.9033-.5395,35.4077,35.4077,0,0,0,4.8155-2.1639c1.7711-1.0793,4.1276-2.0044,3.1987-4.6625-.0267-.0765.0638-.1907.11-.2832.5835-1.16-.1575-1.882-1.2208-2.0123-1.016-.1246-.89-1.0932-1.76-1.312-.9239.38-1.9317.7938-3.07,1.2615.5063,2.04-1.4094,3.0182-2.1052,4.485l-1.5284-.4821a8.844,8.844,0,0,1-2.4211,1.5822c-2.2135.5673-4.6247.528-6.5841,1.8453-2.4961-.5017-4.8118.6636-7.3283.5928a19.6742,19.6742,0,0,1-7.1326-1.3008c-1.9434-.8022-3.8861-1.6111-5.8653-2.3364-1.1325-.4152-2.3909-.5639-3.4993-1.0177-2.5149-1.0293-5.0625-.7152-7.5971-.26a4.6491,4.6491,0,0,0-2.3724,1.09c-1.8891,1.9365-4.5241,3.4288-4.9624,6.5184.3264.4116.7647.9637,1.1674,1.4715A4.4635,4.4635,0,0,0,14.9478,292.8915Z"/><path class="cls-3" d="M164.3466,74.9566c-1.0948,1.7621-2.1878,3.5245-3.29,5.302-1.7521.0926-3.4837,1.3246-5.346.1836-.1422-.0871-.5978.1986-.8812.351-.4534.2437-.8842.5211-1.5861.94a15.1362,15.1362,0,0,0-.4872-2.1933,1.3208,1.3208,0,0,0-1.9063-.5967c-.77.4764-1.4343,1-2.4042.4267a1.169,1.169,0,0,1-.0642-.2758c-.0566-.5833.4978-.7986,1.0042-1.0492-.4654-.5644-.9327-1.1315-1.4583-1.7691l-1.7448,1.3406a11.653,11.653,0,0,1-2.1063-.9468c-2.1035-1.5117-4.5818-2.466-6.7917-3.7737-3.1357-1.8556-6.5132-2.3144-10.0723-2.5961-3.7407-.2961-6.82.71-9.1808,3.3519a6.2035,6.2035,0,0,1-1.8651,1.49,4.3212,4.3212,0,0,1-1.1263.3731,4.8523,4.8523,0,0,1-1.3041.0546l0,0a10.3566,10.3566,0,0,0-.552-1.1488.9985.9985,0,0,0-.2741-.2668c-.3065-.1931-1.0126.1289-1.6411.2386a4.2922,4.2922,0,0,1-.1029-3.0217c.115-.3809.2056-.995.4686-1.0755,1.5414-.4717,1.0327-1.7573,1.4355-2.6662l.0014-.0039,1.3638.695c1.2031-.7818.9164-1.9923,1.1852-3.0276,1.1713.1644,1.1713.1644,1.9009.9734l2.3772-2.1435a15.3048,15.3048,0,0,1,1.595.8481c1.7284,1.1845,2.7791,1.0783,4.2311-.4953.2049-.2221.3749-.47.58-.73.9238.8218,1.7158,1.7291,3.1073.6582a1.7468,1.7468,0,0,1,1.55-.0213c1.1243,1.0522,2.5944,1.0179,4.2447,1.1665a8.8038,8.8038,0,0,0-.1876,1.4874c.0776,1.44,1.1605,1.9394,2.47,1.1634.3591-.213.69-.4649,1.2994-.88.2937.9568.53,1.7259.666,2.1694a5.0188,5.0188,0,0,0,.9806.48c1.7432.2283,3.5976.1368,4.7978,1.6945.1766.2294.8161.2191,1.2445.2314.9984.0288,1.9987.0037,3.1094,0l2.5963,2.0662,3.4882.3238c1.1988-.62,1.3856-2.4392,3.2289-1.967.0523.0134.2382-.2809.3048-.45A1.2428,1.2428,0,0,1,161.13,71.34c.1708.119.3468.2357.5246.3524.3109.2042.6264.4084.9269.6253A3.59,3.59,0,0,1,164.3466,74.9566Zm-50.1277-5.276c.024-.0235-.087-.16-.1358-.2445q-.2157.1629-.4308.3265c.0349.09.0693.18.1038.27A4.1555,4.1555,0,0,0,114.2189,69.6806Zm2.443-1.3566c-.8015-.0193-1.21.2721-1.0234,1.04C116.4582,69.3976,116.88,69.1164,116.6619,68.324Zm14.358-1.1684c-.0378-.2421-.0757-.4843-.11-.704l-.8052-.016a3.08,3.08,0,0,0,.3269.7647C130.4857,67.2723,130.8158,67.1753,131.02,67.1556Zm18.85,10.3428a.7283.7283,0,0,0-.2659-.0572c-.078.0144-.1982.0947-.2.1484a2.4,2.4,0,0,0,.0427.4174.4828.4828,0,0,0-.0512.0332c.0087.0147.0642.0959.0642.0959-.0051-.0431-.0068-.0861-.013-.1291a.8787.8787,0,0,0,.1948-.1391A2.7065,2.7065,0,0,0,149.87,77.4984Zm10.2871-1.8873-2.3685-.4837a2.0757,2.0757,0,0,0,.7962,2.4189c.1213.0993.3972.0452.745.0739Zm1.3695.0878c.0235-.0218-.0853-.16-.133-.2452q-.2171.1493-.4335.299.0582.1332.1159.2651A3.7349,3.7349,0,0,0,161.527,75.6989Z"/><path class="cls-4" d="M207.5225,38.8554c.3177-.6371.7548-1.2258,1.2036-1.9394,1.5665.3871,1.5813,1.6031,2.0866,2.6909a11.1134,11.1134,0,0,0,.89-.67,1.4193,1.4193,0,0,1,1.8148-.2443,1.4546,1.4546,0,0,1,.8,1.5687,3.6886,3.6886,0,0,1-.7165,1.9506c-.665.6288-.3858.889-.0076,1.4784.52.81-.3747,1.2268-1.1122,1.7756l-1.8889-.9234c-.937.9143.2567.9147.7087,1.3825-.4114.7111-.8542,1.477-1.3438,2.3236l-1.1865-.6778c-.231.46-.4555.9021-.6754,1.3459-.6469,1.3057-.89,1.3581-2.4874.5336-.3423.25-.678.5076-1.0323.7427-.0728.0482-.2152.0114-.4043.0155-.2676-.34-.56-.7116-.8506-1.08a13.2685,13.2685,0,0,1-2.9461.8052,5.2329,5.2329,0,0,1-3.2168-.5141,12.7615,12.7615,0,0,0-3.4806-1.0826c-1.1425-.2721-2.06-1.1345-3.4363-.8762a4.2716,4.2716,0,0,1-1.9181-.5156,27.4568,27.4568,0,0,0-6.2014-1.2115,10.078,10.078,0,0,1-2.013-.1951c-3.1051-1.0723-6.4093-.9971-9.6223-1.4279-1.3171-.1767-2.6651-.166-4.0376-.2428-1.8044,1.0044-3.5147,2.133-3.73,4.2313-1.0137.1154-2.0161-.7622-2.6743.5761-.2268.4612-1.3615.56-2.0987.8306-1.1523-.6042.1632-1.6869-.5455-2.4042-1.3174-1.3336-1.16-2.8854-.7746-4.47a6.1638,6.1638,0,0,0,.0762-.9657c1.0344-.8752,2.0811-1.7878,3.1643-2.6637a3.6408,3.6408,0,0,1,1.3673-.8369c1.7171-.374,3.4651-.6336,5.3024-.9546.45,1.39-1.7119,2.105-.1917,3.46.3478-.474.6374-.8692.9272-1.2644q.8067.0746,1.6092.1481a15.9877,15.9877,0,0,1,.7058-1.4563.63.63,0,0,1,.5624-.1064.504.504,0,0,1,.1889.4956c-.12.26-.418.4545-.5321.7153a.5189.5189,0,0,0,.2513.4819.6729.6729,0,0,0,.5815-.1428c.3172-.394.5633-.8345.8968-1.35.3971.1791.8106.54,1.132.4831,2.4786-.4428,3.5669.6139,3.76,2.9835.8278-.8538.4869-2.2158,1.9984-2.4q.4992.3528,1.2807.9047c.9023-.2065,1.8625-.4913,2.8483-.632a2.7918,2.7918,0,0,1,2.3364.5248c.6569.5069,1.8708.4265,2.8371.6095,2.3479.4447,2.3479.4455,3.7445,2.034l1.5252-.6972.8585,1.1606c1.91-.6254,3.8136-1.0786,5.5613.3423a1.6525,1.6525,0,0,0,1.52.2822,8.4938,8.4938,0,0,1,2.023.0987,3.7545,3.7545,0,0,0,.5035-.2537,14.2135,14.2135,0,0,0,2.778-2.0182A12.6437,12.6437,0,0,0,207.5225,38.8554Zm-46.1857,1.0063a1.7855,1.7855,0,0,0,.3364-.0944c.0184-.0087-.0376-.1447-.0592-.2218-.0793.0224-.1911.0242-.2291.0727C161.3371,39.6793,161.35,39.7788,161.3368,39.8617Zm-1.04,7.3633c-.1814-.2113-.34-.4111-.5233-.59-.0227-.0222-.2647.0869-.2607.1009.0713.2447.1652.484.2544.7245C159.911,47.3966,160.0545,47.3327,160.2971,47.225ZM209.5417,46.16c-.0022.0636-.0341.1563,0,.1844a.7722.7722,0,0,0,.2443.0888q.0108-.145.0213-.29Z"/><path class="cls-5" d="M85.5437,52.2c.9793-.81,1.9411-1.6375,3.0057-2.5372,1.8235,1.1432,4.2409,1.22,5.0081,3.2873a3.8911,3.8911,0,0,1-2.4946,2.5278c-1.3837.4557-2.3605,1.6854-4.12,1.5023a2.3969,2.3969,0,0,0-2.424,1.813c-.5,1.4623-2.1494,1.2421-3.1808,1.9161-1.2521.8183-2.5262.264-3.6544-.5077l-1.5357,1.4079c-.3258-.2663-.6433-.5259-1.132-.9252-.3755.0982-.8909.2164-1.3939.3677a5.2356,5.2356,0,0,1-3.8954-.1105c-.2787-.1316-.745-.3442-.8877-.2444-1.8159,1.2706-2.816-.4154-4.1454-1.0345l-1.6646,1.0192c-.064-.1084-.15-.2244-.2343-.3394-.0315-.0427-.0536-.0832-.0872-.1262-.0883-.113-.19-.2242-.2905-.3351-.0406-.0451-.0759-.0919-.1178-.1359l-.0106-.01a5.0511,5.0511,0,0,0-.8846-.7518c-.3364.3805-.6748.7631-1.0408,1.1766a57.5619,57.5619,0,0,1-5.7425-2.0515c-2.0008-.8319-4.2086-1.2774-6.1992-2.2144a4.1586,4.1586,0,0,0-1.6431-.1219c-.5607.0006-1.2364.2634-1.6626.0646-2.0774-.9685-3.8927-.2242-5.7383.5248a1.32,1.32,0,0,1-.34.0251l.0694-.0864-.2338-.0151c-.1148-.0736-.2283-.1492-.3482-.2151-.0128-.0069-.1148.1178-.1751.1814l.5233.0337c.0444.0285.0894.0552.1341.0829-.5.3564-1.1471.653-1.379,1.1178-.4143.831-1.3419.6286-2.1079,1.1841l-.087,2.0184c-.269.2124-.3482.3287-.4263.3283-.7733-.0042-1.5476-.0061-2.3186-.052-.79-.0471-.9225,1.3065-1.9532.7178a3.1342,3.1342,0,0,0-.6275-.2008,13.51,13.51,0,0,0-.6527-1.8051,2.0107,2.0107,0,0,0-.9754-.8336c-.4546.94.4781,1.3318.7229,1.9464.2867.72-.1149,1.1494-.8857,1.6072a9.6456,9.6456,0,0,0-.73-1.4263c-.3541-.4863-1.1885-.9338-.6518-1.5276.7036-.778-.2265-1.3557-.0474-1.9605a7.4794,7.4794,0,0,1,1.02-1.5032c.3212-.5165.578-1.0655.93-1.7271L29.95,54.63c.2544-.63.3212-1.6.8028-1.8142.9226-.4112,1.301-1.8527,2.97-1.2115a17.7,17.7,0,0,0-.5678,2.1633c-.0638.4466.2877.7259.9344.563a7.3862,7.3862,0,0,1,.8156-2.4507,1.5586,1.5586,0,0,1,.4123-.3593,5.0835,5.0835,0,0,1,.8452-.3971c.3038-.1188.6151-.2327.8917-.3685.3177.2567.6353.5137.9249.7479a.9342.9342,0,0,0,.4982-.2748.6879.6879,0,0,0,.1155-.1892,1.1364,1.1364,0,0,0,.0692-.2646,1.8779,1.8779,0,0,1,.18-.79c.1766-.1092.3409-.2883.5321-.3163a14,14,0,0,1,7.4807.6537,7.5312,7.5312,0,0,0,2.59.51A3.8186,3.8186,0,0,1,52.46,51.8587a1.8722,1.8722,0,0,0,1.2042.477,4.8779,4.8779,0,0,1,.6916.0627c.09.0147.174.0413.2617.0606.1275.0281.2578.0514.38.0883.16.0481.3126.1087.4651.17.0442.0176.0911.0306.135.0492.1831.0782.3609.1656.536.2577l.0338.0162c.7451.396,1.43.896,2.1486,1.33l-.0012.0011-.0106.01a1.0549,1.0549,0,0,0-.532-.1385,3.4949,3.4949,0,0,0-1.0007.44c-.0638.04.0668.3317.1079.5074.3322-.1491.6744-.283.9921-.4536a2.5107,2.5107,0,0,0,.4327-.3557c.0237.0092.0474.02.0709.0279l.0091.0036c.0114.0092-.0587-.0511-.0587-.0511,1.1841-.5539,1.49,1.2394,2.6313.8,2.7671,1.0616,5.7213.968,8.63,1.089,2.11.0878,4.2553.4473,6.2932-.5227.43-.205,1.1187.087,1.6467-.0188A17.7368,17.7368,0,0,0,85.5437,52.2ZM32.7131,58.6161c.0283-.0546-.0467-.1526-.0749-.2308q-.21.0691-.4209.1389v.0005q.1061.2306.2124.46A2.4109,2.4109,0,0,0,32.7131,58.6161Zm1.45-.18c.0066-.0082-.1414-.16-.1877-.1486a2.8941,2.8941,0,0,0-.4513.1883q.1524.162.3061.3235l.0005,0A4.9121,4.9121,0,0,0,34.1635,58.4366Zm56.48-6.2615c.2839.1314.4853.2926.5768.2522a.66.66,0,0,0,.3487-.4126c.0169-.0846-.3011-.3239-.3442-.3013A3.537,3.537,0,0,0,90.6436,52.1751Z"/><path class="cls-3" d="M202.7365,11.43a37.3033,37.3033,0,0,0-5.1444.9263,18.46,18.46,0,0,0-4.9851,2.3162c-.2266-.2907-.5238-.6918-.844-1.0774-.309-.3722-.6416-.7283-.8857-1.0031-.8482.1136-.7751.6031-.9559.9474-.7085,1.3494-1.588,1.58-2.848.6394a.9963.9963,0,0,1-.2375-.2615,9.8089,9.8089,0,0,1-.4516-1.0192,5.1086,5.1086,0,0,1-.82-.5847,6.7588,6.7588,0,0,1,1.6354-2.2349,8.9577,8.9577,0,0,1,3.87-1.71c.2795-.0249.569-.0487.8645-.067.4432-.0274.9-.0423,1.3576-.0294a8.7656,8.7656,0,0,1,1.3623.137h0a6.3682,6.3682,0,0,0-.043,1.0221.8957.8957,0,0,0,.5315.1254,2.59,2.59,0,0,0,.4831-.93c.0162-.0723-.4786-.2391-.738-.3625A2.8519,2.8519,0,0,1,197.22,7.24c.748.1085,1.7748.6327,2.1627.3654.787-.5424,1.351-.2989,2.1266-.2474.6544.0434,1.359-.5254,2.1682-.8786,1.4678.4582,3.0863.8857,4.6366,1.4621,4.2446,1.5783,8.8617,2.0924,13.0721,3.7928a14.7745,14.7745,0,0,0,3.6372.5208c.2176.0265.4823-.11.6678-.0434,3.4085,1.2317,6.3435-.3123,9.3764-1.2788a7.1629,7.1629,0,0,1,1.27-.4143c3.042-.3588,4.9747-2.15,6.7512-4.1639a3.5129,3.5129,0,0,1,.9287-.8642,2.5914,2.5914,0,0,1,1.2574-.2369c.5766.03.65,1.0248,1.6361.6287.375-.1507,1.1585.4275,1.7041.7457.5507.3211,1.0371.7317,1.6336,1.1622-.5859,1.358-1.1391,2.6407-1.7346,4.0208-1.2186-.52-.0963-2.4539-2.07-2.4948-1.5578.9731-.7925,2.6556-1.1222,4.1979L242.23,15.03c-1.4511-.4693-.03-1.765-.9073-2.3626-1.785.4723-1.7877.4788-.8782,2.6193l-2.3856-.0835c-.18.3414-.4042.7645-.62,1.1734a35.4576,35.4576,0,0,0-5.6216.1591,6.3549,6.3549,0,0,1-3.5684-.2065,2.06,2.06,0,0,0-2.1486.2236c-.6762.4959-1.8741.4141-2.6871.56-1.0393-.7138-1.9271-1.3237-2.823-1.9349l-.0537.0044a.3692.3692,0,0,0,.051-.0062c-.0069-.0573-.01-.114-.0159-.1711.0244-.1194.05-.2385.0709-.3582l-.1066-.0245c.01.1273.023.255.0357.3827-.0121.059-.0229.1183-.0351.1773-.4187-.109-.9531-.4238-1.2375-.294-1.9946.91-3.9812.0553-5.9586.0294-.5373-.0071-1.0661-.5558-1.8931-1.0215l2.3263-1.5041a1.0078,1.0078,0,0,0-1.3459-.9155c-.5778.1885-.3207,1.2028-1.328,1.0043-.5043-.0994-1.0779.12-1.6027.0633-1.2565-.1352-2.5618.0512-3.7455-.598A3.5517,3.5517,0,0,0,202.7365,11.43Zm-15.7844.8111a.9293.9293,0,0,0-.1938-.0735,3.32,3.32,0,0,0-.2791.4937.5178.5178,0,0,0-.0186.22c-.031-.0058-.064-.0125-.0894-.016l.0913.0849c.0008-.0225-.001-.0458-.0019-.0689.1.0189.2087.041.2192.0211A4.77,4.77,0,0,0,186.9521,12.2406Z"/><path class="cls-6" d="M85.7291,17.66c1.6262-.5725,2.4532-1.6283,3.5689-2.8387l5.1162.5248,1.3811-1.4528a20.408,20.408,0,0,1,9.9322,1.9089,7.3364,7.3364,0,0,0,1.4255.7187c2.526.468,5.0839.8,7.6018,1.2986,1.9964.3953,3.9872.0971,5.9775.1809,1.7416.0734,3.5168-.3286,5.1916.5854.4508.2459,1.2939-.0141,1.9325-.1408,1.9688-.3907,3.9558-.7421,5.8782-1.2765a31.7358,31.7358,0,0,0,4.5353-1.7159c.3957-.1788.6027-.7866.79-1.2337.5843-1.396,1.3279-2.58,3.5284-2.4231.1128.3858.248.835.3749,1.2861a8.5989,8.5989,0,0,0,.41,1.4385c.293.6073,1.6657.5741,1.3232,1.5315-.3165.8844.98,1.0928.7229,2.0094a26.279,26.279,0,0,1-2.315,1.41c-.8682.4249-1.8215.708-2.7017,1.04a.4125.4125,0,0,1-.26-.1353c-.4356-.4859.0769-2.0093-1.4771-1.19.3146,1.7344-.7257,2.6059-2.44,3.0686-.3876-.1959-.7768-.3924-1.2229-.6177a6.2958,6.2958,0,0,1-6.8594,1.4307,2.55,2.55,0,0,0-2.82.1006c-.4266.3263-1.2818.1979-2.1243.2978-.2869-1.0836-.3118-2.3312-2.0184-2.5656-.3318.5012-.7185,1.0849-1.0858,1.639-1.2846.1769-1.4762-.7411-1.9226-1.4248-.17-.0059-.4546-.0851-.5235-.0078-.8018.8984-2.1058.5851-3.0835,1.052a.6757.6757,0,0,1-.5767-.177c-.6952-.9425-1.8279-.593-2.7674-.8186-1.4879-.3572-3.1332-.0978-4.49-1.0355-.3847-.2658-1.0707-.178-1.6186-.2508a3.5,3.5,0,0,1-1.2625-.185c-3.6968-2.32-7.2463-1.1966-10.7837.3228a6.7889,6.7889,0,0,0-.9334.6171l-1.723-1.2771c-1.8355.9562-.7413,3.59-2.933,4.067-.722-.6964-1.39-1.357-2.0783-2.0008C83.9152,20.0328,83.8824,18.31,85.7291,17.66Zm51.4979.8265c.4324.2391.9.4266,1.3581.6279-.003.0377.0012.0723-.0033.1105-.0038.0044.08-.0771.08-.0771l-.0766-.0334a1.0914,1.0914,0,0,0-.7893-1.3087.6992.6992,0,0,0-.5582.195C137.143,18.1048,137.1426,18.44,137.227,18.4868Zm-30.9048.0225a1.23,1.23,0,0,0,.0625.2676c.0291.0886.0631.1768.0913.2654l.0006,0c.0932-.0566.27-.1228.2632-.1672a3.2577,3.2577,0,0,0-.1726-.5536C106.4809,18.3842,106.3168,18.4535,106.3222,18.5093Z"/><path class="cls-2" d="M14.9478,9.4269c1.29-1.2683,2.6569-2.4736,4.0018-3.6962a4.2654,4.2654,0,0,1,2.7662-.9278c2.6863-.1679,5.122.83,7.3683,1.7616a69.4327,69.4327,0,0,1,7.4331,3.2526,2.1,2.1,0,0,0,1.5685.2506c1.171-.6343,1.789.2147,2.57.6095.2236-.2432.42-.4568.616-.6708.21.1643.3883.3032.5458.42a2.1209,2.1209,0,0,0,1.1521.5324c.0143.0012.0262.0054.0406.0062a2.8745,2.8745,0,0,0,.3649-.0042c.27-.0179.6007-.0637,1.0419-.124A3.094,3.094,0,0,1,45.7155,10.8c1.9632.66,3.8247-.0473,5.5718-.5295a44.0857,44.0857,0,0,1,7.1-1.5647,6.9594,6.9594,0,0,0,1.9033-.54,35.4077,35.4077,0,0,0,4.8155-2.1639C66.8775,4.9229,69.234,3.9977,68.3051,1.34c-.0267-.0766.0638-.1908.11-.2832.5835-1.16-.1575-1.8821-1.2208-2.0124-1.016-.1245-.89-1.0931-1.76-1.3119l-3.07,1.2615c.5063,2.0394-1.4094,3.0181-2.1052,4.485l-1.5284-.4822A8.8444,8.8444,0,0,1,56.31,4.5788c-2.2135.5673-4.6247.528-6.5841,1.8453-2.4961-.5017-4.8118.6636-7.3283.5927A19.67,19.67,0,0,1,35.2652,5.716C33.3218,4.9138,31.3791,4.105,29.4,3.38c-1.1325-.4152-2.3909-.5639-3.4993-1.0177-2.5149-1.0293-5.0625-.7151-7.5971-.26a4.65,4.65,0,0,0-2.3724,1.09C14.042,5.1282,11.407,6.6206,10.9687,9.71c.3264.4116.7647.9637,1.1674,1.4714A4.4631,4.4631,0,0,0,14.9478,9.4269Z"/><path class="cls-4" d="M150.3738,173.2c-1.0948,1.7621-2.1879,3.5244-3.29,5.302-1.7521.0926-3.4836,1.3246-5.346.1835-.1421-.0871-.5977.1986-.8812.351-.4533.2437-.8842.5211-1.5861.94a15.1215,15.1215,0,0,0-.4872-2.1934,1.3208,1.3208,0,0,0-1.9063-.5966c-.77.4764-1.4342,1-2.4041.4266a1.1688,1.1688,0,0,1-.0643-.2757c-.0566-.5834.4978-.7987,1.0042-1.0492-.4654-.5644-.9326-1.1315-1.4582-1.7691-.53.407-1.0931.84-1.7449,1.3406a11.66,11.66,0,0,1-2.1063-.9469c-2.1034-1.5116-4.5818-2.466-6.7917-3.7737-3.1357-1.8556-6.5132-2.3143-10.0722-2.5961-3.7408-.296-6.82.71-9.1809,3.352a6.2075,6.2075,0,0,1-1.865,1.49,4.3229,4.3229,0,0,1-1.1264.373,4.844,4.844,0,0,1-1.3041.0546h0a10.35,10.35,0,0,0-.5521-1.1489.9985.9985,0,0,0-.2741-.2668c-.3065-.1931-1.0126.129-1.641.2386a4.2914,4.2914,0,0,1-.1029-3.0216c.1149-.381.2056-.9951.4685-1.0755,1.5414-.4717,1.0328-1.7574,1.4355-2.6663l.0014-.0039,1.3638.6951c1.2031-.7819.9164-1.9924,1.1853-3.0277,1.1713.1645,1.1713.1645,1.9008.9735.7517-.6779,1.4866-1.34,2.3772-2.1436a15.3048,15.3048,0,0,1,1.595.8481c1.7284,1.1846,2.7791,1.0783,4.2312-.4953.2048-.222.3749-.47.58-.73.9238.8217,1.7158,1.7291,3.1072.6582a1.7467,1.7467,0,0,1,1.55-.0214c1.1242,1.0522,2.5943,1.0179,4.2447,1.1666a8.8039,8.8039,0,0,0-.1877,1.4873c.0777,1.44,1.16,1.94,2.47,1.1634.3591-.2129.69-.4648,1.2994-.88.2938.9569.53,1.726.6661,2.1694a5.013,5.013,0,0,0,.9806.48c1.7431.2283,3.5976.1368,4.7977,1.6945.1766.2294.8162.2192,1.2445.2315.9984.0288,1.9988.0037,3.1094,0l2.5963,2.0662,3.4882.3237c1.1989-.62,1.3856-2.4391,3.229-1.967.0522.0134.2381-.2809.3048-.45a1.2426,1.2426,0,0,1,1.9253-.5281c.1708.119.3469.2357.5246.3524.3109.2042.6264.4084.927.6253A3.59,3.59,0,0,1,150.3738,173.2Zm-50.1277-5.2761c.024-.0235-.0871-.16-.1358-.2445q-.2159.163-.4309.3265c.0349.09.0693.18.1039.27A4.1647,4.1647,0,0,0,100.2461,167.9243Zm2.443-1.3566c-.8015-.0193-1.21.2722-1.0235,1.0405C102.4853,167.6413,102.9069,167.36,102.6891,166.5677Zm14.3579-1.1683c-.0378-.2422-.0756-.4843-.11-.704l-.8053-.016a3.0777,3.0777,0,0,0,.3269.7646C116.5128,165.516,116.8429,165.419,117.047,165.3994Zm18.8505,10.3428a.7281.7281,0,0,0-.2659-.0573c-.078.0144-.1982.0947-.2.1484a2.4192,2.4192,0,0,0,.0427.4174.5164.5164,0,0,0-.0512.0332c.0087.0147.0643.0959.0643.0959-.0051-.043-.0069-.0861-.0131-.1291a.8817.8817,0,0,0,.1948-.139A2.7126,2.7126,0,0,0,135.8975,175.7422Zm10.2872-1.8874-2.3686-.4837a2.0757,2.0757,0,0,0,.7963,2.4189c.1213.0993.3971.0453.745.0739Zm1.3694.0878c.0235-.0218-.0853-.16-.133-.2451q-.2169.1491-.4335.299.0584.133.1159.2651A3.7277,3.7277,0,0,0,147.5541,173.9426Z"/><path class="cls-7" d="M203.8967,135.7618c.3176-.6372.7548-1.2258,1.2036-1.9395,1.5664.3872,1.5812,1.6031,2.0865,2.6909a11.09,11.09,0,0,0,.89-.67,1.42,1.42,0,0,1,1.8149-.2443,1.4547,1.4547,0,0,1,.8,1.5687,3.6884,3.6884,0,0,1-.7166,1.9506c-.6649.6289-.3857.889-.0076,1.4784.52.81-.3747,1.2268-1.1122,1.7757l-1.8888-.9234c-.937.9143.2566.9147.7086,1.3825-.4114.7111-.8541,1.4769-1.3437,2.3236l-1.1866-.6778c-.231.46-.4554.9021-.6754,1.3458-.6469,1.3057-.89,1.3581-2.4874.5336-.3423.25-.678.5076-1.0323.7427-.0728.0483-.2151.0114-.4043.0155-.2675-.34-.56-.7116-.8505-1.08a13.27,13.27,0,0,1-2.9462.8053,5.2331,5.2331,0,0,1-3.2168-.5142,12.7572,12.7572,0,0,0-3.4805-1.0825c-1.1426-.2722-2.06-1.1345-3.4363-.8763a4.2727,4.2727,0,0,1-1.9181-.5155,27.4567,27.4567,0,0,0-6.2015-1.2116,10.0647,10.0647,0,0,1-2.013-.1951c-3.105-1.0723-6.4092-.997-9.6222-1.4279-1.3172-.1766-2.6651-.1659-4.0376-.2427-1.8044,1.0044-3.5148,2.1329-3.7305,4.2312-1.0136.1154-2.0161-.7621-2.6742.5761-.2269.4613-1.3616.56-2.0988.8307-1.1522-.6043.1633-1.687-.5454-2.4042-1.3174-1.3337-1.1605-2.8855-.7747-4.47a6.1648,6.1648,0,0,0,.0762-.9657c1.0344-.8753,2.0811-1.7878,3.1643-2.6637a3.6414,3.6414,0,0,1,1.3673-.837c1.7172-.374,3.4652-.6336,5.3024-.9546.45,1.39-1.7119,2.105-.1916,3.46l.9272-1.2644q.8067.0744,1.6091.148a15.9584,15.9584,0,0,1,.7059-1.4562.6292.6292,0,0,1,.5623-.1065.5037.5037,0,0,1,.1889.4956c-.12.26-.418.4546-.532.7154-.0532.1217.1074.4245.2512.4819a.6728.6728,0,0,0,.5816-.1429c.3171-.3939.5633-.8345.8968-1.35.397.1792.8106.5405,1.132.4831,2.4786-.4428,3.5668.614,3.76,2.9835.8279-.8538.4869-2.2157,1.9985-2.4q.4992.3528,1.2806.9048c.9023-.2066,1.8626-.4913,2.8483-.6321a2.7918,2.7918,0,0,1,2.3364.5248c.6569.507,1.8709.4265,2.8372.61,2.3479.4447,2.3478.4455,3.7444,2.0341l1.5253-.6973c.2913.394.5733.7752.8584,1.1607,1.91-.6255,3.8136-1.0787,5.5613.3422a1.6526,1.6526,0,0,0,1.52.2822,8.4987,8.4987,0,0,1,2.023.0987,3.7473,3.7473,0,0,0,.5035-.2536,14.2075,14.2075,0,0,0,2.7781-2.0183A12.6476,12.6476,0,0,0,203.8967,135.7618Zm-46.1858,1.0062a1.7885,1.7885,0,0,0,.3365-.0943c.0184-.0088-.0376-.1447-.0592-.2219-.0793.0225-.1911.0242-.2292.0728C157.7113,136.5856,157.7243,136.6851,157.7109,136.768Zm-1.04,7.3633c-.1813-.2113-.34-.4111-.5232-.59-.0228-.0223-.2647.0869-.2607.1008.0712.2447.1652.484.2543.7245Zm49.2447-1.0648c-.0023.0637-.0341.1563,0,.1844a.7707.7707,0,0,0,.2442.0888q.0108-.1449.0213-.29Z"/><path class="cls-6" d="M92.96,140.9923c.8681-.9283,1.7167-1.8714,2.658-2.8994,1.9543.9016,4.3619.67,5.3861,2.6225a3.89,3.89,0,0,1-2.1524,2.825c-1.3143.6283-2.1265,1.9724-3.8948,2.0149a2.3969,2.3969,0,0,0-2.1733,2.1071c-.31,1.5141-1.9737,1.5057-2.9108,2.3056-1.1377.9711-2.472.5836-3.6893-.038L84.84,151.522c-.3571-.2227-.705-.44-1.2406-.7735-.36.1452-.8561.3281-1.3358.5422a5.2357,5.2357,0,0,1-3.8777.3867c-.2931-.0951-.7827-.2466-.9115-.1293-1.6393,1.4915-2.846-.0534-4.2434-.4981L71.71,152.2729c-.0773-.0994-.1773-.2034-.2756-.3067-.0367-.0384-.0637-.0757-.1026-.1141-.102-.1008-.2171-.1982-.3307-.2954-.0461-.04-.087-.0815-.1342-.12l-.0118-.0087a5.056,5.056,0,0,0-.9732-.633c-.2852.42-.5721.8428-.8825,1.2995a57.5587,57.5587,0,0,1-5.957-1.3032c-2.09-.57-4.337-.7309-6.4308-1.4067a4.1579,4.1579,0,0,0-1.6452.0884c-.5561.072-1.1928.4187-1.6409.2758-2.1838-.696-3.89.2735-5.6246,1.2515a1.3206,1.3206,0,0,1-.334.0683l.0579-.0946-.2338.0148c-.1233-.0584-.2455-.1189-.3728-.169a1.3423,1.3423,0,0,0-.1506.2022l.5234-.0332c.0476.0226.0957.0434.1435.0651-.45.4171-1.0546.7938-1.2254,1.2844-.3051.8769-1.2509.7944-1.94,1.4429l.1709,2.0131c-.24.2449-.3035.37-.3811.38-.7675.0942-1.5358.191-2.3063.2437-.7892.0539-.7486,1.4133-1.8459.9607a3.1365,3.1365,0,0,0-.6479-.1192,13.51,13.51,0,0,0-.8773-1.7072,2.0111,2.0111,0,0,0-1.0736-.7026c-.3312.99.6438,1.26.9648,1.8384.3762.6776.0325,1.1547-.6737,1.7069a9.6442,9.6442,0,0,0-.9058-1.3216c-.4132-.4372-1.2977-.7748-.8411-1.4321.5987-.8613-.3973-1.3158-.2967-1.9385a7.4747,7.4747,0,0,1,.82-1.6209c.2529-.5532.4376-1.13.703-1.8316l1.15.2337c.1721-.6568.1148-1.6276.5652-1.9016.8627-.5254,1.0544-2.0034,2.7913-1.58a17.71,17.71,0,0,0-.2877,2.2181c-.0063.4511.3779.6833.9986.4393a7.3861,7.3861,0,0,1,.4967-2.5346,1.5588,1.5588,0,0,1,.3632-.4089,5.0888,5.0888,0,0,1,.7878-.5015c.2861-.1565.58-.3092.8374-.4791.3479.2141.6956.4286,1.0127.624a.9345.9345,0,0,0,.4591-.336.6867.6867,0,0,0,.09-.2024,1.13,1.13,0,0,0,.035-.2713,1.8763,1.8763,0,0,1,.0782-.8069c.1612-.1308.3014-.3294.4874-.3815a14.0005,14.0005,0,0,1,7.5031-.3046,7.5311,7.5311,0,0,0,2.6339.1763,3.8189,3.8189,0,0,1,3.1213.6349,1.8715,1.8715,0,0,0,1.2552.32,4.8955,4.8955,0,0,1,.6939-.026c.0914.0032.1778.0189.2673.0268.13.0117.2622.0182.3885.0392.1646.0274.3239.0679.4829.109.0462.0119.0943.0188.14.0317.1916.0542.379.1183.5645.1873l.0356.0118c.79.2978,1.532.7065,2.3,1.0451l-.0011.0012-.0093.0111a1.0534,1.0534,0,0,0-.5453-.07,3.4913,3.4913,0,0,0-.9364.5642c-.0582.0479.1085.32.1716.4895.31-.19.6328-.3666.9262-.5763a2.5039,2.5039,0,0,0,.3839-.4078c.0247.006.05.0138.0739.0186l.0095.0024c.0124.0076-.0647-.0432-.0647-.0432,1.1039-.7,1.6356,1.04,2.7117.458,2.88.7,5.798.2314,8.6985-.0192,2.104-.1817,4.2776-.0984,6.1753-1.32.4009-.2582,1.1207-.0562,1.6309-.2284A17.7363,17.7363,0,0,0,92.96,140.9923ZM41.3775,154.0862c.0211-.0577-.0657-.1454-.1037-.2194q-.2.0954-.4.1914l0,0q.1346.2151.2693.4288A2.4091,2.4091,0,0,0,41.3775,154.0862Zm1.4158-.3628c.0054-.009-.1608-.1408-.2051-.1234a2.87,2.87,0,0,0-.4237.2442c.1146.0942.2291.1884.3448.2819l0-.0005C42.6082,153.9929,42.71,153.8626,42.7933,153.7234Zm55.2223-13.405c.2983.0942.5187.2284.6042.1766a.6592.6592,0,0,0,.2933-.4536c.006-.0861-.34-.2829-.38-.255A3.5359,3.5359,0,0,0,98.0156,140.3184Z"/><path class="cls-8" d="M207.651,103.0122a37.2885,37.2885,0,0,0-5.1444.9264,18.4571,18.4571,0,0,0-4.9851,2.3161c-.2266-.2907-.5238-.6918-.844-1.0774-.309-.3722-.6416-.7283-.8856-1.003-.8482.1135-.7751.603-.9559.9473-.7086,1.3494-1.5881,1.58-2.8481.6394a.9963.9963,0,0,1-.2375-.2615,9.8515,9.8515,0,0,1-.4516-1.0192,5.102,5.102,0,0,1-.82-.5847,6.7587,6.7587,0,0,1,1.6354-2.2348,8.9579,8.9579,0,0,1,3.87-1.71c.2795-.0249.569-.0487.8645-.067.4432-.0274.9-.0422,1.3577-.0293a8.7533,8.7533,0,0,1,1.3622.1369h0a6.369,6.369,0,0,0-.043,1.0222.8958.8958,0,0,0,.5315.1253,2.5894,2.5894,0,0,0,.4831-.93c.0162-.0723-.4786-.2391-.738-.3625a2.8516,2.8516,0,0,1,2.3327-1.023c.7481.1084,1.7748.6326,2.1628.3653.7869-.5424,1.3509-.2989,2.1265-.2474.6544.0434,1.359-.5254,2.1682-.8786,1.4678.4582,3.0863.8857,4.6366,1.4621,4.2447,1.5783,8.8617,2.0924,13.0721,3.7928a14.7752,14.7752,0,0,0,3.6372.5208c.2176.0265.4823-.11.6678-.0434,3.4085,1.2317,6.3435-.3122,9.3764-1.2788a7.1639,7.1639,0,0,1,1.27-.4143c3.0419-.3588,4.9746-2.15,6.7511-4.1639a3.5129,3.5129,0,0,1,.9287-.8642,2.5916,2.5916,0,0,1,1.2574-.2369c.5767.03.65,1.0248,1.6361.6287.375-.1506,1.1585.4275,1.7041.7457.5507.3211,1.0371.7317,1.6336,1.1622-.5859,1.358-1.1391,2.6408-1.7346,4.0208-1.2186-.52-.0963-2.4539-2.07-2.4948-1.5577.9731-.7925,2.6556-1.1222,4.1979l-3.092,1.5164c-1.4511-.4693-.03-1.765-.9073-2.3626-1.7849.4723-1.7876.4788-.8782,2.6193l-2.3856-.0835c-.18.3414-.4042.7646-.62,1.1734a35.4576,35.4576,0,0,0-5.6216.1591,6.3558,6.3558,0,0,1-3.5684-.2064,2.06,2.06,0,0,0-2.1486.2235c-.6761.4959-1.8741.4141-2.6871.56-1.0393-.7137-1.927-1.3236-2.823-1.9349l-.0537.0044a.3692.3692,0,0,0,.051-.0062c-.0069-.0573-.01-.114-.0159-.1711.0244-.1193.05-.2385.071-.3582l-.1066-.0244c.01.1272.023.2549.0356.3826-.0121.059-.0229.1183-.0351.1773-.4187-.109-.9531-.4238-1.2375-.294-1.9946.91-3.9812.0553-5.9586.0294-.5373-.007-1.066-.5558-1.8931-1.0215l2.3263-1.504a1.0077,1.0077,0,0,0-1.3459-.9155c-.5778.1885-.3207,1.2027-1.3279,1.0042-.5044-.0994-1.078.12-1.6028.0634-1.2565-.1353-2.5618.0512-3.7455-.5981A3.5517,3.5517,0,0,0,207.651,103.0122Zm-15.7844.8111a.9293.9293,0,0,0-.1938-.0735,3.3152,3.3152,0,0,0-.279.4937.5162.5162,0,0,0-.0187.22c-.031-.0058-.064-.0125-.0893-.016l.0912.085c.0008-.0226-.001-.0459-.0019-.069.1.0189.2087.0411.2193.0211A4.7692,4.7692,0,0,0,191.8666,103.8233Z"/><path class="cls-6" d="M98.3854,106.1132c1.6262-.5725,2.4533-1.6283,3.5689-2.8387l5.1162.5248,1.3811-1.4528a20.4075,20.4075,0,0,1,9.9322,1.9089,7.3364,7.3364,0,0,0,1.4255.7187c2.526.468,5.0839.8,7.6018,1.2986,1.9964.3952,3.9872.0971,5.9775.1809,1.7416.0734,3.5168-.3286,5.1917.5854.4507.2459,1.2938-.0141,1.9325-.1408,1.9688-.3907,3.9557-.7421,5.8781-1.2765a31.7477,31.7477,0,0,0,4.5353-1.7159c.3957-.1788.6027-.7867.79-1.2337.5843-1.396,1.3279-2.58,3.5284-2.4231.1128.3858.248.835.3749,1.2861a8.59,8.59,0,0,0,.41,1.4385c.293.6073,1.6656.5741,1.3232,1.5315-.3166.8844.98,1.0928.7229,2.0094a26.2961,26.2961,0,0,1-2.3151,1.41c-.8681.4249-1.8215.708-2.7017,1.04a.4125.4125,0,0,1-.26-.1353c-.4355-.4859.077-2.0093-1.4771-1.19.3147,1.7344-.7256,2.6059-2.44,3.0686l-1.223-.6177a6.296,6.296,0,0,1-6.8594,1.4307,2.55,2.55,0,0,0-2.82.1006c-.4266.3263-1.2818.1979-2.1242.2978-.287-1.0836-.3119-2.3312-2.0184-2.5656-.3318.5012-.7186,1.0849-1.0858,1.639-1.2847.1769-1.4763-.7411-1.9227-1.4248-.17-.0059-.4545-.0851-.5234-.0078-.8018.8984-2.1059.5851-3.0836,1.052a.6757.6757,0,0,1-.5767-.177c-.6952-.9425-1.8279-.593-2.7674-.8187-1.4878-.3571-3.1332-.0977-4.49-1.0354-.3847-.2658-1.0706-.178-1.6186-.2508a3.5025,3.5025,0,0,1-1.2625-.185c-3.6968-2.32-7.2463-1.1966-10.7837.3228a6.7889,6.7889,0,0,0-.9334.6171c-.5269-.3906-1.094-.811-1.723-1.2771-1.8355.9562-.7413,3.59-2.9329,4.067-.7221-.6964-1.39-1.357-2.0783-2.0008C96.5715,108.4857,96.5388,106.7633,98.3854,106.1132Zm51.4979.8265c.4324.2391.9.4266,1.3582.6279-.003.0377.0012.0723-.0034.1105-.0038.0044.08-.0771.08-.0771l-.0765-.0334a1.0915,1.0915,0,0,0-.7894-1.3087.6993.6993,0,0,0-.5582.195C149.7994,106.5577,149.7989,106.893,149.8833,106.94Zm-30.9048.0225a1.2362,1.2362,0,0,0,.0625.2676c.0291.0886.0631.1768.0914.2653l.0005,0c.0932-.0566.27-.1228.2632-.1672a3.2488,3.2488,0,0,0-.1726-.5536C119.1373,106.8371,118.9731,106.9064,118.9785,106.9622Z"/><path class="cls-7" d="M19.4905,101.8024c1.29-1.2683,2.6569-2.4736,4.0018-3.6962a4.2654,4.2654,0,0,1,2.7662-.9278c2.6863-.1679,5.122.83,7.3683,1.7616a69.4327,69.4327,0,0,1,7.4331,3.2526,2.1,2.1,0,0,0,1.5685.2506c1.171-.6343,1.789.2147,2.57.6095.2236-.2432.42-.4568.616-.6708.21.1643.3883.3032.5458.42a2.1209,2.1209,0,0,0,1.1521.5324c.0143.0012.0262.0054.0406.0062a2.8919,2.8919,0,0,0,.3649-.0041c.27-.018.6007-.0638,1.0419-.1241a3.094,3.094,0,0,1,1.2988-.0369c1.9632.66,3.8247-.0473,5.5718-.5295a44.0857,44.0857,0,0,1,7.1-1.5647,6.9594,6.9594,0,0,0,1.9033-.54,35.4077,35.4077,0,0,0,4.8155-2.1639c1.7711-1.0792,4.1276-2.0044,3.1987-4.6624-.0267-.0766.0638-.1908.11-.2832.5835-1.16-.1575-1.8821-1.2208-2.0124-1.016-.1245-.89-1.0931-1.7595-1.3119l-3.07,1.2615c.5063,2.0394-1.4094,3.0181-2.1053,4.485L63.274,95.372a8.8444,8.8444,0,0,1-2.4211,1.5823c-2.2135.5673-4.6247.528-6.5841,1.8453-2.4961-.5017-4.8118.6636-7.3283.5927a19.67,19.67,0,0,1-7.1326-1.3008c-1.9434-.8022-3.8861-1.611-5.8653-2.3364-1.1325-.4152-2.3909-.5639-3.4993-1.0177-2.5149-1.0293-5.0625-.7151-7.5971-.26a4.6491,4.6491,0,0,0-2.3724,1.09c-1.8891,1.9364-4.5241,3.4288-4.9624,6.5184.3264.4116.7647.9637,1.1674,1.4714A4.4631,4.4631,0,0,0,19.4905,101.8024Z"/><path class="cls-7" d="M241.0265,41.2079c1.29-1.2682,2.6569-2.4736,4.0018-3.6962a4.2654,4.2654,0,0,1,2.7662-.9278c2.6863-.1679,5.1219.83,7.3683,1.7616a69.4224,69.4224,0,0,1,7.433,3.2526,2.1,2.1,0,0,0,1.5686.2506c1.171-.6343,1.789.2147,2.57.6095.2236-.2432.42-.4568.616-.6707.21.1643.3882.3031.5457.42a2.1215,2.1215,0,0,0,1.1522.5324c.0142.0012.0261.0054.0406.0062a2.8732,2.8732,0,0,0,.3649-.0041c.27-.018.6007-.0637,1.0419-.1241a3.094,3.094,0,0,1,1.2988-.0369c1.9632.66,3.8247-.0473,5.5718-.5295a44.0857,44.0857,0,0,1,7.1-1.5647,6.9594,6.9594,0,0,0,1.9033-.5395,35.4127,35.4127,0,0,0,4.8155-2.1638c1.7711-1.0793,4.1276-2.0045,3.1987-4.6625-.0267-.0766.0638-.1908.11-.2832.5835-1.16-.1575-1.8821-1.2209-2.0123-1.0159-.1246-.89-1.0932-1.7594-1.312l-3.07,1.2615c.5063,2.04-1.4094,3.0181-2.1053,4.485l-1.5283-.4821a8.8455,8.8455,0,0,1-2.4211,1.5822c-2.2135.5673-4.6247.528-6.5841,1.8453-2.4961-.5017-4.8118.6636-7.3283.5927a19.67,19.67,0,0,1-7.1326-1.3008c-1.9435-.8022-3.8861-1.611-5.8653-2.3364-1.1325-.4151-2.3909-.5639-3.4993-1.0176-2.5149-1.0294-5.0625-.7152-7.5971-.26a4.6488,4.6488,0,0,0-2.3724,1.09c-1.8891,1.9364-4.5241,3.4288-4.9624,6.5184.3264.4116.7646.9637,1.1673,1.4714A4.4633,4.4633,0,0,0,241.0265,41.2079Z"/><path class="cls-4" d="M243.38,146.1069c1.29-1.2682,2.6569-2.4736,4.0018-3.6962a4.2654,4.2654,0,0,1,2.7662-.9278c2.6862-.1679,5.1219.83,7.3683,1.7616a69.4311,69.4311,0,0,1,7.433,3.2526,2.1,2.1,0,0,0,1.5686.2506c1.171-.6343,1.7889.2147,2.57.6095.2235-.2432.42-.4568.616-.6708.21.1643.3882.3032.5457.42a2.1215,2.1215,0,0,0,1.1522.5324c.0142.0012.0261.0054.0406.0062a2.8919,2.8919,0,0,0,.3649-.0041c.27-.018.6007-.0638,1.0419-.1241a3.094,3.094,0,0,1,1.2988-.0369c1.9632.66,3.8247-.0473,5.5718-.53a44.0833,44.0833,0,0,1,7.1-1.5647,6.9594,6.9594,0,0,0,1.9033-.54,35.4132,35.4132,0,0,0,4.8155-2.1639c1.771-1.0792,4.1276-2.0044,3.1987-4.6624-.0267-.0766.0638-.1908.11-.2832.5835-1.16-.1575-1.8821-1.2209-2.0124-1.016-.1245-.89-1.0931-1.7594-1.3119l-3.07,1.2615c.5062,2.0394-1.4094,3.0181-2.1053,4.485l-1.5283-.4822a8.8459,8.8459,0,0,1-2.4211,1.5823c-2.2135.5673-4.6248.528-6.5841,1.8453-2.4961-.5017-4.8118.6636-7.3283.5927a19.67,19.67,0,0,1-7.1326-1.3008c-1.9435-.8022-3.8861-1.611-5.8653-2.3364-1.1325-.4152-2.3909-.5639-3.4993-1.0177-2.5149-1.0293-5.0625-.7151-7.5971-.26a4.6488,4.6488,0,0,0-2.3724,1.09c-1.8891,1.9364-4.5241,3.4288-4.9625,6.5184.3265.4116.7647.9637,1.1674,1.4714A4.4633,4.4633,0,0,0,243.38,146.1069Z"/><path class="cls-7" d="M235.8,255.6529c1.29-1.2682,2.6569-2.4736,4.0018-3.6962a4.2655,4.2655,0,0,1,2.7663-.9278c2.6862-.1679,5.1219.83,7.3682,1.7617a69.3926,69.3926,0,0,1,7.4331,3.2526,2.1,2.1,0,0,0,1.5685.25c1.171-.6343,1.789.2147,2.57.61.2236-.2432.42-.4567.616-.6707.21.1643.3883.3031.5458.42a2.1209,2.1209,0,0,0,1.1521.5324c.0143.0012.0262.0054.0406.0063a2.8932,2.8932,0,0,0,.3649-.0042c.27-.0179.6007-.0637,1.0419-.1241a3.094,3.094,0,0,1,1.2988-.0369c1.9632.66,3.8247-.0473,5.5718-.5295a44.0857,44.0857,0,0,1,7.1-1.5647,6.9559,6.9559,0,0,0,1.9033-.54,35.4072,35.4072,0,0,0,4.8155-2.1638c1.7711-1.0793,4.1276-2.0044,3.1988-4.6625-.0268-.0766.0637-.1908.11-.2832.5835-1.16-.1575-1.8821-1.2208-2.0123-1.016-.1246-.89-1.0932-1.76-1.312l-3.07,1.2615c.5063,2.04-1.4094,3.0181-2.1052,4.485l-1.5284-.4821a8.844,8.844,0,0,1-2.4211,1.5822c-2.2135.5673-4.6247.528-6.5841,1.8453-2.4961-.5017-4.8117.6636-7.3283.5927a19.672,19.672,0,0,1-7.1326-1.3007c-1.9434-.8023-3.8861-1.6111-5.8653-2.3365-1.1325-.4151-2.3909-.5639-3.4993-1.0176-2.5149-1.0294-5.0625-.7152-7.597-.26a4.6491,4.6491,0,0,0-2.3725,1.09c-1.8891,1.9364-4.5241,3.4288-4.9624,6.5184.3264.4116.7647.9637,1.1674,1.4714A4.4631,4.4631,0,0,0,235.8,255.6529Z"/><path class="cls-3" d="M154.5871,273.2776c-1.0948,1.7621-2.1879,3.5244-3.29,5.302-1.7521.0926-3.4836,1.3246-5.346.1835-.1421-.087-.5978.1986-.8812.351-.4533.2437-.8842.5211-1.5861.94a15.1168,15.1168,0,0,0-.4872-2.1933,1.3207,1.3207,0,0,0-1.9063-.5967c-.77.4764-1.4342,1-2.4041.4266a1.1688,1.1688,0,0,1-.0643-.2757c-.0566-.5834.4978-.7986,1.0042-1.0492-.4654-.5644-.9327-1.1315-1.4582-1.7691-.53.407-1.0931.84-1.7449,1.3406a11.66,11.66,0,0,1-2.1063-.9469c-2.1034-1.5116-4.5818-2.466-6.7917-3.7737-3.1357-1.8556-6.5132-2.3143-10.0722-2.5961-3.7408-.296-6.82.71-9.1809,3.352a6.2075,6.2075,0,0,1-1.865,1.49,4.3229,4.3229,0,0,1-1.1264.373,4.844,4.844,0,0,1-1.3041.0546h0a10.3679,10.3679,0,0,0-.5521-1.1489.9985.9985,0,0,0-.2741-.2668c-.3065-.1931-1.0126.129-1.641.2386a4.2914,4.2914,0,0,1-.1029-3.0216c.1149-.381.2056-.9951.4685-1.0755,1.5414-.4717,1.0327-1.7573,1.4355-2.6663l.0014-.0039,1.3638.6951c1.2031-.7819.9164-1.9924,1.1853-3.0277,1.1713.1645,1.1713.1645,1.9008.9735.7517-.6779,1.4866-1.34,2.3772-2.1436a15.3237,15.3237,0,0,1,1.595.8481c1.7284,1.1846,2.7791,1.0783,4.2312-.4953.2048-.222.3749-.47.58-.73.9238.8217,1.7158,1.7291,3.1072.6582a1.7467,1.7467,0,0,1,1.55-.0214c1.1242,1.0522,2.5943,1.0179,4.2447,1.1666a8.8039,8.8039,0,0,0-.1877,1.4873c.0777,1.44,1.16,1.94,2.47,1.1634.3591-.2129.69-.4648,1.2994-.88.2938.9569.53,1.726.6661,2.17a5.0163,5.0163,0,0,0,.9806.48c1.7431.2283,3.5976.1368,4.7977,1.6945.1766.2294.8162.2192,1.2445.2315.9984.0288,1.9987.0037,3.1094,0l2.5963,2.0662,3.4882.3238c1.1989-.62,1.3856-2.4392,3.229-1.9671.0522.0134.2381-.2809.3048-.45a1.2426,1.2426,0,0,1,1.9253-.5281c.1708.119.3469.2357.5246.3524.3109.2042.6264.4084.927.6253A3.59,3.59,0,0,1,154.5871,273.2776Zm-50.1277-5.2761c.024-.0234-.0871-.16-.1358-.2445q-.2159.163-.4309.3265c.0349.09.0693.18.1039.27A4.1647,4.1647,0,0,0,104.4594,268.0015Zm2.443-1.3566c-.8015-.0193-1.21.2722-1.0235,1.0405C106.6986,267.7185,107.12,267.4373,106.9024,266.6449Zm14.3579-1.1683c-.0378-.2422-.0756-.4843-.11-.704l-.8053-.016a3.0777,3.0777,0,0,0,.3269.7646C120.7261,265.5932,121.0562,265.4962,121.26,265.4766Zm18.8505,10.3428a.7281.7281,0,0,0-.2659-.0573c-.078.0144-.1982.0947-.2.1484a2.42,2.42,0,0,0,.0427.4175.4983.4983,0,0,0-.0512.0331c.0087.0147.0642.0959.0642.0959-.005-.043-.0068-.086-.013-.129a.8852.8852,0,0,0,.1948-.1391A2.7126,2.7126,0,0,0,140.1108,275.8194Zm10.2872-1.8874-2.3686-.4837a2.0757,2.0757,0,0,0,.7963,2.4189c.1213.0993.3971.0453.745.0739Zm1.3694.0878c.0235-.0218-.0853-.16-.133-.2451q-.2169.1491-.4335.299.0584.1332.1159.2651A3.7277,3.7277,0,0,0,151.7674,274.02Z"/><path class="cls-6" d="M196.6242,239.2464c.3176-.6371.7547-1.2258,1.2035-1.9394,1.5665.3871,1.5813,1.6031,2.0866,2.6909a11.1134,11.1134,0,0,0,.89-.67,1.4193,1.4193,0,0,1,1.8148-.2443,1.4546,1.4546,0,0,1,.8,1.5687,3.6886,3.6886,0,0,1-.7165,1.9506c-.6649.6288-.3858.889-.0076,1.4784.5195.81-.3747,1.2268-1.1122,1.7756-.598-.2923-1.2494-.6107-1.8888-.9234-.9371.9143.2566.9147.7086,1.3825-.4114.7111-.8541,1.477-1.3438,2.3236l-1.1865-.6778c-.231.46-.4554.9021-.6754,1.3459-.6469,1.3057-.89,1.3581-2.4874.5336-.3423.25-.678.5076-1.0323.7427-.0728.0482-.2151.0114-.4043.0155-.2676-.34-.56-.7116-.8506-1.08a13.2685,13.2685,0,0,1-2.9461.8052,5.2329,5.2329,0,0,1-3.2168-.5141,12.7615,12.7615,0,0,0-3.4806-1.0826c-1.1425-.2721-2.06-1.1345-3.4362-.8762a4.272,4.272,0,0,1-1.9182-.5156,27.4568,27.4568,0,0,0-6.2014-1.2115,10.078,10.078,0,0,1-2.013-.1951c-3.1051-1.0723-6.4093-.9971-9.6223-1.4279-1.3171-.1767-2.6651-.166-4.0376-.2428-1.8044,1.0044-3.5147,2.133-3.73,4.2313-1.0137.1154-2.0161-.7622-2.6742.5761-.2269.4612-1.3616.56-2.0988.8306-1.1522-.6042.1632-1.6869-.5455-2.4042-1.3174-1.3336-1.16-2.8855-.7746-4.47a6.1638,6.1638,0,0,0,.0762-.9657c1.0344-.8752,2.0811-1.7878,3.1643-2.6637a3.6408,3.6408,0,0,1,1.3673-.8369c1.7171-.374,3.4651-.6336,5.3024-.9546.45,1.39-1.7119,2.105-.1917,3.46.3478-.474.6374-.8692.9272-1.2644q.8067.0745,1.6092.1481a15.9877,15.9877,0,0,1,.7058-1.4563.63.63,0,0,1,.5624-.1064.504.504,0,0,1,.1889.4956c-.12.26-.418.4545-.5321.7153a.5189.5189,0,0,0,.2513.4819.6729.6729,0,0,0,.5815-.1428c.3172-.394.5634-.8345.8968-1.35.3971.1791.8107.54,1.132.483,2.4786-.4427,3.5669.614,3.76,2.9836.8278-.8538.4869-2.2158,1.9984-2.4q.4992.3528,1.2807.9047c.9023-.2065,1.8625-.4913,2.8483-.632a2.7918,2.7918,0,0,1,2.3364.5248c.6569.5069,1.8708.4265,2.8371.6095,2.3479.4447,2.3479.4455,3.7445,2.034l1.5252-.6972.8585,1.1606c1.91-.6254,3.8136-1.0786,5.5613.3423a1.6525,1.6525,0,0,0,1.52.2822,8.4938,8.4938,0,0,1,2.023.0987,3.7545,3.7545,0,0,0,.5035-.2537,14.2135,14.2135,0,0,0,2.778-2.0182A12.6487,12.6487,0,0,0,196.6242,239.2464Zm-46.1858,1.0063a1.7886,1.7886,0,0,0,.3365-.0944c.0183-.0087-.0377-.1447-.0592-.2218-.0793.0224-.1912.0242-.2292.0727C150.4387,240.07,150.4518,240.17,150.4384,240.2527Zm-1.04,7.3633c-.1814-.2113-.34-.4111-.5233-.59-.0227-.0222-.2647.0869-.2607.1009.0713.2447.1652.484.2544.7245C149.0127,247.7876,149.1561,247.7237,149.3987,247.616Zm49.2446-1.0648c-.0022.0636-.0341.1563,0,.1844a.7707.7707,0,0,0,.2442.0888q.0108-.145.0213-.29Z"/><path class="cls-4" d="M93.9,241.9383c.9794-.81,1.9411-1.6374,3.0057-2.5372,1.8236,1.1433,4.241,1.22,5.0081,3.2873a3.8907,3.8907,0,0,1-2.4946,2.5278c-1.3836.4557-2.3605,1.6854-4.12,1.5023a2.397,2.397,0,0,0-2.424,1.8131c-.5,1.4622-2.1494,1.2421-3.1808,1.916-1.2521.8183-2.5261.264-3.6543-.5076l-1.5358,1.4078-1.1319-.9252c-.3755.0982-.891.2164-1.394.3677a5.2356,5.2356,0,0,1-3.8954-.1105c-.2787-.1316-.745-.3442-.8876-.2443-1.816,1.27-2.8161-.4155-4.1454-1.0346L71.3856,250.42c-.064-.1084-.15-.2244-.2343-.3394-.0315-.0427-.0535-.0831-.0872-.1262-.0883-.113-.19-.2242-.29-.3351-.0407-.0451-.076-.0919-.1179-.1359l-.0106-.01a5.0554,5.0554,0,0,0-.8846-.7518c-.3364.3805-.6748.7631-1.0408,1.1766a57.5709,57.5709,0,0,1-5.7425-2.0515c-2.0008-.8319-4.2086-1.2774-6.1992-2.2144a4.1564,4.1564,0,0,0-1.643-.1218c-.5608,0-1.2365.2633-1.6627.0645-2.0774-.9685-3.8927-.2242-5.7383.5248a1.3193,1.3193,0,0,1-.34.0252l.07-.0865-.2338-.0151c-.1149-.0736-.2284-.1492-.3483-.215-.0128-.007-.1148.1178-.1751.1813l.5234.0337c.0443.0285.0894.0552.1341.0829-.5.3564-1.1472.653-1.3791,1.1178-.4143.831-1.3419.6287-2.1079,1.1841l-.087,2.0184c-.2689.2124-.3481.3288-.4263.3284-.7732-.0043-1.5476-.0062-2.3186-.0521-.79-.0471-.9225,1.3065-1.9532.7178a3.1418,3.1418,0,0,0-.6274-.2008,13.5427,13.5427,0,0,0-.6527-1.8051,2.0113,2.0113,0,0,0-.9755-.8335c-.4545.94.4782,1.3318.7229,1.9463.2868.72-.1149,1.1494-.8857,1.6072a9.6548,9.6548,0,0,0-.73-1.4263c-.3542-.4863-1.1885-.9338-.6519-1.5275.7036-.778-.2264-1.3558-.0473-1.9606a7.4712,7.4712,0,0,1,1.02-1.5031c.3212-.5165.578-1.0656.9305-1.7272l1.1113.3784c.2544-.63.3212-1.6.8028-1.8142.9226-.4112,1.301-1.8527,2.97-1.2115a17.718,17.718,0,0,0-.5678,2.1633c-.0638.4467.2877.7259.9344.563a7.3862,7.3862,0,0,1,.8156-2.4507,1.56,1.56,0,0,1,.4123-.3593,5.0873,5.0873,0,0,1,.8452-.3971c.3038-.1188.6151-.2327.8917-.3685.3177.2567.6353.5137.9249.7479a.9348.9348,0,0,0,.4982-.2747.6875.6875,0,0,0,.1155-.1893,1.1364,1.1364,0,0,0,.0692-.2646,1.8779,1.8779,0,0,1,.18-.79c.1766-.1091.341-.2883.5321-.3163a14,14,0,0,1,7.4807.6537,7.5289,7.5289,0,0,0,2.59.51,3.8193,3.8193,0,0,1,3.015,1.0274,1.8715,1.8715,0,0,0,1.2042.477,4.8778,4.8778,0,0,1,.6915.0627c.09.0147.174.0413.2617.0606.1275.0281.2578.0514.38.0883.16.0481.3126.1087.4651.17.0443.0176.0911.0306.135.0492.1832.0782.3609.1657.536.2578l.0338.0162c.7452.3959,1.43.8959,2.1486,1.33l-.0012.0011-.0106.01a1.0549,1.0549,0,0,0-.532-.1385,3.4931,3.4931,0,0,0-1.0006.44c-.0639.04.0667.3317.1078.5074.3322-.1491.6744-.283.9921-.4536a2.5024,2.5024,0,0,0,.4327-.3557c.0237.0092.0474.02.0709.0279l.0092.0036c.0113.0092-.0587-.0511-.0587-.0511,1.1841-.5538,1.49,1.2394,2.6312.8,2.7671,1.0617,5.7214.9681,8.63,1.0891,2.11.0877,4.2553.4472,6.2932-.5228.43-.205,1.1187.087,1.6467-.0188A17.7368,17.7368,0,0,0,93.9,241.9383ZM41.07,248.3548c.0283-.0545-.0467-.1526-.0749-.2308q-.21.0692-.4209.1389v0q.1061.2306.2125.46A2.41,2.41,0,0,0,41.07,248.3548Zm1.4505-.1794c.0065-.0083-.1415-.16-.1877-.1486a2.881,2.881,0,0,0-.4514.1882q.1524.1622.3061.3235l.0006,0C42.3021,248.419,42.42,248.3028,42.52,248.1754ZM99,241.9138c.2839.1315.4853.2927.5768.2522a.6592.6592,0,0,0,.3487-.4126c.0169-.0846-.3011-.3239-.3442-.3013A3.537,3.537,0,0,0,99,241.9138Z"/><path class="cls-5" d="M239.3949,170.3547c.9793-.81,1.9411-1.6374,3.0057-2.5372,1.8235,1.1433,4.2409,1.22,5.0081,3.2873a3.8909,3.8909,0,0,1-2.4946,2.5278c-1.3837.4557-2.3605,1.6854-4.12,1.5024a2.3968,2.3968,0,0,0-2.424,1.813c-.5,1.4622-2.1494,1.2421-3.1808,1.916-1.2521.8183-2.5262.2641-3.6543-.5076l-1.5358,1.4078-1.132-.9252c-.3755.0982-.8909.2165-1.3939.3677a5.236,5.236,0,0,1-3.8954-.11c-.2787-.1317-.745-.3443-.8877-.2444-1.8159,1.27-2.816-.4155-4.1454-1.0346-.6056.3709-1.1351.6951-1.6646,1.0192-.064-.1084-.15-.2244-.2343-.3393-.0315-.0428-.0536-.0832-.0872-.1263-.0883-.1129-.19-.2242-.29-.3351-.0407-.045-.076-.0919-.1179-.1359l-.0106-.01a5.06,5.06,0,0,0-.8846-.7518c-.3364.3805-.6748.7631-1.0408,1.1766a57.5368,57.5368,0,0,1-5.7425-2.0515c-2.0008-.8319-4.2086-1.2774-6.1992-2.2144a4.1568,4.1568,0,0,0-1.6431-.1218c-.5607.0006-1.2364.2633-1.6626.0645-2.0774-.9685-3.8927-.2242-5.7383.5248a1.3149,1.3149,0,0,1-.34.0252l.0695-.0864-.2339-.0151c-.1148-.0736-.2283-.1493-.3482-.2151-.0128-.007-.1148.1178-.1751.1813l.5233.0338c.0444.0284.0894.0552.1341.0829-.5.3563-1.1471.6529-1.379,1.1177-.4143.831-1.3419.6287-2.1079,1.1841l-.087,2.0184c-.269.2125-.3482.3288-.4263.3284-.7732-.0043-1.5476-.0061-2.3186-.0521-.79-.0471-.9225,1.3065-1.9532.7178a3.1407,3.1407,0,0,0-.6275-.2008,13.5282,13.5282,0,0,0-.6526-1.8051,2.0118,2.0118,0,0,0-.9755-.8335c-.4546.94.4782,1.3318.7229,1.9463.2867.72-.1149,1.1494-.8857,1.6072a9.6456,9.6456,0,0,0-.73-1.4263c-.3541-.4862-1.1885-.9337-.6518-1.5275.7036-.778-.2265-1.3557-.0474-1.9606a7.476,7.476,0,0,1,1.02-1.5031c.3212-.5165.578-1.0656.93-1.7272l1.1113.3784c.2544-.6295.3212-1.6.8028-1.8142.9226-.4112,1.301-1.8527,2.97-1.2115a17.6966,17.6966,0,0,0-.5678,2.1634c-.0638.4466.2877.7258.9344.5629a7.3862,7.3862,0,0,1,.8156-2.4507,1.5586,1.5586,0,0,1,.4123-.3593,5.0915,5.0915,0,0,1,.8452-.3971c.3038-.1188.6151-.2327.8917-.3685.3177.2567.6353.5137.9249.748a.9348.9348,0,0,0,.4982-.2748.6885.6885,0,0,0,.1155-.1892,1.1359,1.1359,0,0,0,.0692-.2647,1.8771,1.8771,0,0,1,.18-.79c.1766-.1092.341-.2884.5321-.3164a14,14,0,0,1,7.4807.6537,7.5289,7.5289,0,0,0,2.59.51,3.819,3.819,0,0,1,3.0149,1.0274,1.8714,1.8714,0,0,0,1.2043.477,4.9074,4.9074,0,0,1,.6915.0627c.09.0147.174.0413.2617.0606.1275.0281.2578.0514.38.0883.16.0482.3126.1087.4651.17.0442.0176.0911.0306.135.0493.1831.0781.3609.1656.536.2577l.0338.0162c.7452.3959,1.43.8959,2.1486,1.33l-.0012.0011-.0106.01a1.0528,1.0528,0,0,0-.532-.1385,3.492,3.492,0,0,0-1.0007.44c-.0638.04.0668.3317.1079.5074.3322-.1491.6744-.283.9921-.4536a2.5055,2.5055,0,0,0,.4327-.3556c.0237.0091.0474.02.0709.0279l.0091.0035c.0114.0092-.0587-.0511-.0587-.0511,1.1842-.5538,1.49,1.2394,2.6313.8,2.7671,1.0616,5.7214.968,8.63,1.089,2.11.0877,4.2553.4473,6.2932-.5228.43-.205,1.1187.0871,1.6467-.0188A17.7368,17.7368,0,0,0,239.3949,170.3547Zm-52.8306,6.4166c.0283-.0546-.0467-.1526-.0749-.2309q-.21.0692-.4209.1389v0q.106.2305.2124.46A2.4158,2.4158,0,0,0,186.5643,176.7713Zm1.45-.1795c.0066-.0083-.1414-.16-.1877-.1486a2.884,2.884,0,0,0-.4513.1882q.1524.1621.3061.3236l0-.0005A4.8907,4.8907,0,0,0,188.0147,176.5918Zm56.48-6.2616c.2839.1315.4853.2927.5768.2522a.66.66,0,0,0,.3487-.4126c.0169-.0846-.3011-.3239-.3442-.3013A3.5424,3.5424,0,0,0,244.4948,170.33Z"/><path class="cls-2" d="M275.4508,69.0166c.9793-.81,1.9411-1.6375,3.0057-2.5373,1.8235,1.1433,4.2409,1.22,5.0081,3.2873a3.8908,3.8908,0,0,1-2.4947,2.5278c-1.3836.4557-2.3605,1.6855-4.12,1.5024a2.3969,2.3969,0,0,0-2.424,1.813c-.5,1.4623-2.1493,1.2421-3.1808,1.9161-1.2521.8182-2.5261.264-3.6543-.5077l-1.5358,1.4079-1.1319-.9252c-.3755.0982-.8909.2164-1.394.3676a5.2351,5.2351,0,0,1-3.8954-.11c-.2786-.1317-.7449-.3443-.8876-.2444-1.8159,1.2706-2.816-.4155-4.1454-1.0345l-1.6646,1.0192c-.064-.1085-.15-.2244-.2344-.3394-.0314-.0428-.0535-.0832-.0872-.1263-.0883-.1129-.19-.2241-.29-.3351-.0407-.045-.0759-.0919-.1178-.1359l-.0106-.01a5.0511,5.0511,0,0,0-.8846-.7518c-.3365.38-.6749.763-1.0409,1.1765a57.56,57.56,0,0,1-5.7424-2.0514c-2.0009-.832-4.2086-1.2775-6.1992-2.2144a4.1587,4.1587,0,0,0-1.6431-.1219c-.5607.0006-1.2365.2633-1.6627.0646-2.0774-.9686-3.8927-.2243-5.7382.5247a1.3156,1.3156,0,0,1-.34.0252l.07-.0864-.2338-.0151c-.1148-.0736-.2284-.1492-.3482-.2151-.0128-.007-.1148.1178-.1752.1814l.5234.0337c.0443.0284.0894.0552.1341.0829-.5.3563-1.1472.6529-1.379,1.1178-.4144.8309-1.342.6286-2.1079,1.184l-.087,2.0185c-.269.2124-.3482.3287-.4263.3283-.7733-.0043-1.5477-.0061-2.3186-.0521-.79-.047-.9226,1.3065-1.9533.7178a3.1375,3.1375,0,0,0-.6274-.2007,13.5237,13.5237,0,0,0-.6527-1.8051,2.0107,2.0107,0,0,0-.9754-.8336c-.4546.94.4781,1.3318.7228,1.9463.2868.72-.1149,1.15-.8856,1.6072a9.6541,9.6541,0,0,0-.73-1.4262c-.3541-.4863-1.1885-.9338-.6519-1.5276.7036-.778-.2264-1.3557-.0473-1.9605a7.483,7.483,0,0,1,1.02-1.5032c.3213-.5165.578-1.0656.93-1.7271l1.1114.3783c.2543-.63.3211-1.6.8028-1.8141.9226-.4112,1.3009-1.8527,2.97-1.2116a17.7246,17.7246,0,0,0-.5679,2.1634c-.0637.4466.2877.7259.9345.5629a7.3861,7.3861,0,0,1,.8155-2.4507,1.56,1.56,0,0,1,.4123-.3592,5.0847,5.0847,0,0,1,.8453-.3971c.3037-.1188.6151-.2328.8916-.3685.3178.2566.6354.5136.925.7479a.9346.9346,0,0,0,.4982-.2748.6905.6905,0,0,0,.1154-.1892,1.1261,1.1261,0,0,0,.0692-.2647,1.8771,1.8771,0,0,1,.18-.79c.1765-.1092.3409-.2884.5321-.3163a14,14,0,0,1,7.4807.6536,7.5312,7.5312,0,0,0,2.59.51,3.8187,3.8187,0,0,1,3.015,1.0274,1.8722,1.8722,0,0,0,1.2042.477,4.8928,4.8928,0,0,1,.6916.0626c.09.0148.174.0413.2617.0607.1274.028.2577.0513.38.0883.16.0481.3126.1086.465.17.0443.0177.0912.0307.1351.0493.1831.0782.3608.1656.5359.2577l.0338.0162c.7452.396,1.43.896,2.1487,1.33l-.0013.0012-.0106.01a1.0533,1.0533,0,0,0-.532-.1385,3.4957,3.4957,0,0,0-1.0006.44c-.0638.04.0668.3317.1079.5075.3321-.1492.6743-.283.992-.4537a2.5018,2.5018,0,0,0,.4327-.3556c.0238.0091.0475.02.0709.0279l.0092.0036c.0113.0092-.0587-.0511-.0587-.0511,1.1841-.5539,1.49,1.2394,2.6312.8,2.7672,1.0616,5.7214.968,8.63,1.089,2.11.0878,4.2552.4473,6.2931-.5227.43-.205,1.1188.087,1.6468-.0188A17.7373,17.7373,0,0,0,275.4508,69.0166ZM222.62,75.4331c.0282-.0546-.0467-.1526-.0749-.2309q-.21.0691-.421.1389l0,.0006q.106.23.2124.46A2.4109,2.4109,0,0,0,222.62,75.4331Zm1.45-.1795c.0066-.0082-.1415-.16-.1877-.1486a2.871,2.871,0,0,0-.4513.1883c.1016.108.2032.216.3061.3235l.0005,0C223.8527,75.4973,223.9706,75.3811,224.0706,75.2536Zm56.48-6.2615c.2838.1314.4853.2926.5767.2521a.659.659,0,0,0,.3487-.4125c.0169-.0846-.3011-.3239-.3441-.3013A3.5329,3.5329,0,0,0,280.5507,68.9921Z"/><path class="cls-8" d="M213.1343,207.2381a37.2872,37.2872,0,0,0-5.1445.9264,18.46,18.46,0,0,0-4.9851,2.3161c-.2266-.2906-.5238-.6918-.844-1.0774-.309-.3721-.6416-.7282-.8856-1.003-.8482.1135-.7751.6031-.9559.9473-.7086,1.3494-1.5881,1.58-2.8481.6395a.9967.9967,0,0,1-.2375-.2616,9.82,9.82,0,0,1-.4515-1.0192,5.1,5.1,0,0,1-.82-.5847,6.7587,6.7587,0,0,1,1.6354-2.2348,8.96,8.96,0,0,1,3.87-1.71c.28-.0248.569-.0487.8645-.067.4432-.0274.9-.0422,1.3577-.0293a8.7533,8.7533,0,0,1,1.3622.1369h0a6.369,6.369,0,0,0-.043,1.0222.895.895,0,0,0,.5315.1253,2.5886,2.5886,0,0,0,.4831-.93c.0163-.0723-.4786-.2391-.7379-.3625a2.8515,2.8515,0,0,1,2.3326-1.023c.7481.1084,1.7748.6327,2.1628.3653.7869-.5424,1.351-.2989,2.1265-.2474.6544.0434,1.359-.5254,2.1682-.8786,1.4678.4582,3.0863.8857,4.6366,1.4621,4.2447,1.5783,8.8617,2.0924,13.0721,3.7929a14.7854,14.7854,0,0,0,3.6372.5208c.2176.0264.4823-.1105.6678-.0434,3.4085,1.2316,6.3435-.3123,9.3764-1.2789a7.1639,7.1639,0,0,1,1.27-.4143c3.0419-.3588,4.9746-2.15,6.7511-4.1639a3.5145,3.5145,0,0,1,.9287-.8642,2.5916,2.5916,0,0,1,1.2574-.2369c.5767.03.65,1.0248,1.6361.6287.375-.1506,1.1585.4276,1.7042.7457.5506.3211,1.037.7317,1.6336,1.1622-.586,1.358-1.1392,2.6408-1.7347,4.0208-1.2186-.52-.0963-2.4539-2.07-2.4948-1.5577.9731-.7925,2.6556-1.1222,4.1979-.9863.4839-2.0417,1.0014-3.092,1.5164-1.4511-.4693-.03-1.7649-.9073-2.3626-1.7849.4723-1.7876.4788-.8782,2.6193l-2.3855-.0835c-.18.3414-.4043.7646-.62,1.1734a35.4576,35.4576,0,0,0-5.6216.1591,6.3549,6.3549,0,0,1-3.5684-.2064,2.06,2.06,0,0,0-2.1486.2235c-.6761.4959-1.8741.4141-2.6871.56-1.0393-.7137-1.927-1.3236-2.823-1.9349l-.0537.0044a.3543.3543,0,0,0,.051-.0062c-.0069-.0573-.01-.114-.0159-.1711.0244-.1193.05-.2385.071-.3582l-.1066-.0244c.01.1272.023.2549.0356.3826-.0121.059-.0229.1183-.0351.1773-.4187-.109-.9531-.4238-1.2375-.294-1.9946.9105-3.9811.0553-5.9586.0294-.5373-.007-1.066-.5558-1.8931-1.0215l2.3263-1.504a1.0077,1.0077,0,0,0-1.3459-.9155c-.5778.1885-.3206,1.2028-1.3279,1.0043-.5043-.1-1.078.12-1.6028.0633-1.2565-.1353-2.5618.0512-3.7455-.5981A3.5519,3.5519,0,0,0,213.1343,207.2381Zm-15.7844.8111a.9323.9323,0,0,0-.1939-.0735,3.32,3.32,0,0,0-.279.4937.5162.5162,0,0,0-.0187.22c-.0309-.0058-.064-.0125-.0893-.016l.0912.085c.0008-.0225-.001-.0458-.0019-.069.1.0189.2087.0411.2193.0212A4.7833,4.7833,0,0,0,197.35,208.0492Z"/><path class="cls-2" d="M94.5173,205.99c1.6263-.5725,2.4533-1.6283,3.5689-2.8387l5.1163.5248c.29-.305.7876-.8285,1.381-1.4529a20.4082,20.4082,0,0,1,9.9323,1.909,7.3336,7.3336,0,0,0,1.4255.7187c2.5259.4679,5.0838.8,7.6018,1.2985,1.9963.3953,3.9872.0971,5.9775.1809,1.7416.0734,3.5168-.3285,5.1916.5854.4507.246,1.2939-.014,1.9325-.1408,1.9688-.3906,3.9558-.742,5.8781-1.2764a31.76,31.76,0,0,0,4.5353-1.7159c.3958-.1789.6028-.7867.79-1.2337.5843-1.396,1.3278-2.58,3.5284-2.4232.1127.3859.248.835.3748,1.2861a8.6059,8.6059,0,0,0,.41,1.4385c.293.6074,1.6657.5742,1.3232,1.5316-.3166.8843.98,1.0927.7229,2.0093a26.2549,26.2549,0,0,1-2.315,1.41c-.8682.4249-1.8215.7079-2.7017,1.04a.4127.4127,0,0,1-.26-.1353c-.4356-.4859.0769-2.0093-1.4772-1.19.3147,1.7344-.7256,2.6059-2.44,3.0685l-1.223-.6176a6.2957,6.2957,0,0,1-6.8594,1.4306,2.5505,2.5505,0,0,0-2.82.1006c-.4266.3264-1.2818.198-2.1242.2978-.287-1.0836-.3119-2.3312-2.0184-2.5656-.3318.5013-.7186,1.085-1.0858,1.6391-1.2847.1769-1.4763-.7412-1.9226-1.4248-.17-.006-.4546-.0851-.5235-.0079-.8018.8984-2.1059.5851-3.0835,1.0521a.6759.6759,0,0,1-.5768-.1771c-.6952-.9424-1.8279-.5929-2.7674-.8186-1.4878-.3572-3.1332-.0977-4.49-1.0355-.3846-.2658-1.0706-.1779-1.6185-.2507a3.5022,3.5022,0,0,1-1.2625-.185c-3.6968-2.32-7.2463-1.1966-10.7837.3228a6.79,6.79,0,0,0-.9334.617l-1.7231-1.2771c-1.8354.9562-.7413,3.59-2.9329,4.0671-.722-.6964-1.39-1.3571-2.0783-2.0009C92.7034,208.3622,92.6707,206.64,94.5173,205.99Zm51.4979.8265c.4324.2391.9.4265,1.3582.6279-.003.0377.0012.0723-.0034.1105-.0038.0044.08-.0772.08-.0772l-.0766-.0333a1.0916,1.0916,0,0,0-.7893-1.3088.7.7,0,0,0-.5583.1951C145.9313,206.4342,145.9308,206.77,146.0152,206.8163Zm-30.9048.0224a1.2371,1.2371,0,0,0,.0625.2677c.0292.0885.0631.1767.0914.2653l0,0c.0932-.0566.27-.1227.2633-.1672a3.2548,3.2548,0,0,0-.1727-.5536C115.2692,206.7137,115.1051,206.783,115.11,206.8387Z"/><path class="cls-3" d="M14.9478,196.1807c1.29-1.2682,2.6569-2.4736,4.0018-3.6962a4.2654,4.2654,0,0,1,2.7662-.9278c2.6863-.1679,5.122.83,7.3683,1.7616a69.4327,69.4327,0,0,1,7.4331,3.2526,2.1,2.1,0,0,0,1.5685.2506c1.171-.6343,1.789.2147,2.57.61.2236-.2432.42-.4568.616-.6708.21.1643.3883.3032.5458.42a2.1209,2.1209,0,0,0,1.1521.5324c.0143.0012.0262.0054.0406.0062a2.8919,2.8919,0,0,0,.3649-.0041c.27-.018.6007-.0638,1.0419-.1241a3.094,3.094,0,0,1,1.2988-.0369c1.9632.66,3.8247-.0473,5.5718-.53a44.0857,44.0857,0,0,1,7.1-1.5647,6.9594,6.9594,0,0,0,1.9033-.54,35.4077,35.4077,0,0,0,4.8155-2.1639c1.7711-1.0792,4.1276-2.0044,3.1987-4.6624-.0267-.0766.0638-.1908.11-.2832.5835-1.16-.1575-1.8821-1.2208-2.0124-1.016-.1245-.89-1.0931-1.76-1.3119l-3.07,1.2615c.5063,2.0394-1.4094,3.0181-2.1052,4.485l-1.5284-.4822a8.8444,8.8444,0,0,1-2.4211,1.5823c-2.2135.5673-4.6247.528-6.5841,1.8453-2.4961-.5017-4.8118.6636-7.3283.5927a19.67,19.67,0,0,1-7.1326-1.3008c-1.9434-.8022-3.8861-1.611-5.8653-2.3364-1.1325-.4152-2.3909-.5639-3.4993-1.0177-2.5149-1.0293-5.0625-.7151-7.5971-.26a4.6491,4.6491,0,0,0-2.3724,1.09c-1.8891,1.9364-4.5241,3.4288-4.9624,6.5184.3264.4116.7647.9637,1.1674,1.4714A4.4631,4.4631,0,0,0,14.9478,196.1807Z"/><path class="cls-7" d="M-42.4381,41.2079c1.29-1.2682,2.6569-2.4736,4.0018-3.6962a4.2655,4.2655,0,0,1,2.7663-.9278c2.6862-.1679,5.1219.83,7.3682,1.7616a69.4327,69.4327,0,0,1,7.4331,3.2526,2.1,2.1,0,0,0,1.5685.2506c1.171-.6343,1.789.2147,2.57.6095.2236-.2432.42-.4568.616-.6707.21.1643.3883.3031.5458.42a2.1209,2.1209,0,0,0,1.1521.5324c.0143.0012.0262.0054.0406.0062a2.8731,2.8731,0,0,0,.3649-.0041c.27-.018.6008-.0637,1.0419-.1241a3.094,3.094,0,0,1,1.2988-.0369c1.9633.66,3.8248-.0473,5.5718-.5295a44.0857,44.0857,0,0,1,7.1-1.5647A6.9594,6.9594,0,0,0,2.905,39.947a35.4072,35.4072,0,0,0,4.8155-2.1638c1.7711-1.0793,4.1276-2.0045,3.1988-4.6625-.0268-.0766.0637-.1908.11-.2832.5835-1.16-.1575-1.8821-1.2208-2.0123-1.016-.1246-.89-1.0932-1.7595-1.312l-3.07,1.2615c.5063,2.04-1.4094,3.0181-2.1052,4.485l-1.5284-.4821A8.844,8.844,0,0,1-1.0757,36.36c-2.2134.5673-4.6247.528-6.5841,1.8453-2.4961-.5017-4.8117.6636-7.3283.5927a19.67,19.67,0,0,1-7.1326-1.3008c-1.9434-.8022-3.8861-1.611-5.8653-2.3364-1.1325-.4151-2.3909-.5639-3.4993-1.0176-2.5149-1.0294-5.0625-.7152-7.597-.26a4.6491,4.6491,0,0,0-2.3725,1.09c-1.8891,1.9364-4.5241,3.4288-4.9624,6.5184.3264.4116.7647.9637,1.1674,1.4714A4.4631,4.4631,0,0,0-42.4381,41.2079Z"/><path class="cls-4" d="M-40.0848,146.1069c1.29-1.2682,2.6569-2.4736,4.0018-3.6962a4.2655,4.2655,0,0,1,2.7663-.9278c2.6862-.1679,5.1219.83,7.3682,1.7616a69.4327,69.4327,0,0,1,7.4331,3.2526,2.1,2.1,0,0,0,1.5685.2506c1.171-.6343,1.789.2147,2.57.6095.2236-.2432.42-.4568.616-.6708.21.1643.3883.3032.5458.42a2.1209,2.1209,0,0,0,1.1521.5324c.0143.0012.0262.0054.0406.0062a2.8919,2.8919,0,0,0,.3649-.0041c.27-.018.6007-.0638,1.0419-.1241a3.094,3.094,0,0,1,1.2988-.0369c1.9632.66,3.8247-.0473,5.5718-.53a44.0857,44.0857,0,0,1,7.1-1.5647,6.9594,6.9594,0,0,0,1.9033-.54,35.4077,35.4077,0,0,0,4.8155-2.1639c1.7711-1.0792,4.1276-2.0044,3.1988-4.6624-.0268-.0766.0637-.1908.11-.2832.5835-1.16-.1575-1.8821-1.2208-2.0124-1.016-.1245-.89-1.0931-1.76-1.3119l-3.07,1.2615c.5063,2.0394-1.4094,3.0181-2.1052,4.485l-1.5284-.4822a8.8444,8.8444,0,0,1-2.4211,1.5823c-2.2135.5673-4.6247.528-6.5841,1.8453-2.4961-.5017-4.8117.6636-7.3283.5927a19.67,19.67,0,0,1-7.1326-1.3008c-1.9434-.8022-3.8861-1.611-5.8653-2.3364-1.1325-.4152-2.3909-.5639-3.4993-1.0177-2.5149-1.0293-5.0625-.7151-7.597-.26a4.6491,4.6491,0,0,0-2.3725,1.09c-1.8891,1.9364-4.5241,3.4288-4.9624,6.5184.3264.4116.7647.9637,1.1674,1.4714A4.4631,4.4631,0,0,0-40.0848,146.1069Z"/><path class="cls-7" d="M-47.6647,255.6529c1.29-1.2682,2.6569-2.4736,4.0018-3.6962a4.2657,4.2657,0,0,1,2.7663-.9278c2.6862-.1679,5.1219.83,7.3682,1.7617a69.3926,69.3926,0,0,1,7.4331,3.2526,2.1,2.1,0,0,0,1.5685.25c1.171-.6343,1.789.2147,2.57.61.2235-.2432.42-.4567.616-.6707.21.1643.3882.3031.5457.42a2.1215,2.1215,0,0,0,1.1521.5324c.0143.0012.0262.0054.0407.0063a2.8934,2.8934,0,0,0,.3649-.0042c.27-.0179.6007-.0637,1.0418-.1241a3.0944,3.0944,0,0,1,1.2989-.0369c1.9632.66,3.8247-.0473,5.5718-.5295a44.081,44.081,0,0,1,7.1-1.5647,6.9562,6.9562,0,0,0,1.9032-.54,35.4072,35.4072,0,0,0,4.8155-2.1638c1.7711-1.0793,4.1277-2.0044,3.1988-4.6625-.0267-.0766.0638-.1908.11-.2832.5834-1.16-.1575-1.8821-1.2209-2.0123-1.016-.1246-.89-1.0932-1.7595-1.312l-3.07,1.2615c.5063,2.04-1.4093,3.0181-2.1052,4.485l-1.5283-.4821a8.846,8.846,0,0,1-2.4212,1.5822c-2.2134.5673-4.6247.528-6.5841,1.8453-2.496-.5017-4.8117.6636-7.3282.5927a19.6713,19.6713,0,0,1-7.1326-1.3007c-1.9435-.8023-3.8861-1.6111-5.8653-2.3365-1.1325-.4151-2.3909-.5639-3.4994-1.0176-2.5149-1.0294-5.0625-.7152-7.597-.26a4.6491,4.6491,0,0,0-2.3725,1.09c-1.8891,1.9364-4.524,3.4288-4.9624,6.5184.3265.4116.7647.9637,1.1674,1.4714A4.4631,4.4631,0,0,0-47.6647,255.6529Z"/></pattern></defs><g class="cls-9"><g id="uni"><path class="cls-10" d="M42.3362,2.7348h-6.25a2.8148,2.8148,0,0,0,.7593-1.3939A.5051.5051,0,0,0,36.3509.74h-7.479a7.98,7.98,0,0,0-7.98,7.98h-7.98a5.945,5.945,0,0,0-4.4885,2.0641v-.0692A5.4917,5.4917,0,0,0,2.9382,16.2v3.4911a.9971.9971,0,0,0,.9974.9974h.9975a.9971.9971,0,0,0,.9974-.9974V16.2a2.45,2.45,0,0,1,1.0461-1.975c-.0131.1609-.0486.3149-.0486.4788a5.95,5.95,0,0,0,1.9039,4.3564L7.2285,23.3371a3.9862,3.9862,0,0,0-.1347,2.3684L8.643,31.9027a.9963.9963,0,0,0,.9669.7556h4.112a.9971.9971,0,0,0,.9675-1.2393l-1.64-6.562,1.4862-3.9642,6.3612,1.392v9.3761a.9972.9972,0,0,0,.9975.9974h3.99a.9971.9971,0,0,0,.9974-.9974V20.5779a6.9536,6.9536,0,0,0,1.9949-4.8762c0-.0137-.0043-.0262-.005-.04V9.2737l.9975.4433,1.1782,2.35a1.9944,1.9944,0,0,0,2.5242.9582L35.6,12.2137a1.9947,1.9947,0,0,0,1.2543-1.854l-.0031-4.4268L42.613,3.6481A.4985.4985,0,0,0,42.3362,2.7348Zm-9.4745,3.99a.9975.9975,0,1,1,.9974-.9974A.9972.9972,0,0,1,32.8617,6.7246Z"/><path class="cls-11" d="M36.8527,5.9386l5.7616-2.2848a.4985.4985,0,0,0-.2768-.9133h-6.25"/><path class="cls-12" d="M42.2354,2.7649h-6.25A2.8148,2.8148,0,0,0,36.745,1.371.5051.5051,0,0,0,36.25.77h-7.479a7.98,7.98,0,0,0-7.98,7.98h-7.98a5.945,5.945,0,0,0-4.4885,2.0641v-.0692a5.4917,5.4917,0,0,0-5.486,5.486v3.4911a.9971.9971,0,0,0,.9974.9974h.9975a.9971.9971,0,0,0,.9974-.9974V16.2305a2.45,2.45,0,0,1,1.0461-1.9749c-.0131.1608-.0486.3148-.0486.4787a5.95,5.95,0,0,0,1.9039,4.3564L7.1277,23.3673a3.9859,3.9859,0,0,0-.1347,2.3683l1.5492,6.1972a.9962.9962,0,0,0,.9669.7556h4.112a.9971.9971,0,0,0,.9675-1.2393l-1.64-6.562,1.4862-3.9642,6.3612,1.392V31.691a.9972.9972,0,0,0,.9975.9974h3.99a.9971.9971,0,0,0,.9974-.9974V20.6081a6.954,6.954,0,0,0,1.9949-4.8763c0-.0137-.0043-.0262-.005-.04V9.3038l.9975.4433,1.1782,2.35a1.9944,1.9944,0,0,0,2.5242.9582L35.5,12.2438a1.9947,1.9947,0,0,0,1.2543-1.854L36.7507,5.963l5.7615-2.2848A.4985.4985,0,0,0,42.2354,2.7649Z"/></g><g id="Layer_1_copy" data-name="Layer 1 copy"><path class="cls-13" d="M26.8813,31.6609V30.0922c-.5458-.0811-5.8305-.3887-5.9847-.395v1.0643l.002-.0017c.0222.003-.004.0065.0182.0094,0,.0259-.0055-.02,0,.0052-.0256.0032.0048.0782-.02.0834v.8031a.9972.9972,0,0,0,.9975.9974h3.0626q.5658-.0084,1.1315-.0211A.9972.9972,0,0,0,26.8813,31.6609Z"/><path class="cls-13" d="M14.6894,31.419l-.6713-2.6858a.245.245,0,0,0-.1193.1224c-.0266.0593-5.4025,1.4938-5.6436,1.496l.3878,1.5511a.9963.9963,0,0,0,.9669.7556h4.112A.9971.9971,0,0,0,14.6894,31.419Z"/></g></g></svg>