<?xml version="1.0" encoding="utf-8"?><svg xmlns="http://www.w3.org/2000/svg" width="1035" height="990" preserveAspectRatio="xMidYMid meet" viewBox="0 0 1035 990"><defs><style>.cls-1{fill:#333;}.cls-2{fill:#efefef;}.cls-3{fill:#f60;}</style></defs><g id="Layer_16" data-name="Layer 16"><path class="cls-1" d="M519.3812,13C298.473,13,118.1829,193.3026,118.1829,414.1983c0,220.9083,180.3026,401.1984,401.1983,401.1984,220.9083,0,401.1984-180.3026,401.1984-401.1984C920.58,193.29,740.2769,13,519.3812,13ZM399.7082,80.9442c-27.526,34.9967-47.5295,78.265-61.3709,120.2184H236.6947A355.8051,355.8051,0,0,1,399.7082,80.9442ZM206.6961,248.1781H324.9478c-10.6232,44.5169-16.8944,92.8427-18.4,142.6134H166.0849A351.925,351.925,0,0,1,206.6961,248.1781ZM206.6534,580.42A351.5949,351.5949,0,0,1,165.9976,437.807H306.6145c1.5076,49.8253,7.7857,98.0475,18.4206,142.6134Zm30.0413,47.0155H338.3358c13.8382,41.9424,33.8417,85.217,61.3724,120.2184A355.8065,355.8065,0,0,1,236.6947,627.4359Zm258.971,137.0562c-52.4864-17.6433-88.6742-85.0258-107.7876-137.0562H495.6657Zm0-184.0717h-122.42c-11.4248-43.9359-18.195-92.2819-19.8045-142.6134H495.6657Zm0-189.6289H353.4409c1.6111-50.3316,8.3813-98.6775,19.8045-142.6134h122.42Zm0-189.6289H387.8781C406.99,149.1338,443.1793,81.75,495.6657,64.1064Zm336.4434,47.0155a351.5689,351.5689,0,0,1,40.6558,142.6134H732.148c-1.5077-49.8254-7.7858-98.0475-18.4207-142.6134Zm-30.0413-47.0155H700.4267c-13.8382-41.9424-33.8417-85.217-61.3724-120.2184A355.8051,355.8051,0,0,1,802.0678,201.1626ZM542.6811,64.1064c52.4865,17.6433,88.6743,85.0258,107.7876,137.0562H542.6811Zm0,184.0717h122.42c11.4247,43.9359,18.1949,92.2818,19.8044,142.6134H542.6811Zm0,189.6289H684.75c-1.6094,50.2763-8.3721,98.7257-19.7828,142.6134H542.6811Zm0,326.8418V627.4359H650.4687C631.357,679.4647,595.1676,747.0055,542.6811,764.6488Zm96.3732-16.8378c27.526-34.9967,47.5295-78.4233,61.3724-120.3751H802.0678A356.12,356.12,0,0,1,639.0543,747.811ZM832.0664,580.42H713.8147c10.6232-44.517,16.8944-92.8428,18.4-142.6134H872.6776A351.9266,351.9266,0,0,1,832.0664,580.42Z"/></g><g id="Layer_10_copy" data-name="Layer 10 copy"><rect class="cls-2" x="66.2375" y="605.2433" width="902.6963" height="328.9652" rx="39.1625"/><path class="cls-1" d="M929.7715,976H105.4A81.0456,81.0456,0,0,1,24.446,895.0463V644.4055A81.0456,81.0456,0,0,1,105.4,563.4518H929.7715a81.0452,81.0452,0,0,1,80.9537,80.9537V895.0463A81.0452,81.0452,0,0,1,929.7715,976ZM108.0289,892.417H927.1422V647.0348H108.0289Z"/></g><g id="Layer_10_copy_2" data-name="Layer 10 copy 2"><rect class="cls-2" x="66.2375" y="605.2433" width="902.6963" height="328.9652" rx="39.1625"/></g><g id="Layer_2" data-name="Layer 2"><path class="cls-3" d="M301.2126,838.2681c-.0235,1.9738-3.5011,2.3263-3.8536.3055L281.24,742.0458a51.2134,51.2134,0,0,0-101.0393,0l-16.1193,96.5513c-.3524,1.9973-3.8771,1.6448-3.8536-.329v-186.03H128.336a15.1035,15.1035,0,0,0-15.1035,15.1035V838.2681a48.9381,48.9381,0,0,0,97.2092,8.06l16.1194-96.5514c.6814-4.0885,7.66-4.0885,8.3416,0l16.1193,96.5278a48.9233,48.9233,0,0,0,97.1857-8.0361v-186.03h-46.995Z"/></g><g id="Layer_2_copy" data-name="Layer 2 copy"><path class="cls-3" d="M583.1828,838.2681c-.0235,1.9738-3.5011,2.3263-3.8536.3055L563.21,742.0458a51.2134,51.2134,0,0,0-101.0393,0l-16.1193,96.5513c-.3524,1.9973-3.8771,1.6448-3.8536-.329v-186.03h-46.995v186.03a48.9381,48.9381,0,0,0,97.2092,8.06l16.1194-96.5514c.6814-4.0885,7.66-4.0885,8.3416,0l16.1193,96.5278a48.9233,48.9233,0,0,0,97.1857-8.0361v-186.03h-46.995Z"/></g><g id="Layer_2_copy_2" data-name="Layer 2 copy 2"><path class="cls-3" d="M867.1111,838.2681c-.0234,1.9738-3.5011,2.3263-3.8535.3055l-16.1194-96.5278a51.2134,51.2134,0,0,0-101.0393,0L729.98,838.5971c-.3524,1.9973-3.8771,1.6448-3.8536-.329v-186.03H679.131v186.03a48.9382,48.9382,0,0,0,97.2093,8.06L792.46,749.7764c.6814-4.0885,7.66-4.0885,8.3416,0l16.1193,96.5278a48.9233,48.9233,0,0,0,97.1857-8.0361V665.703a13.4647,13.4647,0,0,0-13.4647-13.4648h-33.53Z"/></g></svg>